G04 #@! TF.GenerationSoftware,KiCad,Pcbnew,5.1.5-52549c5~86~ubuntu18.04.1*
G04 #@! TF.CreationDate,2020-05-25T12:27:11-05:00*
G04 #@! TF.ProjectId,AICE,41494345-2e6b-4696-9361-645f70636258,rev?*
G04 #@! TF.SameCoordinates,Original*
G04 #@! TF.FileFunction,Other,Comment*
%FSLAX46Y46*%
G04 Gerber Fmt 4.6, Leading zero omitted, Abs format (unit mm)*
G04 Created by KiCad (PCBNEW 5.1.5-52549c5~86~ubuntu18.04.1) date 2020-05-25 12:27:11*
%MOMM*%
%LPD*%
G04 APERTURE LIST*
%ADD10C,0.100000*%
%ADD11C,0.150000*%
%ADD12C,0.060000*%
G04 APERTURE END LIST*
D10*
X87420000Y-71190000D02*
X84770000Y-71190000D01*
X97420000Y-71590000D02*
X97420000Y-71190000D01*
X97420000Y-71190000D02*
X100070000Y-71190000D01*
X97420000Y-71590000D02*
X87420000Y-71590000D01*
X100070000Y-71190000D02*
X100070000Y-69860000D01*
X84770000Y-71190000D02*
X84770000Y-69860000D01*
X87420000Y-71590000D02*
X87420000Y-71190000D01*
D11*
X39780000Y-144800000D02*
G75*
G03X39780000Y-144800000I-2500000J0D01*
G01*
X39666000Y-67652000D02*
G75*
G03X39666000Y-67652000I-2500000J0D01*
G01*
X121450000Y-144450000D02*
G75*
G03X121450000Y-144450000I-2500000J0D01*
G01*
X120850000Y-67690000D02*
G75*
G03X120850000Y-67690000I-2500000J0D01*
G01*
D12*
X88574761Y-70936190D02*
X88336666Y-70936190D01*
X88336666Y-70436190D01*
X88812857Y-70936190D02*
X88765238Y-70912380D01*
X88741428Y-70888571D01*
X88717619Y-70840952D01*
X88717619Y-70698095D01*
X88741428Y-70650476D01*
X88765238Y-70626666D01*
X88812857Y-70602857D01*
X88884285Y-70602857D01*
X88931904Y-70626666D01*
X88955714Y-70650476D01*
X88979523Y-70698095D01*
X88979523Y-70840952D01*
X88955714Y-70888571D01*
X88931904Y-70912380D01*
X88884285Y-70936190D01*
X88812857Y-70936190D01*
X89408095Y-70912380D02*
X89360476Y-70936190D01*
X89265238Y-70936190D01*
X89217619Y-70912380D01*
X89193809Y-70888571D01*
X89170000Y-70840952D01*
X89170000Y-70698095D01*
X89193809Y-70650476D01*
X89217619Y-70626666D01*
X89265238Y-70602857D01*
X89360476Y-70602857D01*
X89408095Y-70626666D01*
X89622380Y-70936190D02*
X89622380Y-70436190D01*
X89670000Y-70745714D02*
X89812857Y-70936190D01*
X89812857Y-70602857D02*
X89622380Y-70793333D01*
X90622380Y-70936190D02*
X90622380Y-70674285D01*
X90598571Y-70626666D01*
X90550952Y-70602857D01*
X90455714Y-70602857D01*
X90408095Y-70626666D01*
X90622380Y-70912380D02*
X90574761Y-70936190D01*
X90455714Y-70936190D01*
X90408095Y-70912380D01*
X90384285Y-70864761D01*
X90384285Y-70817142D01*
X90408095Y-70769523D01*
X90455714Y-70745714D01*
X90574761Y-70745714D01*
X90622380Y-70721904D01*
X90789047Y-70602857D02*
X90979523Y-70602857D01*
X90860476Y-70436190D02*
X90860476Y-70864761D01*
X90884285Y-70912380D01*
X90931904Y-70936190D01*
X90979523Y-70936190D01*
X91527142Y-70936190D02*
X91527142Y-70436190D01*
X91741428Y-70936190D02*
X91741428Y-70674285D01*
X91717619Y-70626666D01*
X91670000Y-70602857D01*
X91598571Y-70602857D01*
X91550952Y-70626666D01*
X91527142Y-70650476D01*
X92170000Y-70912380D02*
X92122380Y-70936190D01*
X92027142Y-70936190D01*
X91979523Y-70912380D01*
X91955714Y-70864761D01*
X91955714Y-70674285D01*
X91979523Y-70626666D01*
X92027142Y-70602857D01*
X92122380Y-70602857D01*
X92170000Y-70626666D01*
X92193809Y-70674285D01*
X92193809Y-70721904D01*
X91955714Y-70769523D01*
X92408095Y-70936190D02*
X92408095Y-70602857D01*
X92408095Y-70436190D02*
X92384285Y-70460000D01*
X92408095Y-70483809D01*
X92431904Y-70460000D01*
X92408095Y-70436190D01*
X92408095Y-70483809D01*
X92860476Y-70602857D02*
X92860476Y-71007619D01*
X92836666Y-71055238D01*
X92812857Y-71079047D01*
X92765238Y-71102857D01*
X92693809Y-71102857D01*
X92646190Y-71079047D01*
X92860476Y-70912380D02*
X92812857Y-70936190D01*
X92717619Y-70936190D01*
X92670000Y-70912380D01*
X92646190Y-70888571D01*
X92622380Y-70840952D01*
X92622380Y-70698095D01*
X92646190Y-70650476D01*
X92670000Y-70626666D01*
X92717619Y-70602857D01*
X92812857Y-70602857D01*
X92860476Y-70626666D01*
X93098571Y-70936190D02*
X93098571Y-70436190D01*
X93312857Y-70936190D02*
X93312857Y-70674285D01*
X93289047Y-70626666D01*
X93241428Y-70602857D01*
X93170000Y-70602857D01*
X93122380Y-70626666D01*
X93098571Y-70650476D01*
X93479523Y-70602857D02*
X93670000Y-70602857D01*
X93550952Y-70436190D02*
X93550952Y-70864761D01*
X93574761Y-70912380D01*
X93622380Y-70936190D01*
X93670000Y-70936190D01*
X94193809Y-70483809D02*
X94217619Y-70460000D01*
X94265238Y-70436190D01*
X94384285Y-70436190D01*
X94431904Y-70460000D01*
X94455714Y-70483809D01*
X94479523Y-70531428D01*
X94479523Y-70579047D01*
X94455714Y-70650476D01*
X94170000Y-70936190D01*
X94479523Y-70936190D01*
X94693809Y-70888571D02*
X94717619Y-70912380D01*
X94693809Y-70936190D01*
X94670000Y-70912380D01*
X94693809Y-70888571D01*
X94693809Y-70936190D01*
X95146190Y-70602857D02*
X95146190Y-70936190D01*
X95027142Y-70412380D02*
X94908095Y-70769523D01*
X95217619Y-70769523D01*
X95408095Y-70936190D02*
X95408095Y-70602857D01*
X95408095Y-70650476D02*
X95431904Y-70626666D01*
X95479523Y-70602857D01*
X95550952Y-70602857D01*
X95598571Y-70626666D01*
X95622380Y-70674285D01*
X95622380Y-70936190D01*
X95622380Y-70674285D02*
X95646190Y-70626666D01*
X95693809Y-70602857D01*
X95765238Y-70602857D01*
X95812857Y-70626666D01*
X95836666Y-70674285D01*
X95836666Y-70936190D01*
X96074761Y-70936190D02*
X96074761Y-70602857D01*
X96074761Y-70650476D02*
X96098571Y-70626666D01*
X96146190Y-70602857D01*
X96217619Y-70602857D01*
X96265238Y-70626666D01*
X96289047Y-70674285D01*
X96289047Y-70936190D01*
X96289047Y-70674285D02*
X96312857Y-70626666D01*
X96360476Y-70602857D01*
X96431904Y-70602857D01*
X96479523Y-70626666D01*
X96503333Y-70674285D01*
X96503333Y-70936190D01*
D11*
X76706001Y-156124141D02*
X76848859Y-156171760D01*
X77086954Y-156171760D01*
X77182192Y-156124141D01*
X77229811Y-156076522D01*
X77277430Y-155981284D01*
X77277430Y-155886046D01*
X77229811Y-155790808D01*
X77182192Y-155743189D01*
X77086954Y-155695570D01*
X76896478Y-155647951D01*
X76801240Y-155600332D01*
X76753620Y-155552713D01*
X76706001Y-155457475D01*
X76706001Y-155362237D01*
X76753620Y-155266999D01*
X76801240Y-155219380D01*
X76896478Y-155171760D01*
X77134573Y-155171760D01*
X77277430Y-155219380D01*
X77706001Y-156171760D02*
X77706001Y-155171760D01*
X77944097Y-155171760D01*
X78086954Y-155219380D01*
X78182192Y-155314618D01*
X78229811Y-155409856D01*
X78277430Y-155600332D01*
X78277430Y-155743189D01*
X78229811Y-155933665D01*
X78182192Y-156028903D01*
X78086954Y-156124141D01*
X77944097Y-156171760D01*
X77706001Y-156171760D01*
X80039335Y-156076522D02*
X79991716Y-156124141D01*
X79848859Y-156171760D01*
X79753620Y-156171760D01*
X79610763Y-156124141D01*
X79515525Y-156028903D01*
X79467906Y-155933665D01*
X79420287Y-155743189D01*
X79420287Y-155600332D01*
X79467906Y-155409856D01*
X79515525Y-155314618D01*
X79610763Y-155219380D01*
X79753620Y-155171760D01*
X79848859Y-155171760D01*
X79991716Y-155219380D01*
X80039335Y-155266999D01*
X80420287Y-155886046D02*
X80896478Y-155886046D01*
X80325049Y-156171760D02*
X80658382Y-155171760D01*
X80991716Y-156171760D01*
X81896478Y-156171760D02*
X81563144Y-155695570D01*
X81325049Y-156171760D02*
X81325049Y-155171760D01*
X81706001Y-155171760D01*
X81801240Y-155219380D01*
X81848859Y-155266999D01*
X81896478Y-155362237D01*
X81896478Y-155505094D01*
X81848859Y-155600332D01*
X81801240Y-155647951D01*
X81706001Y-155695570D01*
X81325049Y-155695570D01*
X82325049Y-156171760D02*
X82325049Y-155171760D01*
X82563144Y-155171760D01*
X82706001Y-155219380D01*
X82801240Y-155314618D01*
X82848859Y-155409856D01*
X82896478Y-155600332D01*
X82896478Y-155743189D01*
X82848859Y-155933665D01*
X82801240Y-156028903D01*
X82706001Y-156124141D01*
X82563144Y-156171760D01*
X82325049Y-156171760D01*
M02*
