G04 #@! TF.GenerationSoftware,KiCad,Pcbnew,5.1.5-52549c5~86~ubuntu18.04.1*
G04 #@! TF.CreationDate,2020-05-25T12:27:11-05:00*
G04 #@! TF.ProjectId,AICE,41494345-2e6b-4696-9361-645f70636258,rev?*
G04 #@! TF.SameCoordinates,Original*
G04 #@! TF.FileFunction,Other,User*
%FSLAX46Y46*%
G04 Gerber Fmt 4.6, Leading zero omitted, Abs format (unit mm)*
G04 Created by KiCad (PCBNEW 5.1.5-52549c5~86~ubuntu18.04.1) date 2020-05-25 12:27:11*
%MOMM*%
%LPD*%
G04 APERTURE LIST*
%ADD10C,0.050000*%
G04 APERTURE END LIST*
D10*
X75162640Y-80719800D02*
X76622640Y-80719800D01*
X76622640Y-80719800D02*
X76622640Y-77759800D01*
X76622640Y-77759800D02*
X75162640Y-77759800D01*
X75162640Y-77759800D02*
X75162640Y-80719800D01*
X46430000Y-88428000D02*
X46430000Y-96528000D01*
X46430000Y-88428000D02*
X57330000Y-88428000D01*
X57330000Y-96528000D02*
X46430000Y-96528000D01*
X57330000Y-96528000D02*
X57330000Y-88428000D01*
X86419440Y-77740060D02*
X84959440Y-77740060D01*
X84959440Y-77740060D02*
X84959440Y-80700060D01*
X84959440Y-80700060D02*
X86419440Y-80700060D01*
X86419440Y-80700060D02*
X86419440Y-77740060D01*
X87956140Y-77745140D02*
X86496140Y-77745140D01*
X86496140Y-77745140D02*
X86496140Y-80705140D01*
X86496140Y-80705140D02*
X87956140Y-80705140D01*
X87956140Y-80705140D02*
X87956140Y-77745140D01*
X50146000Y-80520000D02*
X53106000Y-80520000D01*
X50146000Y-79060000D02*
X50146000Y-80520000D01*
X53106000Y-79060000D02*
X50146000Y-79060000D01*
X53106000Y-80520000D02*
X53106000Y-79060000D01*
X98230000Y-107530000D02*
X98230000Y-104570000D01*
X96770000Y-107530000D02*
X98230000Y-107530000D01*
X96770000Y-104570000D02*
X96770000Y-107530000D01*
X98230000Y-104570000D02*
X96770000Y-104570000D01*
X57258000Y-80520000D02*
X60218000Y-80520000D01*
X57258000Y-79060000D02*
X57258000Y-80520000D01*
X60218000Y-79060000D02*
X57258000Y-79060000D01*
X60218000Y-80520000D02*
X60218000Y-79060000D01*
X55425000Y-85338000D02*
X52465000Y-85338000D01*
X55425000Y-86798000D02*
X55425000Y-85338000D01*
X52465000Y-86798000D02*
X55425000Y-86798000D01*
X52465000Y-85338000D02*
X52465000Y-86798000D01*
X51925000Y-85378000D02*
X48965000Y-85378000D01*
X51925000Y-86838000D02*
X51925000Y-85378000D01*
X48965000Y-86838000D02*
X51925000Y-86838000D01*
X48965000Y-85378000D02*
X48965000Y-86838000D01*
X41566000Y-91526000D02*
X44526000Y-91526000D01*
X41566000Y-90066000D02*
X41566000Y-91526000D01*
X44526000Y-90066000D02*
X41566000Y-90066000D01*
X44526000Y-91526000D02*
X44526000Y-90066000D01*
X41566000Y-89956000D02*
X44526000Y-89956000D01*
X41566000Y-88496000D02*
X41566000Y-89956000D01*
X44526000Y-88496000D02*
X41566000Y-88496000D01*
X44526000Y-89956000D02*
X44526000Y-88496000D01*
X42514000Y-80644000D02*
X45474000Y-80644000D01*
X42514000Y-79184000D02*
X42514000Y-80644000D01*
X45474000Y-79184000D02*
X42514000Y-79184000D01*
X45474000Y-80644000D02*
X45474000Y-79184000D01*
X44914000Y-99854000D02*
X41954000Y-99854000D01*
X44914000Y-101314000D02*
X44914000Y-99854000D01*
X41954000Y-101314000D02*
X44914000Y-101314000D01*
X41954000Y-99854000D02*
X41954000Y-101314000D01*
X54908000Y-117824000D02*
X57868000Y-117824000D01*
X54908000Y-116364000D02*
X54908000Y-117824000D01*
X57868000Y-116364000D02*
X54908000Y-116364000D01*
X57868000Y-117824000D02*
X57868000Y-116364000D01*
X115780000Y-131460000D02*
X112420000Y-131460000D01*
X115780000Y-133360000D02*
X115780000Y-131460000D01*
X112420000Y-133360000D02*
X115780000Y-133360000D01*
X112420000Y-131460000D02*
X112420000Y-133360000D01*
X111250000Y-69330000D02*
X114610000Y-69330000D01*
X111250000Y-67430000D02*
X111250000Y-69330000D01*
X114610000Y-67430000D02*
X111250000Y-67430000D01*
X114610000Y-69330000D02*
X114610000Y-67430000D01*
X118630000Y-137150000D02*
X118630000Y-140510000D01*
X120530000Y-137150000D02*
X118630000Y-137150000D01*
X120530000Y-140510000D02*
X120530000Y-137150000D01*
X118630000Y-140510000D02*
X120530000Y-140510000D01*
X43871000Y-66702000D02*
X40511000Y-66702000D01*
X43871000Y-68602000D02*
X43871000Y-66702000D01*
X40511000Y-68602000D02*
X43871000Y-68602000D01*
X40511000Y-66702000D02*
X40511000Y-68602000D01*
X43985000Y-143850000D02*
X40625000Y-143850000D01*
X43985000Y-145750000D02*
X43985000Y-143850000D01*
X40625000Y-145750000D02*
X43985000Y-145750000D01*
X40625000Y-143850000D02*
X40625000Y-145750000D01*
X104528000Y-126484000D02*
X104528000Y-123124000D01*
X102628000Y-126484000D02*
X104528000Y-126484000D01*
X102628000Y-123124000D02*
X102628000Y-126484000D01*
X104528000Y-123124000D02*
X102628000Y-123124000D01*
X105300000Y-124450000D02*
X105300000Y-127950000D01*
X112300000Y-124450000D02*
X105300000Y-124450000D01*
X112300000Y-127950000D02*
X112300000Y-124450000D01*
X105300000Y-127950000D02*
X112300000Y-127950000D01*
X91472000Y-72346000D02*
X92932000Y-72346000D01*
X92932000Y-72346000D02*
X92932000Y-69386000D01*
X92932000Y-69386000D02*
X91472000Y-69386000D01*
X91472000Y-69386000D02*
X91472000Y-72346000D01*
X70699380Y-78424220D02*
X70699380Y-75464220D01*
X69239380Y-78424220D02*
X70699380Y-78424220D01*
X69239380Y-75464220D02*
X69239380Y-78424220D01*
X70699380Y-75464220D02*
X69239380Y-75464220D01*
X85259180Y-65894100D02*
X85259180Y-68854100D01*
X86719180Y-65894100D02*
X85259180Y-65894100D01*
X86719180Y-68854100D02*
X86719180Y-65894100D01*
X85259180Y-68854100D02*
X86719180Y-68854100D01*
X69161700Y-78824880D02*
X69161700Y-75464880D01*
X67261700Y-78824880D02*
X69161700Y-78824880D01*
X67261700Y-75464880D02*
X67261700Y-78824880D01*
X69161700Y-75464880D02*
X67261700Y-75464880D01*
X83299180Y-65498100D02*
X83299180Y-68858100D01*
X85199180Y-65498100D02*
X83299180Y-65498100D01*
X85199180Y-68858100D02*
X85199180Y-65498100D01*
X83299180Y-68858100D02*
X85199180Y-68858100D01*
X65214760Y-78485780D02*
X65214760Y-75525780D01*
X63754760Y-78485780D02*
X65214760Y-78485780D01*
X63754760Y-75525780D02*
X63754760Y-78485780D01*
X65214760Y-75525780D02*
X63754760Y-75525780D01*
X83193180Y-69162100D02*
X83193180Y-66202100D01*
X81733180Y-69162100D02*
X83193180Y-69162100D01*
X81733180Y-66202100D02*
X81733180Y-69162100D01*
X83193180Y-66202100D02*
X81733180Y-66202100D01*
X67164760Y-78885780D02*
X67164760Y-75525780D01*
X65264760Y-78885780D02*
X67164760Y-78885780D01*
X65264760Y-75525780D02*
X65264760Y-78885780D01*
X67164760Y-75525780D02*
X65264760Y-75525780D01*
X81679180Y-69537100D02*
X81679180Y-66177100D01*
X79779180Y-69537100D02*
X81679180Y-69537100D01*
X79779180Y-66177100D02*
X79779180Y-69537100D01*
X81679180Y-66177100D02*
X79779180Y-66177100D01*
X79324460Y-68448180D02*
X79324460Y-65488180D01*
X77864460Y-68448180D02*
X79324460Y-68448180D01*
X77864460Y-65488180D02*
X77864460Y-68448180D01*
X79324460Y-65488180D02*
X77864460Y-65488180D01*
X68214820Y-68511120D02*
X68214820Y-65551120D01*
X66754820Y-68511120D02*
X68214820Y-68511120D01*
X66754820Y-65551120D02*
X66754820Y-68511120D01*
X68214820Y-65551120D02*
X66754820Y-65551120D01*
X77814460Y-68848180D02*
X77814460Y-65488180D01*
X75914460Y-68848180D02*
X77814460Y-68848180D01*
X75914460Y-65488180D02*
X75914460Y-68848180D01*
X77814460Y-65488180D02*
X75914460Y-65488180D01*
X66704820Y-68903620D02*
X66704820Y-65543620D01*
X64804820Y-68903620D02*
X66704820Y-68903620D01*
X64804820Y-65543620D02*
X64804820Y-68903620D01*
X66704820Y-65543620D02*
X64804820Y-65543620D01*
X73904460Y-68448180D02*
X73904460Y-65488180D01*
X72444460Y-68448180D02*
X73904460Y-68448180D01*
X72444460Y-65488180D02*
X72444460Y-68448180D01*
X73904460Y-65488180D02*
X72444460Y-65488180D01*
X62764820Y-68496120D02*
X62764820Y-65536120D01*
X61304820Y-68496120D02*
X62764820Y-68496120D01*
X61304820Y-65536120D02*
X61304820Y-68496120D01*
X62764820Y-65536120D02*
X61304820Y-65536120D01*
X75864460Y-68848180D02*
X75864460Y-65488180D01*
X73964460Y-68848180D02*
X75864460Y-68848180D01*
X73964460Y-65488180D02*
X73964460Y-68848180D01*
X75864460Y-65488180D02*
X73964460Y-65488180D01*
X64734820Y-68896120D02*
X64734820Y-65536120D01*
X62834820Y-68896120D02*
X64734820Y-68896120D01*
X62834820Y-65536120D02*
X62834820Y-68896120D01*
X64734820Y-65536120D02*
X62834820Y-65536120D01*
X44120000Y-129870000D02*
X41160000Y-129870000D01*
X44120000Y-131330000D02*
X44120000Y-129870000D01*
X41160000Y-131330000D02*
X44120000Y-131330000D01*
X41160000Y-129870000D02*
X41160000Y-131330000D01*
X43730000Y-135020000D02*
X40770000Y-135020000D01*
X43730000Y-136480000D02*
X43730000Y-135020000D01*
X40770000Y-136480000D02*
X43730000Y-136480000D01*
X40770000Y-135020000D02*
X40770000Y-136480000D01*
X44505000Y-131380000D02*
X41145000Y-131380000D01*
X44505000Y-133280000D02*
X44505000Y-131380000D01*
X41145000Y-133280000D02*
X44505000Y-133280000D01*
X41145000Y-131380000D02*
X41145000Y-133280000D01*
X44235000Y-136940000D02*
X40875000Y-136940000D01*
X44235000Y-138840000D02*
X44235000Y-136940000D01*
X40875000Y-138840000D02*
X44235000Y-138840000D01*
X40875000Y-136940000D02*
X40875000Y-138840000D01*
X45265000Y-134180000D02*
X48225000Y-134180000D01*
X45265000Y-132720000D02*
X45265000Y-134180000D01*
X48225000Y-132720000D02*
X45265000Y-132720000D01*
X48225000Y-134180000D02*
X48225000Y-132720000D01*
X43840000Y-140810000D02*
X40880000Y-140810000D01*
X43840000Y-142270000D02*
X43840000Y-140810000D01*
X40880000Y-142270000D02*
X43840000Y-142270000D01*
X40880000Y-140810000D02*
X40880000Y-142270000D01*
X45280000Y-132690000D02*
X48640000Y-132690000D01*
X45280000Y-130790000D02*
X45280000Y-132690000D01*
X48640000Y-130790000D02*
X45280000Y-130790000D01*
X48640000Y-132690000D02*
X48640000Y-130790000D01*
X44235000Y-138890000D02*
X40875000Y-138890000D01*
X44235000Y-140790000D02*
X44235000Y-138890000D01*
X40875000Y-140790000D02*
X44235000Y-140790000D01*
X40875000Y-138890000D02*
X40875000Y-140790000D01*
X78282460Y-80739800D02*
X79742460Y-80739800D01*
X79742460Y-80739800D02*
X79742460Y-77779800D01*
X79742460Y-77779800D02*
X78282460Y-77779800D01*
X78282460Y-77779800D02*
X78282460Y-80739800D01*
X76742640Y-80734800D02*
X78202640Y-80734800D01*
X78202640Y-80734800D02*
X78202640Y-77774800D01*
X78202640Y-77774800D02*
X76742640Y-77774800D01*
X76742640Y-77774800D02*
X76742640Y-80734800D01*
X81520000Y-80730000D02*
X82980000Y-80730000D01*
X82980000Y-80730000D02*
X82980000Y-77770000D01*
X82980000Y-77770000D02*
X81520000Y-77770000D01*
X81520000Y-77770000D02*
X81520000Y-80730000D01*
X79835620Y-80747100D02*
X81295620Y-80747100D01*
X81295620Y-80747100D02*
X81295620Y-77787100D01*
X81295620Y-77787100D02*
X79835620Y-77787100D01*
X79835620Y-77787100D02*
X79835620Y-80747100D01*
X89948000Y-72346000D02*
X91408000Y-72346000D01*
X91408000Y-72346000D02*
X91408000Y-69386000D01*
X91408000Y-69386000D02*
X89948000Y-69386000D01*
X89948000Y-69386000D02*
X89948000Y-72346000D01*
X87426000Y-72354000D02*
X88886000Y-72354000D01*
X88886000Y-72354000D02*
X88886000Y-69394000D01*
X88886000Y-69394000D02*
X87426000Y-69394000D01*
X87426000Y-69394000D02*
X87426000Y-72354000D01*
X57258000Y-78996000D02*
X60218000Y-78996000D01*
X57258000Y-77536000D02*
X57258000Y-78996000D01*
X60218000Y-77536000D02*
X57258000Y-77536000D01*
X60218000Y-78996000D02*
X60218000Y-77536000D01*
X108238000Y-122934000D02*
X105278000Y-122934000D01*
X108238000Y-124394000D02*
X108238000Y-122934000D01*
X105278000Y-124394000D02*
X108238000Y-124394000D01*
X105278000Y-122934000D02*
X105278000Y-124394000D01*
X95740500Y-116147620D02*
X98700500Y-116147620D01*
X95740500Y-114687620D02*
X95740500Y-116147620D01*
X98700500Y-114687620D02*
X95740500Y-114687620D01*
X98700500Y-116147620D02*
X98700500Y-114687620D01*
X95720500Y-117677620D02*
X98680500Y-117677620D01*
X95720500Y-116217620D02*
X95720500Y-117677620D01*
X98680500Y-116217620D02*
X95720500Y-116217620D01*
X98680500Y-117677620D02*
X98680500Y-116217620D01*
X42526000Y-78996000D02*
X45486000Y-78996000D01*
X42526000Y-77536000D02*
X42526000Y-78996000D01*
X45486000Y-77536000D02*
X42526000Y-77536000D01*
X45486000Y-78996000D02*
X45486000Y-77536000D01*
X53243000Y-129666000D02*
X56203000Y-129666000D01*
X53243000Y-128206000D02*
X53243000Y-129666000D01*
X56203000Y-128206000D02*
X53243000Y-128206000D01*
X56203000Y-129666000D02*
X56203000Y-128206000D01*
X46346000Y-91386000D02*
X46346000Y-88426000D01*
X44886000Y-91386000D02*
X46346000Y-91386000D01*
X44886000Y-88426000D02*
X44886000Y-91386000D01*
X46346000Y-88426000D02*
X44886000Y-88426000D01*
X58835000Y-85318000D02*
X55875000Y-85318000D01*
X58835000Y-86778000D02*
X58835000Y-85318000D01*
X55875000Y-86778000D02*
X58835000Y-86778000D01*
X55875000Y-85318000D02*
X55875000Y-86778000D01*
X51975000Y-82378000D02*
X49015000Y-82378000D01*
X51975000Y-83838000D02*
X51975000Y-82378000D01*
X49015000Y-83838000D02*
X51975000Y-83838000D01*
X49015000Y-82378000D02*
X49015000Y-83838000D01*
X49690000Y-96668000D02*
X46730000Y-96668000D01*
X49690000Y-98128000D02*
X49690000Y-96668000D01*
X46730000Y-98128000D02*
X49690000Y-98128000D01*
X46730000Y-96668000D02*
X46730000Y-98128000D01*
X44990000Y-98342000D02*
X44990000Y-101302000D01*
X46450000Y-98342000D02*
X44990000Y-98342000D01*
X46450000Y-101302000D02*
X46450000Y-98342000D01*
X44990000Y-101302000D02*
X46450000Y-101302000D01*
X55950000Y-111110000D02*
X58910000Y-111110000D01*
X55950000Y-109650000D02*
X55950000Y-111110000D01*
X58910000Y-109650000D02*
X55950000Y-109650000D01*
X58910000Y-111110000D02*
X58910000Y-109650000D01*
X42704000Y-119424000D02*
X42704000Y-122384000D01*
X44164000Y-119424000D02*
X42704000Y-119424000D01*
X44164000Y-122384000D02*
X44164000Y-119424000D01*
X42704000Y-122384000D02*
X44164000Y-122384000D01*
X48736000Y-105366000D02*
X48736000Y-102406000D01*
X47276000Y-105366000D02*
X48736000Y-105366000D01*
X47276000Y-102406000D02*
X47276000Y-105366000D01*
X48736000Y-102406000D02*
X47276000Y-102406000D01*
X52738000Y-105471000D02*
X54198000Y-105471000D01*
X54198000Y-105471000D02*
X54198000Y-102511000D01*
X54198000Y-102511000D02*
X52738000Y-102511000D01*
X52738000Y-102511000D02*
X52738000Y-105471000D01*
X51158000Y-102496000D02*
X51158000Y-105456000D01*
X52618000Y-102496000D02*
X51158000Y-102496000D01*
X52618000Y-105456000D02*
X52618000Y-102496000D01*
X51158000Y-105456000D02*
X52618000Y-105456000D01*
X49588000Y-102491000D02*
X49588000Y-105451000D01*
X51048000Y-102491000D02*
X49588000Y-102491000D01*
X51048000Y-105451000D02*
X51048000Y-102491000D01*
X49588000Y-105451000D02*
X51048000Y-105451000D01*
X46840000Y-122290000D02*
X46840000Y-119330000D01*
X45380000Y-122290000D02*
X46840000Y-122290000D01*
X45380000Y-119330000D02*
X45380000Y-122290000D01*
X46840000Y-119330000D02*
X45380000Y-119330000D01*
X48390000Y-122315000D02*
X48390000Y-119355000D01*
X46930000Y-122315000D02*
X48390000Y-122315000D01*
X46930000Y-119355000D02*
X46930000Y-122315000D01*
X48390000Y-119355000D02*
X46930000Y-119355000D01*
X49980000Y-122310000D02*
X49980000Y-119350000D01*
X48520000Y-122310000D02*
X49980000Y-122310000D01*
X48520000Y-119350000D02*
X48520000Y-122310000D01*
X49980000Y-119350000D02*
X48520000Y-119350000D01*
X102448000Y-130464000D02*
X102448000Y-127064000D01*
X102448000Y-127064000D02*
X98948000Y-127064000D01*
X98948000Y-127064000D02*
X98948000Y-130464000D01*
X98948000Y-130464000D02*
X102448000Y-130464000D01*
X94830000Y-64000000D02*
X94830000Y-78700000D01*
X94830000Y-64000000D02*
X110990000Y-64000000D01*
X94830000Y-78700000D02*
X110990000Y-78700000D01*
X110990000Y-64000000D02*
X110990000Y-78700000D01*
X48600000Y-87458000D02*
X48600000Y-84058000D01*
X48600000Y-84058000D02*
X45100000Y-84058000D01*
X45100000Y-84058000D02*
X45100000Y-87458000D01*
X45100000Y-87458000D02*
X48600000Y-87458000D01*
X53131500Y-78996000D02*
X53131500Y-77536000D01*
X53131500Y-77536000D02*
X50171500Y-77536000D01*
X50171500Y-77536000D02*
X50171500Y-78996000D01*
X50171500Y-78996000D02*
X53131500Y-78996000D01*
X66380000Y-129330000D02*
X66380000Y-127870000D01*
X66380000Y-127870000D02*
X63420000Y-127870000D01*
X63420000Y-127870000D02*
X63420000Y-129330000D01*
X63420000Y-129330000D02*
X66380000Y-129330000D01*
M02*
