G04 #@! TF.GenerationSoftware,KiCad,Pcbnew,5.1.5-52549c5~86~ubuntu18.04.1*
G04 #@! TF.CreationDate,2020-05-25T12:27:11-05:00*
G04 #@! TF.ProjectId,AICE,41494345-2e6b-4696-9361-645f70636258,rev?*
G04 #@! TF.SameCoordinates,Original*
G04 #@! TF.FileFunction,Other,Fab,Top*
%FSLAX46Y46*%
G04 Gerber Fmt 4.6, Leading zero omitted, Abs format (unit mm)*
G04 Created by KiCad (PCBNEW 5.1.5-52549c5~86~ubuntu18.04.1) date 2020-05-25 12:27:11*
%MOMM*%
%LPD*%
G04 APERTURE LIST*
%ADD10C,0.100000*%
%ADD11C,0.150000*%
%ADD12C,0.075000*%
%ADD13C,0.060000*%
%ADD14C,0.080000*%
%ADD15C,0.120000*%
G04 APERTURE END LIST*
D10*
X106816395Y-127962500D02*
X106816395Y-128462500D01*
X106566395Y-128212500D02*
X107066395Y-128212500D01*
X111200000Y-129300000D02*
G75*
G03X111200000Y-129300000I-2500000J0D01*
G01*
X43210000Y-130930000D02*
X41810000Y-130930000D01*
X41810000Y-133970000D02*
X41810000Y-130930000D01*
X43210000Y-133400000D02*
X42660000Y-133970000D01*
X42660000Y-133970000D02*
X41810000Y-133970000D01*
X43210000Y-133400000D02*
X43210000Y-130950000D01*
X98170000Y-69460000D02*
X97870000Y-69860000D01*
X98470000Y-69860000D02*
X98170000Y-69460000D01*
X100070000Y-69860000D02*
X100070000Y-65560000D01*
X84770000Y-69860000D02*
X84770000Y-65560000D01*
X100070000Y-65560000D02*
X84770000Y-65560000D01*
X100070000Y-69860000D02*
X84770000Y-69860000D01*
X56108000Y-80934000D02*
X56108000Y-82534000D01*
X55308000Y-80934000D02*
X56108000Y-80934000D01*
X55308000Y-82534000D02*
X55308000Y-80934000D01*
X56108000Y-82534000D02*
X55308000Y-82534000D01*
X58098000Y-80919000D02*
X58098000Y-82519000D01*
X57298000Y-80919000D02*
X58098000Y-80919000D01*
X57298000Y-82519000D02*
X57298000Y-80919000D01*
X58098000Y-82519000D02*
X57298000Y-82519000D01*
X45244000Y-81008000D02*
X45244000Y-82608000D01*
X44444000Y-81008000D02*
X45244000Y-81008000D01*
X44444000Y-82608000D02*
X44444000Y-81008000D01*
X45244000Y-82608000D02*
X44444000Y-82608000D01*
X47022000Y-81008000D02*
X47022000Y-82608000D01*
X46222000Y-81008000D02*
X47022000Y-81008000D01*
X46222000Y-82608000D02*
X46222000Y-81008000D01*
X47022000Y-82608000D02*
X46222000Y-82608000D01*
X69722200Y-70841900D02*
X69722200Y-69241900D01*
X70522200Y-70841900D02*
X69722200Y-70841900D01*
X70522200Y-69241900D02*
X70522200Y-70841900D01*
X69722200Y-69241900D02*
X70522200Y-69241900D01*
X47990000Y-130302500D02*
X47990000Y-131902500D01*
X47190000Y-130302500D02*
X47990000Y-130302500D01*
X47190000Y-131902500D02*
X47190000Y-130302500D01*
X47990000Y-131902500D02*
X47190000Y-131902500D01*
X103071980Y-74239020D02*
X103071980Y-72639020D01*
X103871980Y-74239020D02*
X103071980Y-74239020D01*
X103871980Y-72639020D02*
X103871980Y-74239020D01*
X103071980Y-72639020D02*
X103871980Y-72639020D01*
X105611980Y-74239020D02*
X105611980Y-72639020D01*
X106411980Y-74239020D02*
X105611980Y-74239020D01*
X106411980Y-72639020D02*
X106411980Y-74239020D01*
X105611980Y-72639020D02*
X106411980Y-72639020D01*
X60128000Y-80919000D02*
X60128000Y-82519000D01*
X59328000Y-80919000D02*
X60128000Y-80919000D01*
X59328000Y-82519000D02*
X59328000Y-80919000D01*
X60128000Y-82519000D02*
X59328000Y-82519000D01*
X64615240Y-139261380D02*
X66215240Y-139261380D01*
X64615240Y-140061380D02*
X64615240Y-139261380D01*
X66215240Y-140061380D02*
X64615240Y-140061380D01*
X66215240Y-139261380D02*
X66215240Y-140061380D01*
X64615240Y-137229380D02*
X66215240Y-137229380D01*
X64615240Y-138029380D02*
X64615240Y-137229380D01*
X66215240Y-138029380D02*
X64615240Y-138029380D01*
X66215240Y-137229380D02*
X66215240Y-138029380D01*
X64615240Y-134943380D02*
X66215240Y-134943380D01*
X64615240Y-135743380D02*
X64615240Y-134943380D01*
X66215240Y-135743380D02*
X64615240Y-135743380D01*
X66215240Y-134943380D02*
X66215240Y-135743380D01*
X64615240Y-132911380D02*
X66215240Y-132911380D01*
X64615240Y-133711380D02*
X64615240Y-132911380D01*
X66215240Y-133711380D02*
X64615240Y-133711380D01*
X66215240Y-132911380D02*
X66215240Y-133711380D01*
X64615240Y-131133380D02*
X66215240Y-131133380D01*
X64615240Y-131933380D02*
X64615240Y-131133380D01*
X66215240Y-131933380D02*
X64615240Y-131933380D01*
X66215240Y-131133380D02*
X66215240Y-131933380D01*
X48800000Y-81008000D02*
X48800000Y-82608000D01*
X48000000Y-81008000D02*
X48800000Y-81008000D01*
X48000000Y-82608000D02*
X48000000Y-81008000D01*
X48800000Y-82608000D02*
X48000000Y-82608000D01*
X53232000Y-136054000D02*
X53232000Y-134454000D01*
X54032000Y-136054000D02*
X53232000Y-136054000D01*
X54032000Y-134454000D02*
X54032000Y-136054000D01*
X53232000Y-134454000D02*
X54032000Y-134454000D01*
X54602000Y-121764000D02*
X54602000Y-123364000D01*
X53802000Y-121764000D02*
X54602000Y-121764000D01*
X53802000Y-123364000D02*
X53802000Y-121764000D01*
X54602000Y-123364000D02*
X53802000Y-123364000D01*
X58536940Y-124951540D02*
X60136940Y-124951540D01*
X58536940Y-125751540D02*
X58536940Y-124951540D01*
X60136940Y-125751540D02*
X58536940Y-125751540D01*
X60136940Y-124951540D02*
X60136940Y-125751540D01*
X55294000Y-136064000D02*
X55294000Y-134464000D01*
X56094000Y-136064000D02*
X55294000Y-136064000D01*
X56094000Y-134464000D02*
X56094000Y-136064000D01*
X55294000Y-134464000D02*
X56094000Y-134464000D01*
X53020000Y-104830000D02*
X53020000Y-103230000D01*
X53820000Y-104830000D02*
X53020000Y-104830000D01*
X53820000Y-103230000D02*
X53820000Y-104830000D01*
X53020000Y-103230000D02*
X53820000Y-103230000D01*
X56480000Y-145300000D02*
X56480000Y-147300000D01*
X55280000Y-145300000D02*
X56480000Y-145300000D01*
X55280000Y-147300000D02*
X55280000Y-145300000D01*
X56480000Y-147300000D02*
X55280000Y-147300000D01*
X41320000Y-144140000D02*
X43320000Y-144140000D01*
X41320000Y-145340000D02*
X41320000Y-144140000D01*
X43320000Y-145340000D02*
X41320000Y-145340000D01*
X43320000Y-144140000D02*
X43320000Y-145340000D01*
X70529400Y-66174720D02*
X69729400Y-66174720D01*
X70529400Y-67774720D02*
X70529400Y-66174720D01*
X70029400Y-67774720D02*
X70529400Y-67774720D01*
X69729400Y-67474720D02*
X70029400Y-67774720D01*
X69729400Y-66174720D02*
X69729400Y-67474720D01*
X45997500Y-132990000D02*
X45997500Y-133790000D01*
X47597500Y-132990000D02*
X45997500Y-132990000D01*
X47597500Y-133490000D02*
X47597500Y-132990000D01*
X47297500Y-133790000D02*
X47597500Y-133490000D01*
X45997500Y-133790000D02*
X47297500Y-133790000D01*
X55588000Y-116694000D02*
X55588000Y-117494000D01*
X57188000Y-116694000D02*
X55588000Y-116694000D01*
X57188000Y-117194000D02*
X57188000Y-116694000D01*
X56888000Y-117494000D02*
X57188000Y-117194000D01*
X55588000Y-117494000D02*
X56888000Y-117494000D01*
X58302000Y-108776000D02*
X58302000Y-107976000D01*
X56702000Y-108776000D02*
X58302000Y-108776000D01*
X56702000Y-108276000D02*
X56702000Y-108776000D01*
X57002000Y-107976000D02*
X56702000Y-108276000D01*
X58302000Y-107976000D02*
X57002000Y-107976000D01*
X36850000Y-137250000D02*
X38450000Y-137250000D01*
X36850000Y-138050000D02*
X36850000Y-137250000D01*
X38450000Y-138050000D02*
X36850000Y-138050000D01*
X38450000Y-137250000D02*
X38450000Y-138050000D01*
X36850000Y-135600000D02*
X38450000Y-135600000D01*
X36850000Y-136400000D02*
X36850000Y-135600000D01*
X38450000Y-136400000D02*
X36850000Y-136400000D01*
X38450000Y-135600000D02*
X38450000Y-136400000D01*
X35227500Y-132860000D02*
X38427500Y-132860000D01*
X35227500Y-134460000D02*
X35227500Y-132860000D01*
X38427500Y-134460000D02*
X35227500Y-134460000D01*
X38427500Y-132860000D02*
X38427500Y-134460000D01*
X52290000Y-103215000D02*
X52290000Y-104815000D01*
X51490000Y-103215000D02*
X52290000Y-103215000D01*
X51490000Y-104815000D02*
X51490000Y-103215000D01*
X52290000Y-104815000D02*
X51490000Y-104815000D01*
X50740000Y-103210000D02*
X50740000Y-104810000D01*
X49940000Y-103210000D02*
X50740000Y-103210000D01*
X49940000Y-104810000D02*
X49940000Y-103210000D01*
X50740000Y-104810000D02*
X49940000Y-104810000D01*
X58832000Y-105061000D02*
X58832000Y-106661000D01*
X58032000Y-105061000D02*
X58832000Y-105061000D01*
X58032000Y-106661000D02*
X58032000Y-105061000D01*
X58832000Y-106661000D02*
X58032000Y-106661000D01*
X48368000Y-87904000D02*
G75*
G03X48368000Y-87904000I-2000000J0D01*
G01*
X43368000Y-85404000D02*
X48268000Y-85404000D01*
X43368000Y-90404000D02*
X43368000Y-85404000D01*
X49368000Y-90404000D02*
X43368000Y-90404000D01*
X49368000Y-86404000D02*
X49368000Y-90404000D01*
X48268000Y-85404000D02*
X49368000Y-86404000D01*
X61400000Y-85500000D02*
X62500000Y-86500000D01*
X62500000Y-86500000D02*
X62500000Y-90500000D01*
X62500000Y-90500000D02*
X56500000Y-90500000D01*
X56500000Y-90500000D02*
X56500000Y-85500000D01*
X56500000Y-85500000D02*
X61400000Y-85500000D01*
X61500000Y-88000000D02*
G75*
G03X61500000Y-88000000I-2000000J0D01*
G01*
X40386000Y-125222000D02*
X39116000Y-126492000D01*
X40386000Y-101092000D02*
X40386000Y-125222000D01*
X35306000Y-101092000D02*
X40386000Y-101092000D01*
X35306000Y-126492000D02*
X35306000Y-101092000D01*
X39116000Y-126492000D02*
X35306000Y-126492000D01*
X36576000Y-72730000D02*
X40386000Y-72730000D01*
X40386000Y-72730000D02*
X40386000Y-98130000D01*
X40386000Y-98130000D02*
X35306000Y-98130000D01*
X35306000Y-98130000D02*
X35306000Y-74000000D01*
X35306000Y-74000000D02*
X36576000Y-72730000D01*
X105010000Y-112125000D02*
X105645000Y-111490000D01*
X105010000Y-119110000D02*
X105010000Y-112125000D01*
X107550000Y-119110000D02*
X105010000Y-119110000D01*
X107550000Y-111490000D02*
X107550000Y-119110000D01*
X105645000Y-111490000D02*
X107550000Y-111490000D01*
X115650000Y-147870000D02*
X115650000Y-148370000D01*
X114650000Y-147870000D02*
X115650000Y-147870000D01*
X101150000Y-147870000D02*
X102150000Y-147870000D01*
X101150000Y-148370000D02*
X101150000Y-147870000D01*
X101150000Y-148370000D02*
X115650000Y-148370000D01*
X102150000Y-147870000D02*
X102150000Y-134370000D01*
X102150000Y-134370000D02*
X114650000Y-134370000D01*
X114650000Y-147870000D02*
X114650000Y-134370000D01*
X104650000Y-134370000D02*
X104900000Y-134620000D01*
X104900000Y-134620000D02*
X105150000Y-134370000D01*
X53930000Y-149450000D02*
X46430000Y-149450000D01*
X53930000Y-144450000D02*
X53930000Y-149450000D01*
X46430000Y-144450000D02*
X53930000Y-144450000D01*
X46430000Y-149450000D02*
X46430000Y-144450000D01*
X46930000Y-148750000D02*
X53430000Y-148750000D01*
X47164000Y-115530000D02*
X46164000Y-114530000D01*
X53164000Y-115530000D02*
X47164000Y-115530000D01*
X53164000Y-108530000D02*
X53164000Y-115530000D01*
X46164000Y-108530000D02*
X53164000Y-108530000D01*
X46164000Y-114530000D02*
X46164000Y-108530000D01*
X57543000Y-127371000D02*
X57543000Y-131601000D01*
X57543000Y-131601000D02*
X52313000Y-131601000D01*
X52313000Y-131601000D02*
X52313000Y-126371000D01*
X52313000Y-126371000D02*
X56543000Y-126371000D01*
X56543000Y-126371000D02*
X57543000Y-127371000D01*
X84201240Y-148219380D02*
X86401240Y-148219380D01*
X83001240Y-145419380D02*
X84201240Y-148219380D01*
X74001240Y-145419380D02*
X83001240Y-145419380D01*
X74001240Y-148219380D02*
X74001240Y-145419380D01*
X73201240Y-148219380D02*
X74001240Y-148219380D01*
X86401240Y-134219380D02*
X86401240Y-148219380D01*
X73201240Y-134219380D02*
X73201240Y-148219380D01*
X73201240Y-134219380D02*
X86401240Y-134219380D01*
X87551240Y-110119380D02*
G75*
G03X87551240Y-110119380I-50000J0D01*
G01*
X88451240Y-110119380D02*
G75*
G03X88451240Y-110119380I-950000J0D01*
G01*
X71526240Y-109569380D02*
X71526240Y-107869380D01*
X70676240Y-109569380D02*
X71526240Y-109569380D01*
X70676240Y-107869380D02*
X70676240Y-109569380D01*
X71526240Y-107869380D02*
X70676240Y-107869380D01*
X82976240Y-110069380D02*
X82976240Y-106369380D01*
X81226240Y-110069380D02*
X82976240Y-110069380D01*
X81226240Y-106369380D02*
X81226240Y-110069380D01*
X82976240Y-106369380D02*
X81226240Y-106369380D01*
X88801240Y-111419380D02*
X88801240Y-108819380D01*
X86201240Y-111419380D02*
X88801240Y-111419380D01*
X86201240Y-108819380D02*
X86201240Y-111419380D01*
X88801240Y-108819380D02*
X86201240Y-108819380D01*
X87701240Y-143019380D02*
X91201240Y-143019380D01*
X87701240Y-148219380D02*
X87701240Y-143019380D01*
X71951240Y-148219380D02*
X87701240Y-148219380D01*
X71951240Y-143019380D02*
X71951240Y-148219380D01*
X69951240Y-143019380D02*
X71951240Y-143019380D01*
X91201240Y-112419380D02*
X91201240Y-143019380D01*
X91201240Y-112419380D02*
X69951240Y-112419380D01*
X69951240Y-143019380D02*
X69951240Y-112419380D01*
X90726240Y-145819380D02*
G75*
G03X90726240Y-145819380I-1125000J0D01*
G01*
X70726240Y-145819380D02*
G75*
G03X70726240Y-145819380I-1125000J0D01*
G01*
X67201240Y-145919380D02*
X70001240Y-148719380D01*
X93601240Y-144419380D02*
X89301240Y-148719380D01*
X87001240Y-105819380D02*
X93601240Y-112419380D01*
X87001240Y-105819380D02*
X67201240Y-105819380D01*
X93601240Y-144419380D02*
X93601240Y-112419380D01*
X70001240Y-148719380D02*
X89301240Y-148719380D01*
X67201240Y-105819380D02*
X67201240Y-145919380D01*
D11*
X73992360Y-100604940D02*
X74992360Y-101604940D01*
X74992360Y-101604940D02*
X99392360Y-101604940D01*
X99392360Y-101604940D02*
X99392360Y-76204940D01*
X99392360Y-76204940D02*
X73992360Y-76204940D01*
X73992360Y-76204940D02*
X73992360Y-100604940D01*
D10*
X47050000Y-134630000D02*
X47050000Y-141330000D01*
X43350000Y-141330000D02*
X47050000Y-141330000D01*
X44400000Y-134630000D02*
X47050000Y-134630000D01*
X43350000Y-135680000D02*
X43350000Y-141330000D01*
X43350000Y-135680000D02*
X44400000Y-134630000D01*
X68934820Y-71756120D02*
X62234820Y-71756120D01*
X62234820Y-68056120D02*
X62234820Y-71756120D01*
X68934820Y-69106120D02*
X68934820Y-71756120D01*
X67884820Y-68056120D02*
X62234820Y-68056120D01*
X67884820Y-68056120D02*
X68934820Y-69106120D01*
X78324460Y-68028180D02*
X79374460Y-69078180D01*
X78324460Y-68028180D02*
X72674460Y-68028180D01*
X79374460Y-69078180D02*
X79374460Y-71728180D01*
X72674460Y-68028180D02*
X72674460Y-71728180D01*
X79374460Y-71728180D02*
X72674460Y-71728180D01*
X80513180Y-68612100D02*
X82963180Y-68612100D01*
X79943180Y-68062100D02*
X79943180Y-67212100D01*
X80513180Y-68612100D02*
X79943180Y-68062100D01*
X79943180Y-67212100D02*
X82983180Y-67212100D01*
X82983180Y-68612100D02*
X82983180Y-67212100D01*
X66984760Y-77885780D02*
X66984760Y-76485780D01*
X63944760Y-76485780D02*
X66984760Y-76485780D01*
X64514760Y-77885780D02*
X63944760Y-77335780D01*
X63944760Y-77335780D02*
X63944760Y-76485780D01*
X64514760Y-77885780D02*
X66964760Y-77885780D01*
X115730000Y-74000000D02*
X117000000Y-72730000D01*
X115730000Y-98130000D02*
X115730000Y-74000000D01*
X120810000Y-98130000D02*
X115730000Y-98130000D01*
X120810000Y-72730000D02*
X120810000Y-98130000D01*
X117000000Y-72730000D02*
X120810000Y-72730000D01*
X115730000Y-102000000D02*
X117000000Y-100730000D01*
X115730000Y-126130000D02*
X115730000Y-102000000D01*
X120810000Y-126130000D02*
X115730000Y-126130000D01*
X120810000Y-100730000D02*
X120810000Y-126130000D01*
X117000000Y-100730000D02*
X120810000Y-100730000D01*
X38462500Y-139050000D02*
X37162500Y-139050000D01*
X37162500Y-139050000D02*
X36862500Y-139350000D01*
X36862500Y-139350000D02*
X36862500Y-139850000D01*
X36862500Y-139850000D02*
X38462500Y-139850000D01*
X38462500Y-139850000D02*
X38462500Y-139050000D01*
X34950000Y-141250000D02*
X34950000Y-139650000D01*
X35750000Y-141250000D02*
X34950000Y-141250000D01*
X35750000Y-139650000D02*
X35750000Y-141250000D01*
X34950000Y-139650000D02*
X35750000Y-139650000D01*
D11*
X108057142Y-129657142D02*
X108009523Y-129704761D01*
X107866666Y-129752380D01*
X107771428Y-129752380D01*
X107628571Y-129704761D01*
X107533333Y-129609523D01*
X107485714Y-129514285D01*
X107438095Y-129323809D01*
X107438095Y-129180952D01*
X107485714Y-128990476D01*
X107533333Y-128895238D01*
X107628571Y-128800000D01*
X107771428Y-128752380D01*
X107866666Y-128752380D01*
X108009523Y-128800000D01*
X108057142Y-128847619D01*
X108438095Y-128847619D02*
X108485714Y-128800000D01*
X108580952Y-128752380D01*
X108819047Y-128752380D01*
X108914285Y-128800000D01*
X108961904Y-128847619D01*
X109009523Y-128942857D01*
X109009523Y-129038095D01*
X108961904Y-129180952D01*
X108390476Y-129752380D01*
X109009523Y-129752380D01*
X109390476Y-128847619D02*
X109438095Y-128800000D01*
X109533333Y-128752380D01*
X109771428Y-128752380D01*
X109866666Y-128800000D01*
X109914285Y-128847619D01*
X109961904Y-128942857D01*
X109961904Y-129038095D01*
X109914285Y-129180952D01*
X109342857Y-129752380D01*
X109961904Y-129752380D01*
D12*
X42236190Y-133069047D02*
X42640952Y-133069047D01*
X42688571Y-133045238D01*
X42712380Y-133021428D01*
X42736190Y-132973809D01*
X42736190Y-132878571D01*
X42712380Y-132830952D01*
X42688571Y-132807142D01*
X42640952Y-132783333D01*
X42236190Y-132783333D01*
X42736190Y-132283333D02*
X42736190Y-132569047D01*
X42736190Y-132426190D02*
X42236190Y-132426190D01*
X42307619Y-132473809D01*
X42355238Y-132521428D01*
X42379047Y-132569047D01*
X42402857Y-131854761D02*
X42736190Y-131854761D01*
X42212380Y-131973809D02*
X42569523Y-132092857D01*
X42569523Y-131783333D01*
D11*
X91181904Y-67162380D02*
X91181904Y-67971904D01*
X91229523Y-68067142D01*
X91277142Y-68114761D01*
X91372380Y-68162380D01*
X91562857Y-68162380D01*
X91658095Y-68114761D01*
X91705714Y-68067142D01*
X91753333Y-67971904D01*
X91753333Y-67162380D01*
X92753333Y-68162380D02*
X92181904Y-68162380D01*
X92467619Y-68162380D02*
X92467619Y-67162380D01*
X92372380Y-67305238D01*
X92277142Y-67400476D01*
X92181904Y-67448095D01*
X93705714Y-68162380D02*
X93134285Y-68162380D01*
X93420000Y-68162380D02*
X93420000Y-67162380D01*
X93324761Y-67305238D01*
X93229523Y-67400476D01*
X93134285Y-67448095D01*
D13*
X55888952Y-82181619D02*
X55698476Y-82314952D01*
X55888952Y-82410190D02*
X55488952Y-82410190D01*
X55488952Y-82257809D01*
X55508000Y-82219714D01*
X55527047Y-82200666D01*
X55565142Y-82181619D01*
X55622285Y-82181619D01*
X55660380Y-82200666D01*
X55679428Y-82219714D01*
X55698476Y-82257809D01*
X55698476Y-82410190D01*
X55888952Y-81800666D02*
X55888952Y-82029238D01*
X55888952Y-81914952D02*
X55488952Y-81914952D01*
X55546095Y-81953047D01*
X55584190Y-81991142D01*
X55603238Y-82029238D01*
X55488952Y-81553047D02*
X55488952Y-81514952D01*
X55508000Y-81476857D01*
X55527047Y-81457809D01*
X55565142Y-81438761D01*
X55641333Y-81419714D01*
X55736571Y-81419714D01*
X55812761Y-81438761D01*
X55850857Y-81457809D01*
X55869904Y-81476857D01*
X55888952Y-81514952D01*
X55888952Y-81553047D01*
X55869904Y-81591142D01*
X55850857Y-81610190D01*
X55812761Y-81629238D01*
X55736571Y-81648285D01*
X55641333Y-81648285D01*
X55565142Y-81629238D01*
X55527047Y-81610190D01*
X55508000Y-81591142D01*
X55488952Y-81553047D01*
X55488952Y-81057809D02*
X55488952Y-81248285D01*
X55679428Y-81267333D01*
X55660380Y-81248285D01*
X55641333Y-81210190D01*
X55641333Y-81114952D01*
X55660380Y-81076857D01*
X55679428Y-81057809D01*
X55717523Y-81038761D01*
X55812761Y-81038761D01*
X55850857Y-81057809D01*
X55869904Y-81076857D01*
X55888952Y-81114952D01*
X55888952Y-81210190D01*
X55869904Y-81248285D01*
X55850857Y-81267333D01*
X57878952Y-82166619D02*
X57688476Y-82299952D01*
X57878952Y-82395190D02*
X57478952Y-82395190D01*
X57478952Y-82242809D01*
X57498000Y-82204714D01*
X57517047Y-82185666D01*
X57555142Y-82166619D01*
X57612285Y-82166619D01*
X57650380Y-82185666D01*
X57669428Y-82204714D01*
X57688476Y-82242809D01*
X57688476Y-82395190D01*
X57878952Y-81785666D02*
X57878952Y-82014238D01*
X57878952Y-81899952D02*
X57478952Y-81899952D01*
X57536095Y-81938047D01*
X57574190Y-81976142D01*
X57593238Y-82014238D01*
X57478952Y-81538047D02*
X57478952Y-81499952D01*
X57498000Y-81461857D01*
X57517047Y-81442809D01*
X57555142Y-81423761D01*
X57631333Y-81404714D01*
X57726571Y-81404714D01*
X57802761Y-81423761D01*
X57840857Y-81442809D01*
X57859904Y-81461857D01*
X57878952Y-81499952D01*
X57878952Y-81538047D01*
X57859904Y-81576142D01*
X57840857Y-81595190D01*
X57802761Y-81614238D01*
X57726571Y-81633285D01*
X57631333Y-81633285D01*
X57555142Y-81614238D01*
X57517047Y-81595190D01*
X57498000Y-81576142D01*
X57478952Y-81538047D01*
X57612285Y-81061857D02*
X57878952Y-81061857D01*
X57459904Y-81157095D02*
X57745619Y-81252333D01*
X57745619Y-81004714D01*
X45024952Y-82255619D02*
X44834476Y-82388952D01*
X45024952Y-82484190D02*
X44624952Y-82484190D01*
X44624952Y-82331809D01*
X44644000Y-82293714D01*
X44663047Y-82274666D01*
X44701142Y-82255619D01*
X44758285Y-82255619D01*
X44796380Y-82274666D01*
X44815428Y-82293714D01*
X44834476Y-82331809D01*
X44834476Y-82484190D01*
X45024952Y-81874666D02*
X45024952Y-82103238D01*
X45024952Y-81988952D02*
X44624952Y-81988952D01*
X44682095Y-82027047D01*
X44720190Y-82065142D01*
X44739238Y-82103238D01*
X44624952Y-81627047D02*
X44624952Y-81588952D01*
X44644000Y-81550857D01*
X44663047Y-81531809D01*
X44701142Y-81512761D01*
X44777333Y-81493714D01*
X44872571Y-81493714D01*
X44948761Y-81512761D01*
X44986857Y-81531809D01*
X45005904Y-81550857D01*
X45024952Y-81588952D01*
X45024952Y-81627047D01*
X45005904Y-81665142D01*
X44986857Y-81684190D01*
X44948761Y-81703238D01*
X44872571Y-81722285D01*
X44777333Y-81722285D01*
X44701142Y-81703238D01*
X44663047Y-81684190D01*
X44644000Y-81665142D01*
X44624952Y-81627047D01*
X44624952Y-81360380D02*
X44624952Y-81112761D01*
X44777333Y-81246095D01*
X44777333Y-81188952D01*
X44796380Y-81150857D01*
X44815428Y-81131809D01*
X44853523Y-81112761D01*
X44948761Y-81112761D01*
X44986857Y-81131809D01*
X45005904Y-81150857D01*
X45024952Y-81188952D01*
X45024952Y-81303238D01*
X45005904Y-81341333D01*
X44986857Y-81360380D01*
X46802952Y-82255619D02*
X46612476Y-82388952D01*
X46802952Y-82484190D02*
X46402952Y-82484190D01*
X46402952Y-82331809D01*
X46422000Y-82293714D01*
X46441047Y-82274666D01*
X46479142Y-82255619D01*
X46536285Y-82255619D01*
X46574380Y-82274666D01*
X46593428Y-82293714D01*
X46612476Y-82331809D01*
X46612476Y-82484190D01*
X46802952Y-81874666D02*
X46802952Y-82103238D01*
X46802952Y-81988952D02*
X46402952Y-81988952D01*
X46460095Y-82027047D01*
X46498190Y-82065142D01*
X46517238Y-82103238D01*
X46402952Y-81627047D02*
X46402952Y-81588952D01*
X46422000Y-81550857D01*
X46441047Y-81531809D01*
X46479142Y-81512761D01*
X46555333Y-81493714D01*
X46650571Y-81493714D01*
X46726761Y-81512761D01*
X46764857Y-81531809D01*
X46783904Y-81550857D01*
X46802952Y-81588952D01*
X46802952Y-81627047D01*
X46783904Y-81665142D01*
X46764857Y-81684190D01*
X46726761Y-81703238D01*
X46650571Y-81722285D01*
X46555333Y-81722285D01*
X46479142Y-81703238D01*
X46441047Y-81684190D01*
X46422000Y-81665142D01*
X46402952Y-81627047D01*
X46441047Y-81341333D02*
X46422000Y-81322285D01*
X46402952Y-81284190D01*
X46402952Y-81188952D01*
X46422000Y-81150857D01*
X46441047Y-81131809D01*
X46479142Y-81112761D01*
X46517238Y-81112761D01*
X46574380Y-81131809D01*
X46802952Y-81360380D01*
X46802952Y-81112761D01*
X70303152Y-70299042D02*
X70112676Y-70432376D01*
X70303152Y-70527614D02*
X69903152Y-70527614D01*
X69903152Y-70375233D01*
X69922200Y-70337138D01*
X69941247Y-70318090D01*
X69979342Y-70299042D01*
X70036485Y-70299042D01*
X70074580Y-70318090D01*
X70093628Y-70337138D01*
X70112676Y-70375233D01*
X70112676Y-70527614D01*
X70303152Y-70108566D02*
X70303152Y-70032376D01*
X70284104Y-69994280D01*
X70265057Y-69975233D01*
X70207914Y-69937138D01*
X70131723Y-69918090D01*
X69979342Y-69918090D01*
X69941247Y-69937138D01*
X69922200Y-69956185D01*
X69903152Y-69994280D01*
X69903152Y-70070471D01*
X69922200Y-70108566D01*
X69941247Y-70127614D01*
X69979342Y-70146661D01*
X70074580Y-70146661D01*
X70112676Y-70127614D01*
X70131723Y-70108566D01*
X70150771Y-70070471D01*
X70150771Y-69994280D01*
X70131723Y-69956185D01*
X70112676Y-69937138D01*
X70074580Y-69918090D01*
X70074580Y-69689519D02*
X70055533Y-69727614D01*
X70036485Y-69746661D01*
X69998390Y-69765709D01*
X69979342Y-69765709D01*
X69941247Y-69746661D01*
X69922200Y-69727614D01*
X69903152Y-69689519D01*
X69903152Y-69613328D01*
X69922200Y-69575233D01*
X69941247Y-69556185D01*
X69979342Y-69537138D01*
X69998390Y-69537138D01*
X70036485Y-69556185D01*
X70055533Y-69575233D01*
X70074580Y-69613328D01*
X70074580Y-69689519D01*
X70093628Y-69727614D01*
X70112676Y-69746661D01*
X70150771Y-69765709D01*
X70226961Y-69765709D01*
X70265057Y-69746661D01*
X70284104Y-69727614D01*
X70303152Y-69689519D01*
X70303152Y-69613328D01*
X70284104Y-69575233D01*
X70265057Y-69556185D01*
X70226961Y-69537138D01*
X70150771Y-69537138D01*
X70112676Y-69556185D01*
X70093628Y-69575233D01*
X70074580Y-69613328D01*
X47770952Y-131359642D02*
X47580476Y-131492976D01*
X47770952Y-131588214D02*
X47370952Y-131588214D01*
X47370952Y-131435833D01*
X47390000Y-131397738D01*
X47409047Y-131378690D01*
X47447142Y-131359642D01*
X47504285Y-131359642D01*
X47542380Y-131378690D01*
X47561428Y-131397738D01*
X47580476Y-131435833D01*
X47580476Y-131588214D01*
X47770952Y-131169166D02*
X47770952Y-131092976D01*
X47751904Y-131054880D01*
X47732857Y-131035833D01*
X47675714Y-130997738D01*
X47599523Y-130978690D01*
X47447142Y-130978690D01*
X47409047Y-130997738D01*
X47390000Y-131016785D01*
X47370952Y-131054880D01*
X47370952Y-131131071D01*
X47390000Y-131169166D01*
X47409047Y-131188214D01*
X47447142Y-131207261D01*
X47542380Y-131207261D01*
X47580476Y-131188214D01*
X47599523Y-131169166D01*
X47618571Y-131131071D01*
X47618571Y-131054880D01*
X47599523Y-131016785D01*
X47580476Y-130997738D01*
X47542380Y-130978690D01*
X47370952Y-130635833D02*
X47370952Y-130712023D01*
X47390000Y-130750119D01*
X47409047Y-130769166D01*
X47466190Y-130807261D01*
X47542380Y-130826309D01*
X47694761Y-130826309D01*
X47732857Y-130807261D01*
X47751904Y-130788214D01*
X47770952Y-130750119D01*
X47770952Y-130673928D01*
X47751904Y-130635833D01*
X47732857Y-130616785D01*
X47694761Y-130597738D01*
X47599523Y-130597738D01*
X47561428Y-130616785D01*
X47542380Y-130635833D01*
X47523333Y-130673928D01*
X47523333Y-130750119D01*
X47542380Y-130788214D01*
X47561428Y-130807261D01*
X47599523Y-130826309D01*
X103652932Y-73696162D02*
X103462456Y-73829496D01*
X103652932Y-73924734D02*
X103252932Y-73924734D01*
X103252932Y-73772353D01*
X103271980Y-73734258D01*
X103291027Y-73715210D01*
X103329122Y-73696162D01*
X103386265Y-73696162D01*
X103424360Y-73715210D01*
X103443408Y-73734258D01*
X103462456Y-73772353D01*
X103462456Y-73924734D01*
X103652932Y-73505686D02*
X103652932Y-73429496D01*
X103633884Y-73391400D01*
X103614837Y-73372353D01*
X103557694Y-73334258D01*
X103481503Y-73315210D01*
X103329122Y-73315210D01*
X103291027Y-73334258D01*
X103271980Y-73353305D01*
X103252932Y-73391400D01*
X103252932Y-73467591D01*
X103271980Y-73505686D01*
X103291027Y-73524734D01*
X103329122Y-73543781D01*
X103424360Y-73543781D01*
X103462456Y-73524734D01*
X103481503Y-73505686D01*
X103500551Y-73467591D01*
X103500551Y-73391400D01*
X103481503Y-73353305D01*
X103462456Y-73334258D01*
X103424360Y-73315210D01*
X103386265Y-72972353D02*
X103652932Y-72972353D01*
X103233884Y-73067591D02*
X103519599Y-73162829D01*
X103519599Y-72915210D01*
X106192932Y-73696162D02*
X106002456Y-73829496D01*
X106192932Y-73924734D02*
X105792932Y-73924734D01*
X105792932Y-73772353D01*
X105811980Y-73734258D01*
X105831027Y-73715210D01*
X105869122Y-73696162D01*
X105926265Y-73696162D01*
X105964360Y-73715210D01*
X105983408Y-73734258D01*
X106002456Y-73772353D01*
X106002456Y-73924734D01*
X106192932Y-73505686D02*
X106192932Y-73429496D01*
X106173884Y-73391400D01*
X106154837Y-73372353D01*
X106097694Y-73334258D01*
X106021503Y-73315210D01*
X105869122Y-73315210D01*
X105831027Y-73334258D01*
X105811980Y-73353305D01*
X105792932Y-73391400D01*
X105792932Y-73467591D01*
X105811980Y-73505686D01*
X105831027Y-73524734D01*
X105869122Y-73543781D01*
X105964360Y-73543781D01*
X106002456Y-73524734D01*
X106021503Y-73505686D01*
X106040551Y-73467591D01*
X106040551Y-73391400D01*
X106021503Y-73353305D01*
X106002456Y-73334258D01*
X105964360Y-73315210D01*
X105792932Y-73181877D02*
X105792932Y-72934258D01*
X105945313Y-73067591D01*
X105945313Y-73010448D01*
X105964360Y-72972353D01*
X105983408Y-72953305D01*
X106021503Y-72934258D01*
X106116741Y-72934258D01*
X106154837Y-72953305D01*
X106173884Y-72972353D01*
X106192932Y-73010448D01*
X106192932Y-73124734D01*
X106173884Y-73162829D01*
X106154837Y-73181877D01*
X59908952Y-81976142D02*
X59718476Y-82109476D01*
X59908952Y-82204714D02*
X59508952Y-82204714D01*
X59508952Y-82052333D01*
X59528000Y-82014238D01*
X59547047Y-81995190D01*
X59585142Y-81976142D01*
X59642285Y-81976142D01*
X59680380Y-81995190D01*
X59699428Y-82014238D01*
X59718476Y-82052333D01*
X59718476Y-82204714D01*
X59680380Y-81747571D02*
X59661333Y-81785666D01*
X59642285Y-81804714D01*
X59604190Y-81823761D01*
X59585142Y-81823761D01*
X59547047Y-81804714D01*
X59528000Y-81785666D01*
X59508952Y-81747571D01*
X59508952Y-81671380D01*
X59528000Y-81633285D01*
X59547047Y-81614238D01*
X59585142Y-81595190D01*
X59604190Y-81595190D01*
X59642285Y-81614238D01*
X59661333Y-81633285D01*
X59680380Y-81671380D01*
X59680380Y-81747571D01*
X59699428Y-81785666D01*
X59718476Y-81804714D01*
X59756571Y-81823761D01*
X59832761Y-81823761D01*
X59870857Y-81804714D01*
X59889904Y-81785666D01*
X59908952Y-81747571D01*
X59908952Y-81671380D01*
X59889904Y-81633285D01*
X59870857Y-81614238D01*
X59832761Y-81595190D01*
X59756571Y-81595190D01*
X59718476Y-81614238D01*
X59699428Y-81633285D01*
X59680380Y-81671380D01*
X59908952Y-81404714D02*
X59908952Y-81328523D01*
X59889904Y-81290428D01*
X59870857Y-81271380D01*
X59813714Y-81233285D01*
X59737523Y-81214238D01*
X59585142Y-81214238D01*
X59547047Y-81233285D01*
X59528000Y-81252333D01*
X59508952Y-81290428D01*
X59508952Y-81366619D01*
X59528000Y-81404714D01*
X59547047Y-81423761D01*
X59585142Y-81442809D01*
X59680380Y-81442809D01*
X59718476Y-81423761D01*
X59737523Y-81404714D01*
X59756571Y-81366619D01*
X59756571Y-81290428D01*
X59737523Y-81252333D01*
X59718476Y-81233285D01*
X59680380Y-81214238D01*
X65158097Y-139842332D02*
X65024763Y-139651856D01*
X64929525Y-139842332D02*
X64929525Y-139442332D01*
X65081906Y-139442332D01*
X65120001Y-139461380D01*
X65139049Y-139480427D01*
X65158097Y-139518522D01*
X65158097Y-139575665D01*
X65139049Y-139613760D01*
X65120001Y-139632808D01*
X65081906Y-139651856D01*
X64929525Y-139651856D01*
X65520001Y-139442332D02*
X65329525Y-139442332D01*
X65310478Y-139632808D01*
X65329525Y-139613760D01*
X65367620Y-139594713D01*
X65462859Y-139594713D01*
X65500954Y-139613760D01*
X65520001Y-139632808D01*
X65539049Y-139670903D01*
X65539049Y-139766141D01*
X65520001Y-139804237D01*
X65500954Y-139823284D01*
X65462859Y-139842332D01*
X65367620Y-139842332D01*
X65329525Y-139823284D01*
X65310478Y-139804237D01*
X65786668Y-139442332D02*
X65824763Y-139442332D01*
X65862859Y-139461380D01*
X65881906Y-139480427D01*
X65900954Y-139518522D01*
X65920001Y-139594713D01*
X65920001Y-139689951D01*
X65900954Y-139766141D01*
X65881906Y-139804237D01*
X65862859Y-139823284D01*
X65824763Y-139842332D01*
X65786668Y-139842332D01*
X65748573Y-139823284D01*
X65729525Y-139804237D01*
X65710478Y-139766141D01*
X65691430Y-139689951D01*
X65691430Y-139594713D01*
X65710478Y-139518522D01*
X65729525Y-139480427D01*
X65748573Y-139461380D01*
X65786668Y-139442332D01*
X65158097Y-137810332D02*
X65024763Y-137619856D01*
X64929525Y-137810332D02*
X64929525Y-137410332D01*
X65081906Y-137410332D01*
X65120001Y-137429380D01*
X65139049Y-137448427D01*
X65158097Y-137486522D01*
X65158097Y-137543665D01*
X65139049Y-137581760D01*
X65120001Y-137600808D01*
X65081906Y-137619856D01*
X64929525Y-137619856D01*
X65500954Y-137543665D02*
X65500954Y-137810332D01*
X65405716Y-137391284D02*
X65310478Y-137676999D01*
X65558097Y-137676999D01*
X65729525Y-137810332D02*
X65805716Y-137810332D01*
X65843811Y-137791284D01*
X65862859Y-137772237D01*
X65900954Y-137715094D01*
X65920001Y-137638903D01*
X65920001Y-137486522D01*
X65900954Y-137448427D01*
X65881906Y-137429380D01*
X65843811Y-137410332D01*
X65767620Y-137410332D01*
X65729525Y-137429380D01*
X65710478Y-137448427D01*
X65691430Y-137486522D01*
X65691430Y-137581760D01*
X65710478Y-137619856D01*
X65729525Y-137638903D01*
X65767620Y-137657951D01*
X65843811Y-137657951D01*
X65881906Y-137638903D01*
X65900954Y-137619856D01*
X65920001Y-137581760D01*
X65158097Y-135524332D02*
X65024763Y-135333856D01*
X64929525Y-135524332D02*
X64929525Y-135124332D01*
X65081906Y-135124332D01*
X65120001Y-135143380D01*
X65139049Y-135162427D01*
X65158097Y-135200522D01*
X65158097Y-135257665D01*
X65139049Y-135295760D01*
X65120001Y-135314808D01*
X65081906Y-135333856D01*
X64929525Y-135333856D01*
X65500954Y-135257665D02*
X65500954Y-135524332D01*
X65405716Y-135105284D02*
X65310478Y-135390999D01*
X65558097Y-135390999D01*
X65767620Y-135295760D02*
X65729525Y-135276713D01*
X65710478Y-135257665D01*
X65691430Y-135219570D01*
X65691430Y-135200522D01*
X65710478Y-135162427D01*
X65729525Y-135143380D01*
X65767620Y-135124332D01*
X65843811Y-135124332D01*
X65881906Y-135143380D01*
X65900954Y-135162427D01*
X65920001Y-135200522D01*
X65920001Y-135219570D01*
X65900954Y-135257665D01*
X65881906Y-135276713D01*
X65843811Y-135295760D01*
X65767620Y-135295760D01*
X65729525Y-135314808D01*
X65710478Y-135333856D01*
X65691430Y-135371951D01*
X65691430Y-135448141D01*
X65710478Y-135486237D01*
X65729525Y-135505284D01*
X65767620Y-135524332D01*
X65843811Y-135524332D01*
X65881906Y-135505284D01*
X65900954Y-135486237D01*
X65920001Y-135448141D01*
X65920001Y-135371951D01*
X65900954Y-135333856D01*
X65881906Y-135314808D01*
X65843811Y-135295760D01*
X65158097Y-133492332D02*
X65024763Y-133301856D01*
X64929525Y-133492332D02*
X64929525Y-133092332D01*
X65081906Y-133092332D01*
X65120001Y-133111380D01*
X65139049Y-133130427D01*
X65158097Y-133168522D01*
X65158097Y-133225665D01*
X65139049Y-133263760D01*
X65120001Y-133282808D01*
X65081906Y-133301856D01*
X64929525Y-133301856D01*
X65500954Y-133225665D02*
X65500954Y-133492332D01*
X65405716Y-133073284D02*
X65310478Y-133358999D01*
X65558097Y-133358999D01*
X65672382Y-133092332D02*
X65939049Y-133092332D01*
X65767620Y-133492332D01*
X65158097Y-131714332D02*
X65024763Y-131523856D01*
X64929525Y-131714332D02*
X64929525Y-131314332D01*
X65081906Y-131314332D01*
X65120001Y-131333380D01*
X65139049Y-131352427D01*
X65158097Y-131390522D01*
X65158097Y-131447665D01*
X65139049Y-131485760D01*
X65120001Y-131504808D01*
X65081906Y-131523856D01*
X64929525Y-131523856D01*
X65500954Y-131447665D02*
X65500954Y-131714332D01*
X65405716Y-131295284D02*
X65310478Y-131580999D01*
X65558097Y-131580999D01*
X65881906Y-131314332D02*
X65805716Y-131314332D01*
X65767620Y-131333380D01*
X65748573Y-131352427D01*
X65710478Y-131409570D01*
X65691430Y-131485760D01*
X65691430Y-131638141D01*
X65710478Y-131676237D01*
X65729525Y-131695284D01*
X65767620Y-131714332D01*
X65843811Y-131714332D01*
X65881906Y-131695284D01*
X65900954Y-131676237D01*
X65920001Y-131638141D01*
X65920001Y-131542903D01*
X65900954Y-131504808D01*
X65881906Y-131485760D01*
X65843811Y-131466713D01*
X65767620Y-131466713D01*
X65729525Y-131485760D01*
X65710478Y-131504808D01*
X65691430Y-131542903D01*
X48580952Y-82065142D02*
X48390476Y-82198476D01*
X48580952Y-82293714D02*
X48180952Y-82293714D01*
X48180952Y-82141333D01*
X48200000Y-82103238D01*
X48219047Y-82084190D01*
X48257142Y-82065142D01*
X48314285Y-82065142D01*
X48352380Y-82084190D01*
X48371428Y-82103238D01*
X48390476Y-82141333D01*
X48390476Y-82293714D01*
X48180952Y-81931809D02*
X48180952Y-81684190D01*
X48333333Y-81817523D01*
X48333333Y-81760380D01*
X48352380Y-81722285D01*
X48371428Y-81703238D01*
X48409523Y-81684190D01*
X48504761Y-81684190D01*
X48542857Y-81703238D01*
X48561904Y-81722285D01*
X48580952Y-81760380D01*
X48580952Y-81874666D01*
X48561904Y-81912761D01*
X48542857Y-81931809D01*
X48180952Y-81550857D02*
X48180952Y-81284190D01*
X48580952Y-81455619D01*
X53812952Y-135511142D02*
X53622476Y-135644476D01*
X53812952Y-135739714D02*
X53412952Y-135739714D01*
X53412952Y-135587333D01*
X53432000Y-135549238D01*
X53451047Y-135530190D01*
X53489142Y-135511142D01*
X53546285Y-135511142D01*
X53584380Y-135530190D01*
X53603428Y-135549238D01*
X53622476Y-135587333D01*
X53622476Y-135739714D01*
X53412952Y-135377809D02*
X53412952Y-135130190D01*
X53565333Y-135263523D01*
X53565333Y-135206380D01*
X53584380Y-135168285D01*
X53603428Y-135149238D01*
X53641523Y-135130190D01*
X53736761Y-135130190D01*
X53774857Y-135149238D01*
X53793904Y-135168285D01*
X53812952Y-135206380D01*
X53812952Y-135320666D01*
X53793904Y-135358761D01*
X53774857Y-135377809D01*
X53412952Y-134787333D02*
X53412952Y-134863523D01*
X53432000Y-134901619D01*
X53451047Y-134920666D01*
X53508190Y-134958761D01*
X53584380Y-134977809D01*
X53736761Y-134977809D01*
X53774857Y-134958761D01*
X53793904Y-134939714D01*
X53812952Y-134901619D01*
X53812952Y-134825428D01*
X53793904Y-134787333D01*
X53774857Y-134768285D01*
X53736761Y-134749238D01*
X53641523Y-134749238D01*
X53603428Y-134768285D01*
X53584380Y-134787333D01*
X53565333Y-134825428D01*
X53565333Y-134901619D01*
X53584380Y-134939714D01*
X53603428Y-134958761D01*
X53641523Y-134977809D01*
X54382952Y-122821142D02*
X54192476Y-122954476D01*
X54382952Y-123049714D02*
X53982952Y-123049714D01*
X53982952Y-122897333D01*
X54002000Y-122859238D01*
X54021047Y-122840190D01*
X54059142Y-122821142D01*
X54116285Y-122821142D01*
X54154380Y-122840190D01*
X54173428Y-122859238D01*
X54192476Y-122897333D01*
X54192476Y-123049714D01*
X54021047Y-122668761D02*
X54002000Y-122649714D01*
X53982952Y-122611619D01*
X53982952Y-122516380D01*
X54002000Y-122478285D01*
X54021047Y-122459238D01*
X54059142Y-122440190D01*
X54097238Y-122440190D01*
X54154380Y-122459238D01*
X54382952Y-122687809D01*
X54382952Y-122440190D01*
X53982952Y-122306857D02*
X53982952Y-122040190D01*
X54382952Y-122211619D01*
X59079797Y-125532492D02*
X58946463Y-125342016D01*
X58851225Y-125532492D02*
X58851225Y-125132492D01*
X59003606Y-125132492D01*
X59041701Y-125151540D01*
X59060749Y-125170587D01*
X59079797Y-125208682D01*
X59079797Y-125265825D01*
X59060749Y-125303920D01*
X59041701Y-125322968D01*
X59003606Y-125342016D01*
X58851225Y-125342016D01*
X59232178Y-125170587D02*
X59251225Y-125151540D01*
X59289320Y-125132492D01*
X59384559Y-125132492D01*
X59422654Y-125151540D01*
X59441701Y-125170587D01*
X59460749Y-125208682D01*
X59460749Y-125246778D01*
X59441701Y-125303920D01*
X59213130Y-125532492D01*
X59460749Y-125532492D01*
X59803606Y-125132492D02*
X59727416Y-125132492D01*
X59689320Y-125151540D01*
X59670273Y-125170587D01*
X59632178Y-125227730D01*
X59613130Y-125303920D01*
X59613130Y-125456301D01*
X59632178Y-125494397D01*
X59651225Y-125513444D01*
X59689320Y-125532492D01*
X59765511Y-125532492D01*
X59803606Y-125513444D01*
X59822654Y-125494397D01*
X59841701Y-125456301D01*
X59841701Y-125361063D01*
X59822654Y-125322968D01*
X59803606Y-125303920D01*
X59765511Y-125284873D01*
X59689320Y-125284873D01*
X59651225Y-125303920D01*
X59632178Y-125322968D01*
X59613130Y-125361063D01*
X55874952Y-135521142D02*
X55684476Y-135654476D01*
X55874952Y-135749714D02*
X55474952Y-135749714D01*
X55474952Y-135597333D01*
X55494000Y-135559238D01*
X55513047Y-135540190D01*
X55551142Y-135521142D01*
X55608285Y-135521142D01*
X55646380Y-135540190D01*
X55665428Y-135559238D01*
X55684476Y-135597333D01*
X55684476Y-135749714D01*
X55513047Y-135368761D02*
X55494000Y-135349714D01*
X55474952Y-135311619D01*
X55474952Y-135216380D01*
X55494000Y-135178285D01*
X55513047Y-135159238D01*
X55551142Y-135140190D01*
X55589238Y-135140190D01*
X55646380Y-135159238D01*
X55874952Y-135387809D01*
X55874952Y-135140190D01*
X55474952Y-134778285D02*
X55474952Y-134968761D01*
X55665428Y-134987809D01*
X55646380Y-134968761D01*
X55627333Y-134930666D01*
X55627333Y-134835428D01*
X55646380Y-134797333D01*
X55665428Y-134778285D01*
X55703523Y-134759238D01*
X55798761Y-134759238D01*
X55836857Y-134778285D01*
X55855904Y-134797333D01*
X55874952Y-134835428D01*
X55874952Y-134930666D01*
X55855904Y-134968761D01*
X55836857Y-134987809D01*
X53600952Y-104096666D02*
X53410476Y-104230000D01*
X53600952Y-104325238D02*
X53200952Y-104325238D01*
X53200952Y-104172857D01*
X53220000Y-104134761D01*
X53239047Y-104115714D01*
X53277142Y-104096666D01*
X53334285Y-104096666D01*
X53372380Y-104115714D01*
X53391428Y-104134761D01*
X53410476Y-104172857D01*
X53410476Y-104325238D01*
X53600952Y-103715714D02*
X53600952Y-103944285D01*
X53600952Y-103830000D02*
X53200952Y-103830000D01*
X53258095Y-103868095D01*
X53296190Y-103906190D01*
X53315238Y-103944285D01*
D14*
X56106190Y-146383333D02*
X56106190Y-146621428D01*
X55606190Y-146621428D01*
X55606190Y-146264285D02*
X55606190Y-145954761D01*
X55796666Y-146121428D01*
X55796666Y-146050000D01*
X55820476Y-146002380D01*
X55844285Y-145978571D01*
X55891904Y-145954761D01*
X56010952Y-145954761D01*
X56058571Y-145978571D01*
X56082380Y-146002380D01*
X56106190Y-146050000D01*
X56106190Y-146192857D01*
X56082380Y-146240476D01*
X56058571Y-146264285D01*
X42236666Y-144966190D02*
X41998571Y-144966190D01*
X41998571Y-144466190D01*
X42379523Y-144513809D02*
X42403333Y-144490000D01*
X42450952Y-144466190D01*
X42570000Y-144466190D01*
X42617619Y-144490000D01*
X42641428Y-144513809D01*
X42665238Y-144561428D01*
X42665238Y-144609047D01*
X42641428Y-144680476D01*
X42355714Y-144966190D01*
X42665238Y-144966190D01*
D13*
X70310352Y-67460434D02*
X69910352Y-67460434D01*
X69910352Y-67365196D01*
X69929400Y-67308053D01*
X69967495Y-67269958D01*
X70005590Y-67250910D01*
X70081780Y-67231862D01*
X70138923Y-67231862D01*
X70215114Y-67250910D01*
X70253209Y-67269958D01*
X70291304Y-67308053D01*
X70310352Y-67365196D01*
X70310352Y-67460434D01*
X70310352Y-66850910D02*
X70310352Y-67079481D01*
X70310352Y-66965196D02*
X69910352Y-66965196D01*
X69967495Y-67003291D01*
X70005590Y-67041386D01*
X70024638Y-67079481D01*
X69910352Y-66603291D02*
X69910352Y-66565196D01*
X69929400Y-66527100D01*
X69948447Y-66508053D01*
X69986542Y-66489005D01*
X70062733Y-66469958D01*
X70157971Y-66469958D01*
X70234161Y-66489005D01*
X70272257Y-66508053D01*
X70291304Y-66527100D01*
X70310352Y-66565196D01*
X70310352Y-66603291D01*
X70291304Y-66641386D01*
X70272257Y-66660434D01*
X70234161Y-66679481D01*
X70157971Y-66698529D01*
X70062733Y-66698529D01*
X69986542Y-66679481D01*
X69948447Y-66660434D01*
X69929400Y-66641386D01*
X69910352Y-66603291D01*
X46502261Y-133570952D02*
X46502261Y-133170952D01*
X46597500Y-133170952D01*
X46654642Y-133190000D01*
X46692738Y-133228095D01*
X46711785Y-133266190D01*
X46730833Y-133342380D01*
X46730833Y-133399523D01*
X46711785Y-133475714D01*
X46692738Y-133513809D01*
X46654642Y-133551904D01*
X46597500Y-133570952D01*
X46502261Y-133570952D01*
X46959404Y-133342380D02*
X46921309Y-133323333D01*
X46902261Y-133304285D01*
X46883214Y-133266190D01*
X46883214Y-133247142D01*
X46902261Y-133209047D01*
X46921309Y-133190000D01*
X46959404Y-133170952D01*
X47035595Y-133170952D01*
X47073690Y-133190000D01*
X47092738Y-133209047D01*
X47111785Y-133247142D01*
X47111785Y-133266190D01*
X47092738Y-133304285D01*
X47073690Y-133323333D01*
X47035595Y-133342380D01*
X46959404Y-133342380D01*
X46921309Y-133361428D01*
X46902261Y-133380476D01*
X46883214Y-133418571D01*
X46883214Y-133494761D01*
X46902261Y-133532857D01*
X46921309Y-133551904D01*
X46959404Y-133570952D01*
X47035595Y-133570952D01*
X47073690Y-133551904D01*
X47092738Y-133532857D01*
X47111785Y-133494761D01*
X47111785Y-133418571D01*
X47092738Y-133380476D01*
X47073690Y-133361428D01*
X47035595Y-133342380D01*
X56092761Y-117274952D02*
X56092761Y-116874952D01*
X56188000Y-116874952D01*
X56245142Y-116894000D01*
X56283238Y-116932095D01*
X56302285Y-116970190D01*
X56321333Y-117046380D01*
X56321333Y-117103523D01*
X56302285Y-117179714D01*
X56283238Y-117217809D01*
X56245142Y-117255904D01*
X56188000Y-117274952D01*
X56092761Y-117274952D01*
X56473714Y-116913047D02*
X56492761Y-116894000D01*
X56530857Y-116874952D01*
X56626095Y-116874952D01*
X56664190Y-116894000D01*
X56683238Y-116913047D01*
X56702285Y-116951142D01*
X56702285Y-116989238D01*
X56683238Y-117046380D01*
X56454666Y-117274952D01*
X56702285Y-117274952D01*
X57206761Y-108556952D02*
X57206761Y-108156952D01*
X57302000Y-108156952D01*
X57359142Y-108176000D01*
X57397238Y-108214095D01*
X57416285Y-108252190D01*
X57435333Y-108328380D01*
X57435333Y-108385523D01*
X57416285Y-108461714D01*
X57397238Y-108499809D01*
X57359142Y-108537904D01*
X57302000Y-108556952D01*
X57206761Y-108556952D01*
X57816285Y-108556952D02*
X57587714Y-108556952D01*
X57702000Y-108556952D02*
X57702000Y-108156952D01*
X57663904Y-108214095D01*
X57625809Y-108252190D01*
X57587714Y-108271238D01*
X37392857Y-137792857D02*
X37373809Y-137811904D01*
X37316666Y-137830952D01*
X37278571Y-137830952D01*
X37221428Y-137811904D01*
X37183333Y-137773809D01*
X37164285Y-137735714D01*
X37145238Y-137659523D01*
X37145238Y-137602380D01*
X37164285Y-137526190D01*
X37183333Y-137488095D01*
X37221428Y-137450000D01*
X37278571Y-137430952D01*
X37316666Y-137430952D01*
X37373809Y-137450000D01*
X37392857Y-137469047D01*
X37735714Y-137564285D02*
X37735714Y-137830952D01*
X37640476Y-137411904D02*
X37545238Y-137697619D01*
X37792857Y-137697619D01*
X37926190Y-137469047D02*
X37945238Y-137450000D01*
X37983333Y-137430952D01*
X38078571Y-137430952D01*
X38116666Y-137450000D01*
X38135714Y-137469047D01*
X38154761Y-137507142D01*
X38154761Y-137545238D01*
X38135714Y-137602380D01*
X37907142Y-137830952D01*
X38154761Y-137830952D01*
X37392857Y-136142857D02*
X37373809Y-136161904D01*
X37316666Y-136180952D01*
X37278571Y-136180952D01*
X37221428Y-136161904D01*
X37183333Y-136123809D01*
X37164285Y-136085714D01*
X37145238Y-136009523D01*
X37145238Y-135952380D01*
X37164285Y-135876190D01*
X37183333Y-135838095D01*
X37221428Y-135800000D01*
X37278571Y-135780952D01*
X37316666Y-135780952D01*
X37373809Y-135800000D01*
X37392857Y-135819047D01*
X37526190Y-135780952D02*
X37773809Y-135780952D01*
X37640476Y-135933333D01*
X37697619Y-135933333D01*
X37735714Y-135952380D01*
X37754761Y-135971428D01*
X37773809Y-136009523D01*
X37773809Y-136104761D01*
X37754761Y-136142857D01*
X37735714Y-136161904D01*
X37697619Y-136180952D01*
X37583333Y-136180952D01*
X37545238Y-136161904D01*
X37526190Y-136142857D01*
X37964285Y-136180952D02*
X38040476Y-136180952D01*
X38078571Y-136161904D01*
X38097619Y-136142857D01*
X38135714Y-136085714D01*
X38154761Y-136009523D01*
X38154761Y-135857142D01*
X38135714Y-135819047D01*
X38116666Y-135800000D01*
X38078571Y-135780952D01*
X38002380Y-135780952D01*
X37964285Y-135800000D01*
X37945238Y-135819047D01*
X37926190Y-135857142D01*
X37926190Y-135952380D01*
X37945238Y-135990476D01*
X37964285Y-136009523D01*
X38002380Y-136028571D01*
X38078571Y-136028571D01*
X38116666Y-136009523D01*
X38135714Y-135990476D01*
X38154761Y-135952380D01*
D15*
X36313214Y-133945714D02*
X36275119Y-133983809D01*
X36160833Y-134021904D01*
X36084642Y-134021904D01*
X35970357Y-133983809D01*
X35894166Y-133907619D01*
X35856071Y-133831428D01*
X35817976Y-133679047D01*
X35817976Y-133564761D01*
X35856071Y-133412380D01*
X35894166Y-133336190D01*
X35970357Y-133260000D01*
X36084642Y-133221904D01*
X36160833Y-133221904D01*
X36275119Y-133260000D01*
X36313214Y-133298095D01*
X36579880Y-133221904D02*
X37075119Y-133221904D01*
X36808452Y-133526666D01*
X36922738Y-133526666D01*
X36998928Y-133564761D01*
X37037023Y-133602857D01*
X37075119Y-133679047D01*
X37075119Y-133869523D01*
X37037023Y-133945714D01*
X36998928Y-133983809D01*
X36922738Y-134021904D01*
X36694166Y-134021904D01*
X36617976Y-133983809D01*
X36579880Y-133945714D01*
X37532261Y-133564761D02*
X37456071Y-133526666D01*
X37417976Y-133488571D01*
X37379880Y-133412380D01*
X37379880Y-133374285D01*
X37417976Y-133298095D01*
X37456071Y-133260000D01*
X37532261Y-133221904D01*
X37684642Y-133221904D01*
X37760833Y-133260000D01*
X37798928Y-133298095D01*
X37837023Y-133374285D01*
X37837023Y-133412380D01*
X37798928Y-133488571D01*
X37760833Y-133526666D01*
X37684642Y-133564761D01*
X37532261Y-133564761D01*
X37456071Y-133602857D01*
X37417976Y-133640952D01*
X37379880Y-133717142D01*
X37379880Y-133869523D01*
X37417976Y-133945714D01*
X37456071Y-133983809D01*
X37532261Y-134021904D01*
X37684642Y-134021904D01*
X37760833Y-133983809D01*
X37798928Y-133945714D01*
X37837023Y-133869523D01*
X37837023Y-133717142D01*
X37798928Y-133640952D01*
X37760833Y-133602857D01*
X37684642Y-133564761D01*
D13*
X52032857Y-104081666D02*
X52051904Y-104100714D01*
X52070952Y-104157857D01*
X52070952Y-104195952D01*
X52051904Y-104253095D01*
X52013809Y-104291190D01*
X51975714Y-104310238D01*
X51899523Y-104329285D01*
X51842380Y-104329285D01*
X51766190Y-104310238D01*
X51728095Y-104291190D01*
X51690000Y-104253095D01*
X51670952Y-104195952D01*
X51670952Y-104157857D01*
X51690000Y-104100714D01*
X51709047Y-104081666D01*
X51670952Y-103948333D02*
X51670952Y-103681666D01*
X52070952Y-103853095D01*
X50482857Y-104076666D02*
X50501904Y-104095714D01*
X50520952Y-104152857D01*
X50520952Y-104190952D01*
X50501904Y-104248095D01*
X50463809Y-104286190D01*
X50425714Y-104305238D01*
X50349523Y-104324285D01*
X50292380Y-104324285D01*
X50216190Y-104305238D01*
X50178095Y-104286190D01*
X50140000Y-104248095D01*
X50120952Y-104190952D01*
X50120952Y-104152857D01*
X50140000Y-104095714D01*
X50159047Y-104076666D01*
X50120952Y-103714761D02*
X50120952Y-103905238D01*
X50311428Y-103924285D01*
X50292380Y-103905238D01*
X50273333Y-103867142D01*
X50273333Y-103771904D01*
X50292380Y-103733809D01*
X50311428Y-103714761D01*
X50349523Y-103695714D01*
X50444761Y-103695714D01*
X50482857Y-103714761D01*
X50501904Y-103733809D01*
X50520952Y-103771904D01*
X50520952Y-103867142D01*
X50501904Y-103905238D01*
X50482857Y-103924285D01*
X58574857Y-105927666D02*
X58593904Y-105946714D01*
X58612952Y-106003857D01*
X58612952Y-106041952D01*
X58593904Y-106099095D01*
X58555809Y-106137190D01*
X58517714Y-106156238D01*
X58441523Y-106175285D01*
X58384380Y-106175285D01*
X58308190Y-106156238D01*
X58270095Y-106137190D01*
X58232000Y-106099095D01*
X58212952Y-106041952D01*
X58212952Y-106003857D01*
X58232000Y-105946714D01*
X58251047Y-105927666D01*
X58212952Y-105794333D02*
X58212952Y-105546714D01*
X58365333Y-105680047D01*
X58365333Y-105622904D01*
X58384380Y-105584809D01*
X58403428Y-105565761D01*
X58441523Y-105546714D01*
X58536761Y-105546714D01*
X58574857Y-105565761D01*
X58593904Y-105584809D01*
X58612952Y-105622904D01*
X58612952Y-105737190D01*
X58593904Y-105775285D01*
X58574857Y-105794333D01*
D11*
X46620380Y-88742095D02*
X45620380Y-88742095D01*
X45620380Y-88504000D01*
X45668000Y-88361142D01*
X45763238Y-88265904D01*
X45858476Y-88218285D01*
X46048952Y-88170666D01*
X46191809Y-88170666D01*
X46382285Y-88218285D01*
X46477523Y-88265904D01*
X46572761Y-88361142D01*
X46620380Y-88504000D01*
X46620380Y-88742095D01*
X45620380Y-87837333D02*
X45620380Y-87218285D01*
X46001333Y-87551619D01*
X46001333Y-87408761D01*
X46048952Y-87313523D01*
X46096571Y-87265904D01*
X46191809Y-87218285D01*
X46429904Y-87218285D01*
X46525142Y-87265904D01*
X46572761Y-87313523D01*
X46620380Y-87408761D01*
X46620380Y-87694476D01*
X46572761Y-87789714D01*
X46525142Y-87837333D01*
X59752380Y-88838095D02*
X58752380Y-88838095D01*
X58752380Y-88600000D01*
X58800000Y-88457142D01*
X58895238Y-88361904D01*
X58990476Y-88314285D01*
X59180952Y-88266666D01*
X59323809Y-88266666D01*
X59514285Y-88314285D01*
X59609523Y-88361904D01*
X59704761Y-88457142D01*
X59752380Y-88600000D01*
X59752380Y-88838095D01*
X58752380Y-87409523D02*
X58752380Y-87600000D01*
X58800000Y-87695238D01*
X58847619Y-87742857D01*
X58990476Y-87838095D01*
X59180952Y-87885714D01*
X59561904Y-87885714D01*
X59657142Y-87838095D01*
X59704761Y-87790476D01*
X59752380Y-87695238D01*
X59752380Y-87504761D01*
X59704761Y-87409523D01*
X59657142Y-87361904D01*
X59561904Y-87314285D01*
X59323809Y-87314285D01*
X59228571Y-87361904D01*
X59180952Y-87409523D01*
X59133333Y-87504761D01*
X59133333Y-87695238D01*
X59180952Y-87790476D01*
X59228571Y-87838095D01*
X59323809Y-87885714D01*
X36818095Y-145252380D02*
X36818095Y-144252380D01*
X36818095Y-144728571D02*
X37389523Y-144728571D01*
X37389523Y-145252380D02*
X37389523Y-144252380D01*
X38389523Y-145252380D02*
X37818095Y-145252380D01*
X38103809Y-145252380D02*
X38103809Y-144252380D01*
X38008571Y-144395238D01*
X37913333Y-144490476D01*
X37818095Y-144538095D01*
X37618380Y-68113904D02*
X36618380Y-68113904D01*
X37094571Y-68113904D02*
X37094571Y-67542476D01*
X37618380Y-67542476D02*
X36618380Y-67542476D01*
X36713619Y-67113904D02*
X36666000Y-67066285D01*
X36618380Y-66971047D01*
X36618380Y-66732952D01*
X36666000Y-66637714D01*
X36713619Y-66590095D01*
X36808857Y-66542476D01*
X36904095Y-66542476D01*
X37046952Y-66590095D01*
X37618380Y-67161523D01*
X37618380Y-66542476D01*
X117888095Y-144902380D02*
X117888095Y-143902380D01*
X117888095Y-144378571D02*
X118459523Y-144378571D01*
X118459523Y-144902380D02*
X118459523Y-143902380D01*
X118840476Y-143902380D02*
X119459523Y-143902380D01*
X119126190Y-144283333D01*
X119269047Y-144283333D01*
X119364285Y-144330952D01*
X119411904Y-144378571D01*
X119459523Y-144473809D01*
X119459523Y-144711904D01*
X119411904Y-144807142D01*
X119364285Y-144854761D01*
X119269047Y-144902380D01*
X118983333Y-144902380D01*
X118888095Y-144854761D01*
X118840476Y-144807142D01*
X117888095Y-68142380D02*
X117888095Y-67142380D01*
X117888095Y-67618571D02*
X118459523Y-67618571D01*
X118459523Y-68142380D02*
X118459523Y-67142380D01*
X119364285Y-67475714D02*
X119364285Y-68142380D01*
X119126190Y-67094761D02*
X118888095Y-67809047D01*
X119507142Y-67809047D01*
X37298380Y-114125333D02*
X38012666Y-114125333D01*
X38155523Y-114172952D01*
X38250761Y-114268190D01*
X38298380Y-114411047D01*
X38298380Y-114506285D01*
X38298380Y-113125333D02*
X38298380Y-113696761D01*
X38298380Y-113411047D02*
X37298380Y-113411047D01*
X37441238Y-113506285D01*
X37536476Y-113601523D01*
X37584095Y-113696761D01*
X37298380Y-85763333D02*
X38012666Y-85763333D01*
X38155523Y-85810952D01*
X38250761Y-85906190D01*
X38298380Y-86049047D01*
X38298380Y-86144285D01*
X37393619Y-85334761D02*
X37346000Y-85287142D01*
X37298380Y-85191904D01*
X37298380Y-84953809D01*
X37346000Y-84858571D01*
X37393619Y-84810952D01*
X37488857Y-84763333D01*
X37584095Y-84763333D01*
X37726952Y-84810952D01*
X38298380Y-85382380D01*
X38298380Y-84763333D01*
X105732380Y-115633333D02*
X106446666Y-115633333D01*
X106589523Y-115680952D01*
X106684761Y-115776190D01*
X106732380Y-115919047D01*
X106732380Y-116014285D01*
X105732380Y-115252380D02*
X105732380Y-114633333D01*
X106113333Y-114966666D01*
X106113333Y-114823809D01*
X106160952Y-114728571D01*
X106208571Y-114680952D01*
X106303809Y-114633333D01*
X106541904Y-114633333D01*
X106637142Y-114680952D01*
X106684761Y-114728571D01*
X106732380Y-114823809D01*
X106732380Y-115109523D01*
X106684761Y-115204761D01*
X106637142Y-115252380D01*
X108066666Y-140822380D02*
X108066666Y-141536666D01*
X108019047Y-141679523D01*
X107923809Y-141774761D01*
X107780952Y-141822380D01*
X107685714Y-141822380D01*
X108971428Y-141155714D02*
X108971428Y-141822380D01*
X108733333Y-140774761D02*
X108495238Y-141489047D01*
X109114285Y-141489047D01*
X49846666Y-146752380D02*
X49846666Y-147466666D01*
X49799047Y-147609523D01*
X49703809Y-147704761D01*
X49560952Y-147752380D01*
X49465714Y-147752380D01*
X50465714Y-147180952D02*
X50370476Y-147133333D01*
X50322857Y-147085714D01*
X50275238Y-146990476D01*
X50275238Y-146942857D01*
X50322857Y-146847619D01*
X50370476Y-146800000D01*
X50465714Y-146752380D01*
X50656190Y-146752380D01*
X50751428Y-146800000D01*
X50799047Y-146847619D01*
X50846666Y-146942857D01*
X50846666Y-146990476D01*
X50799047Y-147085714D01*
X50751428Y-147133333D01*
X50656190Y-147180952D01*
X50465714Y-147180952D01*
X50370476Y-147228571D01*
X50322857Y-147276190D01*
X50275238Y-147371428D01*
X50275238Y-147561904D01*
X50322857Y-147657142D01*
X50370476Y-147704761D01*
X50465714Y-147752380D01*
X50656190Y-147752380D01*
X50751428Y-147704761D01*
X50799047Y-147657142D01*
X50846666Y-147561904D01*
X50846666Y-147371428D01*
X50799047Y-147276190D01*
X50751428Y-147228571D01*
X50656190Y-147180952D01*
X49116380Y-112791904D02*
X49925904Y-112791904D01*
X50021142Y-112744285D01*
X50068761Y-112696666D01*
X50116380Y-112601428D01*
X50116380Y-112410952D01*
X50068761Y-112315714D01*
X50021142Y-112268095D01*
X49925904Y-112220476D01*
X49116380Y-112220476D01*
X50116380Y-111220476D02*
X50116380Y-111791904D01*
X50116380Y-111506190D02*
X49116380Y-111506190D01*
X49259238Y-111601428D01*
X49354476Y-111696666D01*
X49402095Y-111791904D01*
X54380380Y-129747904D02*
X55189904Y-129747904D01*
X55285142Y-129700285D01*
X55332761Y-129652666D01*
X55380380Y-129557428D01*
X55380380Y-129366952D01*
X55332761Y-129271714D01*
X55285142Y-129224095D01*
X55189904Y-129176476D01*
X54380380Y-129176476D01*
X54713714Y-128271714D02*
X55380380Y-128271714D01*
X54332761Y-128509809D02*
X55047047Y-128747904D01*
X55047047Y-128128857D01*
X79639335Y-127871760D02*
X79639335Y-128681284D01*
X79686954Y-128776522D01*
X79734573Y-128824141D01*
X79829811Y-128871760D01*
X80020287Y-128871760D01*
X80115525Y-128824141D01*
X80163144Y-128776522D01*
X80210763Y-128681284D01*
X80210763Y-127871760D01*
X81115525Y-127871760D02*
X80925049Y-127871760D01*
X80829811Y-127919380D01*
X80782192Y-127966999D01*
X80686954Y-128109856D01*
X80639335Y-128300332D01*
X80639335Y-128681284D01*
X80686954Y-128776522D01*
X80734573Y-128824141D01*
X80829811Y-128871760D01*
X81020287Y-128871760D01*
X81115525Y-128824141D01*
X81163144Y-128776522D01*
X81210763Y-128681284D01*
X81210763Y-128443189D01*
X81163144Y-128347951D01*
X81115525Y-128300332D01*
X81020287Y-128252713D01*
X80829811Y-128252713D01*
X80734573Y-128300332D01*
X80686954Y-128347951D01*
X80639335Y-128443189D01*
D15*
X44761904Y-138970476D02*
X45409523Y-138970476D01*
X45485714Y-138932380D01*
X45523809Y-138894285D01*
X45561904Y-138818095D01*
X45561904Y-138665714D01*
X45523809Y-138589523D01*
X45485714Y-138551428D01*
X45409523Y-138513333D01*
X44761904Y-138513333D01*
X45561904Y-137713333D02*
X45561904Y-138170476D01*
X45561904Y-137941904D02*
X44761904Y-137941904D01*
X44876190Y-138018095D01*
X44952380Y-138094285D01*
X44990476Y-138170476D01*
X44761904Y-137446666D02*
X44761904Y-136951428D01*
X45066666Y-137218095D01*
X45066666Y-137103809D01*
X45104761Y-137027619D01*
X45142857Y-136989523D01*
X45219047Y-136951428D01*
X45409523Y-136951428D01*
X45485714Y-136989523D01*
X45523809Y-137027619D01*
X45561904Y-137103809D01*
X45561904Y-137332380D01*
X45523809Y-137408571D01*
X45485714Y-137446666D01*
X64594343Y-69468024D02*
X64594343Y-70115643D01*
X64632439Y-70191834D01*
X64670534Y-70229929D01*
X64746724Y-70268024D01*
X64899105Y-70268024D01*
X64975296Y-70229929D01*
X65013391Y-70191834D01*
X65051486Y-70115643D01*
X65051486Y-69468024D01*
X65851486Y-70268024D02*
X65394343Y-70268024D01*
X65622915Y-70268024D02*
X65622915Y-69468024D01*
X65546724Y-69582310D01*
X65470534Y-69658500D01*
X65394343Y-69696596D01*
X66575296Y-69468024D02*
X66194343Y-69468024D01*
X66156248Y-69848977D01*
X66194343Y-69810881D01*
X66270534Y-69772786D01*
X66461010Y-69772786D01*
X66537200Y-69810881D01*
X66575296Y-69848977D01*
X66613391Y-69925167D01*
X66613391Y-70115643D01*
X66575296Y-70191834D01*
X66537200Y-70229929D01*
X66461010Y-70268024D01*
X66270534Y-70268024D01*
X66194343Y-70229929D01*
X66156248Y-70191834D01*
X75033983Y-69440084D02*
X75033983Y-70087703D01*
X75072079Y-70163894D01*
X75110174Y-70201989D01*
X75186364Y-70240084D01*
X75338745Y-70240084D01*
X75414936Y-70201989D01*
X75453031Y-70163894D01*
X75491126Y-70087703D01*
X75491126Y-69440084D01*
X76291126Y-70240084D02*
X75833983Y-70240084D01*
X76062555Y-70240084D02*
X76062555Y-69440084D01*
X75986364Y-69554370D01*
X75910174Y-69630560D01*
X75833983Y-69668656D01*
X76976840Y-69440084D02*
X76824460Y-69440084D01*
X76748269Y-69478180D01*
X76710174Y-69516275D01*
X76633983Y-69630560D01*
X76595888Y-69782941D01*
X76595888Y-70087703D01*
X76633983Y-70163894D01*
X76672079Y-70201989D01*
X76748269Y-70240084D01*
X76900650Y-70240084D01*
X76976840Y-70201989D01*
X77014936Y-70163894D01*
X77053031Y-70087703D01*
X77053031Y-69897227D01*
X77014936Y-69821037D01*
X76976840Y-69782941D01*
X76900650Y-69744846D01*
X76748269Y-69744846D01*
X76672079Y-69782941D01*
X76633983Y-69821037D01*
X76595888Y-69897227D01*
D12*
X80844132Y-67638290D02*
X80844132Y-68043052D01*
X80867941Y-68090671D01*
X80891751Y-68114480D01*
X80939370Y-68138290D01*
X81034608Y-68138290D01*
X81082227Y-68114480D01*
X81106037Y-68090671D01*
X81129846Y-68043052D01*
X81129846Y-67638290D01*
X81629846Y-68138290D02*
X81344132Y-68138290D01*
X81486989Y-68138290D02*
X81486989Y-67638290D01*
X81439370Y-67709719D01*
X81391751Y-67757338D01*
X81344132Y-67781147D01*
X81796513Y-67638290D02*
X82129846Y-67638290D01*
X81915560Y-68138290D01*
X64845712Y-76911970D02*
X64845712Y-77316732D01*
X64869521Y-77364351D01*
X64893331Y-77388160D01*
X64940950Y-77411970D01*
X65036188Y-77411970D01*
X65083807Y-77388160D01*
X65107617Y-77364351D01*
X65131426Y-77316732D01*
X65131426Y-76911970D01*
X65631426Y-77411970D02*
X65345712Y-77411970D01*
X65488569Y-77411970D02*
X65488569Y-76911970D01*
X65440950Y-76983399D01*
X65393331Y-77031018D01*
X65345712Y-77054827D01*
X65917140Y-77126256D02*
X65869521Y-77102446D01*
X65845712Y-77078637D01*
X65821902Y-77031018D01*
X65821902Y-77007208D01*
X65845712Y-76959589D01*
X65869521Y-76935780D01*
X65917140Y-76911970D01*
X66012379Y-76911970D01*
X66059998Y-76935780D01*
X66083807Y-76959589D01*
X66107617Y-77007208D01*
X66107617Y-77031018D01*
X66083807Y-77078637D01*
X66059998Y-77102446D01*
X66012379Y-77126256D01*
X65917140Y-77126256D01*
X65869521Y-77150065D01*
X65845712Y-77173875D01*
X65821902Y-77221494D01*
X65821902Y-77316732D01*
X65845712Y-77364351D01*
X65869521Y-77388160D01*
X65917140Y-77411970D01*
X66012379Y-77411970D01*
X66059998Y-77388160D01*
X66083807Y-77364351D01*
X66107617Y-77316732D01*
X66107617Y-77221494D01*
X66083807Y-77173875D01*
X66059998Y-77150065D01*
X66012379Y-77126256D01*
D11*
X117722380Y-85763333D02*
X118436666Y-85763333D01*
X118579523Y-85810952D01*
X118674761Y-85906190D01*
X118722380Y-86049047D01*
X118722380Y-86144285D01*
X117722380Y-84810952D02*
X117722380Y-85287142D01*
X118198571Y-85334761D01*
X118150952Y-85287142D01*
X118103333Y-85191904D01*
X118103333Y-84953809D01*
X118150952Y-84858571D01*
X118198571Y-84810952D01*
X118293809Y-84763333D01*
X118531904Y-84763333D01*
X118627142Y-84810952D01*
X118674761Y-84858571D01*
X118722380Y-84953809D01*
X118722380Y-85191904D01*
X118674761Y-85287142D01*
X118627142Y-85334761D01*
X117722380Y-113763333D02*
X118436666Y-113763333D01*
X118579523Y-113810952D01*
X118674761Y-113906190D01*
X118722380Y-114049047D01*
X118722380Y-114144285D01*
X117722380Y-112858571D02*
X117722380Y-113049047D01*
X117770000Y-113144285D01*
X117817619Y-113191904D01*
X117960476Y-113287142D01*
X118150952Y-113334761D01*
X118531904Y-113334761D01*
X118627142Y-113287142D01*
X118674761Y-113239523D01*
X118722380Y-113144285D01*
X118722380Y-112953809D01*
X118674761Y-112858571D01*
X118627142Y-112810952D01*
X118531904Y-112763333D01*
X118293809Y-112763333D01*
X118198571Y-112810952D01*
X118150952Y-112858571D01*
X118103333Y-112953809D01*
X118103333Y-113144285D01*
X118150952Y-113239523D01*
X118198571Y-113287142D01*
X118293809Y-113334761D01*
D13*
X37367261Y-139630952D02*
X37367261Y-139230952D01*
X37462500Y-139230952D01*
X37519642Y-139250000D01*
X37557738Y-139288095D01*
X37576785Y-139326190D01*
X37595833Y-139402380D01*
X37595833Y-139459523D01*
X37576785Y-139535714D01*
X37557738Y-139573809D01*
X37519642Y-139611904D01*
X37462500Y-139630952D01*
X37367261Y-139630952D01*
X37729166Y-139230952D02*
X37995833Y-139230952D01*
X37824404Y-139630952D01*
X35530952Y-140707142D02*
X35340476Y-140840476D01*
X35530952Y-140935714D02*
X35130952Y-140935714D01*
X35130952Y-140783333D01*
X35150000Y-140745238D01*
X35169047Y-140726190D01*
X35207142Y-140707142D01*
X35264285Y-140707142D01*
X35302380Y-140726190D01*
X35321428Y-140745238D01*
X35340476Y-140783333D01*
X35340476Y-140935714D01*
X35530952Y-140516666D02*
X35530952Y-140440476D01*
X35511904Y-140402380D01*
X35492857Y-140383333D01*
X35435714Y-140345238D01*
X35359523Y-140326190D01*
X35207142Y-140326190D01*
X35169047Y-140345238D01*
X35150000Y-140364285D01*
X35130952Y-140402380D01*
X35130952Y-140478571D01*
X35150000Y-140516666D01*
X35169047Y-140535714D01*
X35207142Y-140554761D01*
X35302380Y-140554761D01*
X35340476Y-140535714D01*
X35359523Y-140516666D01*
X35378571Y-140478571D01*
X35378571Y-140402380D01*
X35359523Y-140364285D01*
X35340476Y-140345238D01*
X35302380Y-140326190D01*
X35130952Y-139964285D02*
X35130952Y-140154761D01*
X35321428Y-140173809D01*
X35302380Y-140154761D01*
X35283333Y-140116666D01*
X35283333Y-140021428D01*
X35302380Y-139983333D01*
X35321428Y-139964285D01*
X35359523Y-139945238D01*
X35454761Y-139945238D01*
X35492857Y-139964285D01*
X35511904Y-139983333D01*
X35530952Y-140021428D01*
X35530952Y-140116666D01*
X35511904Y-140154761D01*
X35492857Y-140173809D01*
M02*
