M48
; DRILL file {KiCad 5.1.5-52549c5~86~ubuntu18.04.1} date lun 25 may 2020 12:27:19 -05
; FORMAT={2:4/ absolute / inch / suppress leading zeros}
; #@! TF.CreationDate,2020-05-25T12:27:19-05:00
; #@! TF.GenerationSoftware,Kicad,Pcbnew,5.1.5-52549c5~86~ubuntu18.04.1
; #@! TF.FileFunction,Plated,1,2,PTH
FMAT,2
INCH,TZ
T1C0.0157
T2C0.0300
T3C0.0315
T4C0.0362
T5C0.0394
T6C0.0906
T7C0.0984
%
G90
G05
T1
X13346Y-51969
X13346Y-52362
X13346Y-52835
X13701Y-51575
X13878Y-41811
X13878Y-42795
X13878Y-43799
X13898Y-40768
X13898Y-44803
X13898Y-48799
X13917Y-45807
X13917Y-46791
X13937Y-47815
X14094Y-51575
X14193Y-49921
X14528Y-50217
X14862Y-39173
X15866Y-55039
X15866Y-55394
X15866Y-55787
X15886Y-53185
X15886Y-53555
X15886Y-53933
X16102Y-50197
X16102Y-50906
X16142Y-30807
X16457Y-50906
X16535Y-48681
X16535Y-49055
X16535Y-49409
X16535Y-49803
X16535Y-50197
X16634Y-27953
X16634Y-28346
X16634Y-28760
X16634Y-29154
X17028Y-48681
X17028Y-49055
X17028Y-49409
X17028Y-49803
X17028Y-50217
X17126Y-34646
X17205Y-27480
X17205Y-27953
X17205Y-28346
X17205Y-28760
X17205Y-29154
X17520Y-34646
X17598Y-26004
X17795Y-26693
X17795Y-27087
X17795Y-27480
X17795Y-27953
X17795Y-28346
X17795Y-28760
X17795Y-29154
X17857Y-45871
X17953Y-34646
X17992Y-26004
X18095Y-45651
X18228Y-54134
X18228Y-54567
X18228Y-55039
X18287Y-30545
X18287Y-48524
X18287Y-48898
X18287Y-49252
X18287Y-49646
X18287Y-50059
X18287Y-50433
X18287Y-50787
X18406Y-26004
X18471Y-42238
X18721Y-41592
X18780Y-48524
X18780Y-48898
X18780Y-49252
X18780Y-49646
X18780Y-50059
X18780Y-50433
X18780Y-50787
X18799Y-26004
X18898Y-27933
X18898Y-28327
X18898Y-28740
X18898Y-29134
X18901Y-41843
X19076Y-46146
X19094Y-43819
X19094Y-44252
X19094Y-44724
X19528Y-27933
X19528Y-28327
X19528Y-28740
X19528Y-29134
X19606Y-43819
X19606Y-44252
X19606Y-44724
X19647Y-46015
X19649Y-41995
X19763Y-46391
X19882Y-38681
X19882Y-39134
X19882Y-39547
X19882Y-40000
X19921Y-54783
X19921Y-55177
X20079Y-43819
X20079Y-44252
X20079Y-44685
X20082Y-41993
X20118Y-27933
X20118Y-28327
X20118Y-28740
X20118Y-29134
X20276Y-38681
X20276Y-39134
X20276Y-39547
X20276Y-40000
X20276Y-54783
X20276Y-55177
X20650Y-54783
X20650Y-55177
X20669Y-27933
X20669Y-28327
X20669Y-28740
X20669Y-29134
X20709Y-50000
X20724Y-38424
X20866Y-51417
X21063Y-39961
X21063Y-50000
X21063Y-54783
X21063Y-55177
X21142Y-32205
X21188Y-38425
X21220Y-30627
X21220Y-51417
X21344Y-47136
X21344Y-47492
X21417Y-50000
X21417Y-54783
X21417Y-55177
X21435Y-43329
X21614Y-51417
X21634Y-27559
X21634Y-27933
X21634Y-28346
X21673Y-28760
X21673Y-29154
X21772Y-54783
X21772Y-55177
X21791Y-48406
X21850Y-43329
X21879Y-45594
X22028Y-27559
X22028Y-27933
X22028Y-28346
X22028Y-28760
X22028Y-29154
X22146Y-54783
X22146Y-55177
X22402Y-28760
X22402Y-29154
X22421Y-48524
X22559Y-54783
X22559Y-55177
X22618Y-50925
X22618Y-51319
X22677Y-53740
X22708Y-49804
X22795Y-47992
X22795Y-48346
X22795Y-48740
X22815Y-28760
X22815Y-29154
X22835Y-52441
X22835Y-52795
X22874Y-45492
X22992Y-37362
X22992Y-37776
X22992Y-38150
X22992Y-38504
X22992Y-38976
X22992Y-39409
X22992Y-39843
X22992Y-40236
X22992Y-50925
X22992Y-51319
X23071Y-26181
X23071Y-26614
X23071Y-27008
X23071Y-53740
X23130Y-51949
X23189Y-55276
X23189Y-55669
X23307Y-34528
X23366Y-49803
X23406Y-50925
X23406Y-51319
X23425Y-26181
X23425Y-26614
X23465Y-27008
X23471Y-42248
X23543Y-55276
X23543Y-55669
X23622Y-44567
X23661Y-34528
X23813Y-53116
X23817Y-52717
X23819Y-53701
X23917Y-55276
X23917Y-55669
X23959Y-50835
X23996Y-50433
X24035Y-30618
X24035Y-34528
X24193Y-43681
X24193Y-44252
X24193Y-44902
X24193Y-45571
X24193Y-46220
X24193Y-46811
X24193Y-47343
X24193Y-47953
X24331Y-55276
X24331Y-55669
X24370Y-49528
X24449Y-34528
X24567Y-56260
X24567Y-56654
X24685Y-50630
X24685Y-51220
X24724Y-43701
X24724Y-44272
X24724Y-44921
X24724Y-45591
X24724Y-46240
X24724Y-46831
X24724Y-47362
X24724Y-47972
X24764Y-29567
X24764Y-29961
X24783Y-51928
X24803Y-49528
X24803Y-49941
X24823Y-39921
X24823Y-40335
X24823Y-40709
X24823Y-41063
X24902Y-33406
X24902Y-33799
X24921Y-56260
X24921Y-56654
X24941Y-53287
X24980Y-54961
X24988Y-36460
X25000Y-53740
X25021Y-36852
X25059Y-37244
X25079Y-37815
X25079Y-51358
X25177Y-43681
X25177Y-44252
X25177Y-44902
X25177Y-45571
X25177Y-46220
X25177Y-46811
X25177Y-47343
X25177Y-47953
X25197Y-29528
X25197Y-32283
X25197Y-49941
X25199Y-32677
X25217Y-31831
X25217Y-39921
X25217Y-40335
X25217Y-40709
X25217Y-41063
X25256Y-33406
X25256Y-33799
X25295Y-56260
X25295Y-56654
X25429Y-35360
X25437Y-35754
X25472Y-34961
X25630Y-33406
X25630Y-33799
X25709Y-29528
X25709Y-56260
X25709Y-56654
X25866Y-25551
X25925Y-38465
X26043Y-33406
X26043Y-33799
X26457Y-25551
X26673Y-40610
X26713Y-27323
X26713Y-27677
X27067Y-27323
X27067Y-27677
X27283Y-40610
X27441Y-29488
X27524Y-33665
X27542Y-34520
X27547Y-34112
X27575Y-32499
X27598Y-35669
X27611Y-32107
X27618Y-35079
X27620Y-33283
X27625Y-32890
X27697Y-36673
X27795Y-29488
X27992Y-31378
X28012Y-39075
X28150Y-27244
X28150Y-27598
X28150Y-27972
X28150Y-28386
X28260Y-38673
X28265Y-36524
X28268Y-25551
X28268Y-26063
X28338Y-31178
X28469Y-32047
X28484Y-30394
X28504Y-39370
X28543Y-27244
X28543Y-27598
X28543Y-27972
X28543Y-28386
X28543Y-28799
X28701Y-31024
X28703Y-36086
X28819Y-25551
X28917Y-41081
X29528Y-45866
X29528Y-53504
X29528Y-55197
X29547Y-46319
X29547Y-47303
X29547Y-48701
X29547Y-53957
X29547Y-55650
X29567Y-47756
X29567Y-49154
X29567Y-50236
X29567Y-51772
X29587Y-50689
X29587Y-52224
X29823Y-39350
X29882Y-30433
X29941Y-35236
X29941Y-35689
X30138Y-45866
X30138Y-53504
X30138Y-55197
X30157Y-46319
X30157Y-47303
X30157Y-48701
X30157Y-53957
X30157Y-55650
X30177Y-47756
X30177Y-49154
X30177Y-50236
X30177Y-51772
X30197Y-50689
X30197Y-52224
X30276Y-25551
X30433Y-39350
X30551Y-35236
X30551Y-35689
X30669Y-25551
X30669Y-45866
X30669Y-53504
X30669Y-55197
X30689Y-46319
X30689Y-47303
X30689Y-48701
X30689Y-53957
X30689Y-55650
X30709Y-47756
X30709Y-49154
X30709Y-50236
X30709Y-51772
X30728Y-50689
X30728Y-52224
X30748Y-30512
X30787Y-33150
X30846Y-33937
X30846Y-34744
X30965Y-39350
X31063Y-30512
X31083Y-35236
X31083Y-35689
X31084Y-40820
X31102Y-25551
X31136Y-31934
X31260Y-33504
X31260Y-45866
X31260Y-53504
X31260Y-55197
X31280Y-46319
X31280Y-47303
X31280Y-48701
X31280Y-53957
X31280Y-55650
X31299Y-32854
X31299Y-47756
X31299Y-49154
X31299Y-50236
X31299Y-51772
X31319Y-50689
X31319Y-52224
X31496Y-27835
X31496Y-28189
X31496Y-28563
X31496Y-28976
X31554Y-40478
X31555Y-32283
X31555Y-39350
X31614Y-30433
X31673Y-35236
X31673Y-35689
X31909Y-45866
X31909Y-53504
X31909Y-55197
X31929Y-46319
X31929Y-47303
X31929Y-48701
X31929Y-53957
X31929Y-55650
X31949Y-47756
X31949Y-49154
X31949Y-50236
X31949Y-51772
X31969Y-50689
X31969Y-52224
X31972Y-30472
X32008Y-32283
X32087Y-25827
X32092Y-27633
X32092Y-28026
X32092Y-28420
X32205Y-39350
X32323Y-35236
X32323Y-35689
X32480Y-25827
X32579Y-28898
X32579Y-29311
X32579Y-45866
X32579Y-53504
X32579Y-55197
X32598Y-27992
X32598Y-28484
X32598Y-46319
X32598Y-47303
X32598Y-48701
X32598Y-53957
X32598Y-55650
X32618Y-47756
X32618Y-49154
X32618Y-50236
X32618Y-51772
X32638Y-50689
X32638Y-52224
X32835Y-33563
X32874Y-39350
X32992Y-35236
X32992Y-35689
X33012Y-27992
X33012Y-28484
X33012Y-28898
X33031Y-31181
X33031Y-31555
X33071Y-27283
X33110Y-32854
X33159Y-30750
X33228Y-45866
X33228Y-53504
X33228Y-55197
X33248Y-46319
X33248Y-47303
X33248Y-48701
X33248Y-53957
X33248Y-55650
X33268Y-47756
X33268Y-49154
X33268Y-50236
X33268Y-51772
X33287Y-50689
X33287Y-52224
X33307Y-32283
X33386Y-27992
X33386Y-28484
X33425Y-27283
X33484Y-33957
X33504Y-34744
X33524Y-33150
X33524Y-39350
X33599Y-30431
X33642Y-35236
X33642Y-35689
X33740Y-27992
X33780Y-27283
X33799Y-45866
X33799Y-53504
X33799Y-55197
X33819Y-32244
X33819Y-46319
X33819Y-47303
X33819Y-48701
X33819Y-53957
X33819Y-55650
X33839Y-47756
X33839Y-49154
X33839Y-50236
X33839Y-51772
X33858Y-50689
X33858Y-52224
X34094Y-39350
X34213Y-35236
X34213Y-35689
X34685Y-26811
X34695Y-32244
X34724Y-39331
X34843Y-35217
X34843Y-35669
X34882Y-31457
X34921Y-32008
X35039Y-30827
X35157Y-31772
X35335Y-39331
X35453Y-35217
X35453Y-35669
X35669Y-29252
X35866Y-39331
X35901Y-26766
X35906Y-38327
X35918Y-38765
X35925Y-36260
X35925Y-36732
X35925Y-37224
X35935Y-37656
X35984Y-35217
X35984Y-35669
X36299Y-26772
X36375Y-31449
X36457Y-39331
X36575Y-35217
X36575Y-35669
X36996Y-31825
X37192Y-47508
X37244Y-30571
X37431Y-31849
X37445Y-39536
X37638Y-30571
X37971Y-31840
X37992Y-30571
X38012Y-33189
X38012Y-33760
X38012Y-34409
X38012Y-35079
X38012Y-35728
X38012Y-36319
X38012Y-36850
X38012Y-37461
X38465Y-33169
X38465Y-33740
X38465Y-34390
X38465Y-35059
X38465Y-35709
X38465Y-36299
X38465Y-36831
X38465Y-37441
X38465Y-48583
X38661Y-49882
X38701Y-25748
X38720Y-26201
X38819Y-48583
X39173Y-28346
X39173Y-48583
X39173Y-49488
X39311Y-25748
X39331Y-26201
X39843Y-25748
X39862Y-26201
X40062Y-49505
X40276Y-45157
X40276Y-45591
X40276Y-45984
X40433Y-25748
X40453Y-26201
X40650Y-57283
X40669Y-55984
X40669Y-57736
X40689Y-56437
X40866Y-48150
X40906Y-29803
X41083Y-25748
X41102Y-26201
X41260Y-48150
X41260Y-57283
X41280Y-55984
X41280Y-57736
X41299Y-56437
X41339Y-29803
X41457Y-27835
X41496Y-50906
X41693Y-48150
X41747Y-29778
X41752Y-25748
X41772Y-26201
X41791Y-57283
X41811Y-55984
X41811Y-57736
X41831Y-56437
X42126Y-48150
X42382Y-57283
X42402Y-25748
X42402Y-55984
X42402Y-57736
X42421Y-26201
X42421Y-56437
X42815Y-27953
X42835Y-28406
X43031Y-57283
X43051Y-55984
X43051Y-57736
X43071Y-56437
X43425Y-27953
X43445Y-28406
X43701Y-57283
X43720Y-55984
X43720Y-57736
X43740Y-56437
X43792Y-47535
X43807Y-48167
X43814Y-46887
X43820Y-46239
X43848Y-45589
X43850Y-45140
X43957Y-27953
X43976Y-28406
X43996Y-29035
X44016Y-29488
X44350Y-57283
X44370Y-55984
X44370Y-57736
X44390Y-56437
X44547Y-27953
X44567Y-28406
X44587Y-29035
X44606Y-29488
X44724Y-50394
X44744Y-50846
X44764Y-51339
X44921Y-57283
X44941Y-55984
X44941Y-57736
X44961Y-56437
X45197Y-27953
X45217Y-28406
X45236Y-29035
X45256Y-29488
X45315Y-50394
X45335Y-50846
X45354Y-51339
X45965Y-50394
X45984Y-50846
X46004Y-51339
X46004Y-51969
X46024Y-52421
X46024Y-52874
X46043Y-53327
X46634Y-50394
X46654Y-50846
X46673Y-51339
X46673Y-51969
X46693Y-52421
X46693Y-52874
X46713Y-53327
X47283Y-50394
X47303Y-50846
X47323Y-51339
X47323Y-51969
X47343Y-52421
X47343Y-52874
X47362Y-53327
X47854Y-50394
X47874Y-50846
X47894Y-51339
X47894Y-51969
X47913Y-52421
X47913Y-52874
X47933Y-53327
T2
X26851Y-44653
X26851Y-45441
X26851Y-46228
X26851Y-47016
X26851Y-47803
X26851Y-48590
X26851Y-49378
X26851Y-50165
X26851Y-50953
X26851Y-51740
X26851Y-52527
X26851Y-53315
X26851Y-54102
X26851Y-54890
X26851Y-55677
X26851Y-56464
X36457Y-44653
X36457Y-45441
X36457Y-46228
X36457Y-47016
X36457Y-47803
X36457Y-48590
X36457Y-49378
X36457Y-50165
X36457Y-50953
X36457Y-51740
X36457Y-52527
X36457Y-53315
X36457Y-54102
X36457Y-54890
X36457Y-55677
X36457Y-56464
T3
X42402Y-50906
X43189Y-50906
T4
X41299Y-53299
X42283Y-53299
X43071Y-53299
X44055Y-53299
T5
X46063Y-29134
X46063Y-30134
X46063Y-31134
X46063Y-32134
X46063Y-33134
X46063Y-34134
X46063Y-35134
X46063Y-36134
X46063Y-37134
X46063Y-38134
X47063Y-29134
X47063Y-30134
X47063Y-31134
X47063Y-32134
X47063Y-33134
X47063Y-34134
X47063Y-35134
X47063Y-36134
X47063Y-37134
X47063Y-38134
X46063Y-40157
X46063Y-41157
X46063Y-42157
X46063Y-43157
X46063Y-44157
X46063Y-45157
X46063Y-46157
X46063Y-47157
X46063Y-48157
X46063Y-49157
X47063Y-40157
X47063Y-41157
X47063Y-42157
X47063Y-43157
X47063Y-44157
X47063Y-45157
X47063Y-46157
X47063Y-47157
X47063Y-48157
X47063Y-49157
X41843Y-44394
X41843Y-45394
X41843Y-46394
X14400Y-29134
X14400Y-30134
X14400Y-31134
X14400Y-32134
X14400Y-33134
X14400Y-34134
X14400Y-35134
X14400Y-36134
X14400Y-37134
X14400Y-38134
X15400Y-29134
X15400Y-30134
X15400Y-31134
X15400Y-32134
X15400Y-33134
X15400Y-34134
X15400Y-35134
X15400Y-36134
X15400Y-37134
X15400Y-38134
X14400Y-40300
X14400Y-41300
X14400Y-42300
X14400Y-43300
X14400Y-44300
X14400Y-45300
X14400Y-46300
X14400Y-47300
X14400Y-48300
X14400Y-49300
X15400Y-40300
X15400Y-41300
X15400Y-42300
X15400Y-43300
X15400Y-44300
X15400Y-45300
X15400Y-46300
X15400Y-47300
X15400Y-48300
X15400Y-49300
T6
X40091Y-54366
X45264Y-54366
T7
X14632Y-26635
X46831Y-56870
X46594Y-26650
X14677Y-57008
T0
M30
