G04 #@! TF.GenerationSoftware,KiCad,Pcbnew,5.1.5-52549c5~86~ubuntu18.04.1*
G04 #@! TF.CreationDate,2020-05-25T12:27:11-05:00*
G04 #@! TF.ProjectId,AICE,41494345-2e6b-4696-9361-645f70636258,rev?*
G04 #@! TF.SameCoordinates,Original*
G04 #@! TF.FileFunction,Other,User*
%FSLAX46Y46*%
G04 Gerber Fmt 4.6, Leading zero omitted, Abs format (unit mm)*
G04 Created by KiCad (PCBNEW 5.1.5-52549c5~86~ubuntu18.04.1) date 2020-05-25 12:27:11*
%MOMM*%
%LPD*%
G04 APERTURE LIST*
%ADD10C,0.050000*%
G04 APERTURE END LIST*
D10*
X111450000Y-129300000D02*
G75*
G03X111450000Y-129300000I-2750000J0D01*
G01*
X44210000Y-130700000D02*
X44210000Y-134200000D01*
X40810000Y-130700000D02*
X44210000Y-130700000D01*
X40810000Y-134200000D02*
X40810000Y-130700000D01*
X44210000Y-134200000D02*
X40810000Y-134200000D01*
X91370000Y-65060000D02*
X91370000Y-64040000D01*
X91370000Y-64040000D02*
X88470000Y-64040000D01*
X88470000Y-65060000D02*
X88470000Y-64040000D01*
X88470000Y-65060000D02*
X84270000Y-65060000D01*
X84270000Y-65060000D02*
X84270000Y-70360000D01*
X84270000Y-70360000D02*
X86020000Y-70360000D01*
X86020000Y-70360000D02*
X86020000Y-70670000D01*
X86020000Y-70670000D02*
X98820000Y-70670000D01*
X98820000Y-70360000D02*
X98820000Y-70670000D01*
X100570000Y-70360000D02*
X98820000Y-70360000D01*
X100570000Y-65060000D02*
X100570000Y-70360000D01*
X96370000Y-65060000D02*
X100570000Y-65060000D01*
X96370000Y-65060000D02*
X96370000Y-64040000D01*
X93470000Y-64040000D02*
X96370000Y-64040000D01*
X91370000Y-65060000D02*
X93470000Y-65060000D01*
X93470000Y-65060000D02*
X93470000Y-64040000D01*
X56438000Y-80254000D02*
X56438000Y-83214000D01*
X54978000Y-80254000D02*
X56438000Y-80254000D01*
X54978000Y-83214000D02*
X54978000Y-80254000D01*
X56438000Y-83214000D02*
X54978000Y-83214000D01*
X58428000Y-80239000D02*
X58428000Y-83199000D01*
X56968000Y-80239000D02*
X58428000Y-80239000D01*
X56968000Y-83199000D02*
X56968000Y-80239000D01*
X58428000Y-83199000D02*
X56968000Y-83199000D01*
X45574000Y-80328000D02*
X45574000Y-83288000D01*
X44114000Y-80328000D02*
X45574000Y-80328000D01*
X44114000Y-83288000D02*
X44114000Y-80328000D01*
X45574000Y-83288000D02*
X44114000Y-83288000D01*
X47352000Y-80328000D02*
X47352000Y-83288000D01*
X45892000Y-80328000D02*
X47352000Y-80328000D01*
X45892000Y-83288000D02*
X45892000Y-80328000D01*
X47352000Y-83288000D02*
X45892000Y-83288000D01*
X69392200Y-71521900D02*
X69392200Y-68561900D01*
X70852200Y-71521900D02*
X69392200Y-71521900D01*
X70852200Y-68561900D02*
X70852200Y-71521900D01*
X69392200Y-68561900D02*
X70852200Y-68561900D01*
X48320000Y-129622500D02*
X48320000Y-132582500D01*
X46860000Y-129622500D02*
X48320000Y-129622500D01*
X46860000Y-132582500D02*
X46860000Y-129622500D01*
X48320000Y-132582500D02*
X46860000Y-132582500D01*
X102741980Y-74919020D02*
X102741980Y-71959020D01*
X104201980Y-74919020D02*
X102741980Y-74919020D01*
X104201980Y-71959020D02*
X104201980Y-74919020D01*
X102741980Y-71959020D02*
X104201980Y-71959020D01*
X105281980Y-74919020D02*
X105281980Y-71959020D01*
X106741980Y-74919020D02*
X105281980Y-74919020D01*
X106741980Y-71959020D02*
X106741980Y-74919020D01*
X105281980Y-71959020D02*
X106741980Y-71959020D01*
X60458000Y-80239000D02*
X60458000Y-83199000D01*
X58998000Y-80239000D02*
X60458000Y-80239000D01*
X58998000Y-83199000D02*
X58998000Y-80239000D01*
X60458000Y-83199000D02*
X58998000Y-83199000D01*
X63935240Y-138931380D02*
X66895240Y-138931380D01*
X63935240Y-140391380D02*
X63935240Y-138931380D01*
X66895240Y-140391380D02*
X63935240Y-140391380D01*
X66895240Y-138931380D02*
X66895240Y-140391380D01*
X63935240Y-136899380D02*
X66895240Y-136899380D01*
X63935240Y-138359380D02*
X63935240Y-136899380D01*
X66895240Y-138359380D02*
X63935240Y-138359380D01*
X66895240Y-136899380D02*
X66895240Y-138359380D01*
X63935240Y-134613380D02*
X66895240Y-134613380D01*
X63935240Y-136073380D02*
X63935240Y-134613380D01*
X66895240Y-136073380D02*
X63935240Y-136073380D01*
X66895240Y-134613380D02*
X66895240Y-136073380D01*
X63935240Y-132581380D02*
X66895240Y-132581380D01*
X63935240Y-134041380D02*
X63935240Y-132581380D01*
X66895240Y-134041380D02*
X63935240Y-134041380D01*
X66895240Y-132581380D02*
X66895240Y-134041380D01*
X63935240Y-130803380D02*
X66895240Y-130803380D01*
X63935240Y-132263380D02*
X63935240Y-130803380D01*
X66895240Y-132263380D02*
X63935240Y-132263380D01*
X66895240Y-130803380D02*
X66895240Y-132263380D01*
X49130000Y-80328000D02*
X49130000Y-83288000D01*
X47670000Y-80328000D02*
X49130000Y-80328000D01*
X47670000Y-83288000D02*
X47670000Y-80328000D01*
X49130000Y-83288000D02*
X47670000Y-83288000D01*
X52902000Y-136734000D02*
X52902000Y-133774000D01*
X54362000Y-136734000D02*
X52902000Y-136734000D01*
X54362000Y-133774000D02*
X54362000Y-136734000D01*
X52902000Y-133774000D02*
X54362000Y-133774000D01*
X54932000Y-121084000D02*
X54932000Y-124044000D01*
X53472000Y-121084000D02*
X54932000Y-121084000D01*
X53472000Y-124044000D02*
X53472000Y-121084000D01*
X54932000Y-124044000D02*
X53472000Y-124044000D01*
X57856940Y-124621540D02*
X60816940Y-124621540D01*
X57856940Y-126081540D02*
X57856940Y-124621540D01*
X60816940Y-126081540D02*
X57856940Y-126081540D01*
X60816940Y-124621540D02*
X60816940Y-126081540D01*
X54964000Y-136744000D02*
X54964000Y-133784000D01*
X56424000Y-136744000D02*
X54964000Y-136744000D01*
X56424000Y-133784000D02*
X56424000Y-136744000D01*
X54964000Y-133784000D02*
X56424000Y-133784000D01*
X52690000Y-105510000D02*
X52690000Y-102550000D01*
X54150000Y-105510000D02*
X52690000Y-105510000D01*
X54150000Y-102550000D02*
X54150000Y-105510000D01*
X52690000Y-102550000D02*
X54150000Y-102550000D01*
X56830000Y-144620000D02*
X56830000Y-147980000D01*
X54930000Y-144620000D02*
X56830000Y-144620000D01*
X54930000Y-147980000D02*
X54930000Y-144620000D01*
X56830000Y-147980000D02*
X54930000Y-147980000D01*
X40640000Y-143790000D02*
X44000000Y-143790000D01*
X40640000Y-145690000D02*
X40640000Y-143790000D01*
X44000000Y-145690000D02*
X40640000Y-145690000D01*
X44000000Y-143790000D02*
X44000000Y-145690000D01*
X70859400Y-65494720D02*
X70859400Y-68454720D01*
X69399400Y-65494720D02*
X70859400Y-65494720D01*
X69399400Y-68454720D02*
X69399400Y-65494720D01*
X70859400Y-68454720D02*
X69399400Y-68454720D01*
X45317500Y-132660000D02*
X48277500Y-132660000D01*
X45317500Y-134120000D02*
X45317500Y-132660000D01*
X48277500Y-134120000D02*
X45317500Y-134120000D01*
X48277500Y-132660000D02*
X48277500Y-134120000D01*
X54908000Y-116364000D02*
X57868000Y-116364000D01*
X54908000Y-117824000D02*
X54908000Y-116364000D01*
X57868000Y-117824000D02*
X54908000Y-117824000D01*
X57868000Y-116364000D02*
X57868000Y-117824000D01*
X58982000Y-109106000D02*
X56022000Y-109106000D01*
X58982000Y-107646000D02*
X58982000Y-109106000D01*
X56022000Y-107646000D02*
X58982000Y-107646000D01*
X56022000Y-109106000D02*
X56022000Y-107646000D01*
X36170000Y-136920000D02*
X39130000Y-136920000D01*
X36170000Y-138380000D02*
X36170000Y-136920000D01*
X39130000Y-138380000D02*
X36170000Y-138380000D01*
X39130000Y-136920000D02*
X39130000Y-138380000D01*
X36170000Y-135270000D02*
X39130000Y-135270000D01*
X36170000Y-136730000D02*
X36170000Y-135270000D01*
X39130000Y-136730000D02*
X36170000Y-136730000D01*
X39130000Y-135270000D02*
X39130000Y-136730000D01*
X34547500Y-132540000D02*
X39107500Y-132540000D01*
X34547500Y-134780000D02*
X34547500Y-132540000D01*
X39107500Y-134780000D02*
X34547500Y-134780000D01*
X39107500Y-132540000D02*
X39107500Y-134780000D01*
X52620000Y-102535000D02*
X52620000Y-105495000D01*
X51160000Y-102535000D02*
X52620000Y-102535000D01*
X51160000Y-105495000D02*
X51160000Y-102535000D01*
X52620000Y-105495000D02*
X51160000Y-105495000D01*
X51070000Y-102530000D02*
X51070000Y-105490000D01*
X49610000Y-102530000D02*
X51070000Y-102530000D01*
X49610000Y-105490000D02*
X49610000Y-102530000D01*
X51070000Y-105490000D02*
X49610000Y-105490000D01*
X59162000Y-104381000D02*
X59162000Y-107341000D01*
X57702000Y-104381000D02*
X59162000Y-104381000D01*
X57702000Y-107341000D02*
X57702000Y-104381000D01*
X59162000Y-107341000D02*
X57702000Y-107341000D01*
X49618000Y-83904000D02*
X43118000Y-83904000D01*
X43118000Y-83904000D02*
X43118000Y-91904000D01*
X43118000Y-91904000D02*
X49618000Y-91904000D01*
X49618000Y-91904000D02*
X49618000Y-83904000D01*
X62750000Y-92000000D02*
X62750000Y-84000000D01*
X56250000Y-92000000D02*
X62750000Y-92000000D01*
X56250000Y-84000000D02*
X56250000Y-92000000D01*
X62750000Y-84000000D02*
X56250000Y-84000000D01*
X40030000Y-144800000D02*
G75*
G03X40030000Y-144800000I-2750000J0D01*
G01*
X39916000Y-67652000D02*
G75*
G03X39916000Y-67652000I-2750000J0D01*
G01*
X121700000Y-144450000D02*
G75*
G03X121700000Y-144450000I-2750000J0D01*
G01*
X121100000Y-67690000D02*
G75*
G03X121100000Y-67690000I-2750000J0D01*
G01*
X34766000Y-127022000D02*
X40916000Y-127022000D01*
X34766000Y-100572000D02*
X34766000Y-127022000D01*
X40916000Y-100572000D02*
X34766000Y-100572000D01*
X40916000Y-127022000D02*
X40916000Y-100572000D01*
X34776000Y-72200000D02*
X34776000Y-98650000D01*
X34776000Y-98650000D02*
X40926000Y-98650000D01*
X40926000Y-98650000D02*
X40926000Y-72200000D01*
X40926000Y-72200000D02*
X34776000Y-72200000D01*
X108080000Y-110960000D02*
X104480000Y-110960000D01*
X108080000Y-119610000D02*
X108080000Y-110960000D01*
X104480000Y-119610000D02*
X108080000Y-119610000D01*
X104480000Y-110960000D02*
X104480000Y-119610000D01*
X99750000Y-137370000D02*
X100650000Y-136070000D01*
X99750000Y-138820000D02*
X99750000Y-137370000D01*
X101650000Y-140120000D02*
X100650000Y-140120000D01*
X99750000Y-138820000D02*
X100650000Y-140120000D01*
X101650000Y-136070000D02*
X100650000Y-136070000D01*
X117050000Y-138820000D02*
X116150000Y-140120000D01*
X101650000Y-136070000D02*
X101650000Y-133870000D01*
X115150000Y-133870000D02*
X101650000Y-133870000D01*
X115150000Y-136070000D02*
X115150000Y-133870000D01*
X117050000Y-137370000D02*
X117050000Y-138820000D01*
X115150000Y-136070000D02*
X116150000Y-136070000D01*
X117050000Y-137370000D02*
X116150000Y-136070000D01*
X101650000Y-140120000D02*
X101650000Y-147370000D01*
X101650000Y-147370000D02*
X100650000Y-147370000D01*
X100650000Y-147370000D02*
X100650000Y-148870000D01*
X100650000Y-148870000D02*
X116150000Y-148870000D01*
X116150000Y-148870000D02*
X116150000Y-147370000D01*
X116150000Y-147370000D02*
X115150000Y-147370000D01*
X115150000Y-147370000D02*
X115150000Y-140120000D01*
X115150000Y-140120000D02*
X116150000Y-140120000D01*
X54880000Y-149950000D02*
X45480000Y-149950000D01*
X54880000Y-143450000D02*
X54880000Y-149950000D01*
X45480000Y-143450000D02*
X54880000Y-143450000D01*
X45480000Y-149950000D02*
X45480000Y-143450000D01*
X45544000Y-107910000D02*
X45544000Y-116150000D01*
X53784000Y-107910000D02*
X45544000Y-107910000D01*
X53784000Y-116150000D02*
X53784000Y-107910000D01*
X45544000Y-116150000D02*
X53784000Y-116150000D01*
X57788000Y-124336000D02*
X52068000Y-124336000D01*
X52068000Y-124336000D02*
X52068000Y-133636000D01*
X52068000Y-133636000D02*
X57788000Y-133636000D01*
X57788000Y-133636000D02*
X57788000Y-124336000D01*
X87101240Y-105569380D02*
X93851240Y-112319380D01*
X89401240Y-148969380D02*
X93851240Y-144519380D01*
X66951240Y-146019380D02*
X69901240Y-148969380D01*
X66951240Y-105569380D02*
X87101240Y-105569380D01*
X93851240Y-112319380D02*
X93851240Y-144519380D01*
X66951240Y-105569380D02*
X66951240Y-146019380D01*
X69901240Y-148969380D02*
X89401240Y-148969380D01*
X73392360Y-102204940D02*
X73392360Y-75604940D01*
X73392360Y-75604940D02*
X99992360Y-75604940D01*
X99992360Y-75604940D02*
X99992360Y-102204940D01*
X99992360Y-102204940D02*
X73392360Y-102204940D01*
X40800000Y-134380000D02*
X40800000Y-141580000D01*
X40800000Y-141580000D02*
X49600000Y-141580000D01*
X49600000Y-141580000D02*
X49600000Y-134380000D01*
X49600000Y-134380000D02*
X40800000Y-134380000D01*
X69184820Y-65506120D02*
X61984820Y-65506120D01*
X61984820Y-65506120D02*
X61984820Y-74306120D01*
X61984820Y-74306120D02*
X69184820Y-74306120D01*
X69184820Y-74306120D02*
X69184820Y-65506120D01*
X79624460Y-74278180D02*
X79624460Y-65478180D01*
X72424460Y-74278180D02*
X79624460Y-74278180D01*
X72424460Y-65478180D02*
X72424460Y-74278180D01*
X79624460Y-65478180D02*
X72424460Y-65478180D01*
X79713180Y-69612100D02*
X79713180Y-66212100D01*
X79713180Y-66212100D02*
X83213180Y-66212100D01*
X83213180Y-66212100D02*
X83213180Y-69612100D01*
X83213180Y-69612100D02*
X79713180Y-69612100D01*
X67214760Y-78885780D02*
X63714760Y-78885780D01*
X67214760Y-75485780D02*
X67214760Y-78885780D01*
X63714760Y-75485780D02*
X67214760Y-75485780D01*
X63714760Y-78885780D02*
X63714760Y-75485780D01*
X121350000Y-72200000D02*
X115200000Y-72200000D01*
X121350000Y-98650000D02*
X121350000Y-72200000D01*
X115200000Y-98650000D02*
X121350000Y-98650000D01*
X115200000Y-72200000D02*
X115200000Y-98650000D01*
X121350000Y-100200000D02*
X115200000Y-100200000D01*
X121350000Y-126650000D02*
X121350000Y-100200000D01*
X115200000Y-126650000D02*
X121350000Y-126650000D01*
X115200000Y-100200000D02*
X115200000Y-126650000D01*
X36182500Y-140180000D02*
X36182500Y-138720000D01*
X36182500Y-138720000D02*
X39142500Y-138720000D01*
X39142500Y-138720000D02*
X39142500Y-140180000D01*
X39142500Y-140180000D02*
X36182500Y-140180000D01*
X34620000Y-141930000D02*
X34620000Y-138970000D01*
X36080000Y-141930000D02*
X34620000Y-141930000D01*
X36080000Y-138970000D02*
X36080000Y-141930000D01*
X34620000Y-138970000D02*
X36080000Y-138970000D01*
M02*
