G04 #@! TF.GenerationSoftware,KiCad,Pcbnew,5.1.5-52549c5~86~ubuntu18.04.1*
G04 #@! TF.CreationDate,2020-05-19T23:49:33-05:00*
G04 #@! TF.ProjectId,AICE,41494345-2e6b-4696-9361-645f70636258,rev?*
G04 #@! TF.SameCoordinates,Original*
G04 #@! TF.FileFunction,Legend,Top*
G04 #@! TF.FilePolarity,Positive*
%FSLAX46Y46*%
G04 Gerber Fmt 4.6, Leading zero omitted, Abs format (unit mm)*
G04 Created by KiCad (PCBNEW 5.1.5-52549c5~86~ubuntu18.04.1) date 2020-05-19 23:49:33*
%MOMM*%
%LPD*%
G04 APERTURE LIST*
%ADD10C,0.120000*%
%ADD11C,0.150000*%
G04 APERTURE END LIST*
D10*
X106145225Y-127575000D02*
X106145225Y-128075000D01*
X105895225Y-127825000D02*
X106395225Y-127825000D01*
X111301000Y-129016000D02*
X111301000Y-129584000D01*
X111261000Y-128782000D02*
X111261000Y-129818000D01*
X111221000Y-128623000D02*
X111221000Y-129977000D01*
X111181000Y-128495000D02*
X111181000Y-130105000D01*
X111141000Y-128385000D02*
X111141000Y-130215000D01*
X111101000Y-128289000D02*
X111101000Y-130311000D01*
X111061000Y-128202000D02*
X111061000Y-130398000D01*
X111021000Y-128122000D02*
X111021000Y-130478000D01*
X110981000Y-128049000D02*
X110981000Y-130551000D01*
X110941000Y-127981000D02*
X110941000Y-130619000D01*
X110901000Y-127917000D02*
X110901000Y-130683000D01*
X110861000Y-127857000D02*
X110861000Y-130743000D01*
X110821000Y-127800000D02*
X110821000Y-130800000D01*
X110781000Y-127746000D02*
X110781000Y-130854000D01*
X110741000Y-127695000D02*
X110741000Y-130905000D01*
X110701000Y-130340000D02*
X110701000Y-130953000D01*
X110701000Y-127647000D02*
X110701000Y-128260000D01*
X110661000Y-130340000D02*
X110661000Y-130999000D01*
X110661000Y-127601000D02*
X110661000Y-128260000D01*
X110621000Y-130340000D02*
X110621000Y-131043000D01*
X110621000Y-127557000D02*
X110621000Y-128260000D01*
X110581000Y-130340000D02*
X110581000Y-131085000D01*
X110581000Y-127515000D02*
X110581000Y-128260000D01*
X110541000Y-130340000D02*
X110541000Y-131126000D01*
X110541000Y-127474000D02*
X110541000Y-128260000D01*
X110501000Y-130340000D02*
X110501000Y-131164000D01*
X110501000Y-127436000D02*
X110501000Y-128260000D01*
X110461000Y-130340000D02*
X110461000Y-131201000D01*
X110461000Y-127399000D02*
X110461000Y-128260000D01*
X110421000Y-130340000D02*
X110421000Y-131237000D01*
X110421000Y-127363000D02*
X110421000Y-128260000D01*
X110381000Y-130340000D02*
X110381000Y-131271000D01*
X110381000Y-127329000D02*
X110381000Y-128260000D01*
X110341000Y-130340000D02*
X110341000Y-131304000D01*
X110341000Y-127296000D02*
X110341000Y-128260000D01*
X110301000Y-130340000D02*
X110301000Y-131335000D01*
X110301000Y-127265000D02*
X110301000Y-128260000D01*
X110261000Y-130340000D02*
X110261000Y-131365000D01*
X110261000Y-127235000D02*
X110261000Y-128260000D01*
X110221000Y-130340000D02*
X110221000Y-131395000D01*
X110221000Y-127205000D02*
X110221000Y-128260000D01*
X110181000Y-130340000D02*
X110181000Y-131422000D01*
X110181000Y-127178000D02*
X110181000Y-128260000D01*
X110141000Y-130340000D02*
X110141000Y-131449000D01*
X110141000Y-127151000D02*
X110141000Y-128260000D01*
X110101000Y-130340000D02*
X110101000Y-131475000D01*
X110101000Y-127125000D02*
X110101000Y-128260000D01*
X110061000Y-130340000D02*
X110061000Y-131500000D01*
X110061000Y-127100000D02*
X110061000Y-128260000D01*
X110021000Y-130340000D02*
X110021000Y-131524000D01*
X110021000Y-127076000D02*
X110021000Y-128260000D01*
X109981000Y-130340000D02*
X109981000Y-131547000D01*
X109981000Y-127053000D02*
X109981000Y-128260000D01*
X109941000Y-130340000D02*
X109941000Y-131568000D01*
X109941000Y-127032000D02*
X109941000Y-128260000D01*
X109901000Y-130340000D02*
X109901000Y-131590000D01*
X109901000Y-127010000D02*
X109901000Y-128260000D01*
X109861000Y-130340000D02*
X109861000Y-131610000D01*
X109861000Y-126990000D02*
X109861000Y-128260000D01*
X109821000Y-130340000D02*
X109821000Y-131629000D01*
X109821000Y-126971000D02*
X109821000Y-128260000D01*
X109781000Y-130340000D02*
X109781000Y-131648000D01*
X109781000Y-126952000D02*
X109781000Y-128260000D01*
X109741000Y-130340000D02*
X109741000Y-131665000D01*
X109741000Y-126935000D02*
X109741000Y-128260000D01*
X109701000Y-130340000D02*
X109701000Y-131682000D01*
X109701000Y-126918000D02*
X109701000Y-128260000D01*
X109661000Y-130340000D02*
X109661000Y-131698000D01*
X109661000Y-126902000D02*
X109661000Y-128260000D01*
X109621000Y-130340000D02*
X109621000Y-131714000D01*
X109621000Y-126886000D02*
X109621000Y-128260000D01*
X109581000Y-130340000D02*
X109581000Y-131728000D01*
X109581000Y-126872000D02*
X109581000Y-128260000D01*
X109541000Y-130340000D02*
X109541000Y-131742000D01*
X109541000Y-126858000D02*
X109541000Y-128260000D01*
X109501000Y-130340000D02*
X109501000Y-131755000D01*
X109501000Y-126845000D02*
X109501000Y-128260000D01*
X109461000Y-130340000D02*
X109461000Y-131768000D01*
X109461000Y-126832000D02*
X109461000Y-128260000D01*
X109421000Y-130340000D02*
X109421000Y-131780000D01*
X109421000Y-126820000D02*
X109421000Y-128260000D01*
X109380000Y-130340000D02*
X109380000Y-131791000D01*
X109380000Y-126809000D02*
X109380000Y-128260000D01*
X109340000Y-130340000D02*
X109340000Y-131801000D01*
X109340000Y-126799000D02*
X109340000Y-128260000D01*
X109300000Y-130340000D02*
X109300000Y-131811000D01*
X109300000Y-126789000D02*
X109300000Y-128260000D01*
X109260000Y-130340000D02*
X109260000Y-131820000D01*
X109260000Y-126780000D02*
X109260000Y-128260000D01*
X109220000Y-130340000D02*
X109220000Y-131828000D01*
X109220000Y-126772000D02*
X109220000Y-128260000D01*
X109180000Y-130340000D02*
X109180000Y-131836000D01*
X109180000Y-126764000D02*
X109180000Y-128260000D01*
X109140000Y-130340000D02*
X109140000Y-131843000D01*
X109140000Y-126757000D02*
X109140000Y-128260000D01*
X109100000Y-130340000D02*
X109100000Y-131850000D01*
X109100000Y-126750000D02*
X109100000Y-128260000D01*
X109060000Y-130340000D02*
X109060000Y-131856000D01*
X109060000Y-126744000D02*
X109060000Y-128260000D01*
X109020000Y-130340000D02*
X109020000Y-131861000D01*
X109020000Y-126739000D02*
X109020000Y-128260000D01*
X108980000Y-130340000D02*
X108980000Y-131865000D01*
X108980000Y-126735000D02*
X108980000Y-128260000D01*
X108940000Y-130340000D02*
X108940000Y-131869000D01*
X108940000Y-126731000D02*
X108940000Y-128260000D01*
X108900000Y-130340000D02*
X108900000Y-131873000D01*
X108900000Y-126727000D02*
X108900000Y-128260000D01*
X108860000Y-130340000D02*
X108860000Y-131876000D01*
X108860000Y-126724000D02*
X108860000Y-128260000D01*
X108820000Y-130340000D02*
X108820000Y-131878000D01*
X108820000Y-126722000D02*
X108820000Y-128260000D01*
X108780000Y-130340000D02*
X108780000Y-131879000D01*
X108780000Y-126721000D02*
X108780000Y-128260000D01*
X108740000Y-126720000D02*
X108740000Y-128260000D01*
X108740000Y-130340000D02*
X108740000Y-131880000D01*
X108700000Y-126720000D02*
X108700000Y-128260000D01*
X108700000Y-130340000D02*
X108700000Y-131880000D01*
X111320000Y-129300000D02*
G75*
G03X111320000Y-129300000I-2620000J0D01*
G01*
X41750000Y-130870000D02*
X43210000Y-130870000D01*
X41750000Y-134030000D02*
X43910000Y-134030000D01*
X41750000Y-134030000D02*
X41750000Y-133100000D01*
X41750000Y-130870000D02*
X41750000Y-131800000D01*
X88710000Y-65450000D02*
X84660000Y-65450000D01*
X84660000Y-65450000D02*
X84660000Y-69970000D01*
X86260000Y-69970000D02*
X84660000Y-69970000D01*
X100180000Y-65450000D02*
X100180000Y-69970000D01*
X96130000Y-65450000D02*
X100180000Y-65450000D01*
X98580000Y-69970000D02*
X100180000Y-69970000D01*
X93710000Y-65450000D02*
X91130000Y-65450000D01*
X98580000Y-69970000D02*
X98580000Y-70140000D01*
X56218000Y-81896779D02*
X56218000Y-81571221D01*
X55198000Y-81896779D02*
X55198000Y-81571221D01*
X58208000Y-81881779D02*
X58208000Y-81556221D01*
X57188000Y-81881779D02*
X57188000Y-81556221D01*
X45354000Y-81970779D02*
X45354000Y-81645221D01*
X44334000Y-81970779D02*
X44334000Y-81645221D01*
X47132000Y-81970779D02*
X47132000Y-81645221D01*
X46112000Y-81970779D02*
X46112000Y-81645221D01*
X69612200Y-69879121D02*
X69612200Y-70204679D01*
X70632200Y-69879121D02*
X70632200Y-70204679D01*
X48100000Y-131265279D02*
X48100000Y-130939721D01*
X47080000Y-131265279D02*
X47080000Y-130939721D01*
X102961980Y-73276241D02*
X102961980Y-73601799D01*
X103981980Y-73276241D02*
X103981980Y-73601799D01*
X105501980Y-73276241D02*
X105501980Y-73601799D01*
X106521980Y-73276241D02*
X106521980Y-73601799D01*
X60238000Y-81881779D02*
X60238000Y-81556221D01*
X59218000Y-81881779D02*
X59218000Y-81556221D01*
X65578019Y-139151380D02*
X65252461Y-139151380D01*
X65578019Y-140171380D02*
X65252461Y-140171380D01*
X65578019Y-137119380D02*
X65252461Y-137119380D01*
X65578019Y-138139380D02*
X65252461Y-138139380D01*
X65578019Y-134833380D02*
X65252461Y-134833380D01*
X65578019Y-135853380D02*
X65252461Y-135853380D01*
X65578019Y-132801380D02*
X65252461Y-132801380D01*
X65578019Y-133821380D02*
X65252461Y-133821380D01*
X65578019Y-131023380D02*
X65252461Y-131023380D01*
X65578019Y-132043380D02*
X65252461Y-132043380D01*
X48910000Y-81970779D02*
X48910000Y-81645221D01*
X47890000Y-81970779D02*
X47890000Y-81645221D01*
X53122000Y-135091221D02*
X53122000Y-135416779D01*
X54142000Y-135091221D02*
X54142000Y-135416779D01*
X54712000Y-122726779D02*
X54712000Y-122401221D01*
X53692000Y-122726779D02*
X53692000Y-122401221D01*
X59499719Y-124841540D02*
X59174161Y-124841540D01*
X59499719Y-125861540D02*
X59174161Y-125861540D01*
X55184000Y-135101221D02*
X55184000Y-135426779D01*
X56204000Y-135101221D02*
X56204000Y-135426779D01*
X52910000Y-103867221D02*
X52910000Y-104192779D01*
X53930000Y-103867221D02*
X53930000Y-104192779D01*
X56590000Y-146558578D02*
X56590000Y-146041422D01*
X55170000Y-146558578D02*
X55170000Y-146041422D01*
X42578578Y-144030000D02*
X42061422Y-144030000D01*
X42578578Y-145450000D02*
X42061422Y-145450000D01*
X70864400Y-68459720D02*
X70864400Y-66174720D01*
X69394400Y-68459720D02*
X70864400Y-68459720D01*
X69394400Y-66174720D02*
X69394400Y-68459720D01*
X48282500Y-132655000D02*
X45997500Y-132655000D01*
X48282500Y-134125000D02*
X48282500Y-132655000D01*
X45997500Y-134125000D02*
X48282500Y-134125000D01*
X57873000Y-116359000D02*
X55588000Y-116359000D01*
X57873000Y-117829000D02*
X57873000Y-116359000D01*
X55588000Y-117829000D02*
X57873000Y-117829000D01*
X56017000Y-109111000D02*
X58302000Y-109111000D01*
X56017000Y-107641000D02*
X56017000Y-109111000D01*
X58302000Y-107641000D02*
X56017000Y-107641000D01*
X37002779Y-139350000D02*
X36677221Y-139350000D01*
X37002779Y-140370000D02*
X36677221Y-140370000D01*
X36977779Y-136350000D02*
X36652221Y-136350000D01*
X36977779Y-137370000D02*
X36652221Y-137370000D01*
X37429564Y-132750000D02*
X36225436Y-132750000D01*
X37429564Y-134570000D02*
X36225436Y-134570000D01*
X52400000Y-104177779D02*
X52400000Y-103852221D01*
X51380000Y-104177779D02*
X51380000Y-103852221D01*
X50850000Y-104172779D02*
X50850000Y-103847221D01*
X49830000Y-104172779D02*
X49830000Y-103847221D01*
X58942000Y-106023779D02*
X58942000Y-105698221D01*
X57922000Y-106023779D02*
X57922000Y-105698221D01*
X49518000Y-83854000D02*
X49518000Y-91904000D01*
X48518000Y-83854000D02*
X49518000Y-83854000D01*
X43218000Y-83854000D02*
X43218000Y-91904000D01*
X56350000Y-83950000D02*
X56350000Y-92000000D01*
X61650000Y-83950000D02*
X62650000Y-83950000D01*
X62650000Y-83950000D02*
X62650000Y-92000000D01*
X40446000Y-126552000D02*
X39116000Y-126552000D01*
X40446000Y-125222000D02*
X40446000Y-126552000D01*
X37846000Y-126552000D02*
X35246000Y-126552000D01*
X37846000Y-123952000D02*
X37846000Y-126552000D01*
X40446000Y-123952000D02*
X37846000Y-123952000D01*
X35246000Y-126552000D02*
X35246000Y-101032000D01*
X40446000Y-123952000D02*
X40446000Y-101032000D01*
X40446000Y-101032000D02*
X35246000Y-101032000D01*
X35246000Y-98190000D02*
X40446000Y-98190000D01*
X35246000Y-75270000D02*
X35246000Y-98190000D01*
X40446000Y-72670000D02*
X40446000Y-98190000D01*
X35246000Y-75270000D02*
X37846000Y-75270000D01*
X37846000Y-75270000D02*
X37846000Y-72670000D01*
X37846000Y-72670000D02*
X40446000Y-72670000D01*
X35246000Y-74000000D02*
X35246000Y-72670000D01*
X35246000Y-72670000D02*
X36576000Y-72670000D01*
X104950000Y-111430000D02*
X106280000Y-111430000D01*
X104950000Y-112760000D02*
X104950000Y-111430000D01*
X104950000Y-114030000D02*
X107610000Y-114030000D01*
X107610000Y-114030000D02*
X107610000Y-119170000D01*
X104950000Y-114030000D02*
X104950000Y-119170000D01*
X104950000Y-119170000D02*
X107610000Y-119170000D01*
X101150000Y-148370000D02*
X115650000Y-148370000D01*
X115650000Y-148370000D02*
X115650000Y-147870000D01*
X115650000Y-147870000D02*
X114650000Y-147870000D01*
X114650000Y-147870000D02*
X114650000Y-139870000D01*
X114650000Y-136370000D02*
X114650000Y-134370000D01*
X114650000Y-134370000D02*
X102150000Y-134370000D01*
X102150000Y-134370000D02*
X102150000Y-136370000D01*
X102150000Y-139870000D02*
X102150000Y-147870000D01*
X102150000Y-147870000D02*
X101150000Y-147870000D01*
X101150000Y-147870000D02*
X101150000Y-148370000D01*
X104400000Y-134120000D02*
X105400000Y-134120000D01*
X53990000Y-144390000D02*
X53610000Y-144390000D01*
X53990000Y-148440000D02*
X53990000Y-148700000D01*
X53990000Y-144390000D02*
X53990000Y-146160000D01*
X46370000Y-144390000D02*
X46750000Y-144390000D01*
X46370000Y-146160000D02*
X46370000Y-144390000D01*
X46370000Y-148700000D02*
X46370000Y-148440000D01*
X46054000Y-115165000D02*
X46054000Y-115640000D01*
X53274000Y-108420000D02*
X52799000Y-108420000D01*
X53274000Y-108895000D02*
X53274000Y-108420000D01*
X53274000Y-115640000D02*
X52799000Y-115640000D01*
X53274000Y-115165000D02*
X53274000Y-115640000D01*
X46054000Y-108420000D02*
X46529000Y-108420000D01*
X46054000Y-108895000D02*
X46054000Y-108420000D01*
X52203000Y-128986000D02*
X52203000Y-131711000D01*
X52203000Y-131711000D02*
X52463000Y-131711000D01*
X52203000Y-128986000D02*
X52203000Y-126261000D01*
X52203000Y-126261000D02*
X52463000Y-126261000D01*
X57653000Y-128986000D02*
X57653000Y-131711000D01*
X57653000Y-131711000D02*
X57393000Y-131711000D01*
X57653000Y-128986000D02*
X57653000Y-126261000D01*
X57653000Y-126261000D02*
X57393000Y-126261000D01*
X57393000Y-126261000D02*
X57393000Y-124586000D01*
X67076240Y-145969380D02*
X69951240Y-148844380D01*
X67076240Y-105694380D02*
X67076240Y-145969380D01*
X87051240Y-105694380D02*
X67076240Y-105694380D01*
X93726240Y-112369380D02*
X87051240Y-105694380D01*
X93726240Y-144469380D02*
X93726240Y-112369380D01*
X89351240Y-148844380D02*
X93726240Y-144469380D01*
X69951240Y-148844380D02*
X89351240Y-148844380D01*
X73842360Y-76839940D02*
X73842360Y-76054940D01*
X73842360Y-76054940D02*
X74627360Y-76054940D01*
X99542360Y-76839940D02*
X99542360Y-76054940D01*
X99542360Y-76054940D02*
X98757360Y-76054940D01*
X99542360Y-100969940D02*
X99542360Y-101754940D01*
X99542360Y-101754940D02*
X98757360Y-101754940D01*
X73842360Y-100969940D02*
X73842360Y-102204940D01*
X41100000Y-134570000D02*
X47110000Y-134570000D01*
X43350000Y-141390000D02*
X47110000Y-141390000D01*
X47110000Y-134570000D02*
X47110000Y-135830000D01*
X47110000Y-141390000D02*
X47110000Y-140130000D01*
X68994820Y-65806120D02*
X68994820Y-71816120D01*
X62174820Y-68056120D02*
X62174820Y-71816120D01*
X68994820Y-71816120D02*
X67734820Y-71816120D01*
X62174820Y-71816120D02*
X63434820Y-71816120D01*
X72614460Y-71788180D02*
X73874460Y-71788180D01*
X79434460Y-71788180D02*
X78174460Y-71788180D01*
X72614460Y-68028180D02*
X72614460Y-71788180D01*
X79434460Y-65778180D02*
X79434460Y-71788180D01*
X83043180Y-67152100D02*
X82113180Y-67152100D01*
X79883180Y-67152100D02*
X80813180Y-67152100D01*
X79883180Y-67152100D02*
X79883180Y-69312100D01*
X83043180Y-67152100D02*
X83043180Y-68612100D01*
X67044760Y-76425780D02*
X67044760Y-77885780D01*
X63884760Y-76425780D02*
X63884760Y-78585780D01*
X63884760Y-76425780D02*
X64814760Y-76425780D01*
X67044760Y-76425780D02*
X66114760Y-76425780D01*
X115670000Y-72670000D02*
X117000000Y-72670000D01*
X115670000Y-74000000D02*
X115670000Y-72670000D01*
X118270000Y-72670000D02*
X120870000Y-72670000D01*
X118270000Y-75270000D02*
X118270000Y-72670000D01*
X115670000Y-75270000D02*
X118270000Y-75270000D01*
X120870000Y-72670000D02*
X120870000Y-98190000D01*
X115670000Y-75270000D02*
X115670000Y-98190000D01*
X115670000Y-98190000D02*
X120870000Y-98190000D01*
X115670000Y-100670000D02*
X117000000Y-100670000D01*
X115670000Y-102000000D02*
X115670000Y-100670000D01*
X118270000Y-100670000D02*
X120870000Y-100670000D01*
X118270000Y-103270000D02*
X118270000Y-100670000D01*
X115670000Y-103270000D02*
X118270000Y-103270000D01*
X120870000Y-100670000D02*
X120870000Y-126190000D01*
X115670000Y-103270000D02*
X115670000Y-126190000D01*
X115670000Y-126190000D02*
X120870000Y-126190000D01*
D11*
X112257142Y-129657142D02*
X112209523Y-129704761D01*
X112066666Y-129752380D01*
X111971428Y-129752380D01*
X111828571Y-129704761D01*
X111733333Y-129609523D01*
X111685714Y-129514285D01*
X111638095Y-129323809D01*
X111638095Y-129180952D01*
X111685714Y-128990476D01*
X111733333Y-128895238D01*
X111828571Y-128800000D01*
X111971428Y-128752380D01*
X112066666Y-128752380D01*
X112209523Y-128800000D01*
X112257142Y-128847619D01*
X112638095Y-128847619D02*
X112685714Y-128800000D01*
X112780952Y-128752380D01*
X113019047Y-128752380D01*
X113114285Y-128800000D01*
X113161904Y-128847619D01*
X113209523Y-128942857D01*
X113209523Y-129038095D01*
X113161904Y-129180952D01*
X112590476Y-129752380D01*
X113209523Y-129752380D01*
X113590476Y-128847619D02*
X113638095Y-128800000D01*
X113733333Y-128752380D01*
X113971428Y-128752380D01*
X114066666Y-128800000D01*
X114114285Y-128847619D01*
X114161904Y-128942857D01*
X114161904Y-129038095D01*
X114114285Y-129180952D01*
X113542857Y-129752380D01*
X114161904Y-129752380D01*
X39582380Y-133718095D02*
X40391904Y-133718095D01*
X40487142Y-133670476D01*
X40534761Y-133622857D01*
X40582380Y-133527619D01*
X40582380Y-133337142D01*
X40534761Y-133241904D01*
X40487142Y-133194285D01*
X40391904Y-133146666D01*
X39582380Y-133146666D01*
X40582380Y-132146666D02*
X40582380Y-132718095D01*
X40582380Y-132432380D02*
X39582380Y-132432380D01*
X39725238Y-132527619D01*
X39820476Y-132622857D01*
X39868095Y-132718095D01*
X39915714Y-131289523D02*
X40582380Y-131289523D01*
X39534761Y-131527619D02*
X40249047Y-131765714D01*
X40249047Y-131146666D01*
X91181904Y-71162380D02*
X91181904Y-71971904D01*
X91229523Y-72067142D01*
X91277142Y-72114761D01*
X91372380Y-72162380D01*
X91562857Y-72162380D01*
X91658095Y-72114761D01*
X91705714Y-72067142D01*
X91753333Y-71971904D01*
X91753333Y-71162380D01*
X92753333Y-72162380D02*
X92181904Y-72162380D01*
X92467619Y-72162380D02*
X92467619Y-71162380D01*
X92372380Y-71305238D01*
X92277142Y-71400476D01*
X92181904Y-71448095D01*
X93705714Y-72162380D02*
X93134285Y-72162380D01*
X93420000Y-72162380D02*
X93420000Y-71162380D01*
X93324761Y-71305238D01*
X93229523Y-71400476D01*
X93134285Y-71448095D01*
X55916380Y-79371047D02*
X55440190Y-79704380D01*
X55916380Y-79942476D02*
X54916380Y-79942476D01*
X54916380Y-79561523D01*
X54964000Y-79466285D01*
X55011619Y-79418666D01*
X55106857Y-79371047D01*
X55249714Y-79371047D01*
X55344952Y-79418666D01*
X55392571Y-79466285D01*
X55440190Y-79561523D01*
X55440190Y-79942476D01*
X55916380Y-78418666D02*
X55916380Y-78990095D01*
X55916380Y-78704380D02*
X54916380Y-78704380D01*
X55059238Y-78799619D01*
X55154476Y-78894857D01*
X55202095Y-78990095D01*
X54916380Y-77799619D02*
X54916380Y-77704380D01*
X54964000Y-77609142D01*
X55011619Y-77561523D01*
X55106857Y-77513904D01*
X55297333Y-77466285D01*
X55535428Y-77466285D01*
X55725904Y-77513904D01*
X55821142Y-77561523D01*
X55868761Y-77609142D01*
X55916380Y-77704380D01*
X55916380Y-77799619D01*
X55868761Y-77894857D01*
X55821142Y-77942476D01*
X55725904Y-77990095D01*
X55535428Y-78037714D01*
X55297333Y-78037714D01*
X55106857Y-77990095D01*
X55011619Y-77942476D01*
X54964000Y-77894857D01*
X54916380Y-77799619D01*
X54916380Y-76561523D02*
X54916380Y-77037714D01*
X55392571Y-77085333D01*
X55344952Y-77037714D01*
X55297333Y-76942476D01*
X55297333Y-76704380D01*
X55344952Y-76609142D01*
X55392571Y-76561523D01*
X55487809Y-76513904D01*
X55725904Y-76513904D01*
X55821142Y-76561523D01*
X55868761Y-76609142D01*
X55916380Y-76704380D01*
X55916380Y-76942476D01*
X55868761Y-77037714D01*
X55821142Y-77085333D01*
X57948380Y-79371047D02*
X57472190Y-79704380D01*
X57948380Y-79942476D02*
X56948380Y-79942476D01*
X56948380Y-79561523D01*
X56996000Y-79466285D01*
X57043619Y-79418666D01*
X57138857Y-79371047D01*
X57281714Y-79371047D01*
X57376952Y-79418666D01*
X57424571Y-79466285D01*
X57472190Y-79561523D01*
X57472190Y-79942476D01*
X57948380Y-78418666D02*
X57948380Y-78990095D01*
X57948380Y-78704380D02*
X56948380Y-78704380D01*
X57091238Y-78799619D01*
X57186476Y-78894857D01*
X57234095Y-78990095D01*
X56948380Y-77799619D02*
X56948380Y-77704380D01*
X56996000Y-77609142D01*
X57043619Y-77561523D01*
X57138857Y-77513904D01*
X57329333Y-77466285D01*
X57567428Y-77466285D01*
X57757904Y-77513904D01*
X57853142Y-77561523D01*
X57900761Y-77609142D01*
X57948380Y-77704380D01*
X57948380Y-77799619D01*
X57900761Y-77894857D01*
X57853142Y-77942476D01*
X57757904Y-77990095D01*
X57567428Y-78037714D01*
X57329333Y-78037714D01*
X57138857Y-77990095D01*
X57043619Y-77942476D01*
X56996000Y-77894857D01*
X56948380Y-77799619D01*
X57281714Y-76609142D02*
X57948380Y-76609142D01*
X56900761Y-76847238D02*
X57615047Y-77085333D01*
X57615047Y-76466285D01*
X45094380Y-79515047D02*
X44618190Y-79848380D01*
X45094380Y-80086476D02*
X44094380Y-80086476D01*
X44094380Y-79705523D01*
X44142000Y-79610285D01*
X44189619Y-79562666D01*
X44284857Y-79515047D01*
X44427714Y-79515047D01*
X44522952Y-79562666D01*
X44570571Y-79610285D01*
X44618190Y-79705523D01*
X44618190Y-80086476D01*
X45094380Y-78562666D02*
X45094380Y-79134095D01*
X45094380Y-78848380D02*
X44094380Y-78848380D01*
X44237238Y-78943619D01*
X44332476Y-79038857D01*
X44380095Y-79134095D01*
X44094380Y-77943619D02*
X44094380Y-77848380D01*
X44142000Y-77753142D01*
X44189619Y-77705523D01*
X44284857Y-77657904D01*
X44475333Y-77610285D01*
X44713428Y-77610285D01*
X44903904Y-77657904D01*
X44999142Y-77705523D01*
X45046761Y-77753142D01*
X45094380Y-77848380D01*
X45094380Y-77943619D01*
X45046761Y-78038857D01*
X44999142Y-78086476D01*
X44903904Y-78134095D01*
X44713428Y-78181714D01*
X44475333Y-78181714D01*
X44284857Y-78134095D01*
X44189619Y-78086476D01*
X44142000Y-78038857D01*
X44094380Y-77943619D01*
X44094380Y-77276952D02*
X44094380Y-76657904D01*
X44475333Y-76991238D01*
X44475333Y-76848380D01*
X44522952Y-76753142D01*
X44570571Y-76705523D01*
X44665809Y-76657904D01*
X44903904Y-76657904D01*
X44999142Y-76705523D01*
X45046761Y-76753142D01*
X45094380Y-76848380D01*
X45094380Y-77134095D01*
X45046761Y-77229333D01*
X44999142Y-77276952D01*
X47008380Y-79545047D02*
X46532190Y-79878380D01*
X47008380Y-80116476D02*
X46008380Y-80116476D01*
X46008380Y-79735523D01*
X46056000Y-79640285D01*
X46103619Y-79592666D01*
X46198857Y-79545047D01*
X46341714Y-79545047D01*
X46436952Y-79592666D01*
X46484571Y-79640285D01*
X46532190Y-79735523D01*
X46532190Y-80116476D01*
X47008380Y-78592666D02*
X47008380Y-79164095D01*
X47008380Y-78878380D02*
X46008380Y-78878380D01*
X46151238Y-78973619D01*
X46246476Y-79068857D01*
X46294095Y-79164095D01*
X46008380Y-77973619D02*
X46008380Y-77878380D01*
X46056000Y-77783142D01*
X46103619Y-77735523D01*
X46198857Y-77687904D01*
X46389333Y-77640285D01*
X46627428Y-77640285D01*
X46817904Y-77687904D01*
X46913142Y-77735523D01*
X46960761Y-77783142D01*
X47008380Y-77878380D01*
X47008380Y-77973619D01*
X46960761Y-78068857D01*
X46913142Y-78116476D01*
X46817904Y-78164095D01*
X46627428Y-78211714D01*
X46389333Y-78211714D01*
X46198857Y-78164095D01*
X46103619Y-78116476D01*
X46056000Y-78068857D01*
X46008380Y-77973619D01*
X46103619Y-77259333D02*
X46056000Y-77211714D01*
X46008380Y-77116476D01*
X46008380Y-76878380D01*
X46056000Y-76783142D01*
X46103619Y-76735523D01*
X46198857Y-76687904D01*
X46294095Y-76687904D01*
X46436952Y-76735523D01*
X47008380Y-77306952D01*
X47008380Y-76687904D01*
X72004580Y-70684757D02*
X71528390Y-71018090D01*
X72004580Y-71256185D02*
X71004580Y-71256185D01*
X71004580Y-70875233D01*
X71052200Y-70779995D01*
X71099819Y-70732376D01*
X71195057Y-70684757D01*
X71337914Y-70684757D01*
X71433152Y-70732376D01*
X71480771Y-70779995D01*
X71528390Y-70875233D01*
X71528390Y-71256185D01*
X72004580Y-70208566D02*
X72004580Y-70018090D01*
X71956961Y-69922852D01*
X71909342Y-69875233D01*
X71766485Y-69779995D01*
X71576009Y-69732376D01*
X71195057Y-69732376D01*
X71099819Y-69779995D01*
X71052200Y-69827614D01*
X71004580Y-69922852D01*
X71004580Y-70113328D01*
X71052200Y-70208566D01*
X71099819Y-70256185D01*
X71195057Y-70303804D01*
X71433152Y-70303804D01*
X71528390Y-70256185D01*
X71576009Y-70208566D01*
X71623628Y-70113328D01*
X71623628Y-69922852D01*
X71576009Y-69827614D01*
X71528390Y-69779995D01*
X71433152Y-69732376D01*
X71433152Y-69160947D02*
X71385533Y-69256185D01*
X71337914Y-69303804D01*
X71242676Y-69351423D01*
X71195057Y-69351423D01*
X71099819Y-69303804D01*
X71052200Y-69256185D01*
X71004580Y-69160947D01*
X71004580Y-68970471D01*
X71052200Y-68875233D01*
X71099819Y-68827614D01*
X71195057Y-68779995D01*
X71242676Y-68779995D01*
X71337914Y-68827614D01*
X71385533Y-68875233D01*
X71433152Y-68970471D01*
X71433152Y-69160947D01*
X71480771Y-69256185D01*
X71528390Y-69303804D01*
X71623628Y-69351423D01*
X71814104Y-69351423D01*
X71909342Y-69303804D01*
X71956961Y-69256185D01*
X72004580Y-69160947D01*
X72004580Y-68970471D01*
X71956961Y-68875233D01*
X71909342Y-68827614D01*
X71814104Y-68779995D01*
X71623628Y-68779995D01*
X71528390Y-68827614D01*
X71480771Y-68875233D01*
X71433152Y-68970471D01*
X46612380Y-131745357D02*
X46136190Y-132078690D01*
X46612380Y-132316785D02*
X45612380Y-132316785D01*
X45612380Y-131935833D01*
X45660000Y-131840595D01*
X45707619Y-131792976D01*
X45802857Y-131745357D01*
X45945714Y-131745357D01*
X46040952Y-131792976D01*
X46088571Y-131840595D01*
X46136190Y-131935833D01*
X46136190Y-132316785D01*
X46612380Y-131269166D02*
X46612380Y-131078690D01*
X46564761Y-130983452D01*
X46517142Y-130935833D01*
X46374285Y-130840595D01*
X46183809Y-130792976D01*
X45802857Y-130792976D01*
X45707619Y-130840595D01*
X45660000Y-130888214D01*
X45612380Y-130983452D01*
X45612380Y-131173928D01*
X45660000Y-131269166D01*
X45707619Y-131316785D01*
X45802857Y-131364404D01*
X46040952Y-131364404D01*
X46136190Y-131316785D01*
X46183809Y-131269166D01*
X46231428Y-131173928D01*
X46231428Y-130983452D01*
X46183809Y-130888214D01*
X46136190Y-130840595D01*
X46040952Y-130792976D01*
X45612380Y-129935833D02*
X45612380Y-130126309D01*
X45660000Y-130221547D01*
X45707619Y-130269166D01*
X45850476Y-130364404D01*
X46040952Y-130412023D01*
X46421904Y-130412023D01*
X46517142Y-130364404D01*
X46564761Y-130316785D01*
X46612380Y-130221547D01*
X46612380Y-130031071D01*
X46564761Y-129935833D01*
X46517142Y-129888214D01*
X46421904Y-129840595D01*
X46183809Y-129840595D01*
X46088571Y-129888214D01*
X46040952Y-129935833D01*
X45993333Y-130031071D01*
X45993333Y-130221547D01*
X46040952Y-130316785D01*
X46088571Y-130364404D01*
X46183809Y-130412023D01*
X102552380Y-74142857D02*
X102076190Y-74476190D01*
X102552380Y-74714285D02*
X101552380Y-74714285D01*
X101552380Y-74333333D01*
X101600000Y-74238095D01*
X101647619Y-74190476D01*
X101742857Y-74142857D01*
X101885714Y-74142857D01*
X101980952Y-74190476D01*
X102028571Y-74238095D01*
X102076190Y-74333333D01*
X102076190Y-74714285D01*
X102552380Y-73666666D02*
X102552380Y-73476190D01*
X102504761Y-73380952D01*
X102457142Y-73333333D01*
X102314285Y-73238095D01*
X102123809Y-73190476D01*
X101742857Y-73190476D01*
X101647619Y-73238095D01*
X101600000Y-73285714D01*
X101552380Y-73380952D01*
X101552380Y-73571428D01*
X101600000Y-73666666D01*
X101647619Y-73714285D01*
X101742857Y-73761904D01*
X101980952Y-73761904D01*
X102076190Y-73714285D01*
X102123809Y-73666666D01*
X102171428Y-73571428D01*
X102171428Y-73380952D01*
X102123809Y-73285714D01*
X102076190Y-73238095D01*
X101980952Y-73190476D01*
X101885714Y-72333333D02*
X102552380Y-72333333D01*
X101504761Y-72571428D02*
X102219047Y-72809523D01*
X102219047Y-72190476D01*
X108052380Y-74142857D02*
X107576190Y-74476190D01*
X108052380Y-74714285D02*
X107052380Y-74714285D01*
X107052380Y-74333333D01*
X107100000Y-74238095D01*
X107147619Y-74190476D01*
X107242857Y-74142857D01*
X107385714Y-74142857D01*
X107480952Y-74190476D01*
X107528571Y-74238095D01*
X107576190Y-74333333D01*
X107576190Y-74714285D01*
X108052380Y-73666666D02*
X108052380Y-73476190D01*
X108004761Y-73380952D01*
X107957142Y-73333333D01*
X107814285Y-73238095D01*
X107623809Y-73190476D01*
X107242857Y-73190476D01*
X107147619Y-73238095D01*
X107100000Y-73285714D01*
X107052380Y-73380952D01*
X107052380Y-73571428D01*
X107100000Y-73666666D01*
X107147619Y-73714285D01*
X107242857Y-73761904D01*
X107480952Y-73761904D01*
X107576190Y-73714285D01*
X107623809Y-73666666D01*
X107671428Y-73571428D01*
X107671428Y-73380952D01*
X107623809Y-73285714D01*
X107576190Y-73238095D01*
X107480952Y-73190476D01*
X107052380Y-72857142D02*
X107052380Y-72238095D01*
X107433333Y-72571428D01*
X107433333Y-72428571D01*
X107480952Y-72333333D01*
X107528571Y-72285714D01*
X107623809Y-72238095D01*
X107861904Y-72238095D01*
X107957142Y-72285714D01*
X108004761Y-72333333D01*
X108052380Y-72428571D01*
X108052380Y-72714285D01*
X108004761Y-72809523D01*
X107957142Y-72857142D01*
X59980380Y-79402857D02*
X59504190Y-79736190D01*
X59980380Y-79974285D02*
X58980380Y-79974285D01*
X58980380Y-79593333D01*
X59028000Y-79498095D01*
X59075619Y-79450476D01*
X59170857Y-79402857D01*
X59313714Y-79402857D01*
X59408952Y-79450476D01*
X59456571Y-79498095D01*
X59504190Y-79593333D01*
X59504190Y-79974285D01*
X59408952Y-78831428D02*
X59361333Y-78926666D01*
X59313714Y-78974285D01*
X59218476Y-79021904D01*
X59170857Y-79021904D01*
X59075619Y-78974285D01*
X59028000Y-78926666D01*
X58980380Y-78831428D01*
X58980380Y-78640952D01*
X59028000Y-78545714D01*
X59075619Y-78498095D01*
X59170857Y-78450476D01*
X59218476Y-78450476D01*
X59313714Y-78498095D01*
X59361333Y-78545714D01*
X59408952Y-78640952D01*
X59408952Y-78831428D01*
X59456571Y-78926666D01*
X59504190Y-78974285D01*
X59599428Y-79021904D01*
X59789904Y-79021904D01*
X59885142Y-78974285D01*
X59932761Y-78926666D01*
X59980380Y-78831428D01*
X59980380Y-78640952D01*
X59932761Y-78545714D01*
X59885142Y-78498095D01*
X59789904Y-78450476D01*
X59599428Y-78450476D01*
X59504190Y-78498095D01*
X59456571Y-78545714D01*
X59408952Y-78640952D01*
X59980380Y-77974285D02*
X59980380Y-77783809D01*
X59932761Y-77688571D01*
X59885142Y-77640952D01*
X59742285Y-77545714D01*
X59551809Y-77498095D01*
X59170857Y-77498095D01*
X59075619Y-77545714D01*
X59028000Y-77593333D01*
X58980380Y-77688571D01*
X58980380Y-77879047D01*
X59028000Y-77974285D01*
X59075619Y-78021904D01*
X59170857Y-78069523D01*
X59408952Y-78069523D01*
X59504190Y-78021904D01*
X59551809Y-77974285D01*
X59599428Y-77879047D01*
X59599428Y-77688571D01*
X59551809Y-77593333D01*
X59504190Y-77545714D01*
X59408952Y-77498095D01*
X61724382Y-140113760D02*
X61391049Y-139637570D01*
X61152954Y-140113760D02*
X61152954Y-139113760D01*
X61533906Y-139113760D01*
X61629144Y-139161380D01*
X61676763Y-139208999D01*
X61724382Y-139304237D01*
X61724382Y-139447094D01*
X61676763Y-139542332D01*
X61629144Y-139589951D01*
X61533906Y-139637570D01*
X61152954Y-139637570D01*
X62629144Y-139113760D02*
X62152954Y-139113760D01*
X62105335Y-139589951D01*
X62152954Y-139542332D01*
X62248192Y-139494713D01*
X62486287Y-139494713D01*
X62581525Y-139542332D01*
X62629144Y-139589951D01*
X62676763Y-139685189D01*
X62676763Y-139923284D01*
X62629144Y-140018522D01*
X62581525Y-140066141D01*
X62486287Y-140113760D01*
X62248192Y-140113760D01*
X62152954Y-140066141D01*
X62105335Y-140018522D01*
X63295811Y-139113760D02*
X63391049Y-139113760D01*
X63486287Y-139161380D01*
X63533906Y-139208999D01*
X63581525Y-139304237D01*
X63629144Y-139494713D01*
X63629144Y-139732808D01*
X63581525Y-139923284D01*
X63533906Y-140018522D01*
X63486287Y-140066141D01*
X63391049Y-140113760D01*
X63295811Y-140113760D01*
X63200573Y-140066141D01*
X63152954Y-140018522D01*
X63105335Y-139923284D01*
X63057716Y-139732808D01*
X63057716Y-139494713D01*
X63105335Y-139304237D01*
X63152954Y-139208999D01*
X63200573Y-139161380D01*
X63295811Y-139113760D01*
X61657382Y-138081760D02*
X61324049Y-137605570D01*
X61085954Y-138081760D02*
X61085954Y-137081760D01*
X61466906Y-137081760D01*
X61562144Y-137129380D01*
X61609763Y-137176999D01*
X61657382Y-137272237D01*
X61657382Y-137415094D01*
X61609763Y-137510332D01*
X61562144Y-137557951D01*
X61466906Y-137605570D01*
X61085954Y-137605570D01*
X62514525Y-137415094D02*
X62514525Y-138081760D01*
X62276430Y-137034141D02*
X62038335Y-137748427D01*
X62657382Y-137748427D01*
X63085954Y-138081760D02*
X63276430Y-138081760D01*
X63371668Y-138034141D01*
X63419287Y-137986522D01*
X63514525Y-137843665D01*
X63562144Y-137653189D01*
X63562144Y-137272237D01*
X63514525Y-137176999D01*
X63466906Y-137129380D01*
X63371668Y-137081760D01*
X63181192Y-137081760D01*
X63085954Y-137129380D01*
X63038335Y-137176999D01*
X62990716Y-137272237D01*
X62990716Y-137510332D01*
X63038335Y-137605570D01*
X63085954Y-137653189D01*
X63181192Y-137700808D01*
X63371668Y-137700808D01*
X63466906Y-137653189D01*
X63514525Y-137605570D01*
X63562144Y-137510332D01*
X61657382Y-135881760D02*
X61324049Y-135405570D01*
X61085954Y-135881760D02*
X61085954Y-134881760D01*
X61466906Y-134881760D01*
X61562144Y-134929380D01*
X61609763Y-134976999D01*
X61657382Y-135072237D01*
X61657382Y-135215094D01*
X61609763Y-135310332D01*
X61562144Y-135357951D01*
X61466906Y-135405570D01*
X61085954Y-135405570D01*
X62514525Y-135215094D02*
X62514525Y-135881760D01*
X62276430Y-134834141D02*
X62038335Y-135548427D01*
X62657382Y-135548427D01*
X63181192Y-135310332D02*
X63085954Y-135262713D01*
X63038335Y-135215094D01*
X62990716Y-135119856D01*
X62990716Y-135072237D01*
X63038335Y-134976999D01*
X63085954Y-134929380D01*
X63181192Y-134881760D01*
X63371668Y-134881760D01*
X63466906Y-134929380D01*
X63514525Y-134976999D01*
X63562144Y-135072237D01*
X63562144Y-135119856D01*
X63514525Y-135215094D01*
X63466906Y-135262713D01*
X63371668Y-135310332D01*
X63181192Y-135310332D01*
X63085954Y-135357951D01*
X63038335Y-135405570D01*
X62990716Y-135500808D01*
X62990716Y-135691284D01*
X63038335Y-135786522D01*
X63085954Y-135834141D01*
X63181192Y-135881760D01*
X63371668Y-135881760D01*
X63466906Y-135834141D01*
X63514525Y-135786522D01*
X63562144Y-135691284D01*
X63562144Y-135500808D01*
X63514525Y-135405570D01*
X63466906Y-135357951D01*
X63371668Y-135310332D01*
X61724382Y-133763760D02*
X61391049Y-133287570D01*
X61152954Y-133763760D02*
X61152954Y-132763760D01*
X61533906Y-132763760D01*
X61629144Y-132811380D01*
X61676763Y-132858999D01*
X61724382Y-132954237D01*
X61724382Y-133097094D01*
X61676763Y-133192332D01*
X61629144Y-133239951D01*
X61533906Y-133287570D01*
X61152954Y-133287570D01*
X62581525Y-133097094D02*
X62581525Y-133763760D01*
X62343430Y-132716141D02*
X62105335Y-133430427D01*
X62724382Y-133430427D01*
X63010097Y-132763760D02*
X63676763Y-132763760D01*
X63248192Y-133763760D01*
X61724382Y-131985760D02*
X61391049Y-131509570D01*
X61152954Y-131985760D02*
X61152954Y-130985760D01*
X61533906Y-130985760D01*
X61629144Y-131033380D01*
X61676763Y-131080999D01*
X61724382Y-131176237D01*
X61724382Y-131319094D01*
X61676763Y-131414332D01*
X61629144Y-131461951D01*
X61533906Y-131509570D01*
X61152954Y-131509570D01*
X62581525Y-131319094D02*
X62581525Y-131985760D01*
X62343430Y-130938141D02*
X62105335Y-131652427D01*
X62724382Y-131652427D01*
X63533906Y-130985760D02*
X63343430Y-130985760D01*
X63248192Y-131033380D01*
X63200573Y-131080999D01*
X63105335Y-131223856D01*
X63057716Y-131414332D01*
X63057716Y-131795284D01*
X63105335Y-131890522D01*
X63152954Y-131938141D01*
X63248192Y-131985760D01*
X63438668Y-131985760D01*
X63533906Y-131938141D01*
X63581525Y-131890522D01*
X63629144Y-131795284D01*
X63629144Y-131557189D01*
X63581525Y-131461951D01*
X63533906Y-131414332D01*
X63438668Y-131366713D01*
X63248192Y-131366713D01*
X63152954Y-131414332D01*
X63105335Y-131461951D01*
X63057716Y-131557189D01*
X48678380Y-79576857D02*
X48202190Y-79910190D01*
X48678380Y-80148285D02*
X47678380Y-80148285D01*
X47678380Y-79767333D01*
X47726000Y-79672095D01*
X47773619Y-79624476D01*
X47868857Y-79576857D01*
X48011714Y-79576857D01*
X48106952Y-79624476D01*
X48154571Y-79672095D01*
X48202190Y-79767333D01*
X48202190Y-80148285D01*
X47678380Y-79243523D02*
X47678380Y-78624476D01*
X48059333Y-78957809D01*
X48059333Y-78814952D01*
X48106952Y-78719714D01*
X48154571Y-78672095D01*
X48249809Y-78624476D01*
X48487904Y-78624476D01*
X48583142Y-78672095D01*
X48630761Y-78719714D01*
X48678380Y-78814952D01*
X48678380Y-79100666D01*
X48630761Y-79195904D01*
X48583142Y-79243523D01*
X47678380Y-78291142D02*
X47678380Y-77624476D01*
X48678380Y-78053047D01*
X54078380Y-138809857D02*
X53602190Y-139143190D01*
X54078380Y-139381285D02*
X53078380Y-139381285D01*
X53078380Y-139000333D01*
X53126000Y-138905095D01*
X53173619Y-138857476D01*
X53268857Y-138809857D01*
X53411714Y-138809857D01*
X53506952Y-138857476D01*
X53554571Y-138905095D01*
X53602190Y-139000333D01*
X53602190Y-139381285D01*
X53078380Y-138476523D02*
X53078380Y-137857476D01*
X53459333Y-138190809D01*
X53459333Y-138047952D01*
X53506952Y-137952714D01*
X53554571Y-137905095D01*
X53649809Y-137857476D01*
X53887904Y-137857476D01*
X53983142Y-137905095D01*
X54030761Y-137952714D01*
X54078380Y-138047952D01*
X54078380Y-138333666D01*
X54030761Y-138428904D01*
X53983142Y-138476523D01*
X53078380Y-137000333D02*
X53078380Y-137190809D01*
X53126000Y-137286047D01*
X53173619Y-137333666D01*
X53316476Y-137428904D01*
X53506952Y-137476523D01*
X53887904Y-137476523D01*
X53983142Y-137428904D01*
X54030761Y-137381285D01*
X54078380Y-137286047D01*
X54078380Y-137095571D01*
X54030761Y-137000333D01*
X53983142Y-136952714D01*
X53887904Y-136905095D01*
X53649809Y-136905095D01*
X53554571Y-136952714D01*
X53506952Y-137000333D01*
X53459333Y-137095571D01*
X53459333Y-137286047D01*
X53506952Y-137381285D01*
X53554571Y-137428904D01*
X53649809Y-137476523D01*
X54590380Y-120268857D02*
X54114190Y-120602190D01*
X54590380Y-120840285D02*
X53590380Y-120840285D01*
X53590380Y-120459333D01*
X53638000Y-120364095D01*
X53685619Y-120316476D01*
X53780857Y-120268857D01*
X53923714Y-120268857D01*
X54018952Y-120316476D01*
X54066571Y-120364095D01*
X54114190Y-120459333D01*
X54114190Y-120840285D01*
X53685619Y-119887904D02*
X53638000Y-119840285D01*
X53590380Y-119745047D01*
X53590380Y-119506952D01*
X53638000Y-119411714D01*
X53685619Y-119364095D01*
X53780857Y-119316476D01*
X53876095Y-119316476D01*
X54018952Y-119364095D01*
X54590380Y-119935523D01*
X54590380Y-119316476D01*
X53590380Y-118983142D02*
X53590380Y-118316476D01*
X54590380Y-118745047D01*
X58697082Y-124279920D02*
X58363749Y-123803730D01*
X58125654Y-124279920D02*
X58125654Y-123279920D01*
X58506606Y-123279920D01*
X58601844Y-123327540D01*
X58649463Y-123375159D01*
X58697082Y-123470397D01*
X58697082Y-123613254D01*
X58649463Y-123708492D01*
X58601844Y-123756111D01*
X58506606Y-123803730D01*
X58125654Y-123803730D01*
X59078035Y-123375159D02*
X59125654Y-123327540D01*
X59220892Y-123279920D01*
X59458987Y-123279920D01*
X59554225Y-123327540D01*
X59601844Y-123375159D01*
X59649463Y-123470397D01*
X59649463Y-123565635D01*
X59601844Y-123708492D01*
X59030416Y-124279920D01*
X59649463Y-124279920D01*
X60506606Y-123279920D02*
X60316130Y-123279920D01*
X60220892Y-123327540D01*
X60173273Y-123375159D01*
X60078035Y-123518016D01*
X60030416Y-123708492D01*
X60030416Y-124089444D01*
X60078035Y-124184682D01*
X60125654Y-124232301D01*
X60220892Y-124279920D01*
X60411368Y-124279920D01*
X60506606Y-124232301D01*
X60554225Y-124184682D01*
X60601844Y-124089444D01*
X60601844Y-123851349D01*
X60554225Y-123756111D01*
X60506606Y-123708492D01*
X60411368Y-123660873D01*
X60220892Y-123660873D01*
X60125654Y-123708492D01*
X60078035Y-123756111D01*
X60030416Y-123851349D01*
X56190380Y-138849857D02*
X55714190Y-139183190D01*
X56190380Y-139421285D02*
X55190380Y-139421285D01*
X55190380Y-139040333D01*
X55238000Y-138945095D01*
X55285619Y-138897476D01*
X55380857Y-138849857D01*
X55523714Y-138849857D01*
X55618952Y-138897476D01*
X55666571Y-138945095D01*
X55714190Y-139040333D01*
X55714190Y-139421285D01*
X55285619Y-138468904D02*
X55238000Y-138421285D01*
X55190380Y-138326047D01*
X55190380Y-138087952D01*
X55238000Y-137992714D01*
X55285619Y-137945095D01*
X55380857Y-137897476D01*
X55476095Y-137897476D01*
X55618952Y-137945095D01*
X56190380Y-138516523D01*
X56190380Y-137897476D01*
X55190380Y-136992714D02*
X55190380Y-137468904D01*
X55666571Y-137516523D01*
X55618952Y-137468904D01*
X55571333Y-137373666D01*
X55571333Y-137135571D01*
X55618952Y-137040333D01*
X55666571Y-136992714D01*
X55761809Y-136945095D01*
X55999904Y-136945095D01*
X56095142Y-136992714D01*
X56142761Y-137040333D01*
X56190380Y-137135571D01*
X56190380Y-137373666D01*
X56142761Y-137468904D01*
X56095142Y-137516523D01*
X53942380Y-101696666D02*
X53466190Y-102030000D01*
X53942380Y-102268095D02*
X52942380Y-102268095D01*
X52942380Y-101887142D01*
X52990000Y-101791904D01*
X53037619Y-101744285D01*
X53132857Y-101696666D01*
X53275714Y-101696666D01*
X53370952Y-101744285D01*
X53418571Y-101791904D01*
X53466190Y-101887142D01*
X53466190Y-102268095D01*
X53942380Y-100744285D02*
X53942380Y-101315714D01*
X53942380Y-101030000D02*
X52942380Y-101030000D01*
X53085238Y-101125238D01*
X53180476Y-101220476D01*
X53228095Y-101315714D01*
X54682380Y-146466666D02*
X54682380Y-146942857D01*
X53682380Y-146942857D01*
X53682380Y-146228571D02*
X53682380Y-145609523D01*
X54063333Y-145942857D01*
X54063333Y-145800000D01*
X54110952Y-145704761D01*
X54158571Y-145657142D01*
X54253809Y-145609523D01*
X54491904Y-145609523D01*
X54587142Y-145657142D01*
X54634761Y-145704761D01*
X54682380Y-145800000D01*
X54682380Y-146085714D01*
X54634761Y-146180952D01*
X54587142Y-146228571D01*
X42348333Y-143512380D02*
X41872142Y-143512380D01*
X41872142Y-142512380D01*
X42634047Y-142607619D02*
X42681666Y-142560000D01*
X42776904Y-142512380D01*
X43015000Y-142512380D01*
X43110238Y-142560000D01*
X43157857Y-142607619D01*
X43205476Y-142702857D01*
X43205476Y-142798095D01*
X43157857Y-142940952D01*
X42586428Y-143512380D01*
X43205476Y-143512380D01*
X72070220Y-68328705D02*
X71070220Y-68328705D01*
X71070220Y-68090610D01*
X71117840Y-67947753D01*
X71213078Y-67852515D01*
X71308316Y-67804896D01*
X71498792Y-67757277D01*
X71641649Y-67757277D01*
X71832125Y-67804896D01*
X71927363Y-67852515D01*
X72022601Y-67947753D01*
X72070220Y-68090610D01*
X72070220Y-68328705D01*
X72070220Y-66804896D02*
X72070220Y-67376324D01*
X72070220Y-67090610D02*
X71070220Y-67090610D01*
X71213078Y-67185848D01*
X71308316Y-67281086D01*
X71355935Y-67376324D01*
X71070220Y-66185848D02*
X71070220Y-66090610D01*
X71117840Y-65995372D01*
X71165459Y-65947753D01*
X71260697Y-65900134D01*
X71451173Y-65852515D01*
X71689268Y-65852515D01*
X71879744Y-65900134D01*
X71974982Y-65947753D01*
X72022601Y-65995372D01*
X72070220Y-66090610D01*
X72070220Y-66185848D01*
X72022601Y-66281086D01*
X71974982Y-66328705D01*
X71879744Y-66376324D01*
X71689268Y-66423943D01*
X71451173Y-66423943D01*
X71260697Y-66376324D01*
X71165459Y-66328705D01*
X71117840Y-66281086D01*
X71070220Y-66185848D01*
X49572380Y-134158095D02*
X48572380Y-134158095D01*
X48572380Y-133920000D01*
X48620000Y-133777142D01*
X48715238Y-133681904D01*
X48810476Y-133634285D01*
X49000952Y-133586666D01*
X49143809Y-133586666D01*
X49334285Y-133634285D01*
X49429523Y-133681904D01*
X49524761Y-133777142D01*
X49572380Y-133920000D01*
X49572380Y-134158095D01*
X49000952Y-133015238D02*
X48953333Y-133110476D01*
X48905714Y-133158095D01*
X48810476Y-133205714D01*
X48762857Y-133205714D01*
X48667619Y-133158095D01*
X48620000Y-133110476D01*
X48572380Y-133015238D01*
X48572380Y-132824761D01*
X48620000Y-132729523D01*
X48667619Y-132681904D01*
X48762857Y-132634285D01*
X48810476Y-132634285D01*
X48905714Y-132681904D01*
X48953333Y-132729523D01*
X49000952Y-132824761D01*
X49000952Y-133015238D01*
X49048571Y-133110476D01*
X49096190Y-133158095D01*
X49191428Y-133205714D01*
X49381904Y-133205714D01*
X49477142Y-133158095D01*
X49524761Y-133110476D01*
X49572380Y-133015238D01*
X49572380Y-132824761D01*
X49524761Y-132729523D01*
X49477142Y-132681904D01*
X49381904Y-132634285D01*
X49191428Y-132634285D01*
X49096190Y-132681904D01*
X49048571Y-132729523D01*
X49000952Y-132824761D01*
X58443904Y-117546380D02*
X58443904Y-116546380D01*
X58682000Y-116546380D01*
X58824857Y-116594000D01*
X58920095Y-116689238D01*
X58967714Y-116784476D01*
X59015333Y-116974952D01*
X59015333Y-117117809D01*
X58967714Y-117308285D01*
X58920095Y-117403523D01*
X58824857Y-117498761D01*
X58682000Y-117546380D01*
X58443904Y-117546380D01*
X59396285Y-116641619D02*
X59443904Y-116594000D01*
X59539142Y-116546380D01*
X59777238Y-116546380D01*
X59872476Y-116594000D01*
X59920095Y-116641619D01*
X59967714Y-116736857D01*
X59967714Y-116832095D01*
X59920095Y-116974952D01*
X59348666Y-117546380D01*
X59967714Y-117546380D01*
X59211904Y-108822380D02*
X59211904Y-107822380D01*
X59450000Y-107822380D01*
X59592857Y-107870000D01*
X59688095Y-107965238D01*
X59735714Y-108060476D01*
X59783333Y-108250952D01*
X59783333Y-108393809D01*
X59735714Y-108584285D01*
X59688095Y-108679523D01*
X59592857Y-108774761D01*
X59450000Y-108822380D01*
X59211904Y-108822380D01*
X60735714Y-108822380D02*
X60164285Y-108822380D01*
X60450000Y-108822380D02*
X60450000Y-107822380D01*
X60354761Y-107965238D01*
X60259523Y-108060476D01*
X60164285Y-108108095D01*
X36197142Y-141647142D02*
X36149523Y-141694761D01*
X36006666Y-141742380D01*
X35911428Y-141742380D01*
X35768571Y-141694761D01*
X35673333Y-141599523D01*
X35625714Y-141504285D01*
X35578095Y-141313809D01*
X35578095Y-141170952D01*
X35625714Y-140980476D01*
X35673333Y-140885238D01*
X35768571Y-140790000D01*
X35911428Y-140742380D01*
X36006666Y-140742380D01*
X36149523Y-140790000D01*
X36197142Y-140837619D01*
X37054285Y-141075714D02*
X37054285Y-141742380D01*
X36816190Y-140694761D02*
X36578095Y-141409047D01*
X37197142Y-141409047D01*
X37530476Y-140837619D02*
X37578095Y-140790000D01*
X37673333Y-140742380D01*
X37911428Y-140742380D01*
X38006666Y-140790000D01*
X38054285Y-140837619D01*
X38101904Y-140932857D01*
X38101904Y-141028095D01*
X38054285Y-141170952D01*
X37482857Y-141742380D01*
X38101904Y-141742380D01*
X36172142Y-138647142D02*
X36124523Y-138694761D01*
X35981666Y-138742380D01*
X35886428Y-138742380D01*
X35743571Y-138694761D01*
X35648333Y-138599523D01*
X35600714Y-138504285D01*
X35553095Y-138313809D01*
X35553095Y-138170952D01*
X35600714Y-137980476D01*
X35648333Y-137885238D01*
X35743571Y-137790000D01*
X35886428Y-137742380D01*
X35981666Y-137742380D01*
X36124523Y-137790000D01*
X36172142Y-137837619D01*
X36505476Y-137742380D02*
X37124523Y-137742380D01*
X36791190Y-138123333D01*
X36934047Y-138123333D01*
X37029285Y-138170952D01*
X37076904Y-138218571D01*
X37124523Y-138313809D01*
X37124523Y-138551904D01*
X37076904Y-138647142D01*
X37029285Y-138694761D01*
X36934047Y-138742380D01*
X36648333Y-138742380D01*
X36553095Y-138694761D01*
X36505476Y-138647142D01*
X37600714Y-138742380D02*
X37791190Y-138742380D01*
X37886428Y-138694761D01*
X37934047Y-138647142D01*
X38029285Y-138504285D01*
X38076904Y-138313809D01*
X38076904Y-137932857D01*
X38029285Y-137837619D01*
X37981666Y-137790000D01*
X37886428Y-137742380D01*
X37695952Y-137742380D01*
X37600714Y-137790000D01*
X37553095Y-137837619D01*
X37505476Y-137932857D01*
X37505476Y-138170952D01*
X37553095Y-138266190D01*
X37600714Y-138313809D01*
X37695952Y-138361428D01*
X37886428Y-138361428D01*
X37981666Y-138313809D01*
X38029285Y-138266190D01*
X38076904Y-138170952D01*
X36184642Y-135837142D02*
X36137023Y-135884761D01*
X35994166Y-135932380D01*
X35898928Y-135932380D01*
X35756071Y-135884761D01*
X35660833Y-135789523D01*
X35613214Y-135694285D01*
X35565595Y-135503809D01*
X35565595Y-135360952D01*
X35613214Y-135170476D01*
X35660833Y-135075238D01*
X35756071Y-134980000D01*
X35898928Y-134932380D01*
X35994166Y-134932380D01*
X36137023Y-134980000D01*
X36184642Y-135027619D01*
X36517976Y-134932380D02*
X37137023Y-134932380D01*
X36803690Y-135313333D01*
X36946547Y-135313333D01*
X37041785Y-135360952D01*
X37089404Y-135408571D01*
X37137023Y-135503809D01*
X37137023Y-135741904D01*
X37089404Y-135837142D01*
X37041785Y-135884761D01*
X36946547Y-135932380D01*
X36660833Y-135932380D01*
X36565595Y-135884761D01*
X36517976Y-135837142D01*
X37708452Y-135360952D02*
X37613214Y-135313333D01*
X37565595Y-135265714D01*
X37517976Y-135170476D01*
X37517976Y-135122857D01*
X37565595Y-135027619D01*
X37613214Y-134980000D01*
X37708452Y-134932380D01*
X37898928Y-134932380D01*
X37994166Y-134980000D01*
X38041785Y-135027619D01*
X38089404Y-135122857D01*
X38089404Y-135170476D01*
X38041785Y-135265714D01*
X37994166Y-135313333D01*
X37898928Y-135360952D01*
X37708452Y-135360952D01*
X37613214Y-135408571D01*
X37565595Y-135456190D01*
X37517976Y-135551428D01*
X37517976Y-135741904D01*
X37565595Y-135837142D01*
X37613214Y-135884761D01*
X37708452Y-135932380D01*
X37898928Y-135932380D01*
X37994166Y-135884761D01*
X38041785Y-135837142D01*
X38089404Y-135741904D01*
X38089404Y-135551428D01*
X38041785Y-135456190D01*
X37994166Y-135408571D01*
X37898928Y-135360952D01*
X52237142Y-101696666D02*
X52284761Y-101744285D01*
X52332380Y-101887142D01*
X52332380Y-101982380D01*
X52284761Y-102125238D01*
X52189523Y-102220476D01*
X52094285Y-102268095D01*
X51903809Y-102315714D01*
X51760952Y-102315714D01*
X51570476Y-102268095D01*
X51475238Y-102220476D01*
X51380000Y-102125238D01*
X51332380Y-101982380D01*
X51332380Y-101887142D01*
X51380000Y-101744285D01*
X51427619Y-101696666D01*
X51332380Y-101363333D02*
X51332380Y-100696666D01*
X52332380Y-101125238D01*
X50717142Y-101696666D02*
X50764761Y-101744285D01*
X50812380Y-101887142D01*
X50812380Y-101982380D01*
X50764761Y-102125238D01*
X50669523Y-102220476D01*
X50574285Y-102268095D01*
X50383809Y-102315714D01*
X50240952Y-102315714D01*
X50050476Y-102268095D01*
X49955238Y-102220476D01*
X49860000Y-102125238D01*
X49812380Y-101982380D01*
X49812380Y-101887142D01*
X49860000Y-101744285D01*
X49907619Y-101696666D01*
X49812380Y-100791904D02*
X49812380Y-101268095D01*
X50288571Y-101315714D01*
X50240952Y-101268095D01*
X50193333Y-101172857D01*
X50193333Y-100934761D01*
X50240952Y-100839523D01*
X50288571Y-100791904D01*
X50383809Y-100744285D01*
X50621904Y-100744285D01*
X50717142Y-100791904D01*
X50764761Y-100839523D01*
X50812380Y-100934761D01*
X50812380Y-101172857D01*
X50764761Y-101268095D01*
X50717142Y-101315714D01*
X57359142Y-106027666D02*
X57406761Y-106075285D01*
X57454380Y-106218142D01*
X57454380Y-106313380D01*
X57406761Y-106456238D01*
X57311523Y-106551476D01*
X57216285Y-106599095D01*
X57025809Y-106646714D01*
X56882952Y-106646714D01*
X56692476Y-106599095D01*
X56597238Y-106551476D01*
X56502000Y-106456238D01*
X56454380Y-106313380D01*
X56454380Y-106218142D01*
X56502000Y-106075285D01*
X56549619Y-106027666D01*
X56454380Y-105694333D02*
X56454380Y-105075285D01*
X56835333Y-105408619D01*
X56835333Y-105265761D01*
X56882952Y-105170523D01*
X56930571Y-105122904D01*
X57025809Y-105075285D01*
X57263904Y-105075285D01*
X57359142Y-105122904D01*
X57406761Y-105170523D01*
X57454380Y-105265761D01*
X57454380Y-105551476D01*
X57406761Y-105646714D01*
X57359142Y-105694333D01*
X50770380Y-88642095D02*
X49770380Y-88642095D01*
X49770380Y-88404000D01*
X49818000Y-88261142D01*
X49913238Y-88165904D01*
X50008476Y-88118285D01*
X50198952Y-88070666D01*
X50341809Y-88070666D01*
X50532285Y-88118285D01*
X50627523Y-88165904D01*
X50722761Y-88261142D01*
X50770380Y-88404000D01*
X50770380Y-88642095D01*
X49770380Y-87737333D02*
X49770380Y-87118285D01*
X50151333Y-87451619D01*
X50151333Y-87308761D01*
X50198952Y-87213523D01*
X50246571Y-87165904D01*
X50341809Y-87118285D01*
X50579904Y-87118285D01*
X50675142Y-87165904D01*
X50722761Y-87213523D01*
X50770380Y-87308761D01*
X50770380Y-87594476D01*
X50722761Y-87689714D01*
X50675142Y-87737333D01*
X63902380Y-88738095D02*
X62902380Y-88738095D01*
X62902380Y-88500000D01*
X62950000Y-88357142D01*
X63045238Y-88261904D01*
X63140476Y-88214285D01*
X63330952Y-88166666D01*
X63473809Y-88166666D01*
X63664285Y-88214285D01*
X63759523Y-88261904D01*
X63854761Y-88357142D01*
X63902380Y-88500000D01*
X63902380Y-88738095D01*
X62902380Y-87309523D02*
X62902380Y-87500000D01*
X62950000Y-87595238D01*
X62997619Y-87642857D01*
X63140476Y-87738095D01*
X63330952Y-87785714D01*
X63711904Y-87785714D01*
X63807142Y-87738095D01*
X63854761Y-87690476D01*
X63902380Y-87595238D01*
X63902380Y-87404761D01*
X63854761Y-87309523D01*
X63807142Y-87261904D01*
X63711904Y-87214285D01*
X63473809Y-87214285D01*
X63378571Y-87261904D01*
X63330952Y-87309523D01*
X63283333Y-87404761D01*
X63283333Y-87595238D01*
X63330952Y-87690476D01*
X63378571Y-87738095D01*
X63473809Y-87785714D01*
X36576095Y-148788380D02*
X36576095Y-147788380D01*
X36576095Y-148264571D02*
X37147523Y-148264571D01*
X37147523Y-148788380D02*
X37147523Y-147788380D01*
X38147523Y-148788380D02*
X37576095Y-148788380D01*
X37861809Y-148788380D02*
X37861809Y-147788380D01*
X37766571Y-147931238D01*
X37671333Y-148026476D01*
X37576095Y-148074095D01*
X34118380Y-68413904D02*
X33118380Y-68413904D01*
X33594571Y-68413904D02*
X33594571Y-67842476D01*
X34118380Y-67842476D02*
X33118380Y-67842476D01*
X33213619Y-67413904D02*
X33166000Y-67366285D01*
X33118380Y-67271047D01*
X33118380Y-67032952D01*
X33166000Y-66937714D01*
X33213619Y-66890095D01*
X33308857Y-66842476D01*
X33404095Y-66842476D01*
X33546952Y-66890095D01*
X34118380Y-67461523D01*
X34118380Y-66842476D01*
X118188095Y-148402380D02*
X118188095Y-147402380D01*
X118188095Y-147878571D02*
X118759523Y-147878571D01*
X118759523Y-148402380D02*
X118759523Y-147402380D01*
X119140476Y-147402380D02*
X119759523Y-147402380D01*
X119426190Y-147783333D01*
X119569047Y-147783333D01*
X119664285Y-147830952D01*
X119711904Y-147878571D01*
X119759523Y-147973809D01*
X119759523Y-148211904D01*
X119711904Y-148307142D01*
X119664285Y-148354761D01*
X119569047Y-148402380D01*
X119283333Y-148402380D01*
X119188095Y-148354761D01*
X119140476Y-148307142D01*
X117588095Y-64642380D02*
X117588095Y-63642380D01*
X117588095Y-64118571D02*
X118159523Y-64118571D01*
X118159523Y-64642380D02*
X118159523Y-63642380D01*
X119064285Y-63975714D02*
X119064285Y-64642380D01*
X118826190Y-63594761D02*
X118588095Y-64309047D01*
X119207142Y-64309047D01*
X37512666Y-127954380D02*
X37512666Y-128668666D01*
X37465047Y-128811523D01*
X37369809Y-128906761D01*
X37226952Y-128954380D01*
X37131714Y-128954380D01*
X38512666Y-128954380D02*
X37941238Y-128954380D01*
X38226952Y-128954380D02*
X38226952Y-127954380D01*
X38131714Y-128097238D01*
X38036476Y-128192476D01*
X37941238Y-128240095D01*
X37512666Y-71122380D02*
X37512666Y-71836666D01*
X37465047Y-71979523D01*
X37369809Y-72074761D01*
X37226952Y-72122380D01*
X37131714Y-72122380D01*
X37941238Y-71217619D02*
X37988857Y-71170000D01*
X38084095Y-71122380D01*
X38322190Y-71122380D01*
X38417428Y-71170000D01*
X38465047Y-71217619D01*
X38512666Y-71312857D01*
X38512666Y-71408095D01*
X38465047Y-71550952D01*
X37893619Y-72122380D01*
X38512666Y-72122380D01*
X105946666Y-109882380D02*
X105946666Y-110596666D01*
X105899047Y-110739523D01*
X105803809Y-110834761D01*
X105660952Y-110882380D01*
X105565714Y-110882380D01*
X106327619Y-109882380D02*
X106946666Y-109882380D01*
X106613333Y-110263333D01*
X106756190Y-110263333D01*
X106851428Y-110310952D01*
X106899047Y-110358571D01*
X106946666Y-110453809D01*
X106946666Y-110691904D01*
X106899047Y-110787142D01*
X106851428Y-110834761D01*
X106756190Y-110882380D01*
X106470476Y-110882380D01*
X106375238Y-110834761D01*
X106327619Y-110787142D01*
X108066666Y-132572380D02*
X108066666Y-133286666D01*
X108019047Y-133429523D01*
X107923809Y-133524761D01*
X107780952Y-133572380D01*
X107685714Y-133572380D01*
X108971428Y-132905714D02*
X108971428Y-133572380D01*
X108733333Y-132524761D02*
X108495238Y-133239047D01*
X109114285Y-133239047D01*
X43896666Y-147542380D02*
X43896666Y-148256666D01*
X43849047Y-148399523D01*
X43753809Y-148494761D01*
X43610952Y-148542380D01*
X43515714Y-148542380D01*
X44515714Y-147970952D02*
X44420476Y-147923333D01*
X44372857Y-147875714D01*
X44325238Y-147780476D01*
X44325238Y-147732857D01*
X44372857Y-147637619D01*
X44420476Y-147590000D01*
X44515714Y-147542380D01*
X44706190Y-147542380D01*
X44801428Y-147590000D01*
X44849047Y-147637619D01*
X44896666Y-147732857D01*
X44896666Y-147780476D01*
X44849047Y-147875714D01*
X44801428Y-147923333D01*
X44706190Y-147970952D01*
X44515714Y-147970952D01*
X44420476Y-148018571D01*
X44372857Y-148066190D01*
X44325238Y-148161428D01*
X44325238Y-148351904D01*
X44372857Y-148447142D01*
X44420476Y-148494761D01*
X44515714Y-148542380D01*
X44706190Y-148542380D01*
X44801428Y-148494761D01*
X44849047Y-148447142D01*
X44896666Y-148351904D01*
X44896666Y-148161428D01*
X44849047Y-148066190D01*
X44801428Y-148018571D01*
X44706190Y-147970952D01*
X44296380Y-112791904D02*
X45105904Y-112791904D01*
X45201142Y-112744285D01*
X45248761Y-112696666D01*
X45296380Y-112601428D01*
X45296380Y-112410952D01*
X45248761Y-112315714D01*
X45201142Y-112268095D01*
X45105904Y-112220476D01*
X44296380Y-112220476D01*
X45296380Y-111220476D02*
X45296380Y-111791904D01*
X45296380Y-111506190D02*
X44296380Y-111506190D01*
X44439238Y-111601428D01*
X44534476Y-111696666D01*
X44582095Y-111791904D01*
X43738095Y-64975380D02*
X43738095Y-65784904D01*
X43785714Y-65880142D01*
X43833333Y-65927761D01*
X43928571Y-65975380D01*
X44119047Y-65975380D01*
X44214285Y-65927761D01*
X44261904Y-65880142D01*
X44309523Y-65784904D01*
X44309523Y-64975380D01*
X44690476Y-64975380D02*
X45309523Y-64975380D01*
X44976190Y-65356333D01*
X45119047Y-65356333D01*
X45214285Y-65403952D01*
X45261904Y-65451571D01*
X45309523Y-65546809D01*
X45309523Y-65784904D01*
X45261904Y-65880142D01*
X45214285Y-65927761D01*
X45119047Y-65975380D01*
X44833333Y-65975380D01*
X44738095Y-65927761D01*
X44690476Y-65880142D01*
X57940380Y-129747904D02*
X58749904Y-129747904D01*
X58845142Y-129700285D01*
X58892761Y-129652666D01*
X58940380Y-129557428D01*
X58940380Y-129366952D01*
X58892761Y-129271714D01*
X58845142Y-129224095D01*
X58749904Y-129176476D01*
X57940380Y-129176476D01*
X58273714Y-128271714D02*
X58940380Y-128271714D01*
X57892761Y-128509809D02*
X58607047Y-128747904D01*
X58607047Y-128128857D01*
X68339335Y-104271760D02*
X68339335Y-105081284D01*
X68386954Y-105176522D01*
X68434573Y-105224141D01*
X68529811Y-105271760D01*
X68720287Y-105271760D01*
X68815525Y-105224141D01*
X68863144Y-105176522D01*
X68910763Y-105081284D01*
X68910763Y-104271760D01*
X69815525Y-104271760D02*
X69625049Y-104271760D01*
X69529811Y-104319380D01*
X69482192Y-104366999D01*
X69386954Y-104509856D01*
X69339335Y-104700332D01*
X69339335Y-105081284D01*
X69386954Y-105176522D01*
X69434573Y-105224141D01*
X69529811Y-105271760D01*
X69720287Y-105271760D01*
X69815525Y-105224141D01*
X69863144Y-105176522D01*
X69910763Y-105081284D01*
X69910763Y-104843189D01*
X69863144Y-104747951D01*
X69815525Y-104700332D01*
X69720287Y-104652713D01*
X69529811Y-104652713D01*
X69434573Y-104700332D01*
X69386954Y-104747951D01*
X69339335Y-104843189D01*
X58054095Y-64713380D02*
X58054095Y-65522904D01*
X58101714Y-65618142D01*
X58149333Y-65665761D01*
X58244571Y-65713380D01*
X58435047Y-65713380D01*
X58530285Y-65665761D01*
X58577904Y-65618142D01*
X58625523Y-65522904D01*
X58625523Y-64713380D01*
X59006476Y-64713380D02*
X59673142Y-64713380D01*
X59244571Y-65713380D01*
X71844740Y-89666844D02*
X72654264Y-89666844D01*
X72749502Y-89619225D01*
X72797121Y-89571606D01*
X72844740Y-89476368D01*
X72844740Y-89285892D01*
X72797121Y-89190654D01*
X72749502Y-89143035D01*
X72654264Y-89095416D01*
X71844740Y-89095416D01*
X72844740Y-88571606D02*
X72844740Y-88381130D01*
X72797121Y-88285892D01*
X72749502Y-88238273D01*
X72606645Y-88143035D01*
X72416169Y-88095416D01*
X72035217Y-88095416D01*
X71939979Y-88143035D01*
X71892360Y-88190654D01*
X71844740Y-88285892D01*
X71844740Y-88476368D01*
X71892360Y-88571606D01*
X71939979Y-88619225D01*
X72035217Y-88666844D01*
X72273312Y-88666844D01*
X72368550Y-88619225D01*
X72416169Y-88571606D01*
X72463788Y-88476368D01*
X72463788Y-88285892D01*
X72416169Y-88190654D01*
X72368550Y-88143035D01*
X72273312Y-88095416D01*
X50387904Y-64891380D02*
X50387904Y-65700904D01*
X50435523Y-65796142D01*
X50483142Y-65843761D01*
X50578380Y-65891380D01*
X50768857Y-65891380D01*
X50864095Y-65843761D01*
X50911714Y-65796142D01*
X50959333Y-65700904D01*
X50959333Y-64891380D01*
X51959333Y-65891380D02*
X51387904Y-65891380D01*
X51673619Y-65891380D02*
X51673619Y-64891380D01*
X51578380Y-65034238D01*
X51483142Y-65129476D01*
X51387904Y-65177095D01*
X52340285Y-64986619D02*
X52387904Y-64939000D01*
X52483142Y-64891380D01*
X52721238Y-64891380D01*
X52816476Y-64939000D01*
X52864095Y-64986619D01*
X52911714Y-65081857D01*
X52911714Y-65177095D01*
X52864095Y-65319952D01*
X52292666Y-65891380D01*
X52911714Y-65891380D01*
X39582380Y-139388095D02*
X40391904Y-139388095D01*
X40487142Y-139340476D01*
X40534761Y-139292857D01*
X40582380Y-139197619D01*
X40582380Y-139007142D01*
X40534761Y-138911904D01*
X40487142Y-138864285D01*
X40391904Y-138816666D01*
X39582380Y-138816666D01*
X40582380Y-137816666D02*
X40582380Y-138388095D01*
X40582380Y-138102380D02*
X39582380Y-138102380D01*
X39725238Y-138197619D01*
X39820476Y-138292857D01*
X39868095Y-138388095D01*
X39582380Y-137483333D02*
X39582380Y-136864285D01*
X39963333Y-137197619D01*
X39963333Y-137054761D01*
X40010952Y-136959523D01*
X40058571Y-136911904D01*
X40153809Y-136864285D01*
X40391904Y-136864285D01*
X40487142Y-136911904D01*
X40534761Y-136959523D01*
X40582380Y-137054761D01*
X40582380Y-137340476D01*
X40534761Y-137435714D01*
X40487142Y-137483333D01*
X64426724Y-64368500D02*
X64426724Y-65178024D01*
X64474343Y-65273262D01*
X64521962Y-65320881D01*
X64617200Y-65368500D01*
X64807677Y-65368500D01*
X64902915Y-65320881D01*
X64950534Y-65273262D01*
X64998153Y-65178024D01*
X64998153Y-64368500D01*
X65998153Y-65368500D02*
X65426724Y-65368500D01*
X65712439Y-65368500D02*
X65712439Y-64368500D01*
X65617200Y-64511358D01*
X65521962Y-64606596D01*
X65426724Y-64654215D01*
X66902915Y-64368500D02*
X66426724Y-64368500D01*
X66379105Y-64844691D01*
X66426724Y-64797072D01*
X66521962Y-64749453D01*
X66760058Y-64749453D01*
X66855296Y-64797072D01*
X66902915Y-64844691D01*
X66950534Y-64939929D01*
X66950534Y-65178024D01*
X66902915Y-65273262D01*
X66855296Y-65320881D01*
X66760058Y-65368500D01*
X66521962Y-65368500D01*
X66426724Y-65320881D01*
X66379105Y-65273262D01*
X74726364Y-64270560D02*
X74726364Y-65080084D01*
X74773983Y-65175322D01*
X74821602Y-65222941D01*
X74916840Y-65270560D01*
X75107317Y-65270560D01*
X75202555Y-65222941D01*
X75250174Y-65175322D01*
X75297793Y-65080084D01*
X75297793Y-64270560D01*
X76297793Y-65270560D02*
X75726364Y-65270560D01*
X76012079Y-65270560D02*
X76012079Y-64270560D01*
X75916840Y-64413418D01*
X75821602Y-64508656D01*
X75726364Y-64556275D01*
X77154936Y-64270560D02*
X76964460Y-64270560D01*
X76869221Y-64318180D01*
X76821602Y-64365799D01*
X76726364Y-64508656D01*
X76678745Y-64699132D01*
X76678745Y-65080084D01*
X76726364Y-65175322D01*
X76773983Y-65222941D01*
X76869221Y-65270560D01*
X77059698Y-65270560D01*
X77154936Y-65222941D01*
X77202555Y-65175322D01*
X77250174Y-65080084D01*
X77250174Y-64841989D01*
X77202555Y-64746751D01*
X77154936Y-64699132D01*
X77059698Y-64651513D01*
X76869221Y-64651513D01*
X76773983Y-64699132D01*
X76726364Y-64746751D01*
X76678745Y-64841989D01*
X80161904Y-69752380D02*
X80161904Y-70561904D01*
X80209523Y-70657142D01*
X80257142Y-70704761D01*
X80352380Y-70752380D01*
X80542857Y-70752380D01*
X80638095Y-70704761D01*
X80685714Y-70657142D01*
X80733333Y-70561904D01*
X80733333Y-69752380D01*
X81733333Y-70752380D02*
X81161904Y-70752380D01*
X81447619Y-70752380D02*
X81447619Y-69752380D01*
X81352380Y-69895238D01*
X81257142Y-69990476D01*
X81161904Y-70038095D01*
X82066666Y-69752380D02*
X82733333Y-69752380D01*
X82304761Y-70752380D01*
X64246664Y-74288160D02*
X64246664Y-75097684D01*
X64294283Y-75192922D01*
X64341902Y-75240541D01*
X64437140Y-75288160D01*
X64627617Y-75288160D01*
X64722855Y-75240541D01*
X64770474Y-75192922D01*
X64818093Y-75097684D01*
X64818093Y-74288160D01*
X65818093Y-75288160D02*
X65246664Y-75288160D01*
X65532379Y-75288160D02*
X65532379Y-74288160D01*
X65437140Y-74431018D01*
X65341902Y-74526256D01*
X65246664Y-74573875D01*
X66389521Y-74716732D02*
X66294283Y-74669113D01*
X66246664Y-74621494D01*
X66199045Y-74526256D01*
X66199045Y-74478637D01*
X66246664Y-74383399D01*
X66294283Y-74335780D01*
X66389521Y-74288160D01*
X66579998Y-74288160D01*
X66675236Y-74335780D01*
X66722855Y-74383399D01*
X66770474Y-74478637D01*
X66770474Y-74526256D01*
X66722855Y-74621494D01*
X66675236Y-74669113D01*
X66579998Y-74716732D01*
X66389521Y-74716732D01*
X66294283Y-74764351D01*
X66246664Y-74811970D01*
X66199045Y-74907208D01*
X66199045Y-75097684D01*
X66246664Y-75192922D01*
X66294283Y-75240541D01*
X66389521Y-75288160D01*
X66579998Y-75288160D01*
X66675236Y-75240541D01*
X66722855Y-75192922D01*
X66770474Y-75097684D01*
X66770474Y-74907208D01*
X66722855Y-74811970D01*
X66675236Y-74764351D01*
X66579998Y-74716732D01*
X117936666Y-71122380D02*
X117936666Y-71836666D01*
X117889047Y-71979523D01*
X117793809Y-72074761D01*
X117650952Y-72122380D01*
X117555714Y-72122380D01*
X118889047Y-71122380D02*
X118412857Y-71122380D01*
X118365238Y-71598571D01*
X118412857Y-71550952D01*
X118508095Y-71503333D01*
X118746190Y-71503333D01*
X118841428Y-71550952D01*
X118889047Y-71598571D01*
X118936666Y-71693809D01*
X118936666Y-71931904D01*
X118889047Y-72027142D01*
X118841428Y-72074761D01*
X118746190Y-72122380D01*
X118508095Y-72122380D01*
X118412857Y-72074761D01*
X118365238Y-72027142D01*
X117936666Y-127452380D02*
X117936666Y-128166666D01*
X117889047Y-128309523D01*
X117793809Y-128404761D01*
X117650952Y-128452380D01*
X117555714Y-128452380D01*
X118841428Y-127452380D02*
X118650952Y-127452380D01*
X118555714Y-127500000D01*
X118508095Y-127547619D01*
X118412857Y-127690476D01*
X118365238Y-127880952D01*
X118365238Y-128261904D01*
X118412857Y-128357142D01*
X118460476Y-128404761D01*
X118555714Y-128452380D01*
X118746190Y-128452380D01*
X118841428Y-128404761D01*
X118889047Y-128357142D01*
X118936666Y-128261904D01*
X118936666Y-128023809D01*
X118889047Y-127928571D01*
X118841428Y-127880952D01*
X118746190Y-127833333D01*
X118555714Y-127833333D01*
X118460476Y-127880952D01*
X118412857Y-127928571D01*
X118365238Y-128023809D01*
M02*
