%FSLAX45Y45*%
G04 Gerber Fmt 4.5, Leading zero omitted, Abs format (unit mm)*
G04 Created by KiCad (PCBNEW 5.1.5-52549c5~86~ubuntu18.04.1) date 2020-05-19 23:48:46*
%MOMM*%
%LPD*%
G04 APERTURE LIST*
%TA.AperFunction,Profile*%
%ADD10C,0.050000*%
%TD*%
%ADD11C,0.200000*%
%ADD12C,0.300000*%
G04 APERTURE END LIST*
D10*
X12300000Y-14899800D02*
X3300600Y-14899800D01*
X12300000Y-14300000D02*
X12300000Y-14900000D01*
X12300000Y-6399800D02*
X12300000Y-14300000D01*
X3300600Y-6399800D02*
X12300000Y-6399800D01*
X3300600Y-14899800D02*
X3300600Y-6399800D01*
D11*
D12*
X3584528Y-15368214D02*
X3584528Y-15068214D01*
X3655957Y-15068214D01*
X3698814Y-15082500D01*
X3727386Y-15111071D01*
X3741671Y-15139643D01*
X3755957Y-15196786D01*
X3755957Y-15239643D01*
X3741671Y-15296786D01*
X3727386Y-15325357D01*
X3698814Y-15353929D01*
X3655957Y-15368214D01*
X3584528Y-15368214D01*
X3884528Y-15368214D02*
X3884528Y-15168214D01*
X3884528Y-15225357D02*
X3898814Y-15196786D01*
X3913100Y-15182500D01*
X3941671Y-15168214D01*
X3970243Y-15168214D01*
X4070243Y-15368214D02*
X4070243Y-15168214D01*
X4070243Y-15068214D02*
X4055957Y-15082500D01*
X4070243Y-15096786D01*
X4084528Y-15082500D01*
X4070243Y-15068214D01*
X4070243Y-15096786D01*
X4255957Y-15368214D02*
X4227386Y-15353929D01*
X4213100Y-15325357D01*
X4213100Y-15068214D01*
X4413100Y-15368214D02*
X4384528Y-15353929D01*
X4370243Y-15325357D01*
X4370243Y-15068214D01*
X4755957Y-15368214D02*
X4755957Y-15068214D01*
X4855957Y-15282500D01*
X4955957Y-15068214D01*
X4955957Y-15368214D01*
X5227386Y-15368214D02*
X5227386Y-15211071D01*
X5213100Y-15182500D01*
X5184528Y-15168214D01*
X5127386Y-15168214D01*
X5098814Y-15182500D01*
X5227386Y-15353929D02*
X5198814Y-15368214D01*
X5127386Y-15368214D01*
X5098814Y-15353929D01*
X5084528Y-15325357D01*
X5084528Y-15296786D01*
X5098814Y-15268214D01*
X5127386Y-15253929D01*
X5198814Y-15253929D01*
X5227386Y-15239643D01*
X5370243Y-15168214D02*
X5370243Y-15468214D01*
X5370243Y-15182500D02*
X5398814Y-15168214D01*
X5455957Y-15168214D01*
X5484528Y-15182500D01*
X5498814Y-15196786D01*
X5513100Y-15225357D01*
X5513100Y-15311071D01*
X5498814Y-15339643D01*
X5484528Y-15353929D01*
X5455957Y-15368214D01*
X5398814Y-15368214D01*
X5370243Y-15353929D01*
X5641671Y-15339643D02*
X5655957Y-15353929D01*
X5641671Y-15368214D01*
X5627386Y-15353929D01*
X5641671Y-15339643D01*
X5641671Y-15368214D01*
X5641671Y-15182500D02*
X5655957Y-15196786D01*
X5641671Y-15211071D01*
X5627386Y-15196786D01*
X5641671Y-15182500D01*
X5641671Y-15211071D01*
M02*
