%FSLAX45Y45*%
G04 Gerber Fmt 4.5, Leading zero omitted, Abs format (unit mm)*
G04 Created by KiCad (PCBNEW 5.1.5-52549c5~86~ubuntu18.04.1) date 2020-05-19 23:48:46*
%MOMM*%
%LPD*%
G04 APERTURE LIST*
%TA.AperFunction,Profile*%
%ADD10C,0.050000*%
%TD*%
%ADD11C,0.200000*%
%ADD12C,0.300000*%
G04 APERTURE END LIST*
D10*
X12300000Y-14899800D02*
X3300600Y-14899800D01*
X12300000Y-14300000D02*
X12300000Y-14900000D01*
X12300000Y-6399800D02*
X12300000Y-14300000D01*
X3300600Y-6399800D02*
X12300000Y-6399800D01*
X3300600Y-14899800D02*
X3300600Y-6399800D01*
D11*
X3370000Y-13180000D02*
X3410000Y-13220000D01*
X3410000Y-13180000D02*
X3370000Y-13220000D01*
X3370000Y-13280000D02*
X3410000Y-13320000D01*
X3410000Y-13280000D02*
X3370000Y-13320000D01*
X3370000Y-13400000D02*
X3410000Y-13440000D01*
X3410000Y-13400000D02*
X3370000Y-13440000D01*
X3460000Y-13080000D02*
X3500000Y-13120000D01*
X3500000Y-13080000D02*
X3460000Y-13120000D01*
X3505000Y-10600000D02*
X3545000Y-10640000D01*
X3545000Y-10600000D02*
X3505000Y-10640000D01*
X3505000Y-10850000D02*
X3545000Y-10890000D01*
X3545000Y-10850000D02*
X3505000Y-10890000D01*
X3505000Y-11105000D02*
X3545000Y-11145000D01*
X3545000Y-11105000D02*
X3505000Y-11145000D01*
X3510000Y-10335000D02*
X3550000Y-10375000D01*
X3550000Y-10335000D02*
X3510000Y-10375000D01*
X3510000Y-11360000D02*
X3550000Y-11400000D01*
X3550000Y-11360000D02*
X3510000Y-11400000D01*
X3510000Y-12375000D02*
X3550000Y-12415000D01*
X3550000Y-12375000D02*
X3510000Y-12415000D01*
X3515000Y-11615000D02*
X3555000Y-11655000D01*
X3555000Y-11615000D02*
X3515000Y-11655000D01*
X3515000Y-11865000D02*
X3555000Y-11905000D01*
X3555000Y-11865000D02*
X3515000Y-11905000D01*
X3520000Y-12125000D02*
X3560000Y-12165000D01*
X3560000Y-12125000D02*
X3520000Y-12165000D01*
X3560000Y-13080000D02*
X3600000Y-13120000D01*
X3600000Y-13080000D02*
X3560000Y-13120000D01*
X3585000Y-12660000D02*
X3625000Y-12700000D01*
X3625000Y-12660000D02*
X3585000Y-12700000D01*
X3670000Y-12735000D02*
X3710000Y-12775000D01*
X3710000Y-12735000D02*
X3670000Y-12775000D01*
X3755000Y-9930000D02*
X3795000Y-9970000D01*
X3795000Y-9930000D02*
X3755000Y-9970000D01*
X4010000Y-13960000D02*
X4050000Y-14000000D01*
X4050000Y-13960000D02*
X4010000Y-14000000D01*
X4010000Y-14050000D02*
X4050000Y-14090000D01*
X4050000Y-14050000D02*
X4010000Y-14090000D01*
X4010000Y-14150000D02*
X4050000Y-14190000D01*
X4050000Y-14150000D02*
X4010000Y-14190000D01*
X4015000Y-13489000D02*
X4055000Y-13529000D01*
X4055000Y-13489000D02*
X4015000Y-13529000D01*
X4015000Y-13583000D02*
X4055000Y-13623000D01*
X4055000Y-13583000D02*
X4015000Y-13623000D01*
X4015000Y-13679000D02*
X4055000Y-13719000D01*
X4055000Y-13679000D02*
X4015000Y-13719000D01*
X4070000Y-12730000D02*
X4110000Y-12770000D01*
X4110000Y-12730000D02*
X4070000Y-12770000D01*
X4070000Y-12910000D02*
X4110000Y-12950000D01*
X4110000Y-12910000D02*
X4070000Y-12950000D01*
X4080000Y-7805000D02*
X4120000Y-7845000D01*
X4120000Y-7805000D02*
X4080000Y-7845000D01*
X4160000Y-12910000D02*
X4200000Y-12950000D01*
X4200000Y-12910000D02*
X4160000Y-12950000D01*
X4180000Y-12345000D02*
X4220000Y-12385000D01*
X4220000Y-12345000D02*
X4180000Y-12385000D01*
X4180000Y-12440000D02*
X4220000Y-12480000D01*
X4220000Y-12440000D02*
X4180000Y-12480000D01*
X4180000Y-12530000D02*
X4220000Y-12570000D01*
X4220000Y-12530000D02*
X4180000Y-12570000D01*
X4180000Y-12630000D02*
X4220000Y-12670000D01*
X4220000Y-12630000D02*
X4180000Y-12670000D01*
X4180000Y-12730000D02*
X4220000Y-12770000D01*
X4220000Y-12730000D02*
X4180000Y-12770000D01*
X4205000Y-7080000D02*
X4245000Y-7120000D01*
X4245000Y-7080000D02*
X4205000Y-7120000D01*
X4205000Y-7180000D02*
X4245000Y-7220000D01*
X4245000Y-7180000D02*
X4205000Y-7220000D01*
X4205000Y-7285000D02*
X4245000Y-7325000D01*
X4245000Y-7285000D02*
X4205000Y-7325000D01*
X4205000Y-7385000D02*
X4245000Y-7425000D01*
X4245000Y-7385000D02*
X4205000Y-7425000D01*
X4305000Y-12345000D02*
X4345000Y-12385000D01*
X4345000Y-12345000D02*
X4305000Y-12385000D01*
X4305000Y-12440000D02*
X4345000Y-12480000D01*
X4345000Y-12440000D02*
X4305000Y-12480000D01*
X4305000Y-12530000D02*
X4345000Y-12570000D01*
X4345000Y-12530000D02*
X4305000Y-12570000D01*
X4305000Y-12630000D02*
X4345000Y-12670000D01*
X4345000Y-12630000D02*
X4305000Y-12670000D01*
X4305000Y-12735000D02*
X4345000Y-12775000D01*
X4345000Y-12735000D02*
X4305000Y-12775000D01*
X4330000Y-8780000D02*
X4370000Y-8820000D01*
X4370000Y-8780000D02*
X4330000Y-8820000D01*
X4350000Y-6960000D02*
X4390000Y-7000000D01*
X4390000Y-6960000D02*
X4350000Y-7000000D01*
X4350000Y-7080000D02*
X4390000Y-7120000D01*
X4390000Y-7080000D02*
X4350000Y-7120000D01*
X4350000Y-7180000D02*
X4390000Y-7220000D01*
X4390000Y-7180000D02*
X4350000Y-7220000D01*
X4350000Y-7285000D02*
X4390000Y-7325000D01*
X4390000Y-7285000D02*
X4350000Y-7325000D01*
X4350000Y-7385000D02*
X4390000Y-7425000D01*
X4390000Y-7385000D02*
X4350000Y-7425000D01*
X4430000Y-8780000D02*
X4470000Y-8820000D01*
X4470000Y-8780000D02*
X4430000Y-8820000D01*
X4450000Y-6585000D02*
X4490000Y-6625000D01*
X4490000Y-6585000D02*
X4450000Y-6625000D01*
X4500000Y-6760000D02*
X4540000Y-6800000D01*
X4540000Y-6760000D02*
X4500000Y-6800000D01*
X4500000Y-6860000D02*
X4540000Y-6900000D01*
X4540000Y-6860000D02*
X4500000Y-6900000D01*
X4500000Y-6960000D02*
X4540000Y-7000000D01*
X4540000Y-6960000D02*
X4500000Y-7000000D01*
X4500000Y-7080000D02*
X4540000Y-7120000D01*
X4540000Y-7080000D02*
X4500000Y-7120000D01*
X4500000Y-7180000D02*
X4540000Y-7220000D01*
X4540000Y-7180000D02*
X4500000Y-7220000D01*
X4500000Y-7285000D02*
X4540000Y-7325000D01*
X4540000Y-7285000D02*
X4500000Y-7325000D01*
X4500000Y-7385000D02*
X4540000Y-7425000D01*
X4540000Y-7385000D02*
X4500000Y-7425000D01*
X4515678Y-11631234D02*
X4555678Y-11671234D01*
X4555678Y-11631234D02*
X4515678Y-11671234D01*
X4540000Y-8780000D02*
X4580000Y-8820000D01*
X4580000Y-8780000D02*
X4540000Y-8820000D01*
X4550000Y-6585000D02*
X4590000Y-6625000D01*
X4590000Y-6585000D02*
X4550000Y-6625000D01*
X4576130Y-11575354D02*
X4616130Y-11615354D01*
X4616130Y-11575354D02*
X4576130Y-11615354D01*
X4610000Y-13730000D02*
X4650000Y-13770000D01*
X4650000Y-13730000D02*
X4610000Y-13770000D01*
X4610000Y-13840000D02*
X4650000Y-13880000D01*
X4650000Y-13840000D02*
X4610000Y-13880000D01*
X4610000Y-13960000D02*
X4650000Y-14000000D01*
X4650000Y-13960000D02*
X4610000Y-14000000D01*
X4624898Y-7738430D02*
X4664898Y-7778430D01*
X4664898Y-7738430D02*
X4624898Y-7778430D01*
X4625000Y-12305000D02*
X4665000Y-12345000D01*
X4665000Y-12305000D02*
X4625000Y-12345000D01*
X4625000Y-12400000D02*
X4665000Y-12440000D01*
X4665000Y-12400000D02*
X4625000Y-12440000D01*
X4625000Y-12490000D02*
X4665000Y-12530000D01*
X4665000Y-12490000D02*
X4625000Y-12530000D01*
X4625000Y-12590000D02*
X4665000Y-12630000D01*
X4665000Y-12590000D02*
X4625000Y-12630000D01*
X4625000Y-12695000D02*
X4665000Y-12735000D01*
X4665000Y-12695000D02*
X4625000Y-12735000D01*
X4625000Y-12790000D02*
X4665000Y-12830000D01*
X4665000Y-12790000D02*
X4625000Y-12830000D01*
X4625000Y-12880000D02*
X4665000Y-12920000D01*
X4665000Y-12880000D02*
X4625000Y-12920000D01*
X4655000Y-6585000D02*
X4695000Y-6625000D01*
X4695000Y-6585000D02*
X4655000Y-6625000D01*
X4671524Y-10708483D02*
X4711524Y-10748483D01*
X4711524Y-10708483D02*
X4671524Y-10748483D01*
X4735245Y-10544368D02*
X4775245Y-10584368D01*
X4775245Y-10544368D02*
X4735245Y-10584368D01*
X4750000Y-12305000D02*
X4790000Y-12345000D01*
X4790000Y-12305000D02*
X4750000Y-12345000D01*
X4750000Y-12400000D02*
X4790000Y-12440000D01*
X4790000Y-12400000D02*
X4750000Y-12440000D01*
X4750000Y-12490000D02*
X4790000Y-12530000D01*
X4790000Y-12490000D02*
X4750000Y-12530000D01*
X4750000Y-12590000D02*
X4790000Y-12630000D01*
X4790000Y-12590000D02*
X4750000Y-12630000D01*
X4750000Y-12695000D02*
X4790000Y-12735000D01*
X4790000Y-12695000D02*
X4750000Y-12735000D01*
X4750000Y-12790000D02*
X4790000Y-12830000D01*
X4790000Y-12790000D02*
X4750000Y-12830000D01*
X4750000Y-12880000D02*
X4790000Y-12920000D01*
X4790000Y-12880000D02*
X4750000Y-12920000D01*
X4755000Y-6585000D02*
X4795000Y-6625000D01*
X4795000Y-6585000D02*
X4755000Y-6625000D01*
X4780000Y-7075000D02*
X4820000Y-7115000D01*
X4820000Y-7075000D02*
X4780000Y-7115000D01*
X4780000Y-7175000D02*
X4820000Y-7215000D01*
X4820000Y-7175000D02*
X4780000Y-7215000D01*
X4780000Y-7280000D02*
X4820000Y-7320000D01*
X4820000Y-7280000D02*
X4780000Y-7320000D01*
X4780000Y-7380000D02*
X4820000Y-7420000D01*
X4820000Y-7380000D02*
X4780000Y-7420000D01*
X4780894Y-10608020D02*
X4820894Y-10648020D01*
X4820894Y-10608020D02*
X4780894Y-10648020D01*
X4825347Y-11701169D02*
X4865347Y-11741169D01*
X4865347Y-11701169D02*
X4825347Y-11741169D01*
X4830000Y-11110000D02*
X4870000Y-11150000D01*
X4870000Y-11110000D02*
X4830000Y-11150000D01*
X4830000Y-11220000D02*
X4870000Y-11260000D01*
X4870000Y-11220000D02*
X4830000Y-11260000D01*
X4830000Y-11340000D02*
X4870000Y-11380000D01*
X4870000Y-11340000D02*
X4830000Y-11380000D01*
X4940000Y-7075000D02*
X4980000Y-7115000D01*
X4980000Y-7075000D02*
X4940000Y-7115000D01*
X4940000Y-7175000D02*
X4980000Y-7215000D01*
X4980000Y-7175000D02*
X4940000Y-7215000D01*
X4940000Y-7280000D02*
X4980000Y-7320000D01*
X4980000Y-7280000D02*
X4940000Y-7320000D01*
X4940000Y-7380000D02*
X4980000Y-7420000D01*
X4980000Y-7380000D02*
X4940000Y-7420000D01*
X4960000Y-11110000D02*
X5000000Y-11150000D01*
X5000000Y-11110000D02*
X4960000Y-11150000D01*
X4960000Y-11220000D02*
X5000000Y-11260000D01*
X5000000Y-11220000D02*
X4960000Y-11260000D01*
X4960000Y-11340000D02*
X5000000Y-11380000D01*
X5000000Y-11340000D02*
X4960000Y-11380000D01*
X4970348Y-11667801D02*
X5010348Y-11707801D01*
X5010348Y-11667801D02*
X4970348Y-11707801D01*
X4970896Y-10646755D02*
X5010896Y-10686755D01*
X5010896Y-10646755D02*
X4970896Y-10686755D01*
X4999770Y-11763376D02*
X5039770Y-11803376D01*
X5039770Y-11763376D02*
X4999770Y-11803376D01*
X5030000Y-9805000D02*
X5070000Y-9845000D01*
X5070000Y-9805000D02*
X5030000Y-9845000D01*
X5030000Y-9920000D02*
X5070000Y-9960000D01*
X5070000Y-9920000D02*
X5030000Y-9960000D01*
X5030000Y-10025000D02*
X5070000Y-10065000D01*
X5070000Y-10025000D02*
X5030000Y-10065000D01*
X5030000Y-10140000D02*
X5070000Y-10180000D01*
X5070000Y-10140000D02*
X5030000Y-10180000D01*
X5040000Y-13895000D02*
X5080000Y-13935000D01*
X5080000Y-13895000D02*
X5040000Y-13935000D01*
X5040000Y-13995000D02*
X5080000Y-14035000D01*
X5080000Y-13995000D02*
X5040000Y-14035000D01*
X5080000Y-11110000D02*
X5120000Y-11150000D01*
X5120000Y-11110000D02*
X5080000Y-11150000D01*
X5080000Y-11220000D02*
X5120000Y-11260000D01*
X5120000Y-11220000D02*
X5080000Y-11260000D01*
X5080000Y-11330000D02*
X5120000Y-11370000D01*
X5120000Y-11330000D02*
X5080000Y-11370000D01*
X5080896Y-10646190D02*
X5120896Y-10686190D01*
X5120896Y-10646190D02*
X5080896Y-10686190D01*
X5090000Y-7075000D02*
X5130000Y-7115000D01*
X5130000Y-7075000D02*
X5090000Y-7115000D01*
X5090000Y-7175000D02*
X5130000Y-7215000D01*
X5130000Y-7175000D02*
X5090000Y-7215000D01*
X5090000Y-7280000D02*
X5130000Y-7320000D01*
X5130000Y-7280000D02*
X5090000Y-7320000D01*
X5090000Y-7380000D02*
X5130000Y-7420000D01*
X5130000Y-7380000D02*
X5090000Y-7420000D01*
X5130000Y-9805000D02*
X5170000Y-9845000D01*
X5170000Y-9805000D02*
X5130000Y-9845000D01*
X5130000Y-9920000D02*
X5170000Y-9960000D01*
X5170000Y-9920000D02*
X5130000Y-9960000D01*
X5130000Y-10025000D02*
X5170000Y-10065000D01*
X5170000Y-10025000D02*
X5130000Y-10065000D01*
X5130000Y-10140000D02*
X5170000Y-10180000D01*
X5170000Y-10140000D02*
X5130000Y-10180000D01*
X5130000Y-13895000D02*
X5170000Y-13935000D01*
X5170000Y-13895000D02*
X5130000Y-13935000D01*
X5130000Y-13995000D02*
X5170000Y-14035000D01*
X5170000Y-13995000D02*
X5130000Y-14035000D01*
X5225000Y-13895000D02*
X5265000Y-13935000D01*
X5265000Y-13895000D02*
X5225000Y-13935000D01*
X5225000Y-13995000D02*
X5265000Y-14035000D01*
X5265000Y-13995000D02*
X5225000Y-14035000D01*
X5230000Y-7075000D02*
X5270000Y-7115000D01*
X5270000Y-7075000D02*
X5230000Y-7115000D01*
X5230000Y-7175000D02*
X5270000Y-7215000D01*
X5270000Y-7175000D02*
X5230000Y-7215000D01*
X5230000Y-7280000D02*
X5270000Y-7320000D01*
X5270000Y-7280000D02*
X5230000Y-7320000D01*
X5230000Y-7380000D02*
X5270000Y-7420000D01*
X5270000Y-7380000D02*
X5230000Y-7420000D01*
X5240000Y-12680000D02*
X5280000Y-12720000D01*
X5280000Y-12680000D02*
X5240000Y-12720000D01*
X5243896Y-9739696D02*
X5283896Y-9779696D01*
X5283896Y-9739696D02*
X5243896Y-9779696D01*
X5280000Y-13040000D02*
X5320000Y-13080000D01*
X5320000Y-13040000D02*
X5280000Y-13080000D01*
X5330000Y-10130000D02*
X5370000Y-10170000D01*
X5370000Y-10130000D02*
X5330000Y-10170000D01*
X5330000Y-12680000D02*
X5370000Y-12720000D01*
X5370000Y-12680000D02*
X5330000Y-12720000D01*
X5330000Y-13895000D02*
X5370000Y-13935000D01*
X5370000Y-13895000D02*
X5330000Y-13935000D01*
X5330000Y-13995000D02*
X5370000Y-14035000D01*
X5370000Y-13995000D02*
X5330000Y-14035000D01*
X5350000Y-8160000D02*
X5390000Y-8200000D01*
X5390000Y-8160000D02*
X5350000Y-8200000D01*
X5361752Y-9739950D02*
X5401752Y-9779950D01*
X5401752Y-9739950D02*
X5361752Y-9779950D01*
X5369880Y-7759258D02*
X5409880Y-7799258D01*
X5409880Y-7759258D02*
X5369880Y-7799258D01*
X5370000Y-13040000D02*
X5410000Y-13080000D01*
X5410000Y-13040000D02*
X5370000Y-13080000D01*
X5401376Y-11952544D02*
X5441376Y-11992544D01*
X5441376Y-11952544D02*
X5401376Y-11992544D01*
X5401376Y-12042968D02*
X5441376Y-12082968D01*
X5441376Y-12042968D02*
X5401376Y-12082968D01*
X5420000Y-12680000D02*
X5460000Y-12720000D01*
X5460000Y-12680000D02*
X5420000Y-12720000D01*
X5420000Y-13895000D02*
X5460000Y-13935000D01*
X5460000Y-13895000D02*
X5420000Y-13935000D01*
X5420000Y-13995000D02*
X5460000Y-14035000D01*
X5460000Y-13995000D02*
X5420000Y-14035000D01*
X5424490Y-10985499D02*
X5464490Y-11025499D01*
X5464490Y-10985499D02*
X5424490Y-11025499D01*
X5470000Y-13040000D02*
X5510000Y-13080000D01*
X5510000Y-13040000D02*
X5470000Y-13080000D01*
X5475000Y-6980000D02*
X5515000Y-7020000D01*
X5515000Y-6980000D02*
X5475000Y-7020000D01*
X5475000Y-7075000D02*
X5515000Y-7115000D01*
X5515000Y-7075000D02*
X5475000Y-7115000D01*
X5475000Y-7180000D02*
X5515000Y-7220000D01*
X5515000Y-7180000D02*
X5475000Y-7220000D01*
X5485000Y-7285000D02*
X5525000Y-7325000D01*
X5525000Y-7285000D02*
X5485000Y-7325000D01*
X5485000Y-7385000D02*
X5525000Y-7425000D01*
X5525000Y-7385000D02*
X5485000Y-7425000D01*
X5510000Y-13895000D02*
X5550000Y-13935000D01*
X5550000Y-13895000D02*
X5510000Y-13935000D01*
X5510000Y-13995000D02*
X5550000Y-14035000D01*
X5550000Y-13995000D02*
X5510000Y-14035000D01*
X5515000Y-12275000D02*
X5555000Y-12315000D01*
X5555000Y-12275000D02*
X5515000Y-12315000D01*
X5530000Y-10985499D02*
X5570000Y-11025499D01*
X5570000Y-10985499D02*
X5530000Y-11025499D01*
X5537266Y-11560876D02*
X5577266Y-11600876D01*
X5577266Y-11560876D02*
X5537266Y-11600876D01*
X5575000Y-6980000D02*
X5615000Y-7020000D01*
X5615000Y-6980000D02*
X5575000Y-7020000D01*
X5575000Y-7075000D02*
X5615000Y-7115000D01*
X5615000Y-7075000D02*
X5575000Y-7115000D01*
X5575000Y-7180000D02*
X5615000Y-7220000D01*
X5615000Y-7180000D02*
X5575000Y-7220000D01*
X5575000Y-7285000D02*
X5615000Y-7325000D01*
X5615000Y-7285000D02*
X5575000Y-7325000D01*
X5575000Y-7385000D02*
X5615000Y-7425000D01*
X5615000Y-7385000D02*
X5575000Y-7425000D01*
X5605000Y-13895000D02*
X5645000Y-13935000D01*
X5645000Y-13895000D02*
X5605000Y-13935000D01*
X5605000Y-13995000D02*
X5645000Y-14035000D01*
X5645000Y-13995000D02*
X5605000Y-14035000D01*
X5670000Y-7285000D02*
X5710000Y-7325000D01*
X5710000Y-7285000D02*
X5670000Y-7325000D01*
X5670000Y-7385000D02*
X5710000Y-7425000D01*
X5710000Y-7385000D02*
X5670000Y-7425000D01*
X5675000Y-12305000D02*
X5715000Y-12345000D01*
X5715000Y-12305000D02*
X5675000Y-12345000D01*
X5694746Y-11540556D02*
X5734746Y-11580556D01*
X5734746Y-11540556D02*
X5694746Y-11580556D01*
X5710000Y-13895000D02*
X5750000Y-13935000D01*
X5750000Y-13895000D02*
X5710000Y-13935000D01*
X5710000Y-13995000D02*
X5750000Y-14035000D01*
X5750000Y-13995000D02*
X5710000Y-14035000D01*
X5725000Y-12915000D02*
X5765000Y-12955000D01*
X5765000Y-12915000D02*
X5725000Y-12955000D01*
X5725000Y-13015000D02*
X5765000Y-13055000D01*
X5765000Y-13015000D02*
X5725000Y-13055000D01*
X5740000Y-13630000D02*
X5780000Y-13670000D01*
X5780000Y-13630000D02*
X5740000Y-13670000D01*
X5747812Y-12630189D02*
X5787812Y-12670189D01*
X5787812Y-12630189D02*
X5747812Y-12670189D01*
X5770000Y-12170000D02*
X5810000Y-12210000D01*
X5810000Y-12170000D02*
X5770000Y-12210000D01*
X5770000Y-12260000D02*
X5810000Y-12300000D01*
X5810000Y-12260000D02*
X5770000Y-12300000D01*
X5770000Y-12360000D02*
X5810000Y-12400000D01*
X5810000Y-12360000D02*
X5770000Y-12400000D01*
X5775000Y-7285000D02*
X5815000Y-7325000D01*
X5815000Y-7285000D02*
X5775000Y-7325000D01*
X5775000Y-7385000D02*
X5815000Y-7425000D01*
X5815000Y-7385000D02*
X5775000Y-7425000D01*
X5780000Y-13300000D02*
X5820000Y-13340000D01*
X5820000Y-13300000D02*
X5780000Y-13340000D01*
X5780000Y-13390000D02*
X5820000Y-13430000D01*
X5820000Y-13390000D02*
X5780000Y-13430000D01*
X5820000Y-9470000D02*
X5860000Y-9510000D01*
X5860000Y-9470000D02*
X5820000Y-9510000D01*
X5820000Y-9575000D02*
X5860000Y-9615000D01*
X5860000Y-9575000D02*
X5820000Y-9615000D01*
X5820000Y-9670000D02*
X5860000Y-9710000D01*
X5860000Y-9670000D02*
X5820000Y-9710000D01*
X5820000Y-9760000D02*
X5860000Y-9800000D01*
X5860000Y-9760000D02*
X5820000Y-9800000D01*
X5820000Y-9880000D02*
X5860000Y-9920000D01*
X5860000Y-9880000D02*
X5820000Y-9920000D01*
X5820000Y-9990000D02*
X5860000Y-10030000D01*
X5860000Y-9990000D02*
X5820000Y-10030000D01*
X5820000Y-10100000D02*
X5860000Y-10140000D01*
X5860000Y-10100000D02*
X5820000Y-10140000D01*
X5820000Y-10200000D02*
X5860000Y-10240000D01*
X5860000Y-10200000D02*
X5820000Y-10240000D01*
X5820000Y-12915000D02*
X5860000Y-12955000D01*
X5860000Y-12915000D02*
X5820000Y-12955000D01*
X5820000Y-13015000D02*
X5860000Y-13055000D01*
X5860000Y-13015000D02*
X5820000Y-13055000D01*
X5840000Y-6630000D02*
X5880000Y-6670000D01*
X5880000Y-6630000D02*
X5840000Y-6670000D01*
X5840000Y-6740000D02*
X5880000Y-6780000D01*
X5880000Y-6740000D02*
X5840000Y-6780000D01*
X5840000Y-6840000D02*
X5880000Y-6880000D01*
X5880000Y-6840000D02*
X5840000Y-6880000D01*
X5840000Y-13630000D02*
X5880000Y-13670000D01*
X5880000Y-13630000D02*
X5840000Y-13670000D01*
X5855000Y-13175000D02*
X5895000Y-13215000D01*
X5895000Y-13175000D02*
X5855000Y-13215000D01*
X5870000Y-14020000D02*
X5910000Y-14060000D01*
X5910000Y-14020000D02*
X5870000Y-14060000D01*
X5870000Y-14120000D02*
X5910000Y-14160000D01*
X5910000Y-14120000D02*
X5870000Y-14160000D01*
X5900000Y-8750000D02*
X5940000Y-8790000D01*
X5940000Y-8750000D02*
X5900000Y-8790000D01*
X5915000Y-12630000D02*
X5955000Y-12670000D01*
X5955000Y-12630000D02*
X5915000Y-12670000D01*
X5925000Y-12915000D02*
X5965000Y-12955000D01*
X5965000Y-12915000D02*
X5925000Y-12955000D01*
X5925000Y-13015000D02*
X5965000Y-13055000D01*
X5965000Y-13015000D02*
X5925000Y-13055000D01*
X5930000Y-6630000D02*
X5970000Y-6670000D01*
X5970000Y-6630000D02*
X5930000Y-6670000D01*
X5930000Y-6740000D02*
X5970000Y-6780000D01*
X5970000Y-6740000D02*
X5930000Y-6780000D01*
X5940000Y-6840000D02*
X5980000Y-6880000D01*
X5980000Y-6840000D02*
X5940000Y-6880000D01*
X5941552Y-10711089D02*
X5981552Y-10751089D01*
X5981552Y-10711089D02*
X5941552Y-10751089D01*
X5960000Y-14020000D02*
X6000000Y-14060000D01*
X6000000Y-14020000D02*
X5960000Y-14060000D01*
X5960000Y-14120000D02*
X6000000Y-14160000D01*
X6000000Y-14120000D02*
X5960000Y-14160000D01*
X5963521Y-11100163D02*
X6003521Y-11140163D01*
X6003521Y-11100163D02*
X5963521Y-11140163D01*
X5990000Y-8750000D02*
X6030000Y-8790000D01*
X6030000Y-8750000D02*
X5990000Y-8790000D01*
X6028446Y-13471554D02*
X6068446Y-13511554D01*
X6068446Y-13471554D02*
X6028446Y-13511554D01*
X6029424Y-13370000D02*
X6069424Y-13410000D01*
X6069424Y-13370000D02*
X6029424Y-13410000D01*
X6030000Y-13620000D02*
X6070000Y-13660000D01*
X6070000Y-13620000D02*
X6030000Y-13660000D01*
X6055000Y-14020000D02*
X6095000Y-14060000D01*
X6095000Y-14020000D02*
X6055000Y-14060000D01*
X6055000Y-14120000D02*
X6095000Y-14160000D01*
X6095000Y-14120000D02*
X6055000Y-14160000D01*
X6065586Y-12892090D02*
X6105586Y-12932090D01*
X6105586Y-12892090D02*
X6065586Y-12932090D01*
X6075000Y-12790000D02*
X6115000Y-12830000D01*
X6115000Y-12790000D02*
X6075000Y-12830000D01*
X6084890Y-7756972D02*
X6124890Y-7796972D01*
X6124890Y-7756972D02*
X6084890Y-7796972D01*
X6085000Y-8750000D02*
X6125000Y-8790000D01*
X6125000Y-8750000D02*
X6085000Y-8790000D01*
X6125000Y-11075000D02*
X6165000Y-11115000D01*
X6165000Y-11075000D02*
X6125000Y-11115000D01*
X6125000Y-11220000D02*
X6165000Y-11260000D01*
X6165000Y-11220000D02*
X6125000Y-11260000D01*
X6125000Y-11385000D02*
X6165000Y-11425000D01*
X6165000Y-11385000D02*
X6125000Y-11425000D01*
X6125000Y-11555000D02*
X6165000Y-11595000D01*
X6165000Y-11555000D02*
X6125000Y-11595000D01*
X6125000Y-11720000D02*
X6165000Y-11760000D01*
X6165000Y-11720000D02*
X6125000Y-11760000D01*
X6125000Y-11870000D02*
X6165000Y-11910000D01*
X6165000Y-11870000D02*
X6125000Y-11910000D01*
X6125000Y-12005000D02*
X6165000Y-12045000D01*
X6165000Y-12005000D02*
X6125000Y-12045000D01*
X6125000Y-12160000D02*
X6165000Y-12200000D01*
X6165000Y-12160000D02*
X6125000Y-12200000D01*
X6160000Y-14020000D02*
X6200000Y-14060000D01*
X6200000Y-14020000D02*
X6160000Y-14060000D01*
X6160000Y-14120000D02*
X6200000Y-14160000D01*
X6200000Y-14120000D02*
X6160000Y-14160000D01*
X6170000Y-12560000D02*
X6210000Y-12600000D01*
X6210000Y-12560000D02*
X6170000Y-12600000D01*
X6190000Y-8750000D02*
X6230000Y-8790000D01*
X6230000Y-8750000D02*
X6190000Y-8790000D01*
X6220000Y-14270000D02*
X6260000Y-14310000D01*
X6260000Y-14270000D02*
X6220000Y-14310000D01*
X6220000Y-14370000D02*
X6260000Y-14410000D01*
X6260000Y-14370000D02*
X6220000Y-14410000D01*
X6250000Y-12705000D02*
X6290000Y-12745000D01*
X6290000Y-12705000D02*
X6250000Y-12745000D01*
X6250000Y-12840000D02*
X6290000Y-12880000D01*
X6290000Y-12840000D02*
X6250000Y-12880000D01*
X6250000Y-12990000D02*
X6290000Y-13030000D01*
X6290000Y-12990000D02*
X6250000Y-13030000D01*
X6260000Y-11080000D02*
X6300000Y-11120000D01*
X6300000Y-11080000D02*
X6260000Y-11120000D01*
X6260000Y-11225000D02*
X6300000Y-11265000D01*
X6300000Y-11225000D02*
X6260000Y-11265000D01*
X6260000Y-11390000D02*
X6300000Y-11430000D01*
X6300000Y-11390000D02*
X6260000Y-11430000D01*
X6260000Y-11560000D02*
X6300000Y-11600000D01*
X6300000Y-11560000D02*
X6260000Y-11600000D01*
X6260000Y-11725000D02*
X6300000Y-11765000D01*
X6300000Y-11725000D02*
X6260000Y-11765000D01*
X6260000Y-11875000D02*
X6300000Y-11915000D01*
X6300000Y-11875000D02*
X6260000Y-11915000D01*
X6260000Y-12010000D02*
X6300000Y-12050000D01*
X6300000Y-12010000D02*
X6260000Y-12050000D01*
X6260000Y-12165000D02*
X6300000Y-12205000D01*
X6300000Y-12165000D02*
X6260000Y-12205000D01*
X6270000Y-7490000D02*
X6310000Y-7530000D01*
X6310000Y-7490000D02*
X6270000Y-7530000D01*
X6270000Y-7590000D02*
X6310000Y-7630000D01*
X6310000Y-7590000D02*
X6270000Y-7630000D01*
X6274870Y-13169769D02*
X6314870Y-13209769D01*
X6314870Y-13169769D02*
X6274870Y-13209769D01*
X6285000Y-10120000D02*
X6325000Y-10160000D01*
X6325000Y-10120000D02*
X6285000Y-10160000D01*
X6285000Y-10225000D02*
X6325000Y-10265000D01*
X6325000Y-10225000D02*
X6285000Y-10265000D01*
X6285000Y-10320000D02*
X6325000Y-10360000D01*
X6325000Y-10320000D02*
X6285000Y-10360000D01*
X6285000Y-10410000D02*
X6325000Y-10450000D01*
X6325000Y-10410000D02*
X6285000Y-10450000D01*
X6305000Y-8465000D02*
X6345000Y-8505000D01*
X6345000Y-8465000D02*
X6305000Y-8505000D01*
X6305000Y-8565000D02*
X6345000Y-8605000D01*
X6345000Y-8565000D02*
X6305000Y-8605000D01*
X6310000Y-14270000D02*
X6350000Y-14310000D01*
X6350000Y-14270000D02*
X6310000Y-14310000D01*
X6310000Y-14370000D02*
X6350000Y-14410000D01*
X6350000Y-14370000D02*
X6310000Y-14410000D01*
X6315000Y-13515000D02*
X6355000Y-13555000D01*
X6355000Y-13515000D02*
X6315000Y-13555000D01*
X6325000Y-13940000D02*
X6365000Y-13980000D01*
X6365000Y-13940000D02*
X6325000Y-13980000D01*
X6326958Y-9240819D02*
X6366958Y-9280819D01*
X6366958Y-9240819D02*
X6326958Y-9280819D01*
X6330000Y-13630000D02*
X6370000Y-13670000D01*
X6370000Y-13630000D02*
X6330000Y-13670000D01*
X6335216Y-9340479D02*
X6375216Y-9380479D01*
X6375216Y-9340479D02*
X6335216Y-9380479D01*
X6340000Y-12705000D02*
X6380000Y-12745000D01*
X6380000Y-12705000D02*
X6340000Y-12745000D01*
X6345000Y-9440000D02*
X6385000Y-9480000D01*
X6385000Y-9440000D02*
X6345000Y-9480000D01*
X6350000Y-9585000D02*
X6390000Y-9625000D01*
X6390000Y-9585000D02*
X6350000Y-9625000D01*
X6350000Y-13025000D02*
X6390000Y-13065000D01*
X6390000Y-13025000D02*
X6350000Y-13065000D01*
X6375000Y-11075000D02*
X6415000Y-11115000D01*
X6415000Y-11075000D02*
X6375000Y-11115000D01*
X6375000Y-11220000D02*
X6415000Y-11260000D01*
X6415000Y-11220000D02*
X6375000Y-11260000D01*
X6375000Y-11385000D02*
X6415000Y-11425000D01*
X6415000Y-11385000D02*
X6375000Y-11425000D01*
X6375000Y-11555000D02*
X6415000Y-11595000D01*
X6415000Y-11555000D02*
X6375000Y-11595000D01*
X6375000Y-11720000D02*
X6415000Y-11760000D01*
X6415000Y-11720000D02*
X6375000Y-11760000D01*
X6375000Y-11870000D02*
X6415000Y-11910000D01*
X6415000Y-11870000D02*
X6375000Y-11910000D01*
X6375000Y-12005000D02*
X6415000Y-12045000D01*
X6415000Y-12005000D02*
X6375000Y-12045000D01*
X6375000Y-12160000D02*
X6415000Y-12200000D01*
X6415000Y-12160000D02*
X6375000Y-12200000D01*
X6380000Y-7480000D02*
X6420000Y-7520000D01*
X6420000Y-7480000D02*
X6380000Y-7520000D01*
X6380000Y-8180000D02*
X6420000Y-8220000D01*
X6420000Y-8180000D02*
X6380000Y-8220000D01*
X6380425Y-8280000D02*
X6420425Y-8320000D01*
X6420425Y-8280000D02*
X6380425Y-8320000D01*
X6385000Y-8065000D02*
X6425000Y-8105000D01*
X6425000Y-8065000D02*
X6385000Y-8105000D01*
X6385000Y-10120000D02*
X6425000Y-10160000D01*
X6425000Y-10120000D02*
X6385000Y-10160000D01*
X6385000Y-10225000D02*
X6425000Y-10265000D01*
X6425000Y-10225000D02*
X6385000Y-10265000D01*
X6385000Y-10320000D02*
X6425000Y-10360000D01*
X6425000Y-10320000D02*
X6385000Y-10360000D01*
X6385000Y-10410000D02*
X6425000Y-10450000D01*
X6425000Y-10410000D02*
X6385000Y-10450000D01*
X6395000Y-8465000D02*
X6435000Y-8505000D01*
X6435000Y-8465000D02*
X6395000Y-8505000D01*
X6395000Y-8565000D02*
X6435000Y-8605000D01*
X6435000Y-8565000D02*
X6395000Y-8605000D01*
X6405000Y-14270000D02*
X6445000Y-14310000D01*
X6445000Y-14270000D02*
X6405000Y-14310000D01*
X6405000Y-14370000D02*
X6445000Y-14410000D01*
X6445000Y-14370000D02*
X6405000Y-14410000D01*
X6439048Y-8961483D02*
X6479048Y-9001483D01*
X6479048Y-8961483D02*
X6439048Y-9001483D01*
X6440000Y-12705000D02*
X6480000Y-12745000D01*
X6480000Y-12705000D02*
X6440000Y-12745000D01*
X6441003Y-9061465D02*
X6481003Y-9101465D01*
X6481003Y-9061465D02*
X6441003Y-9101465D01*
X6450000Y-8860000D02*
X6490000Y-8900000D01*
X6490000Y-8860000D02*
X6450000Y-8900000D01*
X6490000Y-8465000D02*
X6530000Y-8505000D01*
X6530000Y-8465000D02*
X6490000Y-8505000D01*
X6490000Y-8565000D02*
X6530000Y-8605000D01*
X6530000Y-8565000D02*
X6490000Y-8605000D01*
X6510000Y-7480000D02*
X6550000Y-7520000D01*
X6550000Y-7480000D02*
X6510000Y-7520000D01*
X6510000Y-14270000D02*
X6550000Y-14310000D01*
X6550000Y-14270000D02*
X6510000Y-14310000D01*
X6510000Y-14370000D02*
X6550000Y-14410000D01*
X6550000Y-14370000D02*
X6510000Y-14410000D01*
X6550000Y-6470000D02*
X6590000Y-6510000D01*
X6590000Y-6470000D02*
X6550000Y-6510000D01*
X6565000Y-9750000D02*
X6605000Y-9790000D01*
X6605000Y-9750000D02*
X6565000Y-9790000D01*
X6595000Y-8465000D02*
X6635000Y-8505000D01*
X6635000Y-8465000D02*
X6595000Y-8505000D01*
X6595000Y-8565000D02*
X6635000Y-8605000D01*
X6635000Y-8565000D02*
X6595000Y-8605000D01*
X6700000Y-6470000D02*
X6740000Y-6510000D01*
X6740000Y-6470000D02*
X6700000Y-6510000D01*
X6755000Y-10295000D02*
X6795000Y-10335000D01*
X6795000Y-10295000D02*
X6755000Y-10335000D01*
X6765000Y-6920000D02*
X6805000Y-6960000D01*
X6805000Y-6920000D02*
X6765000Y-6960000D01*
X6765000Y-7010000D02*
X6805000Y-7050000D01*
X6805000Y-7010000D02*
X6765000Y-7050000D01*
X6855000Y-6920000D02*
X6895000Y-6960000D01*
X6895000Y-6920000D02*
X6855000Y-6960000D01*
X6855000Y-7010000D02*
X6895000Y-7050000D01*
X6895000Y-7010000D02*
X6855000Y-7050000D01*
X6910000Y-10295000D02*
X6950000Y-10335000D01*
X6950000Y-10295000D02*
X6910000Y-10335000D01*
X6950000Y-7470000D02*
X6990000Y-7510000D01*
X6990000Y-7470000D02*
X6950000Y-7510000D01*
X6971012Y-8530935D02*
X7011012Y-8570935D01*
X7011012Y-8530935D02*
X6971012Y-8570935D01*
X6975655Y-8748172D02*
X7015655Y-8788172D01*
X7015655Y-8748172D02*
X6975655Y-8788172D01*
X6976923Y-8644486D02*
X7016923Y-8684486D01*
X7016923Y-8644486D02*
X6976923Y-8684486D01*
X6984153Y-8234780D02*
X7024153Y-8274780D01*
X7024153Y-8234780D02*
X6984153Y-8274780D01*
X6990000Y-9040000D02*
X7030000Y-9080000D01*
X7030000Y-9040000D02*
X6990000Y-9080000D01*
X6993174Y-8135186D02*
X7033174Y-8175186D01*
X7033174Y-8135186D02*
X6993174Y-8175186D01*
X6995000Y-8890000D02*
X7035000Y-8930000D01*
X7035000Y-8890000D02*
X6995000Y-8930000D01*
X6995490Y-8433966D02*
X7035490Y-8473966D01*
X7035490Y-8433966D02*
X6995490Y-8473966D01*
X6996832Y-8333974D02*
X7036832Y-8373974D01*
X7036832Y-8333974D02*
X6996832Y-8373974D01*
X7015000Y-9295000D02*
X7055000Y-9335000D01*
X7055000Y-9295000D02*
X7015000Y-9335000D01*
X7040000Y-7470000D02*
X7080000Y-7510000D01*
X7080000Y-7470000D02*
X7040000Y-7510000D01*
X7090000Y-7950000D02*
X7130000Y-7990000D01*
X7130000Y-7950000D02*
X7090000Y-7990000D01*
X7095000Y-9905000D02*
X7135000Y-9945000D01*
X7135000Y-9905000D02*
X7095000Y-9945000D01*
X7130000Y-6900000D02*
X7170000Y-6940000D01*
X7170000Y-6900000D02*
X7130000Y-6940000D01*
X7130000Y-6990000D02*
X7170000Y-7030000D01*
X7170000Y-6990000D02*
X7130000Y-7030000D01*
X7130000Y-7085000D02*
X7170000Y-7125000D01*
X7170000Y-7085000D02*
X7130000Y-7125000D01*
X7130000Y-7190000D02*
X7170000Y-7230000D01*
X7170000Y-7190000D02*
X7130000Y-7230000D01*
X7158040Y-9802942D02*
X7198040Y-9842942D01*
X7198040Y-9802942D02*
X7158040Y-9842942D01*
X7159193Y-9256980D02*
X7199193Y-9296980D01*
X7199193Y-9256980D02*
X7159193Y-9296980D01*
X7160000Y-6470000D02*
X7200000Y-6510000D01*
X7200000Y-6470000D02*
X7160000Y-6510000D01*
X7160000Y-6600000D02*
X7200000Y-6640000D01*
X7200000Y-6600000D02*
X7160000Y-6640000D01*
X7177970Y-7899123D02*
X7217970Y-7939123D01*
X7217970Y-7899123D02*
X7177970Y-7939123D01*
X7211049Y-8119999D02*
X7251049Y-8159999D01*
X7251049Y-8119999D02*
X7211049Y-8159999D01*
X7215000Y-7700000D02*
X7255000Y-7740000D01*
X7255000Y-7700000D02*
X7215000Y-7740000D01*
X7220000Y-9980000D02*
X7260000Y-10020000D01*
X7260000Y-9980000D02*
X7220000Y-10020000D01*
X7230000Y-6900000D02*
X7270000Y-6940000D01*
X7270000Y-6900000D02*
X7230000Y-6940000D01*
X7230000Y-6990000D02*
X7270000Y-7030000D01*
X7270000Y-6990000D02*
X7230000Y-7030000D01*
X7230000Y-7085000D02*
X7270000Y-7125000D01*
X7270000Y-7085000D02*
X7230000Y-7125000D01*
X7230000Y-7190000D02*
X7270000Y-7230000D01*
X7270000Y-7190000D02*
X7230000Y-7230000D01*
X7230000Y-7295000D02*
X7270000Y-7335000D01*
X7270000Y-7295000D02*
X7230000Y-7335000D01*
X7270000Y-7860000D02*
X7310000Y-7900000D01*
X7310000Y-7860000D02*
X7270000Y-7900000D01*
X7270442Y-9145810D02*
X7310442Y-9185810D01*
X7310442Y-9145810D02*
X7270442Y-9185810D01*
X7300000Y-6470000D02*
X7340000Y-6510000D01*
X7340000Y-6470000D02*
X7300000Y-6510000D01*
X7324918Y-10414574D02*
X7364918Y-10454574D01*
X7364918Y-10414574D02*
X7324918Y-10454574D01*
X7480000Y-11630000D02*
X7520000Y-11670000D01*
X7520000Y-11630000D02*
X7480000Y-11670000D01*
X7480000Y-13570000D02*
X7520000Y-13610000D01*
X7520000Y-13570000D02*
X7480000Y-13610000D01*
X7480000Y-14000000D02*
X7520000Y-14040000D01*
X7520000Y-14000000D02*
X7480000Y-14040000D01*
X7485000Y-11745000D02*
X7525000Y-11785000D01*
X7525000Y-11745000D02*
X7485000Y-11785000D01*
X7485000Y-11995000D02*
X7525000Y-12035000D01*
X7525000Y-11995000D02*
X7485000Y-12035000D01*
X7485000Y-12350000D02*
X7525000Y-12390000D01*
X7525000Y-12350000D02*
X7485000Y-12390000D01*
X7485000Y-13685000D02*
X7525000Y-13725000D01*
X7525000Y-13685000D02*
X7485000Y-13725000D01*
X7485000Y-14115000D02*
X7525000Y-14155000D01*
X7525000Y-14115000D02*
X7485000Y-14155000D01*
X7490000Y-12110000D02*
X7530000Y-12150000D01*
X7530000Y-12110000D02*
X7490000Y-12150000D01*
X7490000Y-12465000D02*
X7530000Y-12505000D01*
X7530000Y-12465000D02*
X7490000Y-12505000D01*
X7490000Y-12740000D02*
X7530000Y-12780000D01*
X7530000Y-12740000D02*
X7490000Y-12780000D01*
X7490000Y-13130000D02*
X7530000Y-13170000D01*
X7530000Y-13130000D02*
X7490000Y-13170000D01*
X7495000Y-12855000D02*
X7535000Y-12895000D01*
X7535000Y-12855000D02*
X7495000Y-12895000D01*
X7495000Y-13245000D02*
X7535000Y-13285000D01*
X7535000Y-13245000D02*
X7495000Y-13285000D01*
X7555000Y-9975000D02*
X7595000Y-10015000D01*
X7595000Y-9975000D02*
X7555000Y-10015000D01*
X7570000Y-7710000D02*
X7610000Y-7750000D01*
X7610000Y-7710000D02*
X7570000Y-7750000D01*
X7585000Y-8930000D02*
X7625000Y-8970000D01*
X7625000Y-8930000D02*
X7585000Y-8970000D01*
X7585000Y-9045000D02*
X7625000Y-9085000D01*
X7625000Y-9045000D02*
X7585000Y-9085000D01*
X7635000Y-11630000D02*
X7675000Y-11670000D01*
X7675000Y-11630000D02*
X7635000Y-11670000D01*
X7635000Y-13570000D02*
X7675000Y-13610000D01*
X7675000Y-13570000D02*
X7635000Y-13610000D01*
X7635000Y-14000000D02*
X7675000Y-14040000D01*
X7675000Y-14000000D02*
X7635000Y-14040000D01*
X7640000Y-11745000D02*
X7680000Y-11785000D01*
X7680000Y-11745000D02*
X7640000Y-11785000D01*
X7640000Y-11995000D02*
X7680000Y-12035000D01*
X7680000Y-11995000D02*
X7640000Y-12035000D01*
X7640000Y-12350000D02*
X7680000Y-12390000D01*
X7680000Y-12350000D02*
X7640000Y-12390000D01*
X7640000Y-13685000D02*
X7680000Y-13725000D01*
X7680000Y-13685000D02*
X7640000Y-13725000D01*
X7640000Y-14115000D02*
X7680000Y-14155000D01*
X7680000Y-14115000D02*
X7640000Y-14155000D01*
X7645000Y-12110000D02*
X7685000Y-12150000D01*
X7685000Y-12110000D02*
X7645000Y-12150000D01*
X7645000Y-12465000D02*
X7685000Y-12505000D01*
X7685000Y-12465000D02*
X7645000Y-12505000D01*
X7645000Y-12740000D02*
X7685000Y-12780000D01*
X7685000Y-12740000D02*
X7645000Y-12780000D01*
X7645000Y-13130000D02*
X7685000Y-13170000D01*
X7685000Y-13130000D02*
X7645000Y-13170000D01*
X7650000Y-12855000D02*
X7690000Y-12895000D01*
X7690000Y-12855000D02*
X7650000Y-12895000D01*
X7650000Y-13245000D02*
X7690000Y-13285000D01*
X7690000Y-13245000D02*
X7650000Y-13285000D01*
X7670000Y-6470000D02*
X7710000Y-6510000D01*
X7710000Y-6470000D02*
X7670000Y-6510000D01*
X7710000Y-9975000D02*
X7750000Y-10015000D01*
X7750000Y-9975000D02*
X7710000Y-10015000D01*
X7740000Y-8930000D02*
X7780000Y-8970000D01*
X7780000Y-8930000D02*
X7740000Y-8970000D01*
X7740000Y-9045000D02*
X7780000Y-9085000D01*
X7780000Y-9045000D02*
X7740000Y-9085000D01*
X7770000Y-6470000D02*
X7810000Y-6510000D01*
X7810000Y-6470000D02*
X7770000Y-6510000D01*
X7770000Y-11630000D02*
X7810000Y-11670000D01*
X7810000Y-11630000D02*
X7770000Y-11670000D01*
X7770000Y-13570000D02*
X7810000Y-13610000D01*
X7810000Y-13570000D02*
X7770000Y-13610000D01*
X7770000Y-14000000D02*
X7810000Y-14040000D01*
X7810000Y-14000000D02*
X7770000Y-14040000D01*
X7775000Y-11745000D02*
X7815000Y-11785000D01*
X7815000Y-11745000D02*
X7775000Y-11785000D01*
X7775000Y-11995000D02*
X7815000Y-12035000D01*
X7815000Y-11995000D02*
X7775000Y-12035000D01*
X7775000Y-12350000D02*
X7815000Y-12390000D01*
X7815000Y-12350000D02*
X7775000Y-12390000D01*
X7775000Y-13685000D02*
X7815000Y-13725000D01*
X7815000Y-13685000D02*
X7775000Y-13725000D01*
X7775000Y-14115000D02*
X7815000Y-14155000D01*
X7815000Y-14115000D02*
X7775000Y-14155000D01*
X7780000Y-12110000D02*
X7820000Y-12150000D01*
X7820000Y-12110000D02*
X7780000Y-12150000D01*
X7780000Y-12465000D02*
X7820000Y-12505000D01*
X7820000Y-12465000D02*
X7780000Y-12505000D01*
X7780000Y-12740000D02*
X7820000Y-12780000D01*
X7820000Y-12740000D02*
X7780000Y-12780000D01*
X7780000Y-13130000D02*
X7820000Y-13170000D01*
X7820000Y-13130000D02*
X7780000Y-13170000D01*
X7785000Y-12855000D02*
X7825000Y-12895000D01*
X7825000Y-12855000D02*
X7785000Y-12895000D01*
X7785000Y-13245000D02*
X7825000Y-13285000D01*
X7825000Y-13245000D02*
X7785000Y-13285000D01*
X7790000Y-7730000D02*
X7830000Y-7770000D01*
X7830000Y-7730000D02*
X7790000Y-7770000D01*
X7800000Y-8400000D02*
X7840000Y-8440000D01*
X7840000Y-8400000D02*
X7800000Y-8440000D01*
X7815000Y-8600000D02*
X7855000Y-8640000D01*
X7855000Y-8600000D02*
X7815000Y-8640000D01*
X7815000Y-8805000D02*
X7855000Y-8845000D01*
X7855000Y-8805000D02*
X7815000Y-8845000D01*
X7845000Y-9975000D02*
X7885000Y-10015000D01*
X7885000Y-9975000D02*
X7845000Y-10015000D01*
X7870000Y-7730000D02*
X7910000Y-7770000D01*
X7910000Y-7730000D02*
X7870000Y-7770000D01*
X7875000Y-8930000D02*
X7915000Y-8970000D01*
X7915000Y-8930000D02*
X7875000Y-8970000D01*
X7875000Y-9045000D02*
X7915000Y-9085000D01*
X7915000Y-9045000D02*
X7875000Y-9085000D01*
X7875336Y-10348280D02*
X7915336Y-10388280D01*
X7915336Y-10348280D02*
X7875336Y-10388280D01*
X7880000Y-6470000D02*
X7920000Y-6510000D01*
X7920000Y-6470000D02*
X7880000Y-6510000D01*
X7888641Y-8091360D02*
X7928641Y-8131360D01*
X7928641Y-8091360D02*
X7888641Y-8131360D01*
X7920000Y-8490000D02*
X7960000Y-8530000D01*
X7960000Y-8490000D02*
X7920000Y-8530000D01*
X7920000Y-11630000D02*
X7960000Y-11670000D01*
X7960000Y-11630000D02*
X7920000Y-11670000D01*
X7920000Y-13570000D02*
X7960000Y-13610000D01*
X7960000Y-13570000D02*
X7920000Y-13610000D01*
X7920000Y-14000000D02*
X7960000Y-14040000D01*
X7960000Y-14000000D02*
X7920000Y-14040000D01*
X7925000Y-11745000D02*
X7965000Y-11785000D01*
X7965000Y-11745000D02*
X7925000Y-11785000D01*
X7925000Y-11995000D02*
X7965000Y-12035000D01*
X7965000Y-11995000D02*
X7925000Y-12035000D01*
X7925000Y-12350000D02*
X7965000Y-12390000D01*
X7965000Y-12350000D02*
X7925000Y-12390000D01*
X7925000Y-13685000D02*
X7965000Y-13725000D01*
X7965000Y-13685000D02*
X7925000Y-13725000D01*
X7925000Y-14115000D02*
X7965000Y-14155000D01*
X7965000Y-14115000D02*
X7925000Y-14155000D01*
X7930000Y-8325000D02*
X7970000Y-8365000D01*
X7970000Y-8325000D02*
X7930000Y-8365000D01*
X7930000Y-12110000D02*
X7970000Y-12150000D01*
X7970000Y-12110000D02*
X7930000Y-12150000D01*
X7930000Y-12465000D02*
X7970000Y-12505000D01*
X7970000Y-12465000D02*
X7930000Y-12505000D01*
X7930000Y-12740000D02*
X7970000Y-12780000D01*
X7970000Y-12740000D02*
X7930000Y-12780000D01*
X7930000Y-13130000D02*
X7970000Y-13170000D01*
X7970000Y-13130000D02*
X7930000Y-13170000D01*
X7935000Y-12855000D02*
X7975000Y-12895000D01*
X7975000Y-12855000D02*
X7935000Y-12895000D01*
X7935000Y-13245000D02*
X7975000Y-13285000D01*
X7975000Y-13245000D02*
X7935000Y-13285000D01*
X7980000Y-7050000D02*
X8020000Y-7090000D01*
X8020000Y-7050000D02*
X7980000Y-7090000D01*
X7980000Y-7140000D02*
X8020000Y-7180000D01*
X8020000Y-7140000D02*
X7980000Y-7180000D01*
X7980000Y-7235000D02*
X8020000Y-7275000D01*
X8020000Y-7235000D02*
X7980000Y-7275000D01*
X7980000Y-7340000D02*
X8020000Y-7380000D01*
X8020000Y-7340000D02*
X7980000Y-7380000D01*
X7994716Y-10261412D02*
X8034716Y-10301412D01*
X8034716Y-10261412D02*
X7994716Y-10301412D01*
X7995000Y-9975000D02*
X8035000Y-10015000D01*
X8035000Y-9975000D02*
X7995000Y-10015000D01*
X8010000Y-7710000D02*
X8050000Y-7750000D01*
X8050000Y-7710000D02*
X8010000Y-7750000D01*
X8025000Y-8930000D02*
X8065000Y-8970000D01*
X8065000Y-8930000D02*
X8025000Y-8970000D01*
X8025000Y-9045000D02*
X8065000Y-9085000D01*
X8065000Y-9045000D02*
X8025000Y-9085000D01*
X8085000Y-11630000D02*
X8125000Y-11670000D01*
X8125000Y-11630000D02*
X8085000Y-11670000D01*
X8085000Y-13570000D02*
X8125000Y-13610000D01*
X8125000Y-13570000D02*
X8085000Y-13610000D01*
X8085000Y-14000000D02*
X8125000Y-14040000D01*
X8125000Y-14000000D02*
X8085000Y-14040000D01*
X8090000Y-11745000D02*
X8130000Y-11785000D01*
X8130000Y-11745000D02*
X8090000Y-11785000D01*
X8090000Y-11995000D02*
X8130000Y-12035000D01*
X8130000Y-11995000D02*
X8090000Y-12035000D01*
X8090000Y-12350000D02*
X8130000Y-12390000D01*
X8130000Y-12350000D02*
X8090000Y-12390000D01*
X8090000Y-13685000D02*
X8130000Y-13725000D01*
X8130000Y-13685000D02*
X8090000Y-13725000D01*
X8090000Y-14115000D02*
X8130000Y-14155000D01*
X8130000Y-14115000D02*
X8090000Y-14155000D01*
X8095000Y-12110000D02*
X8135000Y-12150000D01*
X8135000Y-12110000D02*
X8095000Y-12150000D01*
X8095000Y-12465000D02*
X8135000Y-12505000D01*
X8135000Y-12465000D02*
X8095000Y-12505000D01*
X8095000Y-12740000D02*
X8135000Y-12780000D01*
X8135000Y-12740000D02*
X8095000Y-12780000D01*
X8095000Y-13130000D02*
X8135000Y-13170000D01*
X8135000Y-13130000D02*
X8095000Y-13170000D01*
X8100000Y-12855000D02*
X8140000Y-12895000D01*
X8140000Y-12855000D02*
X8100000Y-12895000D01*
X8100000Y-13245000D02*
X8140000Y-13285000D01*
X8140000Y-13245000D02*
X8100000Y-13285000D01*
X8100772Y-7720000D02*
X8140772Y-7760000D01*
X8140772Y-7720000D02*
X8100772Y-7760000D01*
X8130000Y-6540000D02*
X8170000Y-6580000D01*
X8170000Y-6540000D02*
X8130000Y-6580000D01*
X8131318Y-6998682D02*
X8171318Y-7038682D01*
X8171318Y-6998682D02*
X8131318Y-7038682D01*
X8131318Y-7098682D02*
X8171318Y-7138682D01*
X8171318Y-7098682D02*
X8131318Y-7138682D01*
X8131318Y-7198682D02*
X8171318Y-7238682D01*
X8171318Y-7198682D02*
X8131318Y-7238682D01*
X8160000Y-9975000D02*
X8200000Y-10015000D01*
X8200000Y-9975000D02*
X8160000Y-10015000D01*
X8190000Y-8930000D02*
X8230000Y-8970000D01*
X8230000Y-8930000D02*
X8190000Y-8970000D01*
X8190000Y-9045000D02*
X8230000Y-9085000D01*
X8230000Y-9045000D02*
X8190000Y-9085000D01*
X8230000Y-6540000D02*
X8270000Y-6580000D01*
X8270000Y-6540000D02*
X8230000Y-6580000D01*
X8255000Y-7320000D02*
X8295000Y-7360000D01*
X8295000Y-7320000D02*
X8255000Y-7360000D01*
X8255000Y-7425000D02*
X8295000Y-7465000D01*
X8295000Y-7425000D02*
X8255000Y-7465000D01*
X8255000Y-11630000D02*
X8295000Y-11670000D01*
X8295000Y-11630000D02*
X8255000Y-11670000D01*
X8255000Y-13570000D02*
X8295000Y-13610000D01*
X8295000Y-13570000D02*
X8255000Y-13610000D01*
X8255000Y-14000000D02*
X8295000Y-14040000D01*
X8295000Y-14000000D02*
X8255000Y-14040000D01*
X8260000Y-7090000D02*
X8300000Y-7130000D01*
X8300000Y-7090000D02*
X8260000Y-7130000D01*
X8260000Y-7215000D02*
X8300000Y-7255000D01*
X8300000Y-7215000D02*
X8260000Y-7255000D01*
X8260000Y-11745000D02*
X8300000Y-11785000D01*
X8300000Y-11745000D02*
X8260000Y-11785000D01*
X8260000Y-11995000D02*
X8300000Y-12035000D01*
X8300000Y-11995000D02*
X8260000Y-12035000D01*
X8260000Y-12350000D02*
X8300000Y-12390000D01*
X8300000Y-12350000D02*
X8260000Y-12390000D01*
X8260000Y-13685000D02*
X8300000Y-13725000D01*
X8300000Y-13685000D02*
X8260000Y-13725000D01*
X8260000Y-14115000D02*
X8300000Y-14155000D01*
X8300000Y-14115000D02*
X8260000Y-14155000D01*
X8265000Y-12110000D02*
X8305000Y-12150000D01*
X8305000Y-12110000D02*
X8265000Y-12150000D01*
X8265000Y-12465000D02*
X8305000Y-12505000D01*
X8305000Y-12465000D02*
X8265000Y-12505000D01*
X8265000Y-12740000D02*
X8305000Y-12780000D01*
X8305000Y-12740000D02*
X8265000Y-12780000D01*
X8265000Y-13130000D02*
X8305000Y-13170000D01*
X8305000Y-13130000D02*
X8265000Y-13170000D01*
X8270000Y-12855000D02*
X8310000Y-12895000D01*
X8310000Y-12855000D02*
X8270000Y-12895000D01*
X8270000Y-13245000D02*
X8310000Y-13285000D01*
X8310000Y-13245000D02*
X8270000Y-13285000D01*
X8320000Y-8505000D02*
X8360000Y-8545000D01*
X8360000Y-8505000D02*
X8320000Y-8545000D01*
X8330000Y-9975000D02*
X8370000Y-10015000D01*
X8370000Y-9975000D02*
X8330000Y-10015000D01*
X8360000Y-8930000D02*
X8400000Y-8970000D01*
X8400000Y-8930000D02*
X8360000Y-8970000D01*
X8360000Y-9045000D02*
X8400000Y-9085000D01*
X8400000Y-9045000D02*
X8360000Y-9085000D01*
X8365000Y-7090000D02*
X8405000Y-7130000D01*
X8405000Y-7090000D02*
X8365000Y-7130000D01*
X8365000Y-7215000D02*
X8405000Y-7255000D01*
X8405000Y-7215000D02*
X8365000Y-7255000D01*
X8365000Y-7320000D02*
X8405000Y-7360000D01*
X8405000Y-7320000D02*
X8365000Y-7360000D01*
X8370000Y-7900000D02*
X8410000Y-7940000D01*
X8410000Y-7900000D02*
X8370000Y-7940000D01*
X8370000Y-7995000D02*
X8410000Y-8035000D01*
X8410000Y-7995000D02*
X8370000Y-8035000D01*
X8380000Y-6910000D02*
X8420000Y-6950000D01*
X8420000Y-6910000D02*
X8380000Y-6950000D01*
X8390000Y-8325000D02*
X8430000Y-8365000D01*
X8430000Y-8325000D02*
X8390000Y-8365000D01*
X8402386Y-7790500D02*
X8442386Y-7830500D01*
X8442386Y-7790500D02*
X8402386Y-7830500D01*
X8420000Y-11630000D02*
X8460000Y-11670000D01*
X8460000Y-11630000D02*
X8420000Y-11670000D01*
X8420000Y-13570000D02*
X8460000Y-13610000D01*
X8460000Y-13570000D02*
X8420000Y-13610000D01*
X8420000Y-14000000D02*
X8460000Y-14040000D01*
X8460000Y-14000000D02*
X8420000Y-14040000D01*
X8425000Y-11745000D02*
X8465000Y-11785000D01*
X8465000Y-11745000D02*
X8425000Y-11785000D01*
X8425000Y-11995000D02*
X8465000Y-12035000D01*
X8465000Y-11995000D02*
X8425000Y-12035000D01*
X8425000Y-12350000D02*
X8465000Y-12390000D01*
X8465000Y-12350000D02*
X8425000Y-12390000D01*
X8425000Y-13685000D02*
X8465000Y-13725000D01*
X8465000Y-13685000D02*
X8425000Y-13725000D01*
X8425000Y-14115000D02*
X8465000Y-14155000D01*
X8465000Y-14115000D02*
X8425000Y-14155000D01*
X8430000Y-12110000D02*
X8470000Y-12150000D01*
X8470000Y-12110000D02*
X8430000Y-12150000D01*
X8430000Y-12465000D02*
X8470000Y-12505000D01*
X8470000Y-12465000D02*
X8430000Y-12505000D01*
X8430000Y-12740000D02*
X8470000Y-12780000D01*
X8470000Y-12740000D02*
X8430000Y-12780000D01*
X8430000Y-13130000D02*
X8470000Y-13170000D01*
X8470000Y-13130000D02*
X8430000Y-13170000D01*
X8435000Y-12855000D02*
X8475000Y-12895000D01*
X8475000Y-12855000D02*
X8435000Y-12895000D01*
X8435000Y-13245000D02*
X8475000Y-13285000D01*
X8475000Y-13245000D02*
X8435000Y-13285000D01*
X8460000Y-7090000D02*
X8500000Y-7130000D01*
X8500000Y-7090000D02*
X8460000Y-7130000D01*
X8460000Y-7215000D02*
X8500000Y-7255000D01*
X8500000Y-7215000D02*
X8460000Y-7255000D01*
X8470000Y-6910000D02*
X8510000Y-6950000D01*
X8510000Y-6910000D02*
X8470000Y-6950000D01*
X8485000Y-8605000D02*
X8525000Y-8645000D01*
X8525000Y-8605000D02*
X8485000Y-8645000D01*
X8490000Y-8805000D02*
X8530000Y-8845000D01*
X8530000Y-8805000D02*
X8490000Y-8845000D01*
X8495000Y-8400000D02*
X8535000Y-8440000D01*
X8535000Y-8400000D02*
X8495000Y-8440000D01*
X8495000Y-9975000D02*
X8535000Y-10015000D01*
X8535000Y-9975000D02*
X8495000Y-10015000D01*
X8514146Y-7709474D02*
X8554146Y-7749474D01*
X8554146Y-7709474D02*
X8514146Y-7749474D01*
X8525000Y-8930000D02*
X8565000Y-8970000D01*
X8565000Y-8930000D02*
X8525000Y-8970000D01*
X8525000Y-9045000D02*
X8565000Y-9085000D01*
X8565000Y-9045000D02*
X8525000Y-9085000D01*
X8550000Y-7090000D02*
X8590000Y-7130000D01*
X8590000Y-7090000D02*
X8550000Y-7130000D01*
X8560000Y-6910000D02*
X8600000Y-6950000D01*
X8600000Y-6910000D02*
X8560000Y-6950000D01*
X8565000Y-11630000D02*
X8605000Y-11670000D01*
X8605000Y-11630000D02*
X8565000Y-11670000D01*
X8565000Y-13570000D02*
X8605000Y-13610000D01*
X8605000Y-13570000D02*
X8565000Y-13610000D01*
X8565000Y-14000000D02*
X8605000Y-14040000D01*
X8605000Y-14000000D02*
X8565000Y-14040000D01*
X8570000Y-8170000D02*
X8610000Y-8210000D01*
X8610000Y-8170000D02*
X8570000Y-8210000D01*
X8570000Y-11745000D02*
X8610000Y-11785000D01*
X8610000Y-11745000D02*
X8570000Y-11785000D01*
X8570000Y-11995000D02*
X8610000Y-12035000D01*
X8610000Y-11995000D02*
X8570000Y-12035000D01*
X8570000Y-12350000D02*
X8610000Y-12390000D01*
X8610000Y-12350000D02*
X8570000Y-12390000D01*
X8570000Y-13685000D02*
X8610000Y-13725000D01*
X8610000Y-13685000D02*
X8570000Y-13725000D01*
X8570000Y-14115000D02*
X8610000Y-14155000D01*
X8610000Y-14115000D02*
X8570000Y-14155000D01*
X8575000Y-12110000D02*
X8615000Y-12150000D01*
X8615000Y-12110000D02*
X8575000Y-12150000D01*
X8575000Y-12465000D02*
X8615000Y-12505000D01*
X8615000Y-12465000D02*
X8575000Y-12505000D01*
X8575000Y-12740000D02*
X8615000Y-12780000D01*
X8615000Y-12740000D02*
X8575000Y-12780000D01*
X8575000Y-13130000D02*
X8615000Y-13170000D01*
X8615000Y-13130000D02*
X8575000Y-13170000D01*
X8580000Y-12855000D02*
X8620000Y-12895000D01*
X8620000Y-12855000D02*
X8580000Y-12895000D01*
X8580000Y-13245000D02*
X8620000Y-13285000D01*
X8620000Y-13245000D02*
X8580000Y-13285000D01*
X8640000Y-9975000D02*
X8680000Y-10015000D01*
X8680000Y-9975000D02*
X8640000Y-10015000D01*
X8670000Y-8930000D02*
X8710000Y-8970000D01*
X8710000Y-8930000D02*
X8670000Y-8970000D01*
X8670000Y-9045000D02*
X8710000Y-9085000D01*
X8710000Y-9045000D02*
X8670000Y-9085000D01*
X8790000Y-6790000D02*
X8830000Y-6830000D01*
X8830000Y-6790000D02*
X8790000Y-6830000D01*
X8800000Y-9970000D02*
X8840000Y-10010000D01*
X8840000Y-9970000D02*
X8800000Y-10010000D01*
X8830000Y-8925000D02*
X8870000Y-8965000D01*
X8870000Y-8925000D02*
X8830000Y-8965000D01*
X8830000Y-9040000D02*
X8870000Y-9080000D01*
X8870000Y-9040000D02*
X8830000Y-9080000D01*
X8840000Y-7970000D02*
X8880000Y-8010000D01*
X8880000Y-7970000D02*
X8840000Y-8010000D01*
X8880000Y-7810000D02*
X8920000Y-7850000D01*
X8920000Y-7810000D02*
X8880000Y-7850000D01*
X8910000Y-8050000D02*
X8950000Y-8090000D01*
X8950000Y-8050000D02*
X8910000Y-8090000D01*
X8955000Y-9970000D02*
X8995000Y-10010000D01*
X8995000Y-9970000D02*
X8955000Y-10010000D01*
X8985000Y-8925000D02*
X9025000Y-8965000D01*
X9025000Y-8925000D02*
X8985000Y-8965000D01*
X8985000Y-9040000D02*
X9025000Y-9080000D01*
X9025000Y-9040000D02*
X8985000Y-9080000D01*
X9040000Y-7410000D02*
X9080000Y-7450000D01*
X9080000Y-7410000D02*
X9040000Y-7450000D01*
X9090000Y-9970000D02*
X9130000Y-10010000D01*
X9130000Y-9970000D02*
X9090000Y-10010000D01*
X9098805Y-6778664D02*
X9138805Y-6818664D01*
X9138805Y-6778664D02*
X9098805Y-6818664D01*
X9100000Y-9715000D02*
X9140000Y-9755000D01*
X9140000Y-9715000D02*
X9100000Y-9755000D01*
X9103189Y-9826340D02*
X9143189Y-9866340D01*
X9143189Y-9826340D02*
X9103189Y-9866340D01*
X9105000Y-9190000D02*
X9145000Y-9230000D01*
X9145000Y-9190000D02*
X9105000Y-9230000D01*
X9105000Y-9310000D02*
X9145000Y-9350000D01*
X9145000Y-9310000D02*
X9105000Y-9350000D01*
X9105000Y-9435000D02*
X9145000Y-9475000D01*
X9145000Y-9435000D02*
X9105000Y-9475000D01*
X9107593Y-9544713D02*
X9147593Y-9584713D01*
X9147593Y-9544713D02*
X9107593Y-9584713D01*
X9120000Y-8925000D02*
X9160000Y-8965000D01*
X9160000Y-8925000D02*
X9120000Y-8965000D01*
X9120000Y-9040000D02*
X9160000Y-9080000D01*
X9160000Y-9040000D02*
X9120000Y-9080000D01*
X9200000Y-6780000D02*
X9240000Y-6820000D01*
X9240000Y-6780000D02*
X9200000Y-6820000D01*
X9219250Y-7968046D02*
X9259250Y-8008046D01*
X9259250Y-7968046D02*
X9219250Y-8008046D01*
X9240000Y-9970000D02*
X9280000Y-10010000D01*
X9280000Y-9970000D02*
X9240000Y-10010000D01*
X9270000Y-8925000D02*
X9310000Y-8965000D01*
X9310000Y-8925000D02*
X9270000Y-8965000D01*
X9270000Y-9040000D02*
X9310000Y-9080000D01*
X9310000Y-9040000D02*
X9270000Y-9080000D01*
X9376984Y-8063494D02*
X9416984Y-8103494D01*
X9416984Y-8063494D02*
X9376984Y-8103494D01*
X9426768Y-12047032D02*
X9466768Y-12087032D01*
X9466768Y-12047032D02*
X9426768Y-12087032D01*
X9487474Y-8069646D02*
X9527474Y-8109646D01*
X9527474Y-8069646D02*
X9487474Y-8109646D01*
X9491043Y-10022073D02*
X9531043Y-10062073D01*
X9531043Y-10022073D02*
X9491043Y-10062073D01*
X9624634Y-8067360D02*
X9664634Y-8107360D01*
X9664634Y-8067360D02*
X9624634Y-8107360D01*
X9635000Y-8410000D02*
X9675000Y-8450000D01*
X9675000Y-8410000D02*
X9635000Y-8450000D01*
X9635000Y-8555000D02*
X9675000Y-8595000D01*
X9675000Y-8555000D02*
X9635000Y-8595000D01*
X9635000Y-8720000D02*
X9675000Y-8760000D01*
X9675000Y-8720000D02*
X9635000Y-8760000D01*
X9635000Y-8890000D02*
X9675000Y-8930000D01*
X9675000Y-8890000D02*
X9635000Y-8930000D01*
X9635000Y-9055000D02*
X9675000Y-9095000D01*
X9675000Y-9055000D02*
X9635000Y-9095000D01*
X9635000Y-9205000D02*
X9675000Y-9245000D01*
X9675000Y-9205000D02*
X9635000Y-9245000D01*
X9635000Y-9340000D02*
X9675000Y-9380000D01*
X9675000Y-9340000D02*
X9635000Y-9380000D01*
X9635000Y-9495000D02*
X9675000Y-9535000D01*
X9675000Y-9495000D02*
X9635000Y-9535000D01*
X9750000Y-8405000D02*
X9790000Y-8445000D01*
X9790000Y-8405000D02*
X9750000Y-8445000D01*
X9750000Y-8550000D02*
X9790000Y-8590000D01*
X9790000Y-8550000D02*
X9750000Y-8590000D01*
X9750000Y-8715000D02*
X9790000Y-8755000D01*
X9790000Y-8715000D02*
X9750000Y-8755000D01*
X9750000Y-8885000D02*
X9790000Y-8925000D01*
X9790000Y-8885000D02*
X9750000Y-8925000D01*
X9750000Y-9050000D02*
X9790000Y-9090000D01*
X9790000Y-9050000D02*
X9750000Y-9090000D01*
X9750000Y-9200000D02*
X9790000Y-9240000D01*
X9790000Y-9200000D02*
X9750000Y-9240000D01*
X9750000Y-9335000D02*
X9790000Y-9375000D01*
X9790000Y-9335000D02*
X9750000Y-9375000D01*
X9750000Y-9490000D02*
X9790000Y-9530000D01*
X9790000Y-9490000D02*
X9750000Y-9530000D01*
X9750000Y-12320000D02*
X9790000Y-12360000D01*
X9790000Y-12320000D02*
X9750000Y-12360000D01*
X9760000Y-7720000D02*
X9800000Y-7760000D01*
X9800000Y-7720000D02*
X9760000Y-7760000D01*
X9800000Y-12650000D02*
X9840000Y-12690000D01*
X9840000Y-12650000D02*
X9800000Y-12690000D01*
X9810000Y-6520000D02*
X9850000Y-6560000D01*
X9850000Y-6520000D02*
X9810000Y-6560000D01*
X9815000Y-6635000D02*
X9855000Y-6675000D01*
X9855000Y-6635000D02*
X9815000Y-6675000D01*
X9840000Y-12320000D02*
X9880000Y-12360000D01*
X9880000Y-12320000D02*
X9840000Y-12360000D01*
X9930000Y-7180000D02*
X9970000Y-7220000D01*
X9970000Y-7180000D02*
X9930000Y-7220000D01*
X9930000Y-12320000D02*
X9970000Y-12360000D01*
X9970000Y-12320000D02*
X9930000Y-12360000D01*
X9930000Y-12550000D02*
X9970000Y-12590000D01*
X9970000Y-12550000D02*
X9930000Y-12590000D01*
X9965000Y-6520000D02*
X10005000Y-6560000D01*
X10005000Y-6520000D02*
X9965000Y-6560000D01*
X9970000Y-6635000D02*
X10010000Y-6675000D01*
X10010000Y-6635000D02*
X9970000Y-6675000D01*
X10100000Y-6520000D02*
X10140000Y-6560000D01*
X10140000Y-6520000D02*
X10100000Y-6560000D01*
X10105000Y-6635000D02*
X10145000Y-6675000D01*
X10145000Y-6635000D02*
X10105000Y-6675000D01*
X10155850Y-12554150D02*
X10195850Y-12594150D01*
X10195850Y-12554150D02*
X10155850Y-12594150D01*
X10210000Y-11450000D02*
X10250000Y-11490000D01*
X10250000Y-11450000D02*
X10210000Y-11490000D01*
X10210000Y-11560000D02*
X10250000Y-11600000D01*
X10250000Y-11560000D02*
X10210000Y-11600000D01*
X10210000Y-11660000D02*
X10250000Y-11700000D01*
X10250000Y-11660000D02*
X10210000Y-11700000D01*
X10250000Y-6520000D02*
X10290000Y-6560000D01*
X10290000Y-6520000D02*
X10250000Y-6560000D01*
X10255000Y-6635000D02*
X10295000Y-6675000D01*
X10295000Y-6635000D02*
X10255000Y-6675000D01*
X10305000Y-14530000D02*
X10345000Y-14570000D01*
X10345000Y-14530000D02*
X10305000Y-14570000D01*
X10310000Y-14200000D02*
X10350000Y-14240000D01*
X10350000Y-14200000D02*
X10310000Y-14240000D01*
X10310000Y-14645000D02*
X10350000Y-14685000D01*
X10350000Y-14645000D02*
X10310000Y-14685000D01*
X10315000Y-14315000D02*
X10355000Y-14355000D01*
X10355000Y-14315000D02*
X10315000Y-14355000D01*
X10360000Y-12210000D02*
X10400000Y-12250000D01*
X10400000Y-12210000D02*
X10360000Y-12250000D01*
X10370000Y-7550000D02*
X10410000Y-7590000D01*
X10410000Y-7550000D02*
X10370000Y-7590000D01*
X10415000Y-6520000D02*
X10455000Y-6560000D01*
X10455000Y-6520000D02*
X10415000Y-6560000D01*
X10420000Y-6635000D02*
X10460000Y-6675000D01*
X10460000Y-6635000D02*
X10420000Y-6675000D01*
X10460000Y-12210000D02*
X10500000Y-12250000D01*
X10500000Y-12210000D02*
X10460000Y-12250000D01*
X10460000Y-14530000D02*
X10500000Y-14570000D01*
X10500000Y-14530000D02*
X10460000Y-14570000D01*
X10465000Y-14200000D02*
X10505000Y-14240000D01*
X10505000Y-14200000D02*
X10465000Y-14240000D01*
X10465000Y-14645000D02*
X10505000Y-14685000D01*
X10505000Y-14645000D02*
X10465000Y-14685000D01*
X10470000Y-14315000D02*
X10510000Y-14355000D01*
X10510000Y-14315000D02*
X10470000Y-14355000D01*
X10480000Y-7550000D02*
X10520000Y-7590000D01*
X10520000Y-7550000D02*
X10480000Y-7590000D01*
X10510000Y-7050000D02*
X10550000Y-7090000D01*
X10550000Y-7050000D02*
X10510000Y-7090000D01*
X10520000Y-12910000D02*
X10560000Y-12950000D01*
X10560000Y-12910000D02*
X10520000Y-12950000D01*
X10570000Y-12210000D02*
X10610000Y-12250000D01*
X10610000Y-12210000D02*
X10570000Y-12250000D01*
X10583734Y-7543734D02*
X10623734Y-7583734D01*
X10623734Y-7543734D02*
X10583734Y-7583734D01*
X10585000Y-6520000D02*
X10625000Y-6560000D01*
X10625000Y-6520000D02*
X10585000Y-6560000D01*
X10590000Y-6635000D02*
X10630000Y-6675000D01*
X10630000Y-6635000D02*
X10590000Y-6675000D01*
X10595000Y-14530000D02*
X10635000Y-14570000D01*
X10635000Y-14530000D02*
X10595000Y-14570000D01*
X10600000Y-14200000D02*
X10640000Y-14240000D01*
X10640000Y-14200000D02*
X10600000Y-14240000D01*
X10600000Y-14645000D02*
X10640000Y-14685000D01*
X10640000Y-14645000D02*
X10600000Y-14685000D01*
X10605000Y-14315000D02*
X10645000Y-14355000D01*
X10645000Y-14315000D02*
X10605000Y-14355000D01*
X10680000Y-12210000D02*
X10720000Y-12250000D01*
X10720000Y-12210000D02*
X10680000Y-12250000D01*
X10745000Y-14530000D02*
X10785000Y-14570000D01*
X10785000Y-14530000D02*
X10745000Y-14570000D01*
X10750000Y-6520000D02*
X10790000Y-6560000D01*
X10790000Y-6520000D02*
X10750000Y-6560000D01*
X10750000Y-14200000D02*
X10790000Y-14240000D01*
X10790000Y-14200000D02*
X10750000Y-14240000D01*
X10750000Y-14645000D02*
X10790000Y-14685000D01*
X10790000Y-14645000D02*
X10750000Y-14685000D01*
X10755000Y-6635000D02*
X10795000Y-6675000D01*
X10795000Y-6635000D02*
X10755000Y-6675000D01*
X10755000Y-14315000D02*
X10795000Y-14355000D01*
X10795000Y-14315000D02*
X10755000Y-14355000D01*
X10855000Y-7080000D02*
X10895000Y-7120000D01*
X10895000Y-7080000D02*
X10855000Y-7120000D01*
X10860000Y-7195000D02*
X10900000Y-7235000D01*
X10900000Y-7195000D02*
X10860000Y-7235000D01*
X10910000Y-14530000D02*
X10950000Y-14570000D01*
X10950000Y-14530000D02*
X10910000Y-14570000D01*
X10915000Y-14200000D02*
X10955000Y-14240000D01*
X10955000Y-14200000D02*
X10915000Y-14240000D01*
X10915000Y-14645000D02*
X10955000Y-14685000D01*
X10955000Y-14645000D02*
X10915000Y-14685000D01*
X10920000Y-14315000D02*
X10960000Y-14355000D01*
X10960000Y-14315000D02*
X10920000Y-14355000D01*
X11010000Y-7080000D02*
X11050000Y-7120000D01*
X11050000Y-7080000D02*
X11010000Y-7120000D01*
X11015000Y-7195000D02*
X11055000Y-7235000D01*
X11055000Y-7195000D02*
X11015000Y-7235000D01*
X11080000Y-14530000D02*
X11120000Y-14570000D01*
X11120000Y-14530000D02*
X11080000Y-14570000D01*
X11085000Y-14200000D02*
X11125000Y-14240000D01*
X11125000Y-14200000D02*
X11085000Y-14240000D01*
X11085000Y-14645000D02*
X11125000Y-14685000D01*
X11125000Y-14645000D02*
X11085000Y-14685000D01*
X11090000Y-14315000D02*
X11130000Y-14355000D01*
X11130000Y-14315000D02*
X11090000Y-14355000D01*
X11103168Y-12053890D02*
X11143168Y-12093890D01*
X11143168Y-12053890D02*
X11103168Y-12093890D01*
X11106978Y-12214418D02*
X11146978Y-12254418D01*
X11146978Y-12214418D02*
X11106978Y-12254418D01*
X11108756Y-11889298D02*
X11148756Y-11929298D01*
X11148756Y-11889298D02*
X11108756Y-11929298D01*
X11110280Y-11724706D02*
X11150280Y-11764706D01*
X11150280Y-11724706D02*
X11110280Y-11764706D01*
X11117392Y-11559606D02*
X11157392Y-11599606D01*
X11157392Y-11559606D02*
X11117392Y-11599606D01*
X11117900Y-11445560D02*
X11157900Y-11485560D01*
X11157900Y-11445560D02*
X11117900Y-11485560D01*
X11145000Y-7080000D02*
X11185000Y-7120000D01*
X11185000Y-7080000D02*
X11145000Y-7120000D01*
X11150000Y-7195000D02*
X11190000Y-7235000D01*
X11190000Y-7195000D02*
X11150000Y-7235000D01*
X11155000Y-7355000D02*
X11195000Y-7395000D01*
X11195000Y-7355000D02*
X11155000Y-7395000D01*
X11160000Y-7470000D02*
X11200000Y-7510000D01*
X11200000Y-7470000D02*
X11160000Y-7510000D01*
X11245000Y-14530000D02*
X11285000Y-14570000D01*
X11285000Y-14530000D02*
X11245000Y-14570000D01*
X11250000Y-14200000D02*
X11290000Y-14240000D01*
X11290000Y-14200000D02*
X11250000Y-14240000D01*
X11250000Y-14645000D02*
X11290000Y-14685000D01*
X11290000Y-14645000D02*
X11250000Y-14685000D01*
X11255000Y-14315000D02*
X11295000Y-14355000D01*
X11295000Y-14315000D02*
X11255000Y-14355000D01*
X11295000Y-7080000D02*
X11335000Y-7120000D01*
X11335000Y-7080000D02*
X11295000Y-7120000D01*
X11300000Y-7195000D02*
X11340000Y-7235000D01*
X11340000Y-7195000D02*
X11300000Y-7235000D01*
X11305000Y-7355000D02*
X11345000Y-7395000D01*
X11345000Y-7355000D02*
X11305000Y-7395000D01*
X11310000Y-7470000D02*
X11350000Y-7510000D01*
X11350000Y-7470000D02*
X11310000Y-7510000D01*
X11340000Y-12780000D02*
X11380000Y-12820000D01*
X11380000Y-12780000D02*
X11340000Y-12820000D01*
X11345000Y-12895000D02*
X11385000Y-12935000D01*
X11385000Y-12895000D02*
X11345000Y-12935000D01*
X11350000Y-13020000D02*
X11390000Y-13060000D01*
X11390000Y-13020000D02*
X11350000Y-13060000D01*
X11390000Y-14530000D02*
X11430000Y-14570000D01*
X11430000Y-14530000D02*
X11390000Y-14570000D01*
X11395000Y-14200000D02*
X11435000Y-14240000D01*
X11435000Y-14200000D02*
X11395000Y-14240000D01*
X11395000Y-14645000D02*
X11435000Y-14685000D01*
X11435000Y-14645000D02*
X11395000Y-14685000D01*
X11400000Y-14315000D02*
X11440000Y-14355000D01*
X11440000Y-14315000D02*
X11400000Y-14355000D01*
X11460000Y-7080000D02*
X11500000Y-7120000D01*
X11500000Y-7080000D02*
X11460000Y-7120000D01*
X11465000Y-7195000D02*
X11505000Y-7235000D01*
X11505000Y-7195000D02*
X11465000Y-7235000D01*
X11470000Y-7355000D02*
X11510000Y-7395000D01*
X11510000Y-7355000D02*
X11470000Y-7395000D01*
X11475000Y-7470000D02*
X11515000Y-7510000D01*
X11515000Y-7470000D02*
X11475000Y-7510000D01*
X11490000Y-12780000D02*
X11530000Y-12820000D01*
X11530000Y-12780000D02*
X11490000Y-12820000D01*
X11495000Y-12895000D02*
X11535000Y-12935000D01*
X11535000Y-12895000D02*
X11495000Y-12935000D01*
X11500000Y-13020000D02*
X11540000Y-13060000D01*
X11540000Y-13020000D02*
X11500000Y-13060000D01*
X11655000Y-12780000D02*
X11695000Y-12820000D01*
X11695000Y-12780000D02*
X11655000Y-12820000D01*
X11660000Y-12895000D02*
X11700000Y-12935000D01*
X11700000Y-12895000D02*
X11660000Y-12935000D01*
X11665000Y-13020000D02*
X11705000Y-13060000D01*
X11705000Y-13020000D02*
X11665000Y-13060000D01*
X11665000Y-13180000D02*
X11705000Y-13220000D01*
X11705000Y-13180000D02*
X11665000Y-13220000D01*
X11670000Y-13295000D02*
X11710000Y-13335000D01*
X11710000Y-13295000D02*
X11670000Y-13335000D01*
X11670000Y-13410000D02*
X11710000Y-13450000D01*
X11710000Y-13410000D02*
X11670000Y-13450000D01*
X11675000Y-13525000D02*
X11715000Y-13565000D01*
X11715000Y-13525000D02*
X11675000Y-13565000D01*
X11825000Y-12780000D02*
X11865000Y-12820000D01*
X11865000Y-12780000D02*
X11825000Y-12820000D01*
X11830000Y-12895000D02*
X11870000Y-12935000D01*
X11870000Y-12895000D02*
X11830000Y-12935000D01*
X11835000Y-13020000D02*
X11875000Y-13060000D01*
X11875000Y-13020000D02*
X11835000Y-13060000D01*
X11835000Y-13180000D02*
X11875000Y-13220000D01*
X11875000Y-13180000D02*
X11835000Y-13220000D01*
X11840000Y-13295000D02*
X11880000Y-13335000D01*
X11880000Y-13295000D02*
X11840000Y-13335000D01*
X11840000Y-13410000D02*
X11880000Y-13450000D01*
X11880000Y-13410000D02*
X11840000Y-13450000D01*
X11845000Y-13525000D02*
X11885000Y-13565000D01*
X11885000Y-13525000D02*
X11845000Y-13565000D01*
X11990000Y-12780000D02*
X12030000Y-12820000D01*
X12030000Y-12780000D02*
X11990000Y-12820000D01*
X11995000Y-12895000D02*
X12035000Y-12935000D01*
X12035000Y-12895000D02*
X11995000Y-12935000D01*
X12000000Y-13020000D02*
X12040000Y-13060000D01*
X12040000Y-13020000D02*
X12000000Y-13060000D01*
X12000000Y-13180000D02*
X12040000Y-13220000D01*
X12040000Y-13180000D02*
X12000000Y-13220000D01*
X12005000Y-13295000D02*
X12045000Y-13335000D01*
X12045000Y-13295000D02*
X12005000Y-13335000D01*
X12005000Y-13410000D02*
X12045000Y-13450000D01*
X12045000Y-13410000D02*
X12005000Y-13450000D01*
X12010000Y-13525000D02*
X12050000Y-13565000D01*
X12050000Y-13525000D02*
X12010000Y-13565000D01*
X12135000Y-12780000D02*
X12175000Y-12820000D01*
X12175000Y-12780000D02*
X12135000Y-12820000D01*
X12140000Y-12895000D02*
X12180000Y-12935000D01*
X12180000Y-12895000D02*
X12140000Y-12935000D01*
X12145000Y-13020000D02*
X12185000Y-13060000D01*
X12185000Y-13020000D02*
X12145000Y-13060000D01*
X12145000Y-13180000D02*
X12185000Y-13220000D01*
X12185000Y-13180000D02*
X12145000Y-13220000D01*
X12150000Y-13295000D02*
X12190000Y-13335000D01*
X12190000Y-13295000D02*
X12150000Y-13335000D01*
X12150000Y-13410000D02*
X12190000Y-13450000D01*
X12190000Y-13410000D02*
X12150000Y-13450000D01*
X12155000Y-13525000D02*
X12195000Y-13565000D01*
X12195000Y-13525000D02*
X12155000Y-13565000D01*
X6858224Y-11341938D02*
G75*
G03X6858224Y-11341938I-38100J0D01*
G01*
X6858224Y-11541938D02*
G75*
G03X6858224Y-11541938I-38100J0D01*
G01*
X6858224Y-11741938D02*
G75*
G03X6858224Y-11741938I-38100J0D01*
G01*
X6858224Y-11941938D02*
G75*
G03X6858224Y-11941938I-38100J0D01*
G01*
X6858224Y-12141938D02*
G75*
G03X6858224Y-12141938I-38100J0D01*
G01*
X6858224Y-12341938D02*
G75*
G03X6858224Y-12341938I-38100J0D01*
G01*
X6858224Y-12541938D02*
G75*
G03X6858224Y-12541938I-38100J0D01*
G01*
X6858224Y-12741938D02*
G75*
G03X6858224Y-12741938I-38100J0D01*
G01*
X6858224Y-12941938D02*
G75*
G03X6858224Y-12941938I-38100J0D01*
G01*
X6858224Y-13141938D02*
G75*
G03X6858224Y-13141938I-38100J0D01*
G01*
X6858224Y-13341938D02*
G75*
G03X6858224Y-13341938I-38100J0D01*
G01*
X6858224Y-13541938D02*
G75*
G03X6858224Y-13541938I-38100J0D01*
G01*
X6858224Y-13741938D02*
G75*
G03X6858224Y-13741938I-38100J0D01*
G01*
X6858224Y-13941938D02*
G75*
G03X6858224Y-13941938I-38100J0D01*
G01*
X6858224Y-14141938D02*
G75*
G03X6858224Y-14141938I-38100J0D01*
G01*
X6858224Y-14341938D02*
G75*
G03X6858224Y-14341938I-38100J0D01*
G01*
X9298224Y-11341938D02*
G75*
G03X9298224Y-11341938I-38100J0D01*
G01*
X9298224Y-11541938D02*
G75*
G03X9298224Y-11541938I-38100J0D01*
G01*
X9298224Y-11741938D02*
G75*
G03X9298224Y-11741938I-38100J0D01*
G01*
X9298224Y-11941938D02*
G75*
G03X9298224Y-11941938I-38100J0D01*
G01*
X9298224Y-12141938D02*
G75*
G03X9298224Y-12141938I-38100J0D01*
G01*
X9298224Y-12341938D02*
G75*
G03X9298224Y-12341938I-38100J0D01*
G01*
X9298224Y-12541938D02*
G75*
G03X9298224Y-12541938I-38100J0D01*
G01*
X9298224Y-12741938D02*
G75*
G03X9298224Y-12741938I-38100J0D01*
G01*
X9298224Y-12941938D02*
G75*
G03X9298224Y-12941938I-38100J0D01*
G01*
X9298224Y-13141938D02*
G75*
G03X9298224Y-13141938I-38100J0D01*
G01*
X9298224Y-13341938D02*
G75*
G03X9298224Y-13341938I-38100J0D01*
G01*
X9298224Y-13541938D02*
G75*
G03X9298224Y-13541938I-38100J0D01*
G01*
X9298224Y-13741938D02*
G75*
G03X9298224Y-13741938I-38100J0D01*
G01*
X9298224Y-13941938D02*
G75*
G03X9298224Y-13941938I-38100J0D01*
G01*
X9298224Y-14141938D02*
G75*
G03X9298224Y-14141938I-38100J0D01*
G01*
X9298224Y-14341938D02*
G75*
G03X9298224Y-14341938I-38100J0D01*
G01*
X10770000Y-12890000D02*
X10770000Y-12970000D01*
X10730000Y-12930000D02*
X10810000Y-12930000D01*
X10970000Y-12890000D02*
X10970000Y-12970000D01*
X10930000Y-12930000D02*
X11010000Y-12930000D01*
X10522527Y-13570527D02*
X10522527Y-13505473D01*
X10457473Y-13505473D01*
X10457473Y-13570527D01*
X10522527Y-13570527D01*
X10772527Y-13570527D02*
X10772527Y-13505473D01*
X10707473Y-13505473D01*
X10707473Y-13570527D01*
X10772527Y-13570527D01*
X10972527Y-13570527D02*
X10972527Y-13505473D01*
X10907473Y-13505473D01*
X10907473Y-13570527D01*
X10972527Y-13570527D01*
X11222527Y-13570527D02*
X11222527Y-13505473D01*
X11157473Y-13505473D01*
X11157473Y-13570527D01*
X11222527Y-13570527D01*
X10628000Y-11326000D02*
X10678000Y-11276000D01*
X10628000Y-11226000D01*
X10578000Y-11276000D01*
X10628000Y-11326000D01*
X10628000Y-11580000D02*
X10678000Y-11530000D01*
X10628000Y-11480000D01*
X10578000Y-11530000D01*
X10628000Y-11580000D01*
X10628000Y-11834000D02*
X10678000Y-11784000D01*
X10628000Y-11734000D01*
X10578000Y-11784000D01*
X10628000Y-11834000D01*
X3657600Y-7450000D02*
X3707600Y-7400000D01*
X3657600Y-7350000D01*
X3607600Y-7400000D01*
X3657600Y-7450000D01*
X3657600Y-7704000D02*
X3707600Y-7654000D01*
X3657600Y-7604000D01*
X3607600Y-7654000D01*
X3657600Y-7704000D01*
X3657600Y-7958000D02*
X3707600Y-7908000D01*
X3657600Y-7858000D01*
X3607600Y-7908000D01*
X3657600Y-7958000D01*
X3657600Y-8212000D02*
X3707600Y-8162000D01*
X3657600Y-8112000D01*
X3607600Y-8162000D01*
X3657600Y-8212000D01*
X3657600Y-8466000D02*
X3707600Y-8416000D01*
X3657600Y-8366000D01*
X3607600Y-8416000D01*
X3657600Y-8466000D01*
X3657600Y-8720000D02*
X3707600Y-8670000D01*
X3657600Y-8620000D01*
X3607600Y-8670000D01*
X3657600Y-8720000D01*
X3657600Y-8974000D02*
X3707600Y-8924000D01*
X3657600Y-8874000D01*
X3607600Y-8924000D01*
X3657600Y-8974000D01*
X3657600Y-9228000D02*
X3707600Y-9178000D01*
X3657600Y-9128000D01*
X3607600Y-9178000D01*
X3657600Y-9228000D01*
X3657600Y-9482000D02*
X3707600Y-9432000D01*
X3657600Y-9382000D01*
X3607600Y-9432000D01*
X3657600Y-9482000D01*
X3657600Y-9736000D02*
X3707600Y-9686000D01*
X3657600Y-9636000D01*
X3607600Y-9686000D01*
X3657600Y-9736000D01*
X3911600Y-7450000D02*
X3961600Y-7400000D01*
X3911600Y-7350000D01*
X3861600Y-7400000D01*
X3911600Y-7450000D01*
X3911600Y-7704000D02*
X3961600Y-7654000D01*
X3911600Y-7604000D01*
X3861600Y-7654000D01*
X3911600Y-7704000D01*
X3911600Y-7958000D02*
X3961600Y-7908000D01*
X3911600Y-7858000D01*
X3861600Y-7908000D01*
X3911600Y-7958000D01*
X3911600Y-8212000D02*
X3961600Y-8162000D01*
X3911600Y-8112000D01*
X3861600Y-8162000D01*
X3911600Y-8212000D01*
X3911600Y-8466000D02*
X3961600Y-8416000D01*
X3911600Y-8366000D01*
X3861600Y-8416000D01*
X3911600Y-8466000D01*
X3911600Y-8720000D02*
X3961600Y-8670000D01*
X3911600Y-8620000D01*
X3861600Y-8670000D01*
X3911600Y-8720000D01*
X3911600Y-8974000D02*
X3961600Y-8924000D01*
X3911600Y-8874000D01*
X3861600Y-8924000D01*
X3911600Y-8974000D01*
X3911600Y-9228000D02*
X3961600Y-9178000D01*
X3911600Y-9128000D01*
X3861600Y-9178000D01*
X3911600Y-9228000D01*
X3911600Y-9482000D02*
X3961600Y-9432000D01*
X3911600Y-9382000D01*
X3861600Y-9432000D01*
X3911600Y-9482000D01*
X3911600Y-9736000D02*
X3961600Y-9686000D01*
X3911600Y-9636000D01*
X3861600Y-9686000D01*
X3911600Y-9736000D01*
X11700000Y-10250000D02*
X11750000Y-10200000D01*
X11700000Y-10150000D01*
X11650000Y-10200000D01*
X11700000Y-10250000D01*
X11700000Y-10504000D02*
X11750000Y-10454000D01*
X11700000Y-10404000D01*
X11650000Y-10454000D01*
X11700000Y-10504000D01*
X11700000Y-10758000D02*
X11750000Y-10708000D01*
X11700000Y-10658000D01*
X11650000Y-10708000D01*
X11700000Y-10758000D01*
X11700000Y-11012000D02*
X11750000Y-10962000D01*
X11700000Y-10912000D01*
X11650000Y-10962000D01*
X11700000Y-11012000D01*
X11700000Y-11266000D02*
X11750000Y-11216000D01*
X11700000Y-11166000D01*
X11650000Y-11216000D01*
X11700000Y-11266000D01*
X11700000Y-11520000D02*
X11750000Y-11470000D01*
X11700000Y-11420000D01*
X11650000Y-11470000D01*
X11700000Y-11520000D01*
X11700000Y-11774000D02*
X11750000Y-11724000D01*
X11700000Y-11674000D01*
X11650000Y-11724000D01*
X11700000Y-11774000D01*
X11700000Y-12028000D02*
X11750000Y-11978000D01*
X11700000Y-11928000D01*
X11650000Y-11978000D01*
X11700000Y-12028000D01*
X11700000Y-12282000D02*
X11750000Y-12232000D01*
X11700000Y-12182000D01*
X11650000Y-12232000D01*
X11700000Y-12282000D01*
X11700000Y-12536000D02*
X11750000Y-12486000D01*
X11700000Y-12436000D01*
X11650000Y-12486000D01*
X11700000Y-12536000D01*
X11954000Y-10250000D02*
X12004000Y-10200000D01*
X11954000Y-10150000D01*
X11904000Y-10200000D01*
X11954000Y-10250000D01*
X11954000Y-10504000D02*
X12004000Y-10454000D01*
X11954000Y-10404000D01*
X11904000Y-10454000D01*
X11954000Y-10504000D01*
X11954000Y-10758000D02*
X12004000Y-10708000D01*
X11954000Y-10658000D01*
X11904000Y-10708000D01*
X11954000Y-10758000D01*
X11954000Y-11012000D02*
X12004000Y-10962000D01*
X11954000Y-10912000D01*
X11904000Y-10962000D01*
X11954000Y-11012000D01*
X11954000Y-11266000D02*
X12004000Y-11216000D01*
X11954000Y-11166000D01*
X11904000Y-11216000D01*
X11954000Y-11266000D01*
X11954000Y-11520000D02*
X12004000Y-11470000D01*
X11954000Y-11420000D01*
X11904000Y-11470000D01*
X11954000Y-11520000D01*
X11954000Y-11774000D02*
X12004000Y-11724000D01*
X11954000Y-11674000D01*
X11904000Y-11724000D01*
X11954000Y-11774000D01*
X11954000Y-12028000D02*
X12004000Y-11978000D01*
X11954000Y-11928000D01*
X11904000Y-11978000D01*
X11954000Y-12028000D01*
X11954000Y-12282000D02*
X12004000Y-12232000D01*
X11954000Y-12182000D01*
X11904000Y-12232000D01*
X11954000Y-12282000D01*
X11954000Y-12536000D02*
X12004000Y-12486000D01*
X11954000Y-12436000D01*
X11904000Y-12486000D01*
X11954000Y-12536000D01*
X3657600Y-10286200D02*
X3707600Y-10236200D01*
X3657600Y-10186200D01*
X3607600Y-10236200D01*
X3657600Y-10286200D01*
X3657600Y-10540200D02*
X3707600Y-10490200D01*
X3657600Y-10440200D01*
X3607600Y-10490200D01*
X3657600Y-10540200D01*
X3657600Y-10794200D02*
X3707600Y-10744200D01*
X3657600Y-10694200D01*
X3607600Y-10744200D01*
X3657600Y-10794200D01*
X3657600Y-11048200D02*
X3707600Y-10998200D01*
X3657600Y-10948200D01*
X3607600Y-10998200D01*
X3657600Y-11048200D01*
X3657600Y-11302200D02*
X3707600Y-11252200D01*
X3657600Y-11202200D01*
X3607600Y-11252200D01*
X3657600Y-11302200D01*
X3657600Y-11556200D02*
X3707600Y-11506200D01*
X3657600Y-11456200D01*
X3607600Y-11506200D01*
X3657600Y-11556200D01*
X3657600Y-11810200D02*
X3707600Y-11760200D01*
X3657600Y-11710200D01*
X3607600Y-11760200D01*
X3657600Y-11810200D01*
X3657600Y-12064200D02*
X3707600Y-12014200D01*
X3657600Y-11964200D01*
X3607600Y-12014200D01*
X3657600Y-12064200D01*
X3657600Y-12318200D02*
X3707600Y-12268200D01*
X3657600Y-12218200D01*
X3607600Y-12268200D01*
X3657600Y-12318200D01*
X3657600Y-12572200D02*
X3707600Y-12522200D01*
X3657600Y-12472200D01*
X3607600Y-12522200D01*
X3657600Y-12572200D01*
X3911600Y-10286200D02*
X3961600Y-10236200D01*
X3911600Y-10186200D01*
X3861600Y-10236200D01*
X3911600Y-10286200D01*
X3911600Y-10540200D02*
X3961600Y-10490200D01*
X3911600Y-10440200D01*
X3861600Y-10490200D01*
X3911600Y-10540200D01*
X3911600Y-10794200D02*
X3961600Y-10744200D01*
X3911600Y-10694200D01*
X3861600Y-10744200D01*
X3911600Y-10794200D01*
X3911600Y-11048200D02*
X3961600Y-10998200D01*
X3911600Y-10948200D01*
X3861600Y-10998200D01*
X3911600Y-11048200D01*
X3911600Y-11302200D02*
X3961600Y-11252200D01*
X3911600Y-11202200D01*
X3861600Y-11252200D01*
X3911600Y-11302200D01*
X3911600Y-11556200D02*
X3961600Y-11506200D01*
X3911600Y-11456200D01*
X3861600Y-11506200D01*
X3911600Y-11556200D01*
X3911600Y-11810200D02*
X3961600Y-11760200D01*
X3911600Y-11710200D01*
X3861600Y-11760200D01*
X3911600Y-11810200D01*
X3911600Y-12064200D02*
X3961600Y-12014200D01*
X3911600Y-11964200D01*
X3861600Y-12014200D01*
X3911600Y-12064200D01*
X3911600Y-12318200D02*
X3961600Y-12268200D01*
X3911600Y-12218200D01*
X3861600Y-12268200D01*
X3911600Y-12318200D01*
X3911600Y-12572200D02*
X3961600Y-12522200D01*
X3911600Y-12472200D01*
X3861600Y-12522200D01*
X3911600Y-12572200D01*
X11700000Y-7450000D02*
X11750000Y-7400000D01*
X11700000Y-7350000D01*
X11650000Y-7400000D01*
X11700000Y-7450000D01*
X11700000Y-7704000D02*
X11750000Y-7654000D01*
X11700000Y-7604000D01*
X11650000Y-7654000D01*
X11700000Y-7704000D01*
X11700000Y-7958000D02*
X11750000Y-7908000D01*
X11700000Y-7858000D01*
X11650000Y-7908000D01*
X11700000Y-7958000D01*
X11700000Y-8212000D02*
X11750000Y-8162000D01*
X11700000Y-8112000D01*
X11650000Y-8162000D01*
X11700000Y-8212000D01*
X11700000Y-8466000D02*
X11750000Y-8416000D01*
X11700000Y-8366000D01*
X11650000Y-8416000D01*
X11700000Y-8466000D01*
X11700000Y-8720000D02*
X11750000Y-8670000D01*
X11700000Y-8620000D01*
X11650000Y-8670000D01*
X11700000Y-8720000D01*
X11700000Y-8974000D02*
X11750000Y-8924000D01*
X11700000Y-8874000D01*
X11650000Y-8924000D01*
X11700000Y-8974000D01*
X11700000Y-9228000D02*
X11750000Y-9178000D01*
X11700000Y-9128000D01*
X11650000Y-9178000D01*
X11700000Y-9228000D01*
X11700000Y-9482000D02*
X11750000Y-9432000D01*
X11700000Y-9382000D01*
X11650000Y-9432000D01*
X11700000Y-9482000D01*
X11700000Y-9736000D02*
X11750000Y-9686000D01*
X11700000Y-9636000D01*
X11650000Y-9686000D01*
X11700000Y-9736000D01*
X11954000Y-7450000D02*
X12004000Y-7400000D01*
X11954000Y-7350000D01*
X11904000Y-7400000D01*
X11954000Y-7450000D01*
X11954000Y-7704000D02*
X12004000Y-7654000D01*
X11954000Y-7604000D01*
X11904000Y-7654000D01*
X11954000Y-7704000D01*
X11954000Y-7958000D02*
X12004000Y-7908000D01*
X11954000Y-7858000D01*
X11904000Y-7908000D01*
X11954000Y-7958000D01*
X11954000Y-8212000D02*
X12004000Y-8162000D01*
X11954000Y-8112000D01*
X11904000Y-8162000D01*
X11954000Y-8212000D01*
X11954000Y-8466000D02*
X12004000Y-8416000D01*
X11954000Y-8366000D01*
X11904000Y-8416000D01*
X11954000Y-8466000D01*
X11954000Y-8720000D02*
X12004000Y-8670000D01*
X11954000Y-8620000D01*
X11904000Y-8670000D01*
X11954000Y-8720000D01*
X11954000Y-8974000D02*
X12004000Y-8924000D01*
X11954000Y-8874000D01*
X11904000Y-8924000D01*
X11954000Y-8974000D01*
X11954000Y-9228000D02*
X12004000Y-9178000D01*
X11954000Y-9128000D01*
X11904000Y-9178000D01*
X11954000Y-9228000D01*
X11954000Y-9482000D02*
X12004000Y-9432000D01*
X11954000Y-9382000D01*
X11904000Y-9432000D01*
X11954000Y-9482000D01*
X11954000Y-9736000D02*
X12004000Y-9686000D01*
X11954000Y-9636000D01*
X11904000Y-9686000D01*
X11954000Y-9736000D01*
X10068000Y-13694000D02*
X10298000Y-13924000D01*
X10298000Y-13694000D02*
X10068000Y-13924000D01*
X10298000Y-13809000D02*
G75*
G03X10298000Y-13809000I-115000J0D01*
G01*
X11382000Y-13694000D02*
X11612000Y-13924000D01*
X11612000Y-13694000D02*
X11382000Y-13924000D01*
X11612000Y-13809000D02*
G75*
G03X11612000Y-13809000I-115000J0D01*
G01*
X3603000Y-14355000D02*
X3853000Y-14605000D01*
X3853000Y-14355000D02*
X3603000Y-14605000D01*
X3728000Y-14355000D02*
X3728000Y-14605000D01*
X3603000Y-14480000D02*
X3853000Y-14480000D01*
X11710000Y-6644000D02*
X11960000Y-6894000D01*
X11960000Y-6644000D02*
X11710000Y-6894000D01*
X11835000Y-6644000D02*
X11835000Y-6894000D01*
X11710000Y-6769000D02*
X11960000Y-6769000D01*
X3591600Y-6640200D02*
X3841600Y-6890200D01*
X3841600Y-6640200D02*
X3591600Y-6890200D01*
X3716600Y-6640200D02*
X3716600Y-6890200D01*
X3591600Y-6765200D02*
X3841600Y-6765200D01*
X11770000Y-14320000D02*
X12020000Y-14570000D01*
X12020000Y-14320000D02*
X11770000Y-14570000D01*
X11895000Y-14320000D02*
X11895000Y-14570000D01*
X11770000Y-14445000D02*
X12020000Y-14445000D01*
D12*
X3584528Y-15368214D02*
X3584528Y-15068214D01*
X3655957Y-15068214D01*
X3698814Y-15082500D01*
X3727386Y-15111071D01*
X3741671Y-15139643D01*
X3755957Y-15196786D01*
X3755957Y-15239643D01*
X3741671Y-15296786D01*
X3727386Y-15325357D01*
X3698814Y-15353929D01*
X3655957Y-15368214D01*
X3584528Y-15368214D01*
X3884528Y-15368214D02*
X3884528Y-15168214D01*
X3884528Y-15225357D02*
X3898814Y-15196786D01*
X3913100Y-15182500D01*
X3941671Y-15168214D01*
X3970243Y-15168214D01*
X4070243Y-15368214D02*
X4070243Y-15168214D01*
X4070243Y-15068214D02*
X4055957Y-15082500D01*
X4070243Y-15096786D01*
X4084528Y-15082500D01*
X4070243Y-15068214D01*
X4070243Y-15096786D01*
X4255957Y-15368214D02*
X4227386Y-15353929D01*
X4213100Y-15325357D01*
X4213100Y-15068214D01*
X4413100Y-15368214D02*
X4384528Y-15353929D01*
X4370243Y-15325357D01*
X4370243Y-15068214D01*
X4755957Y-15368214D02*
X4755957Y-15068214D01*
X4855957Y-15282500D01*
X4955957Y-15068214D01*
X4955957Y-15368214D01*
X5227386Y-15368214D02*
X5227386Y-15211071D01*
X5213100Y-15182500D01*
X5184528Y-15168214D01*
X5127386Y-15168214D01*
X5098814Y-15182500D01*
X5227386Y-15353929D02*
X5198814Y-15368214D01*
X5127386Y-15368214D01*
X5098814Y-15353929D01*
X5084528Y-15325357D01*
X5084528Y-15296786D01*
X5098814Y-15268214D01*
X5127386Y-15253929D01*
X5198814Y-15253929D01*
X5227386Y-15239643D01*
X5370243Y-15168214D02*
X5370243Y-15468214D01*
X5370243Y-15182500D02*
X5398814Y-15168214D01*
X5455957Y-15168214D01*
X5484528Y-15182500D01*
X5498814Y-15196786D01*
X5513100Y-15225357D01*
X5513100Y-15311071D01*
X5498814Y-15339643D01*
X5484528Y-15353929D01*
X5455957Y-15368214D01*
X5398814Y-15368214D01*
X5370243Y-15353929D01*
X5641671Y-15339643D02*
X5655957Y-15353929D01*
X5641671Y-15368214D01*
X5627386Y-15353929D01*
X5641671Y-15339643D01*
X5641671Y-15368214D01*
X5641671Y-15182500D02*
X5655957Y-15196786D01*
X5641671Y-15211071D01*
X5627386Y-15196786D01*
X5641671Y-15182500D01*
X5641671Y-15211071D01*
X3258100Y-15842500D02*
X3298100Y-15882500D01*
X3298100Y-15842500D02*
X3258100Y-15882500D01*
X3641671Y-15698214D02*
X3670243Y-15698214D01*
X3698814Y-15712500D01*
X3713100Y-15726786D01*
X3727386Y-15755357D01*
X3741671Y-15812500D01*
X3741671Y-15883929D01*
X3727386Y-15941071D01*
X3713100Y-15969643D01*
X3698814Y-15983929D01*
X3670243Y-15998214D01*
X3641671Y-15998214D01*
X3613100Y-15983929D01*
X3598814Y-15969643D01*
X3584528Y-15941071D01*
X3570243Y-15883929D01*
X3570243Y-15812500D01*
X3584528Y-15755357D01*
X3598814Y-15726786D01*
X3613100Y-15712500D01*
X3641671Y-15698214D01*
X3870243Y-15969643D02*
X3884528Y-15983929D01*
X3870243Y-15998214D01*
X3855957Y-15983929D01*
X3870243Y-15969643D01*
X3870243Y-15998214D01*
X4141671Y-15798214D02*
X4141671Y-15998214D01*
X4070243Y-15683929D02*
X3998814Y-15898214D01*
X4184528Y-15898214D01*
X4355957Y-15698214D02*
X4384528Y-15698214D01*
X4413100Y-15712500D01*
X4427386Y-15726786D01*
X4441671Y-15755357D01*
X4455957Y-15812500D01*
X4455957Y-15883929D01*
X4441671Y-15941071D01*
X4427386Y-15969643D01*
X4413100Y-15983929D01*
X4384528Y-15998214D01*
X4355957Y-15998214D01*
X4327386Y-15983929D01*
X4313100Y-15969643D01*
X4298814Y-15941071D01*
X4284528Y-15883929D01*
X4284528Y-15812500D01*
X4298814Y-15755357D01*
X4313100Y-15726786D01*
X4327386Y-15712500D01*
X4355957Y-15698214D01*
X4584528Y-15998214D02*
X4584528Y-15798214D01*
X4584528Y-15826786D02*
X4598814Y-15812500D01*
X4627386Y-15798214D01*
X4670243Y-15798214D01*
X4698814Y-15812500D01*
X4713100Y-15841071D01*
X4713100Y-15998214D01*
X4713100Y-15841071D02*
X4727386Y-15812500D01*
X4755957Y-15798214D01*
X4798814Y-15798214D01*
X4827386Y-15812500D01*
X4841671Y-15841071D01*
X4841671Y-15998214D01*
X4984528Y-15998214D02*
X4984528Y-15798214D01*
X4984528Y-15826786D02*
X4998814Y-15812500D01*
X5027386Y-15798214D01*
X5070243Y-15798214D01*
X5098814Y-15812500D01*
X5113100Y-15841071D01*
X5113100Y-15998214D01*
X5113100Y-15841071D02*
X5127386Y-15812500D01*
X5155957Y-15798214D01*
X5198814Y-15798214D01*
X5227386Y-15812500D01*
X5241671Y-15841071D01*
X5241671Y-15998214D01*
X5827386Y-15683929D02*
X5570243Y-16069643D01*
X6213100Y-15698214D02*
X6241671Y-15698214D01*
X6270243Y-15712500D01*
X6284528Y-15726786D01*
X6298814Y-15755357D01*
X6313100Y-15812500D01*
X6313100Y-15883929D01*
X6298814Y-15941071D01*
X6284528Y-15969643D01*
X6270243Y-15983929D01*
X6241671Y-15998214D01*
X6213100Y-15998214D01*
X6184528Y-15983929D01*
X6170243Y-15969643D01*
X6155957Y-15941071D01*
X6141671Y-15883929D01*
X6141671Y-15812500D01*
X6155957Y-15755357D01*
X6170243Y-15726786D01*
X6184528Y-15712500D01*
X6213100Y-15698214D01*
X6441671Y-15969643D02*
X6455957Y-15983929D01*
X6441671Y-15998214D01*
X6427386Y-15983929D01*
X6441671Y-15969643D01*
X6441671Y-15998214D01*
X6641671Y-15698214D02*
X6670243Y-15698214D01*
X6698814Y-15712500D01*
X6713100Y-15726786D01*
X6727386Y-15755357D01*
X6741671Y-15812500D01*
X6741671Y-15883929D01*
X6727386Y-15941071D01*
X6713100Y-15969643D01*
X6698814Y-15983929D01*
X6670243Y-15998214D01*
X6641671Y-15998214D01*
X6613100Y-15983929D01*
X6598814Y-15969643D01*
X6584528Y-15941071D01*
X6570243Y-15883929D01*
X6570243Y-15812500D01*
X6584528Y-15755357D01*
X6598814Y-15726786D01*
X6613100Y-15712500D01*
X6641671Y-15698214D01*
X7027386Y-15998214D02*
X6855957Y-15998214D01*
X6941671Y-15998214D02*
X6941671Y-15698214D01*
X6913100Y-15741071D01*
X6884528Y-15769643D01*
X6855957Y-15783929D01*
X7284528Y-15698214D02*
X7227386Y-15698214D01*
X7198814Y-15712500D01*
X7184528Y-15726786D01*
X7155957Y-15769643D01*
X7141671Y-15826786D01*
X7141671Y-15941071D01*
X7155957Y-15969643D01*
X7170243Y-15983929D01*
X7198814Y-15998214D01*
X7255957Y-15998214D01*
X7284528Y-15983929D01*
X7298814Y-15969643D01*
X7313100Y-15941071D01*
X7313100Y-15869643D01*
X7298814Y-15841071D01*
X7284528Y-15826786D01*
X7255957Y-15812500D01*
X7198814Y-15812500D01*
X7170243Y-15826786D01*
X7155957Y-15841071D01*
X7141671Y-15869643D01*
X7427386Y-15698214D02*
X7427386Y-15755357D01*
X7541671Y-15698214D02*
X7541671Y-15755357D01*
X7984528Y-16112500D02*
X7970243Y-16098214D01*
X7941671Y-16055357D01*
X7927386Y-16026786D01*
X7913100Y-15983929D01*
X7898814Y-15912500D01*
X7898814Y-15855357D01*
X7913100Y-15783929D01*
X7927386Y-15741071D01*
X7941671Y-15712500D01*
X7970243Y-15669643D01*
X7984528Y-15655357D01*
X8227386Y-15698214D02*
X8170243Y-15698214D01*
X8141671Y-15712500D01*
X8127386Y-15726786D01*
X8098814Y-15769643D01*
X8084528Y-15826786D01*
X8084528Y-15941071D01*
X8098814Y-15969643D01*
X8113100Y-15983929D01*
X8141671Y-15998214D01*
X8198814Y-15998214D01*
X8227386Y-15983929D01*
X8241671Y-15969643D01*
X8255957Y-15941071D01*
X8255957Y-15869643D01*
X8241671Y-15841071D01*
X8227386Y-15826786D01*
X8198814Y-15812500D01*
X8141671Y-15812500D01*
X8113100Y-15826786D01*
X8098814Y-15841071D01*
X8084528Y-15869643D01*
X8398814Y-15998214D02*
X8455957Y-15998214D01*
X8484528Y-15983929D01*
X8498814Y-15969643D01*
X8527386Y-15926786D01*
X8541671Y-15869643D01*
X8541671Y-15755357D01*
X8527386Y-15726786D01*
X8513100Y-15712500D01*
X8484528Y-15698214D01*
X8427386Y-15698214D01*
X8398814Y-15712500D01*
X8384528Y-15726786D01*
X8370243Y-15755357D01*
X8370243Y-15826786D01*
X8384528Y-15855357D01*
X8398814Y-15869643D01*
X8427386Y-15883929D01*
X8484528Y-15883929D01*
X8513100Y-15869643D01*
X8527386Y-15855357D01*
X8541671Y-15826786D01*
X8727386Y-15698214D02*
X8755957Y-15698214D01*
X8784528Y-15712500D01*
X8798814Y-15726786D01*
X8813100Y-15755357D01*
X8827386Y-15812500D01*
X8827386Y-15883929D01*
X8813100Y-15941071D01*
X8798814Y-15969643D01*
X8784528Y-15983929D01*
X8755957Y-15998214D01*
X8727386Y-15998214D01*
X8698814Y-15983929D01*
X8684528Y-15969643D01*
X8670243Y-15941071D01*
X8655957Y-15883929D01*
X8655957Y-15812500D01*
X8670243Y-15755357D01*
X8684528Y-15726786D01*
X8698814Y-15712500D01*
X8727386Y-15698214D01*
X9184528Y-15998214D02*
X9184528Y-15698214D01*
X9313100Y-15998214D02*
X9313100Y-15841071D01*
X9298814Y-15812500D01*
X9270243Y-15798214D01*
X9227386Y-15798214D01*
X9198814Y-15812500D01*
X9184528Y-15826786D01*
X9498814Y-15998214D02*
X9470243Y-15983929D01*
X9455957Y-15969643D01*
X9441671Y-15941071D01*
X9441671Y-15855357D01*
X9455957Y-15826786D01*
X9470243Y-15812500D01*
X9498814Y-15798214D01*
X9541671Y-15798214D01*
X9570243Y-15812500D01*
X9584528Y-15826786D01*
X9598814Y-15855357D01*
X9598814Y-15941071D01*
X9584528Y-15969643D01*
X9570243Y-15983929D01*
X9541671Y-15998214D01*
X9498814Y-15998214D01*
X9770243Y-15998214D02*
X9741671Y-15983929D01*
X9727386Y-15955357D01*
X9727386Y-15698214D01*
X9998814Y-15983929D02*
X9970243Y-15998214D01*
X9913100Y-15998214D01*
X9884528Y-15983929D01*
X9870243Y-15955357D01*
X9870243Y-15841071D01*
X9884528Y-15812500D01*
X9913100Y-15798214D01*
X9970243Y-15798214D01*
X9998814Y-15812500D01*
X10013100Y-15841071D01*
X10013100Y-15869643D01*
X9870243Y-15898214D01*
X10127386Y-15983929D02*
X10155957Y-15998214D01*
X10213100Y-15998214D01*
X10241671Y-15983929D01*
X10255957Y-15955357D01*
X10255957Y-15941071D01*
X10241671Y-15912500D01*
X10213100Y-15898214D01*
X10170243Y-15898214D01*
X10141671Y-15883929D01*
X10127386Y-15855357D01*
X10127386Y-15841071D01*
X10141671Y-15812500D01*
X10170243Y-15798214D01*
X10213100Y-15798214D01*
X10241671Y-15812500D01*
X10355957Y-16112500D02*
X10370243Y-16098214D01*
X10398814Y-16055357D01*
X10413100Y-16026786D01*
X10427386Y-15983929D01*
X10441671Y-15912500D01*
X10441671Y-15855357D01*
X10427386Y-15783929D01*
X10413100Y-15741071D01*
X10398814Y-15712500D01*
X10370243Y-15669643D01*
X10355957Y-15655357D01*
X3298100Y-16258500D02*
G75*
G03X3298100Y-16258500I-38100J0D01*
G01*
X3641671Y-16094214D02*
X3670243Y-16094214D01*
X3698814Y-16108500D01*
X3713100Y-16122786D01*
X3727386Y-16151357D01*
X3741671Y-16208500D01*
X3741671Y-16279929D01*
X3727386Y-16337071D01*
X3713100Y-16365643D01*
X3698814Y-16379929D01*
X3670243Y-16394214D01*
X3641671Y-16394214D01*
X3613100Y-16379929D01*
X3598814Y-16365643D01*
X3584528Y-16337071D01*
X3570243Y-16279929D01*
X3570243Y-16208500D01*
X3584528Y-16151357D01*
X3598814Y-16122786D01*
X3613100Y-16108500D01*
X3641671Y-16094214D01*
X3870243Y-16365643D02*
X3884528Y-16379929D01*
X3870243Y-16394214D01*
X3855957Y-16379929D01*
X3870243Y-16365643D01*
X3870243Y-16394214D01*
X3984528Y-16094214D02*
X4184528Y-16094214D01*
X4055957Y-16394214D01*
X4427386Y-16094214D02*
X4370243Y-16094214D01*
X4341671Y-16108500D01*
X4327386Y-16122786D01*
X4298814Y-16165643D01*
X4284528Y-16222786D01*
X4284528Y-16337071D01*
X4298814Y-16365643D01*
X4313100Y-16379929D01*
X4341671Y-16394214D01*
X4398814Y-16394214D01*
X4427386Y-16379929D01*
X4441671Y-16365643D01*
X4455957Y-16337071D01*
X4455957Y-16265643D01*
X4441671Y-16237071D01*
X4427386Y-16222786D01*
X4398814Y-16208500D01*
X4341671Y-16208500D01*
X4313100Y-16222786D01*
X4298814Y-16237071D01*
X4284528Y-16265643D01*
X4584528Y-16394214D02*
X4584528Y-16194214D01*
X4584528Y-16222786D02*
X4598814Y-16208500D01*
X4627386Y-16194214D01*
X4670243Y-16194214D01*
X4698814Y-16208500D01*
X4713100Y-16237071D01*
X4713100Y-16394214D01*
X4713100Y-16237071D02*
X4727386Y-16208500D01*
X4755957Y-16194214D01*
X4798814Y-16194214D01*
X4827386Y-16208500D01*
X4841671Y-16237071D01*
X4841671Y-16394214D01*
X4984528Y-16394214D02*
X4984528Y-16194214D01*
X4984528Y-16222786D02*
X4998814Y-16208500D01*
X5027386Y-16194214D01*
X5070243Y-16194214D01*
X5098814Y-16208500D01*
X5113100Y-16237071D01*
X5113100Y-16394214D01*
X5113100Y-16237071D02*
X5127386Y-16208500D01*
X5155957Y-16194214D01*
X5198814Y-16194214D01*
X5227386Y-16208500D01*
X5241671Y-16237071D01*
X5241671Y-16394214D01*
X5827386Y-16079929D02*
X5570243Y-16465643D01*
X6213100Y-16094214D02*
X6241671Y-16094214D01*
X6270243Y-16108500D01*
X6284528Y-16122786D01*
X6298814Y-16151357D01*
X6313100Y-16208500D01*
X6313100Y-16279929D01*
X6298814Y-16337071D01*
X6284528Y-16365643D01*
X6270243Y-16379929D01*
X6241671Y-16394214D01*
X6213100Y-16394214D01*
X6184528Y-16379929D01*
X6170243Y-16365643D01*
X6155957Y-16337071D01*
X6141671Y-16279929D01*
X6141671Y-16208500D01*
X6155957Y-16151357D01*
X6170243Y-16122786D01*
X6184528Y-16108500D01*
X6213100Y-16094214D01*
X6441671Y-16365643D02*
X6455957Y-16379929D01*
X6441671Y-16394214D01*
X6427386Y-16379929D01*
X6441671Y-16365643D01*
X6441671Y-16394214D01*
X6641671Y-16094214D02*
X6670243Y-16094214D01*
X6698814Y-16108500D01*
X6713100Y-16122786D01*
X6727386Y-16151357D01*
X6741671Y-16208500D01*
X6741671Y-16279929D01*
X6727386Y-16337071D01*
X6713100Y-16365643D01*
X6698814Y-16379929D01*
X6670243Y-16394214D01*
X6641671Y-16394214D01*
X6613100Y-16379929D01*
X6598814Y-16365643D01*
X6584528Y-16337071D01*
X6570243Y-16279929D01*
X6570243Y-16208500D01*
X6584528Y-16151357D01*
X6598814Y-16122786D01*
X6613100Y-16108500D01*
X6641671Y-16094214D01*
X6841671Y-16094214D02*
X7027386Y-16094214D01*
X6927386Y-16208500D01*
X6970243Y-16208500D01*
X6998814Y-16222786D01*
X7013100Y-16237071D01*
X7027386Y-16265643D01*
X7027386Y-16337071D01*
X7013100Y-16365643D01*
X6998814Y-16379929D01*
X6970243Y-16394214D01*
X6884528Y-16394214D01*
X6855957Y-16379929D01*
X6841671Y-16365643D01*
X7213100Y-16094214D02*
X7241671Y-16094214D01*
X7270243Y-16108500D01*
X7284528Y-16122786D01*
X7298814Y-16151357D01*
X7313100Y-16208500D01*
X7313100Y-16279929D01*
X7298814Y-16337071D01*
X7284528Y-16365643D01*
X7270243Y-16379929D01*
X7241671Y-16394214D01*
X7213100Y-16394214D01*
X7184528Y-16379929D01*
X7170243Y-16365643D01*
X7155957Y-16337071D01*
X7141671Y-16279929D01*
X7141671Y-16208500D01*
X7155957Y-16151357D01*
X7170243Y-16122786D01*
X7184528Y-16108500D01*
X7213100Y-16094214D01*
X7427386Y-16094214D02*
X7427386Y-16151357D01*
X7541671Y-16094214D02*
X7541671Y-16151357D01*
X7984528Y-16508500D02*
X7970243Y-16494214D01*
X7941671Y-16451357D01*
X7927386Y-16422786D01*
X7913100Y-16379929D01*
X7898814Y-16308500D01*
X7898814Y-16251357D01*
X7913100Y-16179929D01*
X7927386Y-16137071D01*
X7941671Y-16108500D01*
X7970243Y-16065643D01*
X7984528Y-16051357D01*
X8070243Y-16094214D02*
X8255957Y-16094214D01*
X8155957Y-16208500D01*
X8198814Y-16208500D01*
X8227386Y-16222786D01*
X8241671Y-16237071D01*
X8255957Y-16265643D01*
X8255957Y-16337071D01*
X8241671Y-16365643D01*
X8227386Y-16379929D01*
X8198814Y-16394214D01*
X8113100Y-16394214D01*
X8084528Y-16379929D01*
X8070243Y-16365643D01*
X8370243Y-16122786D02*
X8384528Y-16108500D01*
X8413100Y-16094214D01*
X8484528Y-16094214D01*
X8513100Y-16108500D01*
X8527386Y-16122786D01*
X8541671Y-16151357D01*
X8541671Y-16179929D01*
X8527386Y-16222786D01*
X8355957Y-16394214D01*
X8541671Y-16394214D01*
X8898814Y-16394214D02*
X8898814Y-16094214D01*
X9027386Y-16394214D02*
X9027386Y-16237071D01*
X9013100Y-16208500D01*
X8984528Y-16194214D01*
X8941671Y-16194214D01*
X8913100Y-16208500D01*
X8898814Y-16222786D01*
X9213100Y-16394214D02*
X9184528Y-16379929D01*
X9170243Y-16365643D01*
X9155957Y-16337071D01*
X9155957Y-16251357D01*
X9170243Y-16222786D01*
X9184528Y-16208500D01*
X9213100Y-16194214D01*
X9255957Y-16194214D01*
X9284528Y-16208500D01*
X9298814Y-16222786D01*
X9313100Y-16251357D01*
X9313100Y-16337071D01*
X9298814Y-16365643D01*
X9284528Y-16379929D01*
X9255957Y-16394214D01*
X9213100Y-16394214D01*
X9484528Y-16394214D02*
X9455957Y-16379929D01*
X9441671Y-16351357D01*
X9441671Y-16094214D01*
X9713100Y-16379929D02*
X9684528Y-16394214D01*
X9627386Y-16394214D01*
X9598814Y-16379929D01*
X9584528Y-16351357D01*
X9584528Y-16237071D01*
X9598814Y-16208500D01*
X9627386Y-16194214D01*
X9684528Y-16194214D01*
X9713100Y-16208500D01*
X9727386Y-16237071D01*
X9727386Y-16265643D01*
X9584528Y-16294214D01*
X9841671Y-16379929D02*
X9870243Y-16394214D01*
X9927386Y-16394214D01*
X9955957Y-16379929D01*
X9970243Y-16351357D01*
X9970243Y-16337071D01*
X9955957Y-16308500D01*
X9927386Y-16294214D01*
X9884528Y-16294214D01*
X9855957Y-16279929D01*
X9841671Y-16251357D01*
X9841671Y-16237071D01*
X9855957Y-16208500D01*
X9884528Y-16194214D01*
X9927386Y-16194214D01*
X9955957Y-16208500D01*
X10070243Y-16508500D02*
X10084528Y-16494214D01*
X10113100Y-16451357D01*
X10127386Y-16422786D01*
X10141671Y-16379929D01*
X10155957Y-16308500D01*
X10155957Y-16251357D01*
X10141671Y-16179929D01*
X10127386Y-16137071D01*
X10113100Y-16108500D01*
X10084528Y-16065643D01*
X10070243Y-16051357D01*
X3258100Y-16614500D02*
X3258100Y-16694500D01*
X3218100Y-16654500D02*
X3298100Y-16654500D01*
X3641671Y-16490214D02*
X3670243Y-16490214D01*
X3698814Y-16504500D01*
X3713100Y-16518786D01*
X3727386Y-16547357D01*
X3741671Y-16604500D01*
X3741671Y-16675929D01*
X3727386Y-16733071D01*
X3713100Y-16761643D01*
X3698814Y-16775929D01*
X3670243Y-16790214D01*
X3641671Y-16790214D01*
X3613100Y-16775929D01*
X3598814Y-16761643D01*
X3584528Y-16733071D01*
X3570243Y-16675929D01*
X3570243Y-16604500D01*
X3584528Y-16547357D01*
X3598814Y-16518786D01*
X3613100Y-16504500D01*
X3641671Y-16490214D01*
X3870243Y-16761643D02*
X3884528Y-16775929D01*
X3870243Y-16790214D01*
X3855957Y-16775929D01*
X3870243Y-16761643D01*
X3870243Y-16790214D01*
X4055957Y-16618786D02*
X4027386Y-16604500D01*
X4013100Y-16590214D01*
X3998814Y-16561643D01*
X3998814Y-16547357D01*
X4013100Y-16518786D01*
X4027386Y-16504500D01*
X4055957Y-16490214D01*
X4113100Y-16490214D01*
X4141671Y-16504500D01*
X4155957Y-16518786D01*
X4170243Y-16547357D01*
X4170243Y-16561643D01*
X4155957Y-16590214D01*
X4141671Y-16604500D01*
X4113100Y-16618786D01*
X4055957Y-16618786D01*
X4027386Y-16633071D01*
X4013100Y-16647357D01*
X3998814Y-16675929D01*
X3998814Y-16733071D01*
X4013100Y-16761643D01*
X4027386Y-16775929D01*
X4055957Y-16790214D01*
X4113100Y-16790214D01*
X4141671Y-16775929D01*
X4155957Y-16761643D01*
X4170243Y-16733071D01*
X4170243Y-16675929D01*
X4155957Y-16647357D01*
X4141671Y-16633071D01*
X4113100Y-16618786D01*
X4355957Y-16490214D02*
X4384528Y-16490214D01*
X4413100Y-16504500D01*
X4427386Y-16518786D01*
X4441671Y-16547357D01*
X4455957Y-16604500D01*
X4455957Y-16675929D01*
X4441671Y-16733071D01*
X4427386Y-16761643D01*
X4413100Y-16775929D01*
X4384528Y-16790214D01*
X4355957Y-16790214D01*
X4327386Y-16775929D01*
X4313100Y-16761643D01*
X4298814Y-16733071D01*
X4284528Y-16675929D01*
X4284528Y-16604500D01*
X4298814Y-16547357D01*
X4313100Y-16518786D01*
X4327386Y-16504500D01*
X4355957Y-16490214D01*
X4584528Y-16790214D02*
X4584528Y-16590214D01*
X4584528Y-16618786D02*
X4598814Y-16604500D01*
X4627386Y-16590214D01*
X4670243Y-16590214D01*
X4698814Y-16604500D01*
X4713100Y-16633071D01*
X4713100Y-16790214D01*
X4713100Y-16633071D02*
X4727386Y-16604500D01*
X4755957Y-16590214D01*
X4798814Y-16590214D01*
X4827386Y-16604500D01*
X4841671Y-16633071D01*
X4841671Y-16790214D01*
X4984528Y-16790214D02*
X4984528Y-16590214D01*
X4984528Y-16618786D02*
X4998814Y-16604500D01*
X5027386Y-16590214D01*
X5070243Y-16590214D01*
X5098814Y-16604500D01*
X5113100Y-16633071D01*
X5113100Y-16790214D01*
X5113100Y-16633071D02*
X5127386Y-16604500D01*
X5155957Y-16590214D01*
X5198814Y-16590214D01*
X5227386Y-16604500D01*
X5241671Y-16633071D01*
X5241671Y-16790214D01*
X5827386Y-16475929D02*
X5570243Y-16861643D01*
X6213100Y-16490214D02*
X6241671Y-16490214D01*
X6270243Y-16504500D01*
X6284528Y-16518786D01*
X6298814Y-16547357D01*
X6313100Y-16604500D01*
X6313100Y-16675929D01*
X6298814Y-16733071D01*
X6284528Y-16761643D01*
X6270243Y-16775929D01*
X6241671Y-16790214D01*
X6213100Y-16790214D01*
X6184528Y-16775929D01*
X6170243Y-16761643D01*
X6155957Y-16733071D01*
X6141671Y-16675929D01*
X6141671Y-16604500D01*
X6155957Y-16547357D01*
X6170243Y-16518786D01*
X6184528Y-16504500D01*
X6213100Y-16490214D01*
X6441671Y-16761643D02*
X6455957Y-16775929D01*
X6441671Y-16790214D01*
X6427386Y-16775929D01*
X6441671Y-16761643D01*
X6441671Y-16790214D01*
X6641671Y-16490214D02*
X6670243Y-16490214D01*
X6698814Y-16504500D01*
X6713100Y-16518786D01*
X6727386Y-16547357D01*
X6741671Y-16604500D01*
X6741671Y-16675929D01*
X6727386Y-16733071D01*
X6713100Y-16761643D01*
X6698814Y-16775929D01*
X6670243Y-16790214D01*
X6641671Y-16790214D01*
X6613100Y-16775929D01*
X6598814Y-16761643D01*
X6584528Y-16733071D01*
X6570243Y-16675929D01*
X6570243Y-16604500D01*
X6584528Y-16547357D01*
X6598814Y-16518786D01*
X6613100Y-16504500D01*
X6641671Y-16490214D01*
X6841671Y-16490214D02*
X7027386Y-16490214D01*
X6927386Y-16604500D01*
X6970243Y-16604500D01*
X6998814Y-16618786D01*
X7013100Y-16633071D01*
X7027386Y-16661643D01*
X7027386Y-16733071D01*
X7013100Y-16761643D01*
X6998814Y-16775929D01*
X6970243Y-16790214D01*
X6884528Y-16790214D01*
X6855957Y-16775929D01*
X6841671Y-16761643D01*
X7313100Y-16790214D02*
X7141671Y-16790214D01*
X7227386Y-16790214D02*
X7227386Y-16490214D01*
X7198814Y-16533071D01*
X7170243Y-16561643D01*
X7141671Y-16575929D01*
X7427386Y-16490214D02*
X7427386Y-16547357D01*
X7541671Y-16490214D02*
X7541671Y-16547357D01*
X7984528Y-16904500D02*
X7970243Y-16890214D01*
X7941671Y-16847357D01*
X7927386Y-16818786D01*
X7913100Y-16775929D01*
X7898814Y-16704500D01*
X7898814Y-16647357D01*
X7913100Y-16575929D01*
X7927386Y-16533071D01*
X7941671Y-16504500D01*
X7970243Y-16461643D01*
X7984528Y-16447357D01*
X8084528Y-16518786D02*
X8098814Y-16504500D01*
X8127386Y-16490214D01*
X8198814Y-16490214D01*
X8227386Y-16504500D01*
X8241671Y-16518786D01*
X8255957Y-16547357D01*
X8255957Y-16575929D01*
X8241671Y-16618786D01*
X8070243Y-16790214D01*
X8255957Y-16790214D01*
X8613100Y-16790214D02*
X8613100Y-16490214D01*
X8741671Y-16790214D02*
X8741671Y-16633071D01*
X8727386Y-16604500D01*
X8698814Y-16590214D01*
X8655957Y-16590214D01*
X8627386Y-16604500D01*
X8613100Y-16618786D01*
X8927386Y-16790214D02*
X8898814Y-16775929D01*
X8884528Y-16761643D01*
X8870243Y-16733071D01*
X8870243Y-16647357D01*
X8884528Y-16618786D01*
X8898814Y-16604500D01*
X8927386Y-16590214D01*
X8970243Y-16590214D01*
X8998814Y-16604500D01*
X9013100Y-16618786D01*
X9027386Y-16647357D01*
X9027386Y-16733071D01*
X9013100Y-16761643D01*
X8998814Y-16775929D01*
X8970243Y-16790214D01*
X8927386Y-16790214D01*
X9198814Y-16790214D02*
X9170243Y-16775929D01*
X9155957Y-16747357D01*
X9155957Y-16490214D01*
X9427386Y-16775929D02*
X9398814Y-16790214D01*
X9341671Y-16790214D01*
X9313100Y-16775929D01*
X9298814Y-16747357D01*
X9298814Y-16633071D01*
X9313100Y-16604500D01*
X9341671Y-16590214D01*
X9398814Y-16590214D01*
X9427386Y-16604500D01*
X9441671Y-16633071D01*
X9441671Y-16661643D01*
X9298814Y-16690214D01*
X9555957Y-16775929D02*
X9584528Y-16790214D01*
X9641671Y-16790214D01*
X9670243Y-16775929D01*
X9684528Y-16747357D01*
X9684528Y-16733071D01*
X9670243Y-16704500D01*
X9641671Y-16690214D01*
X9598814Y-16690214D01*
X9570243Y-16675929D01*
X9555957Y-16647357D01*
X9555957Y-16633071D01*
X9570243Y-16604500D01*
X9598814Y-16590214D01*
X9641671Y-16590214D01*
X9670243Y-16604500D01*
X9784528Y-16904500D02*
X9798814Y-16890214D01*
X9827386Y-16847357D01*
X9841671Y-16818786D01*
X9855957Y-16775929D01*
X9870243Y-16704500D01*
X9870243Y-16647357D01*
X9855957Y-16575929D01*
X9841671Y-16533071D01*
X9827386Y-16504500D01*
X9798814Y-16461643D01*
X9784528Y-16447357D01*
X3284627Y-17083027D02*
X3284627Y-17017973D01*
X3219573Y-17017973D01*
X3219573Y-17083027D01*
X3284627Y-17083027D01*
X3641671Y-16886214D02*
X3670243Y-16886214D01*
X3698814Y-16900500D01*
X3713100Y-16914786D01*
X3727386Y-16943357D01*
X3741671Y-17000500D01*
X3741671Y-17071929D01*
X3727386Y-17129072D01*
X3713100Y-17157643D01*
X3698814Y-17171929D01*
X3670243Y-17186214D01*
X3641671Y-17186214D01*
X3613100Y-17171929D01*
X3598814Y-17157643D01*
X3584528Y-17129072D01*
X3570243Y-17071929D01*
X3570243Y-17000500D01*
X3584528Y-16943357D01*
X3598814Y-16914786D01*
X3613100Y-16900500D01*
X3641671Y-16886214D01*
X3870243Y-17157643D02*
X3884528Y-17171929D01*
X3870243Y-17186214D01*
X3855957Y-17171929D01*
X3870243Y-17157643D01*
X3870243Y-17186214D01*
X4027386Y-17186214D02*
X4084528Y-17186214D01*
X4113100Y-17171929D01*
X4127386Y-17157643D01*
X4155957Y-17114786D01*
X4170243Y-17057643D01*
X4170243Y-16943357D01*
X4155957Y-16914786D01*
X4141671Y-16900500D01*
X4113100Y-16886214D01*
X4055957Y-16886214D01*
X4027386Y-16900500D01*
X4013100Y-16914786D01*
X3998814Y-16943357D01*
X3998814Y-17014786D01*
X4013100Y-17043357D01*
X4027386Y-17057643D01*
X4055957Y-17071929D01*
X4113100Y-17071929D01*
X4141671Y-17057643D01*
X4155957Y-17043357D01*
X4170243Y-17014786D01*
X4284528Y-16914786D02*
X4298814Y-16900500D01*
X4327386Y-16886214D01*
X4398814Y-16886214D01*
X4427386Y-16900500D01*
X4441671Y-16914786D01*
X4455957Y-16943357D01*
X4455957Y-16971929D01*
X4441671Y-17014786D01*
X4270243Y-17186214D01*
X4455957Y-17186214D01*
X4584528Y-17186214D02*
X4584528Y-16986214D01*
X4584528Y-17014786D02*
X4598814Y-17000500D01*
X4627386Y-16986214D01*
X4670243Y-16986214D01*
X4698814Y-17000500D01*
X4713100Y-17029072D01*
X4713100Y-17186214D01*
X4713100Y-17029072D02*
X4727386Y-17000500D01*
X4755957Y-16986214D01*
X4798814Y-16986214D01*
X4827386Y-17000500D01*
X4841671Y-17029072D01*
X4841671Y-17186214D01*
X4984528Y-17186214D02*
X4984528Y-16986214D01*
X4984528Y-17014786D02*
X4998814Y-17000500D01*
X5027386Y-16986214D01*
X5070243Y-16986214D01*
X5098814Y-17000500D01*
X5113100Y-17029072D01*
X5113100Y-17186214D01*
X5113100Y-17029072D02*
X5127386Y-17000500D01*
X5155957Y-16986214D01*
X5198814Y-16986214D01*
X5227386Y-17000500D01*
X5241671Y-17029072D01*
X5241671Y-17186214D01*
X5827386Y-16871929D02*
X5570243Y-17257643D01*
X6213100Y-16886214D02*
X6241671Y-16886214D01*
X6270243Y-16900500D01*
X6284528Y-16914786D01*
X6298814Y-16943357D01*
X6313100Y-17000500D01*
X6313100Y-17071929D01*
X6298814Y-17129072D01*
X6284528Y-17157643D01*
X6270243Y-17171929D01*
X6241671Y-17186214D01*
X6213100Y-17186214D01*
X6184528Y-17171929D01*
X6170243Y-17157643D01*
X6155957Y-17129072D01*
X6141671Y-17071929D01*
X6141671Y-17000500D01*
X6155957Y-16943357D01*
X6170243Y-16914786D01*
X6184528Y-16900500D01*
X6213100Y-16886214D01*
X6441671Y-17157643D02*
X6455957Y-17171929D01*
X6441671Y-17186214D01*
X6427386Y-17171929D01*
X6441671Y-17157643D01*
X6441671Y-17186214D01*
X6641671Y-16886214D02*
X6670243Y-16886214D01*
X6698814Y-16900500D01*
X6713100Y-16914786D01*
X6727386Y-16943357D01*
X6741671Y-17000500D01*
X6741671Y-17071929D01*
X6727386Y-17129072D01*
X6713100Y-17157643D01*
X6698814Y-17171929D01*
X6670243Y-17186214D01*
X6641671Y-17186214D01*
X6613100Y-17171929D01*
X6598814Y-17157643D01*
X6584528Y-17129072D01*
X6570243Y-17071929D01*
X6570243Y-17000500D01*
X6584528Y-16943357D01*
X6598814Y-16914786D01*
X6613100Y-16900500D01*
X6641671Y-16886214D01*
X6841671Y-16886214D02*
X7027386Y-16886214D01*
X6927386Y-17000500D01*
X6970243Y-17000500D01*
X6998814Y-17014786D01*
X7013100Y-17029072D01*
X7027386Y-17057643D01*
X7027386Y-17129072D01*
X7013100Y-17157643D01*
X6998814Y-17171929D01*
X6970243Y-17186214D01*
X6884528Y-17186214D01*
X6855957Y-17171929D01*
X6841671Y-17157643D01*
X7284528Y-16886214D02*
X7227386Y-16886214D01*
X7198814Y-16900500D01*
X7184528Y-16914786D01*
X7155957Y-16957643D01*
X7141671Y-17014786D01*
X7141671Y-17129072D01*
X7155957Y-17157643D01*
X7170243Y-17171929D01*
X7198814Y-17186214D01*
X7255957Y-17186214D01*
X7284528Y-17171929D01*
X7298814Y-17157643D01*
X7313100Y-17129072D01*
X7313100Y-17057643D01*
X7298814Y-17029072D01*
X7284528Y-17014786D01*
X7255957Y-17000500D01*
X7198814Y-17000500D01*
X7170243Y-17014786D01*
X7155957Y-17029072D01*
X7141671Y-17057643D01*
X7427386Y-16886214D02*
X7427386Y-16943357D01*
X7541671Y-16886214D02*
X7541671Y-16943357D01*
X7984528Y-17300500D02*
X7970243Y-17286214D01*
X7941671Y-17243357D01*
X7927386Y-17214786D01*
X7913100Y-17171929D01*
X7898814Y-17100500D01*
X7898814Y-17043357D01*
X7913100Y-16971929D01*
X7927386Y-16929072D01*
X7941671Y-16900500D01*
X7970243Y-16857643D01*
X7984528Y-16843357D01*
X8227386Y-16986214D02*
X8227386Y-17186214D01*
X8155957Y-16871929D02*
X8084528Y-17086214D01*
X8270243Y-17086214D01*
X8613100Y-17186214D02*
X8613100Y-16886214D01*
X8741671Y-17186214D02*
X8741671Y-17029072D01*
X8727386Y-17000500D01*
X8698814Y-16986214D01*
X8655957Y-16986214D01*
X8627386Y-17000500D01*
X8613100Y-17014786D01*
X8927386Y-17186214D02*
X8898814Y-17171929D01*
X8884528Y-17157643D01*
X8870243Y-17129072D01*
X8870243Y-17043357D01*
X8884528Y-17014786D01*
X8898814Y-17000500D01*
X8927386Y-16986214D01*
X8970243Y-16986214D01*
X8998814Y-17000500D01*
X9013100Y-17014786D01*
X9027386Y-17043357D01*
X9027386Y-17129072D01*
X9013100Y-17157643D01*
X8998814Y-17171929D01*
X8970243Y-17186214D01*
X8927386Y-17186214D01*
X9198814Y-17186214D02*
X9170243Y-17171929D01*
X9155957Y-17143357D01*
X9155957Y-16886214D01*
X9427386Y-17171929D02*
X9398814Y-17186214D01*
X9341671Y-17186214D01*
X9313100Y-17171929D01*
X9298814Y-17143357D01*
X9298814Y-17029072D01*
X9313100Y-17000500D01*
X9341671Y-16986214D01*
X9398814Y-16986214D01*
X9427386Y-17000500D01*
X9441671Y-17029072D01*
X9441671Y-17057643D01*
X9298814Y-17086214D01*
X9555957Y-17171929D02*
X9584528Y-17186214D01*
X9641671Y-17186214D01*
X9670243Y-17171929D01*
X9684528Y-17143357D01*
X9684528Y-17129072D01*
X9670243Y-17100500D01*
X9641671Y-17086214D01*
X9598814Y-17086214D01*
X9570243Y-17071929D01*
X9555957Y-17043357D01*
X9555957Y-17029072D01*
X9570243Y-17000500D01*
X9598814Y-16986214D01*
X9641671Y-16986214D01*
X9670243Y-17000500D01*
X9784528Y-17300500D02*
X9798814Y-17286214D01*
X9827386Y-17243357D01*
X9841671Y-17214786D01*
X9855957Y-17171929D01*
X9870243Y-17100500D01*
X9870243Y-17043357D01*
X9855957Y-16971929D01*
X9841671Y-16929072D01*
X9827386Y-16900500D01*
X9798814Y-16857643D01*
X9784528Y-16843357D01*
X3248100Y-17496500D02*
X3298100Y-17446500D01*
X3248100Y-17396500D01*
X3198100Y-17446500D01*
X3248100Y-17496500D01*
X3741671Y-17582214D02*
X3570243Y-17582214D01*
X3655957Y-17582214D02*
X3655957Y-17282214D01*
X3627386Y-17325072D01*
X3598814Y-17353643D01*
X3570243Y-17367929D01*
X3870243Y-17553643D02*
X3884528Y-17567929D01*
X3870243Y-17582214D01*
X3855957Y-17567929D01*
X3870243Y-17553643D01*
X3870243Y-17582214D01*
X4070243Y-17282214D02*
X4098814Y-17282214D01*
X4127386Y-17296500D01*
X4141671Y-17310786D01*
X4155957Y-17339357D01*
X4170243Y-17396500D01*
X4170243Y-17467929D01*
X4155957Y-17525072D01*
X4141671Y-17553643D01*
X4127386Y-17567929D01*
X4098814Y-17582214D01*
X4070243Y-17582214D01*
X4041671Y-17567929D01*
X4027386Y-17553643D01*
X4013100Y-17525072D01*
X3998814Y-17467929D01*
X3998814Y-17396500D01*
X4013100Y-17339357D01*
X4027386Y-17310786D01*
X4041671Y-17296500D01*
X4070243Y-17282214D01*
X4355957Y-17282214D02*
X4384528Y-17282214D01*
X4413100Y-17296500D01*
X4427386Y-17310786D01*
X4441671Y-17339357D01*
X4455957Y-17396500D01*
X4455957Y-17467929D01*
X4441671Y-17525072D01*
X4427386Y-17553643D01*
X4413100Y-17567929D01*
X4384528Y-17582214D01*
X4355957Y-17582214D01*
X4327386Y-17567929D01*
X4313100Y-17553643D01*
X4298814Y-17525072D01*
X4284528Y-17467929D01*
X4284528Y-17396500D01*
X4298814Y-17339357D01*
X4313100Y-17310786D01*
X4327386Y-17296500D01*
X4355957Y-17282214D01*
X4584528Y-17582214D02*
X4584528Y-17382214D01*
X4584528Y-17410786D02*
X4598814Y-17396500D01*
X4627386Y-17382214D01*
X4670243Y-17382214D01*
X4698814Y-17396500D01*
X4713100Y-17425072D01*
X4713100Y-17582214D01*
X4713100Y-17425072D02*
X4727386Y-17396500D01*
X4755957Y-17382214D01*
X4798814Y-17382214D01*
X4827386Y-17396500D01*
X4841671Y-17425072D01*
X4841671Y-17582214D01*
X4984528Y-17582214D02*
X4984528Y-17382214D01*
X4984528Y-17410786D02*
X4998814Y-17396500D01*
X5027386Y-17382214D01*
X5070243Y-17382214D01*
X5098814Y-17396500D01*
X5113100Y-17425072D01*
X5113100Y-17582214D01*
X5113100Y-17425072D02*
X5127386Y-17396500D01*
X5155957Y-17382214D01*
X5198814Y-17382214D01*
X5227386Y-17396500D01*
X5241671Y-17425072D01*
X5241671Y-17582214D01*
X5827386Y-17267929D02*
X5570243Y-17653643D01*
X6213100Y-17282214D02*
X6241671Y-17282214D01*
X6270243Y-17296500D01*
X6284528Y-17310786D01*
X6298814Y-17339357D01*
X6313100Y-17396500D01*
X6313100Y-17467929D01*
X6298814Y-17525072D01*
X6284528Y-17553643D01*
X6270243Y-17567929D01*
X6241671Y-17582214D01*
X6213100Y-17582214D01*
X6184528Y-17567929D01*
X6170243Y-17553643D01*
X6155957Y-17525072D01*
X6141671Y-17467929D01*
X6141671Y-17396500D01*
X6155957Y-17339357D01*
X6170243Y-17310786D01*
X6184528Y-17296500D01*
X6213100Y-17282214D01*
X6441671Y-17553643D02*
X6455957Y-17567929D01*
X6441671Y-17582214D01*
X6427386Y-17567929D01*
X6441671Y-17553643D01*
X6441671Y-17582214D01*
X6641671Y-17282214D02*
X6670243Y-17282214D01*
X6698814Y-17296500D01*
X6713100Y-17310786D01*
X6727386Y-17339357D01*
X6741671Y-17396500D01*
X6741671Y-17467929D01*
X6727386Y-17525072D01*
X6713100Y-17553643D01*
X6698814Y-17567929D01*
X6670243Y-17582214D01*
X6641671Y-17582214D01*
X6613100Y-17567929D01*
X6598814Y-17553643D01*
X6584528Y-17525072D01*
X6570243Y-17467929D01*
X6570243Y-17396500D01*
X6584528Y-17339357D01*
X6598814Y-17310786D01*
X6613100Y-17296500D01*
X6641671Y-17282214D01*
X6841671Y-17282214D02*
X7027386Y-17282214D01*
X6927386Y-17396500D01*
X6970243Y-17396500D01*
X6998814Y-17410786D01*
X7013100Y-17425072D01*
X7027386Y-17453643D01*
X7027386Y-17525072D01*
X7013100Y-17553643D01*
X6998814Y-17567929D01*
X6970243Y-17582214D01*
X6884528Y-17582214D01*
X6855957Y-17567929D01*
X6841671Y-17553643D01*
X7170243Y-17582214D02*
X7227386Y-17582214D01*
X7255957Y-17567929D01*
X7270243Y-17553643D01*
X7298814Y-17510786D01*
X7313100Y-17453643D01*
X7313100Y-17339357D01*
X7298814Y-17310786D01*
X7284528Y-17296500D01*
X7255957Y-17282214D01*
X7198814Y-17282214D01*
X7170243Y-17296500D01*
X7155957Y-17310786D01*
X7141671Y-17339357D01*
X7141671Y-17410786D01*
X7155957Y-17439357D01*
X7170243Y-17453643D01*
X7198814Y-17467929D01*
X7255957Y-17467929D01*
X7284528Y-17453643D01*
X7298814Y-17439357D01*
X7313100Y-17410786D01*
X7427386Y-17282214D02*
X7427386Y-17339357D01*
X7541671Y-17282214D02*
X7541671Y-17339357D01*
X7984528Y-17696500D02*
X7970243Y-17682214D01*
X7941671Y-17639357D01*
X7927386Y-17610786D01*
X7913100Y-17567929D01*
X7898814Y-17496500D01*
X7898814Y-17439357D01*
X7913100Y-17367929D01*
X7927386Y-17325072D01*
X7941671Y-17296500D01*
X7970243Y-17253643D01*
X7984528Y-17239357D01*
X8141671Y-17410786D02*
X8113100Y-17396500D01*
X8098814Y-17382214D01*
X8084528Y-17353643D01*
X8084528Y-17339357D01*
X8098814Y-17310786D01*
X8113100Y-17296500D01*
X8141671Y-17282214D01*
X8198814Y-17282214D01*
X8227386Y-17296500D01*
X8241671Y-17310786D01*
X8255957Y-17339357D01*
X8255957Y-17353643D01*
X8241671Y-17382214D01*
X8227386Y-17396500D01*
X8198814Y-17410786D01*
X8141671Y-17410786D01*
X8113100Y-17425072D01*
X8098814Y-17439357D01*
X8084528Y-17467929D01*
X8084528Y-17525072D01*
X8098814Y-17553643D01*
X8113100Y-17567929D01*
X8141671Y-17582214D01*
X8198814Y-17582214D01*
X8227386Y-17567929D01*
X8241671Y-17553643D01*
X8255957Y-17525072D01*
X8255957Y-17467929D01*
X8241671Y-17439357D01*
X8227386Y-17425072D01*
X8198814Y-17410786D01*
X8355957Y-17282214D02*
X8541671Y-17282214D01*
X8441671Y-17396500D01*
X8484528Y-17396500D01*
X8513100Y-17410786D01*
X8527386Y-17425072D01*
X8541671Y-17453643D01*
X8541671Y-17525072D01*
X8527386Y-17553643D01*
X8513100Y-17567929D01*
X8484528Y-17582214D01*
X8398814Y-17582214D01*
X8370243Y-17567929D01*
X8355957Y-17553643D01*
X8898814Y-17582214D02*
X8898814Y-17282214D01*
X9027386Y-17582214D02*
X9027386Y-17425072D01*
X9013100Y-17396500D01*
X8984528Y-17382214D01*
X8941671Y-17382214D01*
X8913100Y-17396500D01*
X8898814Y-17410786D01*
X9213100Y-17582214D02*
X9184528Y-17567929D01*
X9170243Y-17553643D01*
X9155957Y-17525072D01*
X9155957Y-17439357D01*
X9170243Y-17410786D01*
X9184528Y-17396500D01*
X9213100Y-17382214D01*
X9255957Y-17382214D01*
X9284528Y-17396500D01*
X9298814Y-17410786D01*
X9313100Y-17439357D01*
X9313100Y-17525072D01*
X9298814Y-17553643D01*
X9284528Y-17567929D01*
X9255957Y-17582214D01*
X9213100Y-17582214D01*
X9484528Y-17582214D02*
X9455957Y-17567929D01*
X9441671Y-17539357D01*
X9441671Y-17282214D01*
X9713100Y-17567929D02*
X9684528Y-17582214D01*
X9627386Y-17582214D01*
X9598814Y-17567929D01*
X9584528Y-17539357D01*
X9584528Y-17425072D01*
X9598814Y-17396500D01*
X9627386Y-17382214D01*
X9684528Y-17382214D01*
X9713100Y-17396500D01*
X9727386Y-17425072D01*
X9727386Y-17453643D01*
X9584528Y-17482214D01*
X9841671Y-17567929D02*
X9870243Y-17582214D01*
X9927386Y-17582214D01*
X9955957Y-17567929D01*
X9970243Y-17539357D01*
X9970243Y-17525072D01*
X9955957Y-17496500D01*
X9927386Y-17482214D01*
X9884528Y-17482214D01*
X9855957Y-17467929D01*
X9841671Y-17439357D01*
X9841671Y-17425072D01*
X9855957Y-17396500D01*
X9884528Y-17382214D01*
X9927386Y-17382214D01*
X9955957Y-17396500D01*
X10070243Y-17696500D02*
X10084528Y-17682214D01*
X10113100Y-17639357D01*
X10127386Y-17610786D01*
X10141671Y-17567929D01*
X10155957Y-17496500D01*
X10155957Y-17439357D01*
X10141671Y-17367929D01*
X10127386Y-17325072D01*
X10113100Y-17296500D01*
X10084528Y-17253643D01*
X10070243Y-17239357D01*
X3068100Y-17727500D02*
X3298100Y-17957500D01*
X3298100Y-17727500D02*
X3068100Y-17957500D01*
X3298100Y-17842500D02*
G75*
G03X3298100Y-17842500I-115000J0D01*
G01*
X3570243Y-17706786D02*
X3584528Y-17692500D01*
X3613100Y-17678214D01*
X3684528Y-17678214D01*
X3713100Y-17692500D01*
X3727386Y-17706786D01*
X3741671Y-17735357D01*
X3741671Y-17763929D01*
X3727386Y-17806786D01*
X3555957Y-17978214D01*
X3741671Y-17978214D01*
X3870243Y-17949643D02*
X3884528Y-17963929D01*
X3870243Y-17978214D01*
X3855957Y-17963929D01*
X3870243Y-17949643D01*
X3870243Y-17978214D01*
X3984528Y-17678214D02*
X4170243Y-17678214D01*
X4070243Y-17792500D01*
X4113100Y-17792500D01*
X4141671Y-17806786D01*
X4155957Y-17821072D01*
X4170243Y-17849643D01*
X4170243Y-17921072D01*
X4155957Y-17949643D01*
X4141671Y-17963929D01*
X4113100Y-17978214D01*
X4027386Y-17978214D01*
X3998814Y-17963929D01*
X3984528Y-17949643D01*
X4355957Y-17678214D02*
X4384528Y-17678214D01*
X4413100Y-17692500D01*
X4427386Y-17706786D01*
X4441671Y-17735357D01*
X4455957Y-17792500D01*
X4455957Y-17863929D01*
X4441671Y-17921072D01*
X4427386Y-17949643D01*
X4413100Y-17963929D01*
X4384528Y-17978214D01*
X4355957Y-17978214D01*
X4327386Y-17963929D01*
X4313100Y-17949643D01*
X4298814Y-17921072D01*
X4284528Y-17863929D01*
X4284528Y-17792500D01*
X4298814Y-17735357D01*
X4313100Y-17706786D01*
X4327386Y-17692500D01*
X4355957Y-17678214D01*
X4584528Y-17978214D02*
X4584528Y-17778214D01*
X4584528Y-17806786D02*
X4598814Y-17792500D01*
X4627386Y-17778214D01*
X4670243Y-17778214D01*
X4698814Y-17792500D01*
X4713100Y-17821072D01*
X4713100Y-17978214D01*
X4713100Y-17821072D02*
X4727386Y-17792500D01*
X4755957Y-17778214D01*
X4798814Y-17778214D01*
X4827386Y-17792500D01*
X4841671Y-17821072D01*
X4841671Y-17978214D01*
X4984528Y-17978214D02*
X4984528Y-17778214D01*
X4984528Y-17806786D02*
X4998814Y-17792500D01*
X5027386Y-17778214D01*
X5070243Y-17778214D01*
X5098814Y-17792500D01*
X5113100Y-17821072D01*
X5113100Y-17978214D01*
X5113100Y-17821072D02*
X5127386Y-17792500D01*
X5155957Y-17778214D01*
X5198814Y-17778214D01*
X5227386Y-17792500D01*
X5241671Y-17821072D01*
X5241671Y-17978214D01*
X5827386Y-17663929D02*
X5570243Y-18049643D01*
X6213100Y-17678214D02*
X6241671Y-17678214D01*
X6270243Y-17692500D01*
X6284528Y-17706786D01*
X6298814Y-17735357D01*
X6313100Y-17792500D01*
X6313100Y-17863929D01*
X6298814Y-17921072D01*
X6284528Y-17949643D01*
X6270243Y-17963929D01*
X6241671Y-17978214D01*
X6213100Y-17978214D01*
X6184528Y-17963929D01*
X6170243Y-17949643D01*
X6155957Y-17921072D01*
X6141671Y-17863929D01*
X6141671Y-17792500D01*
X6155957Y-17735357D01*
X6170243Y-17706786D01*
X6184528Y-17692500D01*
X6213100Y-17678214D01*
X6441671Y-17949643D02*
X6455957Y-17963929D01*
X6441671Y-17978214D01*
X6427386Y-17963929D01*
X6441671Y-17949643D01*
X6441671Y-17978214D01*
X6641671Y-17678214D02*
X6670243Y-17678214D01*
X6698814Y-17692500D01*
X6713100Y-17706786D01*
X6727386Y-17735357D01*
X6741671Y-17792500D01*
X6741671Y-17863929D01*
X6727386Y-17921072D01*
X6713100Y-17949643D01*
X6698814Y-17963929D01*
X6670243Y-17978214D01*
X6641671Y-17978214D01*
X6613100Y-17963929D01*
X6598814Y-17949643D01*
X6584528Y-17921072D01*
X6570243Y-17863929D01*
X6570243Y-17792500D01*
X6584528Y-17735357D01*
X6598814Y-17706786D01*
X6613100Y-17692500D01*
X6641671Y-17678214D01*
X6884528Y-17978214D02*
X6941671Y-17978214D01*
X6970243Y-17963929D01*
X6984528Y-17949643D01*
X7013100Y-17906786D01*
X7027386Y-17849643D01*
X7027386Y-17735357D01*
X7013100Y-17706786D01*
X6998814Y-17692500D01*
X6970243Y-17678214D01*
X6913100Y-17678214D01*
X6884528Y-17692500D01*
X6870243Y-17706786D01*
X6855957Y-17735357D01*
X6855957Y-17806786D01*
X6870243Y-17835357D01*
X6884528Y-17849643D01*
X6913100Y-17863929D01*
X6970243Y-17863929D01*
X6998814Y-17849643D01*
X7013100Y-17835357D01*
X7027386Y-17806786D01*
X7313100Y-17978214D02*
X7141671Y-17978214D01*
X7227386Y-17978214D02*
X7227386Y-17678214D01*
X7198814Y-17721072D01*
X7170243Y-17749643D01*
X7141671Y-17763929D01*
X7427386Y-17678214D02*
X7427386Y-17735357D01*
X7541671Y-17678214D02*
X7541671Y-17735357D01*
X7984528Y-18092500D02*
X7970243Y-18078214D01*
X7941671Y-18035357D01*
X7927386Y-18006786D01*
X7913100Y-17963929D01*
X7898814Y-17892500D01*
X7898814Y-17835357D01*
X7913100Y-17763929D01*
X7927386Y-17721072D01*
X7941671Y-17692500D01*
X7970243Y-17649643D01*
X7984528Y-17635357D01*
X8084528Y-17706786D02*
X8098814Y-17692500D01*
X8127386Y-17678214D01*
X8198814Y-17678214D01*
X8227386Y-17692500D01*
X8241671Y-17706786D01*
X8255957Y-17735357D01*
X8255957Y-17763929D01*
X8241671Y-17806786D01*
X8070243Y-17978214D01*
X8255957Y-17978214D01*
X8613100Y-17978214D02*
X8613100Y-17678214D01*
X8741671Y-17978214D02*
X8741671Y-17821072D01*
X8727386Y-17792500D01*
X8698814Y-17778214D01*
X8655957Y-17778214D01*
X8627386Y-17792500D01*
X8613100Y-17806786D01*
X8927386Y-17978214D02*
X8898814Y-17963929D01*
X8884528Y-17949643D01*
X8870243Y-17921072D01*
X8870243Y-17835357D01*
X8884528Y-17806786D01*
X8898814Y-17792500D01*
X8927386Y-17778214D01*
X8970243Y-17778214D01*
X8998814Y-17792500D01*
X9013100Y-17806786D01*
X9027386Y-17835357D01*
X9027386Y-17921072D01*
X9013100Y-17949643D01*
X8998814Y-17963929D01*
X8970243Y-17978214D01*
X8927386Y-17978214D01*
X9198814Y-17978214D02*
X9170243Y-17963929D01*
X9155957Y-17935357D01*
X9155957Y-17678214D01*
X9427386Y-17963929D02*
X9398814Y-17978214D01*
X9341671Y-17978214D01*
X9313100Y-17963929D01*
X9298814Y-17935357D01*
X9298814Y-17821072D01*
X9313100Y-17792500D01*
X9341671Y-17778214D01*
X9398814Y-17778214D01*
X9427386Y-17792500D01*
X9441671Y-17821072D01*
X9441671Y-17849643D01*
X9298814Y-17878214D01*
X9555957Y-17963929D02*
X9584528Y-17978214D01*
X9641671Y-17978214D01*
X9670243Y-17963929D01*
X9684528Y-17935357D01*
X9684528Y-17921072D01*
X9670243Y-17892500D01*
X9641671Y-17878214D01*
X9598814Y-17878214D01*
X9570243Y-17863929D01*
X9555957Y-17835357D01*
X9555957Y-17821072D01*
X9570243Y-17792500D01*
X9598814Y-17778214D01*
X9641671Y-17778214D01*
X9670243Y-17792500D01*
X9784528Y-18092500D02*
X9798814Y-18078214D01*
X9827386Y-18035357D01*
X9841671Y-18006786D01*
X9855957Y-17963929D01*
X9870243Y-17892500D01*
X9870243Y-17835357D01*
X9855957Y-17763929D01*
X9841671Y-17721072D01*
X9827386Y-17692500D01*
X9798814Y-17649643D01*
X9784528Y-17635357D01*
X3048100Y-18113500D02*
X3298100Y-18363500D01*
X3298100Y-18113500D02*
X3048100Y-18363500D01*
X3173100Y-18113500D02*
X3173100Y-18363500D01*
X3048100Y-18238500D02*
X3298100Y-18238500D01*
X3570243Y-18102786D02*
X3584528Y-18088500D01*
X3613100Y-18074214D01*
X3684528Y-18074214D01*
X3713100Y-18088500D01*
X3727386Y-18102786D01*
X3741671Y-18131357D01*
X3741671Y-18159929D01*
X3727386Y-18202786D01*
X3555957Y-18374214D01*
X3741671Y-18374214D01*
X3870243Y-18345643D02*
X3884528Y-18359929D01*
X3870243Y-18374214D01*
X3855957Y-18359929D01*
X3870243Y-18345643D01*
X3870243Y-18374214D01*
X4155957Y-18074214D02*
X4013100Y-18074214D01*
X3998814Y-18217072D01*
X4013100Y-18202786D01*
X4041671Y-18188500D01*
X4113100Y-18188500D01*
X4141671Y-18202786D01*
X4155957Y-18217072D01*
X4170243Y-18245643D01*
X4170243Y-18317072D01*
X4155957Y-18345643D01*
X4141671Y-18359929D01*
X4113100Y-18374214D01*
X4041671Y-18374214D01*
X4013100Y-18359929D01*
X3998814Y-18345643D01*
X4355957Y-18074214D02*
X4384528Y-18074214D01*
X4413100Y-18088500D01*
X4427386Y-18102786D01*
X4441671Y-18131357D01*
X4455957Y-18188500D01*
X4455957Y-18259929D01*
X4441671Y-18317072D01*
X4427386Y-18345643D01*
X4413100Y-18359929D01*
X4384528Y-18374214D01*
X4355957Y-18374214D01*
X4327386Y-18359929D01*
X4313100Y-18345643D01*
X4298814Y-18317072D01*
X4284528Y-18259929D01*
X4284528Y-18188500D01*
X4298814Y-18131357D01*
X4313100Y-18102786D01*
X4327386Y-18088500D01*
X4355957Y-18074214D01*
X4584528Y-18374214D02*
X4584528Y-18174214D01*
X4584528Y-18202786D02*
X4598814Y-18188500D01*
X4627386Y-18174214D01*
X4670243Y-18174214D01*
X4698814Y-18188500D01*
X4713100Y-18217072D01*
X4713100Y-18374214D01*
X4713100Y-18217072D02*
X4727386Y-18188500D01*
X4755957Y-18174214D01*
X4798814Y-18174214D01*
X4827386Y-18188500D01*
X4841671Y-18217072D01*
X4841671Y-18374214D01*
X4984528Y-18374214D02*
X4984528Y-18174214D01*
X4984528Y-18202786D02*
X4998814Y-18188500D01*
X5027386Y-18174214D01*
X5070243Y-18174214D01*
X5098814Y-18188500D01*
X5113100Y-18217072D01*
X5113100Y-18374214D01*
X5113100Y-18217072D02*
X5127386Y-18188500D01*
X5155957Y-18174214D01*
X5198814Y-18174214D01*
X5227386Y-18188500D01*
X5241671Y-18217072D01*
X5241671Y-18374214D01*
X5827386Y-18059929D02*
X5570243Y-18445643D01*
X6213100Y-18074214D02*
X6241671Y-18074214D01*
X6270243Y-18088500D01*
X6284528Y-18102786D01*
X6298814Y-18131357D01*
X6313100Y-18188500D01*
X6313100Y-18259929D01*
X6298814Y-18317072D01*
X6284528Y-18345643D01*
X6270243Y-18359929D01*
X6241671Y-18374214D01*
X6213100Y-18374214D01*
X6184528Y-18359929D01*
X6170243Y-18345643D01*
X6155957Y-18317072D01*
X6141671Y-18259929D01*
X6141671Y-18188500D01*
X6155957Y-18131357D01*
X6170243Y-18102786D01*
X6184528Y-18088500D01*
X6213100Y-18074214D01*
X6441671Y-18345643D02*
X6455957Y-18359929D01*
X6441671Y-18374214D01*
X6427386Y-18359929D01*
X6441671Y-18345643D01*
X6441671Y-18374214D01*
X6641671Y-18074214D02*
X6670243Y-18074214D01*
X6698814Y-18088500D01*
X6713100Y-18102786D01*
X6727386Y-18131357D01*
X6741671Y-18188500D01*
X6741671Y-18259929D01*
X6727386Y-18317072D01*
X6713100Y-18345643D01*
X6698814Y-18359929D01*
X6670243Y-18374214D01*
X6641671Y-18374214D01*
X6613100Y-18359929D01*
X6598814Y-18345643D01*
X6584528Y-18317072D01*
X6570243Y-18259929D01*
X6570243Y-18188500D01*
X6584528Y-18131357D01*
X6598814Y-18102786D01*
X6613100Y-18088500D01*
X6641671Y-18074214D01*
X6884528Y-18374214D02*
X6941671Y-18374214D01*
X6970243Y-18359929D01*
X6984528Y-18345643D01*
X7013100Y-18302786D01*
X7027386Y-18245643D01*
X7027386Y-18131357D01*
X7013100Y-18102786D01*
X6998814Y-18088500D01*
X6970243Y-18074214D01*
X6913100Y-18074214D01*
X6884528Y-18088500D01*
X6870243Y-18102786D01*
X6855957Y-18131357D01*
X6855957Y-18202786D01*
X6870243Y-18231357D01*
X6884528Y-18245643D01*
X6913100Y-18259929D01*
X6970243Y-18259929D01*
X6998814Y-18245643D01*
X7013100Y-18231357D01*
X7027386Y-18202786D01*
X7198814Y-18202786D02*
X7170243Y-18188500D01*
X7155957Y-18174214D01*
X7141671Y-18145643D01*
X7141671Y-18131357D01*
X7155957Y-18102786D01*
X7170243Y-18088500D01*
X7198814Y-18074214D01*
X7255957Y-18074214D01*
X7284528Y-18088500D01*
X7298814Y-18102786D01*
X7313100Y-18131357D01*
X7313100Y-18145643D01*
X7298814Y-18174214D01*
X7284528Y-18188500D01*
X7255957Y-18202786D01*
X7198814Y-18202786D01*
X7170243Y-18217072D01*
X7155957Y-18231357D01*
X7141671Y-18259929D01*
X7141671Y-18317072D01*
X7155957Y-18345643D01*
X7170243Y-18359929D01*
X7198814Y-18374214D01*
X7255957Y-18374214D01*
X7284528Y-18359929D01*
X7298814Y-18345643D01*
X7313100Y-18317072D01*
X7313100Y-18259929D01*
X7298814Y-18231357D01*
X7284528Y-18217072D01*
X7255957Y-18202786D01*
X7427386Y-18074214D02*
X7427386Y-18131357D01*
X7541671Y-18074214D02*
X7541671Y-18131357D01*
X7984528Y-18488500D02*
X7970243Y-18474214D01*
X7941671Y-18431357D01*
X7927386Y-18402786D01*
X7913100Y-18359929D01*
X7898814Y-18288500D01*
X7898814Y-18231357D01*
X7913100Y-18159929D01*
X7927386Y-18117072D01*
X7941671Y-18088500D01*
X7970243Y-18045643D01*
X7984528Y-18031357D01*
X8227386Y-18174214D02*
X8227386Y-18374214D01*
X8155957Y-18059929D02*
X8084528Y-18274214D01*
X8270243Y-18274214D01*
X8613100Y-18374214D02*
X8613100Y-18074214D01*
X8741671Y-18374214D02*
X8741671Y-18217072D01*
X8727386Y-18188500D01*
X8698814Y-18174214D01*
X8655957Y-18174214D01*
X8627386Y-18188500D01*
X8613100Y-18202786D01*
X8927386Y-18374214D02*
X8898814Y-18359929D01*
X8884528Y-18345643D01*
X8870243Y-18317072D01*
X8870243Y-18231357D01*
X8884528Y-18202786D01*
X8898814Y-18188500D01*
X8927386Y-18174214D01*
X8970243Y-18174214D01*
X8998814Y-18188500D01*
X9013100Y-18202786D01*
X9027386Y-18231357D01*
X9027386Y-18317072D01*
X9013100Y-18345643D01*
X8998814Y-18359929D01*
X8970243Y-18374214D01*
X8927386Y-18374214D01*
X9198814Y-18374214D02*
X9170243Y-18359929D01*
X9155957Y-18331357D01*
X9155957Y-18074214D01*
X9427386Y-18359929D02*
X9398814Y-18374214D01*
X9341671Y-18374214D01*
X9313100Y-18359929D01*
X9298814Y-18331357D01*
X9298814Y-18217072D01*
X9313100Y-18188500D01*
X9341671Y-18174214D01*
X9398814Y-18174214D01*
X9427386Y-18188500D01*
X9441671Y-18217072D01*
X9441671Y-18245643D01*
X9298814Y-18274214D01*
X9555957Y-18359929D02*
X9584528Y-18374214D01*
X9641671Y-18374214D01*
X9670243Y-18359929D01*
X9684528Y-18331357D01*
X9684528Y-18317072D01*
X9670243Y-18288500D01*
X9641671Y-18274214D01*
X9598814Y-18274214D01*
X9570243Y-18259929D01*
X9555957Y-18231357D01*
X9555957Y-18217072D01*
X9570243Y-18188500D01*
X9598814Y-18174214D01*
X9641671Y-18174214D01*
X9670243Y-18188500D01*
X9784528Y-18488500D02*
X9798814Y-18474214D01*
X9827386Y-18431357D01*
X9841671Y-18402786D01*
X9855957Y-18359929D01*
X9870243Y-18288500D01*
X9870243Y-18231357D01*
X9855957Y-18159929D01*
X9841671Y-18117072D01*
X9827386Y-18088500D01*
X9798814Y-18045643D01*
X9784528Y-18031357D01*
M02*
